<svg width="24" height="24" viewBox="0 0 24 24" fill="none" xmlns="http://www.w3.org/2000/svg">
<path d="M7.73557 4.34179L9.6069 6.58738L7.19308 9.80585H3.44241L7.73557 4.34179Z" fill="url(#paint0_linear_2752_16962)" stroke="url(#paint1_linear_2752_16962)" stroke-width="0.43006"/>
<path d="M12.0261 4.34179L10.1548 6.58738L12.5686 9.80585H16.3193L12.0261 4.34179Z" fill="url(#paint2_linear_2752_16962)" stroke="url(#paint3_linear_2752_16962)" stroke-width="0.43006"/>
<mask id="path-3-inside-1_2752_16962" fill="white">
<path fill-rule="evenodd" clip-rule="evenodd" d="M3.00352 11.5265C2.99987 11.4078 3.09648 11.311 3.21524 11.311L7.08575 11.311C7.20451 11.311 7.29985 11.4076 7.30961 11.526C7.41884 12.8505 8.52844 13.8914 9.88114 13.8914C11.2338 13.8914 12.3434 12.8505 12.4527 11.526C12.4624 11.4076 12.5578 11.311 12.6765 11.311L16.5471 11.311C16.6658 11.311 16.7625 11.4078 16.7588 11.5265C16.7478 11.8837 16.7096 12.2341 16.6462 12.5756C15.7329 12.3591 14.7562 12.4402 13.8628 12.8735C11.99 13.7819 11.1061 15.9364 11.652 17.962C11.087 18.112 10.4934 18.192 9.88116 18.192C6.15301 18.192 3.11736 15.227 3.00352 11.5265Z"/>
</mask>
<path fill-rule="evenodd" clip-rule="evenodd" d="M3.00352 11.5265C2.99987 11.4078 3.09648 11.311 3.21524 11.311L7.08575 11.311C7.20451 11.311 7.29985 11.4076 7.30961 11.526C7.41884 12.8505 8.52844 13.8914 9.88114 13.8914C11.2338 13.8914 12.3434 12.8505 12.4527 11.526C12.4624 11.4076 12.5578 11.311 12.6765 11.311L16.5471 11.311C16.6658 11.311 16.7625 11.4078 16.7588 11.5265C16.7478 11.8837 16.7096 12.2341 16.6462 12.5756C15.7329 12.3591 14.7562 12.4402 13.8628 12.8735C11.99 13.7819 11.1061 15.9364 11.652 17.962C11.087 18.112 10.4934 18.192 9.88116 18.192C6.15301 18.192 3.11736 15.227 3.00352 11.5265Z" fill="url(#paint4_linear_2752_16962)"/>
<path d="M3.21524 11.311L3.21524 11.7411L3.21524 11.311ZM3.00352 11.5265L3.43337 11.5133L3.00352 11.5265ZM7.08575 11.311V10.881H7.08575L7.08575 11.311ZM7.30961 11.526L7.73821 11.4906V11.4906L7.30961 11.526ZM12.4527 11.526L12.8813 11.5613V11.5613L12.4527 11.526ZM12.6765 11.311V10.881V11.311ZM16.5471 11.311V10.881V11.311ZM16.7588 11.5265L16.3289 11.5133V11.5133L16.7588 11.5265ZM16.6462 12.5756L16.547 12.994L16.9865 13.0982L17.069 12.6541L16.6462 12.5756ZM13.8628 12.8735L13.6751 12.4865L13.8628 12.8735ZM11.652 17.962L11.7624 18.3776L12.1796 18.2668L12.0673 17.85L11.652 17.962ZM3.21524 10.881C2.86124 10.881 2.56232 11.1711 2.57366 11.5397L3.43337 11.5133C3.43741 11.6446 3.33172 11.7411 3.21524 11.7411L3.21524 10.881ZM7.08575 10.881L3.21524 10.881L3.21524 11.7411L7.08575 11.7411L7.08575 10.881ZM7.73821 11.4906C7.71194 11.1722 7.45061 10.881 7.08575 10.881V11.7411C6.9584 11.7411 6.88775 11.6431 6.881 11.5613L7.73821 11.4906ZM9.88114 13.4613C8.7541 13.4613 7.82921 12.5939 7.73821 11.4906L6.881 11.5613C7.00848 13.107 8.30277 14.3214 9.88114 14.3214V13.4613ZM12.0241 11.4906C11.9331 12.5939 11.0082 13.4613 9.88114 13.4613V14.3214C11.4595 14.3214 12.7538 13.107 12.8813 11.5613L12.0241 11.4906ZM12.6765 10.881C12.3117 10.881 12.0503 11.1722 12.0241 11.4906L12.8813 11.5613C12.8745 11.6431 12.8039 11.7411 12.6765 11.7411V10.881ZM16.5471 10.881L12.6765 10.881V11.7411L16.5471 11.7411V10.881ZM17.1887 11.5397C17.2 11.1711 16.9011 10.881 16.5471 10.881V11.7411C16.4306 11.7411 16.3249 11.6446 16.3289 11.5133L17.1887 11.5397ZM17.069 12.6541C17.1364 12.2911 17.177 11.919 17.1887 11.5397L16.3289 11.5133C16.3186 11.8485 16.2828 12.177 16.2233 12.497L17.069 12.6541ZM14.0505 13.2604C14.8498 12.8727 15.7247 12.7992 16.547 12.994L16.7453 12.1571C15.7411 11.9191 14.6625 12.0076 13.6751 12.4865L14.0505 13.2604ZM12.0673 17.85C11.5703 16.0062 12.3794 14.071 14.0505 13.2604L13.6751 12.4865C11.6006 13.4928 10.6419 15.8666 11.2368 18.0739L12.0673 17.85ZM9.88116 18.622C10.531 18.622 11.1617 18.5371 11.7624 18.3776L11.5416 17.5463C11.0123 17.6869 10.4558 17.7619 9.88116 17.7619V18.622ZM2.57366 11.5397C2.69462 15.4718 5.91992 18.622 9.88116 18.622V17.7619C6.3861 17.7619 3.54009 14.9823 3.43337 11.5133L2.57366 11.5397Z" fill="url(#paint5_linear_2752_16962)" mask="url(#path-3-inside-1_2752_16962)"/>
<path d="M13.9919 15.6565C13.8022 15.3848 13.4281 15.3184 13.1565 15.5081C12.8848 15.6978 12.8184 16.0719 13.0081 16.3435L13.9919 15.6565ZM14.9772 18.1153L15.4691 17.7718L14.9772 18.1153ZM16.123 18.0796L15.6106 17.7674V17.7674L16.123 18.0796ZM18.5123 15.3123C18.6848 15.0293 18.5952 14.6601 18.3123 14.4877C18.0293 14.3152 17.6601 14.4048 17.4877 14.6877L18.5123 15.3123ZM13.0081 16.3435L14.4853 18.4588L15.4691 17.7718L13.9919 15.6565L13.0081 16.3435ZM16.6353 18.3919L18.5123 15.3123L17.4877 14.6877L15.6106 17.7674L16.6353 18.3919ZM14.4853 18.4588C15.0161 19.2189 16.1528 19.1835 16.6353 18.3919L15.6106 17.7674C15.5789 17.8195 15.5041 17.8218 15.4691 17.7718L14.4853 18.4588Z" fill="url(#paint6_linear_2752_16962)"/>
<defs>
<linearGradient id="paint0_linear_2752_16962" x1="2.87229" y1="6.21175" x2="11.1322" y2="6.23894" gradientUnits="userSpaceOnUse">
<stop stop-color="#F4E9FF"/>
<stop offset="1" stop-color="#C4B5FF"/>
</linearGradient>
<linearGradient id="paint1_linear_2752_16962" x1="2.87229" y1="6.21175" x2="11.1322" y2="6.23894" gradientUnits="userSpaceOnUse">
<stop stop-color="#F4E9FF"/>
<stop offset="1" stop-color="#C4B5FF"/>
</linearGradient>
<linearGradient id="paint2_linear_2752_16962" x1="16.8894" y1="6.21175" x2="8.62954" y2="6.23894" gradientUnits="userSpaceOnUse">
<stop stop-color="#F4E9FF"/>
<stop offset="1" stop-color="#C4B5FF"/>
</linearGradient>
<linearGradient id="paint3_linear_2752_16962" x1="16.8894" y1="6.21175" x2="8.62954" y2="6.23894" gradientUnits="userSpaceOnUse">
<stop stop-color="#F4E9FF"/>
<stop offset="1" stop-color="#C4B5FF"/>
</linearGradient>
<linearGradient id="paint4_linear_2752_16962" x1="2.74813" y1="13.8387" x2="19.2598" y2="13.9338" gradientUnits="userSpaceOnUse">
<stop stop-color="#F4E9FF"/>
<stop offset="1" stop-color="#C4B5FF"/>
</linearGradient>
<linearGradient id="paint5_linear_2752_16962" x1="2.74813" y1="13.8387" x2="19.2598" y2="13.9338" gradientUnits="userSpaceOnUse">
<stop stop-color="#F4E9FF"/>
<stop offset="1" stop-color="#C4B5FF"/>
</linearGradient>
<linearGradient id="paint6_linear_2752_16962" x1="13.4165" y1="16.4601" x2="18.8183" y2="16.4777" gradientUnits="userSpaceOnUse">
<stop stop-color="#F4E9FF"/>
<stop offset="1" stop-color="#C4B5FF"/>
</linearGradient>
</defs>
</svg>
