<svg width="24" height="24" viewBox="0 0 24 24" fill="none" xmlns="http://www.w3.org/2000/svg">
<mask id="path-1-inside-1" fill="white">
<path fill-rule="evenodd" clip-rule="evenodd" d="M20.6143 12.7007C21.5147 12.7007 21.9565 11.6039 21.3073 10.9798L12.5754 2.58549C12.1883 2.21336 11.5764 2.21336 11.1893 2.58549L2.45741 10.9798C1.80828 11.6039 2.25001 12.7007 3.15045 12.7007H3.31604C3.86833 12.7007 4.31604 13.1485 4.31604 13.7007V20.7633C4.31604 21.3155 4.76376 21.7633 5.31604 21.7633H8.40262C8.9549 21.7633 9.40261 21.3155 9.40261 20.7633V17.3557C9.40261 16.8035 9.85033 16.3557 10.4026 16.3557H13.4892C14.0415 16.3557 14.4892 16.8035 14.4892 17.3557V20.7633C14.4892 21.3155 14.9369 21.7633 15.4892 21.7633H18.5757C19.128 21.7633 19.5757 21.3155 19.5757 20.7633V13.7007C19.5757 13.1485 20.0234 12.7007 20.5757 12.7007H20.6143Z"/>
</mask>
<path d="M2.45741 10.9798L1.48717 9.97058L2.45741 10.9798ZM21.3073 10.9798L22.2776 9.97058L21.3073 10.9798ZM11.1893 2.58549L10.2191 1.57623L11.1893 2.58549ZM11.6052 3.59476L20.3371 11.9891L22.2776 9.97058L13.5457 1.57623L11.6052 3.59476ZM3.42766 11.9891L12.1596 3.59476L10.2191 1.57623L1.48717 9.97058L3.42766 11.9891ZM3.31604 11.3007H3.15045V14.1007H3.31604V11.3007ZM2.91604 13.7007V20.7633H5.71604V13.7007H2.91604ZM5.31604 23.1633H8.40262V20.3633H5.31604V23.1633ZM10.8026 20.7633V17.3557H8.00261V20.7633H10.8026ZM10.4026 17.7557H13.4892V14.9557H10.4026V17.7557ZM13.0892 17.3557V20.7633H15.8892V17.3557H13.0892ZM15.4892 23.1633H18.5757V20.3633H15.4892V23.1633ZM20.9757 20.7633V13.7007H18.1757V20.7633H20.9757ZM20.6143 11.3007H20.5757V14.1007H20.6143V11.3007ZM20.9757 13.7007C20.9757 13.9217 20.7966 14.1007 20.5757 14.1007V11.3007C19.2502 11.3007 18.1757 12.3753 18.1757 13.7007H20.9757ZM18.5757 23.1633C19.9012 23.1633 20.9757 22.0887 20.9757 20.7633H18.1757C18.1757 20.5423 18.3548 20.3633 18.5757 20.3633V23.1633ZM13.0892 20.7633C13.0892 22.0887 14.1637 23.1633 15.4892 23.1633V20.3633C15.7101 20.3633 15.8892 20.5423 15.8892 20.7633H13.0892ZM13.4892 17.7557C13.2683 17.7557 13.0892 17.5767 13.0892 17.3557H15.8892C15.8892 16.0303 14.8147 14.9557 13.4892 14.9557V17.7557ZM10.8026 17.3557C10.8026 17.5766 10.6235 17.7557 10.4026 17.7557V14.9557C9.07713 14.9557 8.00261 16.0303 8.00261 17.3557H10.8026ZM8.40262 23.1633C9.7281 23.1633 10.8026 22.0887 10.8026 20.7633H8.00261C8.00261 20.5423 8.1817 20.3633 8.40262 20.3633V23.1633ZM2.91604 20.7633C2.91604 22.0887 3.99056 23.1633 5.31604 23.1633V20.3633C5.53696 20.3633 5.71604 20.5423 5.71604 20.7633H2.91604ZM3.31604 14.1007C3.09513 14.1007 2.91604 13.9217 2.91604 13.7007H5.71604C5.71604 12.3753 4.64153 11.3007 3.31604 11.3007V14.1007ZM1.48717 9.97058C-0.0707488 11.4683 0.9894 14.1007 3.15045 14.1007V11.3007C3.51062 11.3007 3.68732 11.7395 3.42766 11.9891L1.48717 9.97058ZM20.3371 11.9891C20.0774 11.7395 20.2541 11.3007 20.6143 11.3007V14.1007C22.7753 14.1007 23.8355 11.4683 22.2776 9.97058L20.3371 11.9891ZM13.5457 1.57623C12.6166 0.683121 11.1481 0.683119 10.2191 1.57623L12.1596 3.59476C12.0047 3.74361 11.76 3.74361 11.6052 3.59476L13.5457 1.57623Z" fill="white" mask="url(#path-1-inside-1)"/>
</svg>
