<svg width="30" height="30" viewBox="0 0 30 30" fill="none" xmlns="http://www.w3.org/2000/svg">
<path d="M15 30C23.2843 30 30 23.2843 30 15C30 6.71573 23.2843 0 15 0C6.71573 0 0 6.71573 0 15C0 23.2843 6.71573 30 15 30Z" fill="#9388AD"/>
<path d="M23.9912 15.869C23.9123 14.0222 23.3038 12.3829 22.0078 11.006C21.1513 10.0989 20.216 9.24655 19.337 8.36136C17.6578 6.70028 15.573 5.9353 13.2064 5.88066C11.5724 5.83695 9.93833 5.86973 8.293 5.85881C8.21412 5.85881 8.13523 5.85881 8.01127 5.85881C8.01127 5.97902 8 6.05551 8 6.14294C8 11.159 8 16.175 8.01127 21.1911C8.01127 21.3222 8.07889 21.4752 8.16904 21.5626C8.96916 22.3604 9.79183 23.1472 10.6032 23.945C10.7497 24.087 10.885 24.1526 11.0878 24.1417C12.5754 24.1308 14.0629 24.1526 15.5505 24.1308C16.2266 24.1198 16.9141 24.0761 17.5902 23.945C19.8103 23.5297 21.6134 22.4587 22.8192 20.5572C23.7433 19.1256 24.0588 17.552 23.9912 15.869ZM23.6644 16.3717C23.5742 16.2843 23.5179 16.2297 23.4728 16.186C22.8192 15.5631 22.1768 14.9292 21.5345 14.2954C21.388 14.1533 21.3993 14.197 21.3993 14.0222C21.264 12.2846 21.2978 12.0223 20.509 9.96781C22.4698 11.6617 23.732 13.7053 23.6644 16.3717ZM18.627 12.4485C18.8186 13.7818 18.7735 15.0604 18.1537 16.2734C17.3986 17.7596 16.1027 18.5902 14.4573 18.9289C14.108 19.0054 13.7361 19.0382 13.3642 19.0929C13.3642 16.339 13.3642 13.6178 13.3642 10.8639C13.9164 10.8639 14.4573 10.853 14.9983 10.8639C15.6744 10.8858 16.3619 10.9404 17.038 10.9732C17.0606 10.9732 17.0718 10.9732 17.0944 10.9841C17.9396 11.1481 18.4918 11.5305 18.627 12.4485ZM16.8239 9.48697C17.1169 9.7711 17.4212 10.0552 17.7142 10.3394C17.7029 10.3503 17.6804 10.3722 17.6691 10.3831C17.3761 10.088 17.0944 9.79296 16.8014 9.50883C16.8014 9.50883 16.8126 9.4979 16.8239 9.48697ZM15.7646 8.90777C15.8773 8.97334 16.0125 9.02798 16.1139 9.11541C16.745 9.71646 17.3761 10.3284 17.9734 10.9841C17.8607 10.9186 17.6466 10.8311 17.5902 10.7765C16.8915 10.1099 16.3619 9.57439 15.7308 8.96242C15.742 8.94056 15.7533 8.92963 15.7646 8.90777ZM14.9757 8.61271C15.0997 8.66735 15.2575 8.68921 15.3476 8.77664C16.0238 9.4214 16.7112 10.0989 17.3761 10.7546C17.2521 10.7109 16.9479 10.6454 16.9028 10.6344C16.8239 10.547 16.869 10.5907 16.7676 10.4814C16.2041 9.83667 15.5505 9.27933 14.9306 8.67828C14.9532 8.65643 14.9645 8.63457 14.9757 8.61271ZM14.8405 8.75478C15.3814 9.31212 15.9449 9.83667 16.4971 10.3722C16.5647 10.4377 16.621 10.5033 16.6999 10.5907C16.2266 10.5361 16.2266 10.5689 16.035 10.394C15.3814 9.74925 14.7165 9.11541 14.0291 8.43786C14.3897 8.44879 14.6264 8.52529 14.8405 8.75478ZM14.0967 8.6455C14.7053 9.27933 15.3589 9.88038 16.0238 10.5251C15.4152 10.4705 15.404 10.5798 15.1448 10.3175C14.5137 9.66182 13.8488 9.04984 13.1501 8.37229C13.5558 8.32858 13.8375 8.37229 14.0967 8.6455ZM13.2515 8.60178C13.8601 9.25748 14.4799 9.81482 15.1898 10.4924C14.8968 10.4924 14.6264 10.5033 14.4123 10.4924C14.3559 10.4924 14.3221 10.4268 14.2883 10.394C13.5671 9.70553 12.9134 9.09355 12.1358 8.33951C12.5754 8.33951 12.9247 8.24115 13.2515 8.60178ZM13.5671 10.5361C13.4431 10.4159 13.2741 10.2629 13.2402 10.2301C13.0374 10.0443 13.0374 10.0443 11.5611 8.55807C11.5048 8.4925 11.4033 8.39415 11.347 8.32858C11.7189 8.32858 11.9105 8.28487 12.2147 8.569C12.8684 9.20284 13.5671 9.85853 14.2432 10.5251L13.5671 10.5361ZM11.1441 8.33951C11.1667 8.35044 11.1441 8.33951 11.2005 8.39415C11.933 9.08263 12.7106 9.8476 13.4318 10.547C13.2966 10.547 13.2402 10.547 13.1163 10.547C13.0374 10.4705 13.0825 10.5033 13.0261 10.4487C12.3162 9.76017 11.5386 9.02798 10.8286 8.33951C10.885 8.33951 11.054 8.33951 11.1441 8.33951ZM10.6821 8.35044C11.4484 9.09355 12.2035 9.80389 12.9247 10.5361C13.0374 10.6563 13.0261 10.6454 13.0261 10.8093C13.0261 11.0278 13.0261 11.1043 13.0261 11.2573C12.7895 11.006 12.4514 10.6344 12.2035 10.3831C11.764 9.94595 11.3245 9.51975 10.8737 9.09355C10.6032 8.85313 10.5919 8.79849 10.6821 8.35044ZM11.3019 13.1261C11.1667 12.984 11.0202 12.8529 10.885 12.7217C10.5919 12.4376 10.5919 12.4157 10.6708 11.9677C11.0202 12.3064 11.3583 12.6343 11.6851 12.9621C11.7076 12.9403 11.7302 12.9294 11.7527 12.9075C11.7302 12.8638 11.7076 12.8091 11.6625 12.7764C11.4033 12.525 11.1667 12.2518 10.8962 12.0223C10.6483 11.8147 10.5807 11.5852 10.6708 11.2464C10.9188 11.4868 11.1554 11.7163 11.3921 11.9458C11.6175 12.1644 11.8428 12.3829 12.0682 12.6015C12.0908 12.5797 12.1133 12.5578 12.1358 12.5359C12.0908 12.4813 12.0457 12.4157 12.0006 12.3611C11.6175 11.9895 11.2568 11.5961 10.8511 11.2464C10.6145 11.0388 10.6258 10.8202 10.6596 10.5798C10.6821 10.5579 10.7159 10.5361 10.7385 10.5142C11.3019 11.0825 11.8767 11.6617 12.4401 12.2299C12.4627 12.2081 12.4852 12.1972 12.5077 12.1753C12.4627 12.1097 12.4176 12.0551 12.3612 11.9895C11.8767 11.5087 11.3921 11.0278 10.8962 10.5579C10.6145 10.2847 10.6145 10.2847 10.6596 9.80389C11.3921 10.5033 12.102 11.1808 12.812 11.8584C12.8345 11.8365 12.8571 11.8256 12.8796 11.8037C12.8233 11.7382 12.7782 11.6617 12.7219 11.607C12.1133 11.0169 11.516 10.4159 10.885 9.8476C10.6596 9.63996 10.5807 9.43233 10.6596 9.10448C10.9526 9.37769 11.2343 9.63996 11.5048 9.89131C11.9668 10.3284 12.4289 10.7656 12.8796 11.2136C12.9472 11.2792 13.0036 11.3775 13.0036 11.465C13.0036 13.9785 13.0036 16.4919 13.0036 19.0054C13.0036 19.0273 12.9923 19.0382 12.9811 19.071C12.2147 19.071 11.4484 19.071 10.6483 19.071C10.6483 17.2023 10.6483 15.3336 10.6483 13.4321C10.761 13.5195 10.8511 13.585 10.9413 13.6506C10.9751 13.6288 10.9976 13.6178 11.0315 13.596C10.7948 13.3446 10.4793 13.1151 10.6821 12.6999C10.8962 12.9075 11.0991 13.1042 11.3132 13.3009C11.3357 13.2791 11.3583 13.2681 11.3808 13.2463C11.3583 13.2135 11.3357 13.1588 11.3019 13.1261ZM11.0202 23.7592C10.2313 22.9942 9.45375 22.2293 8.66489 21.4752C9.45375 22.2293 10.2426 22.9942 11.0202 23.7592C11.0202 23.7592 11.0315 23.7592 11.0202 23.7592ZM8.94662 21.5189C9.12693 21.5408 11.1103 23.3986 11.3583 23.7811C11.178 23.7483 9.22836 21.9233 8.94662 21.5189ZM11.516 23.7046C10.5356 22.7647 9.41994 21.6282 9.34105 21.5845C9.32978 21.5845 9.32978 21.5736 9.32978 21.5736C9.30724 21.5517 9.29597 21.5517 9.29597 21.5517C9.29597 21.5408 9.37486 21.5517 9.44248 21.5626C9.48755 21.5626 9.53263 21.5736 9.55517 21.5736C9.56644 21.5845 9.57771 21.5954 9.57771 21.5954C10.6145 22.5899 11.1103 23.0817 11.8428 23.792C11.7414 23.792 11.7189 23.792 11.6062 23.8029C11.5386 23.7264 11.5724 23.7701 11.516 23.7046ZM11.9443 23.7264C11.2005 22.9942 10.4567 22.2839 9.71294 21.5517C9.76929 21.5517 9.81436 21.5517 9.87071 21.5408C9.91579 21.5408 9.96087 21.5408 9.99467 21.5408C10.0172 21.5517 10.0398 21.5626 10.0623 21.5845C10.6258 22.1309 11.1667 22.6555 12.3274 23.7811C12.1471 23.7811 12.1584 23.7811 12.0119 23.7811C11.9893 23.7592 11.9668 23.7483 11.9443 23.7264ZM12.5077 23.7811C12.4627 23.7373 12.4965 23.7592 12.395 23.6718C11.6738 22.9942 10.9864 22.3167 10.2877 21.6282C10.2764 21.6173 10.2651 21.6063 10.2651 21.6063C10.2426 21.5845 10.2201 21.5517 10.1975 21.5408C10.2651 21.5408 10.3328 21.5408 10.3891 21.5408C10.4454 21.5408 10.5018 21.5408 10.5581 21.5408C10.6032 21.5845 10.637 21.6173 10.6821 21.661C11.3583 22.273 12.0344 22.9177 12.688 23.6062C12.7331 23.6608 12.812 23.7373 12.8684 23.792C12.7106 23.7811 12.6317 23.792 12.5077 23.7811ZM10.9188 21.7266C10.8511 21.661 10.7948 21.5954 10.7272 21.5298C10.8962 21.5408 11.054 21.5517 11.223 21.5626C11.2568 21.5954 11.2906 21.6173 11.3132 21.6501C12.0682 22.3495 12.812 23.0817 13.5107 23.8029C13.3417 23.8029 13.1614 23.8029 12.9811 23.792C12.3049 23.1254 11.6062 22.426 10.9188 21.7266ZM11.5837 21.7375C11.4935 21.6501 11.4146 21.5736 11.3808 21.5408C11.5611 21.5408 11.7527 21.5408 11.933 21.5517C11.9781 21.5954 12.057 21.6719 12.1584 21.7703C12.4063 22.0107 12.5866 22.1746 12.6768 22.262C13.1952 22.7429 13.5445 23.1254 14.0066 23.5734C14.0742 23.639 14.1643 23.7264 14.2432 23.8138C14.0516 23.8138 13.8488 23.8029 13.6572 23.8029C13.4882 23.639 12.5754 22.6773 11.5837 21.7375ZM14.1418 23.5297C13.815 23.2019 13.4882 22.874 13.1388 22.5352C12.7895 22.1965 12.4401 21.8686 12.102 21.5517C12.2373 21.5626 12.3838 21.5626 12.5303 21.5626C12.6204 21.5626 12.7219 21.5626 12.812 21.5626C12.8458 21.5954 12.9022 21.6501 12.9698 21.7156C13.229 21.967 13.4093 22.1637 13.4656 22.2183C13.9277 22.6664 14.401 23.1144 14.8743 23.5625C14.9419 23.6281 15.0433 23.7264 15.1335 23.8138C15.0208 23.8138 14.8292 23.8248 14.7053 23.8248C14.5926 23.8248 14.525 23.8248 14.4235 23.8248C14.3221 23.7264 14.2319 23.6062 14.1418 23.5297ZM14.987 23.5297C14.3446 22.8522 13.6459 22.2183 12.9472 21.5408C13.105 21.5517 13.2741 21.5626 13.4544 21.5517C13.5445 21.5517 13.6347 21.5408 13.7136 21.5298C13.7699 21.5954 13.8713 21.6938 13.984 21.8031C14.2094 22.0325 14.3897 22.1965 14.5137 22.3058C14.9757 22.732 15.5392 23.3549 16.0012 23.8029C15.7533 23.8248 15.4828 23.8357 15.2687 23.8138C15.1898 23.7373 15.2913 23.8466 14.987 23.5297ZM16.1703 23.8029C16.1365 23.7701 16.0689 23.6936 15.7082 23.2893C15.2011 22.721 14.6151 22.2183 14.0742 21.6828C14.0066 21.6173 13.9502 21.5517 13.8713 21.4643C14.1305 21.4315 14.3446 21.3987 14.5588 21.3769C14.6151 21.3769 14.694 21.3987 14.7278 21.4315C15.5054 22.1746 16.2717 22.9287 17.0493 23.6718C16.9028 23.7483 16.4182 23.8138 16.1703 23.8029ZM17.3536 23.6718C17.2972 23.6827 17.2071 23.6499 17.162 23.6062C16.3957 22.8631 15.6293 22.12 14.818 21.3331C15.1222 21.2676 15.3814 21.2129 15.6293 21.1583C15.6857 21.1474 15.7646 21.1801 15.7984 21.2129C16.576 21.956 17.3423 22.7101 18.1537 23.486C17.8607 23.5734 17.6015 23.6281 17.3536 23.6718ZM16.7563 20.8086C16.869 20.896 17.2071 21.1801 17.4212 21.3878C18.0184 21.956 18.6045 22.5352 19.2355 23.1472C18.8862 23.3002 18.5932 23.4095 18.2889 23.4532C18.2664 23.4532 18.2438 23.4095 18.1988 23.3767C17.4212 22.6336 16.621 21.8686 15.8322 21.1036L16.7563 20.8086ZM19.337 23.0817C19.3257 23.0817 19.2919 23.0489 19.2581 23.0052C18.4692 22.2511 17.6916 21.4971 16.9028 20.7212C17.2409 20.5463 17.5564 20.3824 17.8381 20.2294C18.6608 21.0162 19.4722 21.8031 20.2949 22.6117C20.0244 22.7538 19.6863 22.9614 19.337 23.0817ZM20.509 22.4806C19.675 21.6719 18.8636 20.896 18.0523 20.0983C18.334 19.8906 18.6383 19.6502 18.9313 19.4426C19.7427 20.2294 20.5428 21.0053 21.3767 21.814C21.0612 22.0981 20.8358 22.2839 20.509 22.4806ZM21.5345 21.6719C20.7006 20.8632 19.8892 20.0764 19.089 19.3005C19.382 18.9836 19.6863 18.6448 19.968 18.317C20.7569 19.0819 21.557 19.8578 22.3797 20.6665C22.1092 21.0818 21.8162 21.4643 21.5345 21.6719ZM23.1911 19.0601C23.0108 19.6502 22.8305 19.9671 22.5149 20.5245C22.4022 20.4152 22.3684 20.3824 22.3121 20.3387C21.6134 19.6611 20.9259 18.9836 20.2272 18.317C20.0807 18.1858 20.0807 18.0984 20.1822 17.9345C20.4301 17.5301 20.6442 17.1149 20.8809 16.6668C21.6359 17.399 22.391 18.1312 23.1347 18.8634C23.1911 18.8962 23.2136 19.0054 23.1911 19.0601ZM23.27 18.8087C22.7065 18.2623 21.557 17.093 20.9823 16.5575C21.0724 16.2515 21.1401 16.022 21.2302 15.6505C21.2753 15.3445 21.3542 14.7434 21.3993 14.35C22.1543 15.0822 22.8755 15.7925 23.5968 16.4919C23.6982 16.5903 23.6644 16.5575 23.6644 16.6887C23.6419 17.4427 23.5517 18.1203 23.3038 18.7541L23.27 18.8087ZM20.9823 16.5684C21.0724 16.2625 21.1401 16.033 21.2302 15.6614C21.2753 15.3554 21.3767 14.7981 21.3993 14.3609" fill="white"/>
</svg>
