<svg width="25" height="25" fill="none" xmlns="http://www.w3.org/2000/svg"><path d="M12.5 25C19.4036 25 25 19.4036 25 12.5 25 5.59644 19.4036 0 12.5 0 5.59644 0 0 5.59644 0 12.5 0 19.4036 5.59644 25 12.5 25Z" fill="#D6D0E5"/><path fill-rule="evenodd" clip-rule="evenodd" d="M8.00954 6.05943c.00195-.01608.00406-.0334.00616-.05242h.25123c.35851 0 .71703-.00175 1.07555-.0035.71702-.00351 1.43402-.00702 2.15112.0035 1.6722.03155 3.1324.56789 4.3179 1.79832.2381.24586.4818.48613.7252.72611V8.53147c.3344.32969.6682.65883.9863 1.00119 1.2011 1.30144 1.6172 2.85524 1.4366 4.59044-.1727 1.6642-.9263 2.9972-2.3238 3.9279-.8636.5679-1.8214.8834-2.8498.9149-.9984.0379-1.9918.0354-2.9882.0328H10.7822c-.2442-.0006-.4885-.0012-.7332-.0012-.07846 0-.16482-.0395-.21978-.0947-.58095-.5757-1.15406-1.1515-1.72716-1.7352C8.0471 17.1124 8 17.0099 8 16.931V6.17265c0-.03465.00421-.06929.00954-.11322ZM18.7552 13.4921c.0471-1.9245-.793-3.3521-2.1747-4.57462.022.04855.0341.07981.0433.10346v.00002c.0072.0186.0126.03249.0195.04638.3926.84395.5731 1.73526.5653 2.66596 0 .0946.0471.2129.1099.2839.2041.2209.4152.4347.6263.6485.1056.1069.2111.2139.3158.3217.1422.1357.278.2779.4424.4501l.0522.0546Zm-1.5231-1.4355c.1652.166.3303.331.4952.4958.3288.3286.6565.6561.9808.9871.0392.0394.0628.1183.0549.1735-.0628.489-.1256.978-.2041 1.5222-.0497-.0457-.0862-.0761-.1155-.1004-.0262-.0218-.0465-.0387-.0651-.0573-.1547-.1554-.3085-.3108-.462-.466-.3062-.3093-.6112-.6175-.9197-.9222-.0864-.0867-.1021-.1498-.0707-.2681.0949-.3811.178-.7681.2646-1.1711l.0416-.1935Zm-.3769 1.6407c-.1884.3549-.3689.7019-.526 1.0095.5567.5514 1.1056 1.1028 1.6779 1.6778l.0005.0005.001.001.0006.0007h.0001v.0001c.1256-.284.2669-.5837.4082-.8834.0629-.1341.0472-.2209-.0628-.3234-.3475-.3373-.6906-.6835-1.0326-1.0286l-.0001-.0001-.0001-.0001-.0001-.0001-.0001-.0001-.0001-.0001-.0001-.0001-.0004-.0004-.0024-.0024-.0001-.0001c-.1126-.1137-.2252-.2272-.3377-.3403-.0393-.0394-.0864-.0789-.1257-.1104Zm1.0367 2.8315c-.1041.1318-.2159.2688-.3296.4081-.0836.1024-.1682.206-.2514.3096-.1925-.1934-.3824-.385-.5708-.5752l-.0001-.0001-.0001-.0001-.0004-.0004-.0007-.0007c-.372-.3754-.7382-.7451-1.108-1.1114.1963-.2208.4083-.4653.6046-.694.1786.1794.358.3588.5386.5394l.0001.0001.0001.0001.0001.0001.0001.0001.0001.0001.0001.0001.0001.0001.0001.0001.0001.0001.0001.0001.0001.0001.0001.0001.0001.0001.0001.0001.0001.0001.0001.0001.0001.0001.0001.0001.0001.0001.0001.0001.0001.0001.0001.0001.0001.0001.0001.0001.0001.0001.0002.0002c.3662.3662.7372.7371 1.1152 1.1221Zm-.9181.9914.0002-.0001.0006-.0005.0001-.0001.0006-.0005.0001-.0001c.0765-.0611.1543-.1234.2332-.1856-.2881-.2894-.5702-.5748-.8503-.8582l-.0011-.0011-.0004-.0004c-.2767-.28-.5515-.558-.8283-.8361-.0707.0552-.1422.1113-.2138.1674-.143.1122-.2861.2244-.4221.3295l1.6879 1.6958c.1254-.0957.2572-.2011.3933-.31Zm-1.1389.728-1.6879-1.6958c.1216-.0634.2461-.133.368-.2011.075-.0418.1491-.0832.2208-.1222.5574.56 1.1149 1.12 1.6801 1.6957-.1727.1026-.3847.2209-.581.3234Zm-2.2729-1.4703c-.0537.0213-.1096.0435-.1688.0664.4475.4495.8793.8833 1.3111 1.3093.3925.3943.3925.3943.9028.1814.0142-.0071.0267-.0142.0405-.022.0169-.0096.0357-.0202.0616-.0332-.2748-.2722-.5456-.5443-.8155-.8154-.2699-.2711-.5388-.5413-.8096-.8094-.0236-.0237-.1021-.0316-.1492-.0158-.1226.0392-.2413.0864-.3729.1387Zm1.417 1.7779-.0906.0204c-.1699.0382-.3105.0699-.4511.0901-.0471.0078-.1099-.0079-.1413-.0395-.3544-.3508-.7054-.7051-1.062-1.0651l-.0002-.0002-.0002-.0002c-.1805-.1822-.3624-.3659-.547-.5514.1962-.0473.3689-.0867.5338-.1183.0393-.0079.1021.0158.1335.0473.432.4152.849.8354 1.287 1.2766l.0001.0001.0004.0004c.111.1118.2233.225.3376.3398Zm-1.5859-.0551c.2433.276.5024.2681.84.1893-.5496-.5522-1.0677-1.0727-1.6094-1.6012-.0314-.0315-.0864-.0473-.1335-.0473-.0941.0105-.1916.0245-.2973.0397h-.0004l-.0003.0001c-.0528.0076-.1077.0154-.1652.0233l.0326.0376.0001.0001c.0391.0452.0714.0826.1087.1201.0964.095.1932.1892.2899.2832.3205.3118.6392.6218.9348.9551Zm-2.0095-1.3882c.0653 0 .1234-.0011.1766-.002H11.5605c.0937-.0017.1719-.0031.247.002.055 0 .1178.0236.157.0552.5182.5126 1.0363 1.0332 1.5388 1.5695-.0471.0017-.0938.0067-.1401.0116-.1778.0191-.3496.0374-.5116-.1378-.2966-.32-.6047-.6247-.9136-.93-.1326-.1311-.2654-.2624-.3974-.395-.0173-.0173-.0368-.0394-.0653-.0714-.0234-.0263-.0528-.0594-.0917-.1021Zm.1332.2602c-.1884-.1972-.3768-.2997-.6752-.2208l.0053.0061c.0448.0526.0832.0976.1361.128.1513.1549.3048.3077.458.4604.2681.267.5355.5334.7902.8094.1884.213.3847.2445.6516.1972-.0284-.0286-.0526-.055-.0759-.0805h-.0001v-.0001h-.0001v-.0001h-.0001c-.0216-.0237-.0424-.0464-.0651-.0692-.136-.1367-.2739-.2716-.4117-.4066-.2757-.2699-.5513-.5398-.813-.8238Zm.793 1.3803c-.2591.071-.4239-.0157-.581-.1814-.2915-.3097-.595-.6115-.8991-.9137v-.0001h-.0001v-.0001h-.0001v-.0001c-.1217-.121-.2435-.242-.3646-.3637-.0227-.0228-.0435-.0455-.0651-.0692-.0234-.0255-.0477-.052-.0762-.0807.2198-.0315.3846-.0158.5417.1499.3231.3467.6578.678.9985 1.0154.1477.1462.2965.2935.446.4437Zm-.9658-.1262c.1256.1341.2512.1814.4631.1341-.1497-.1505-.2976-.2977-.4434-.4429l-.0006-.0005-.0001-.0002c-.3584-.3569-.705-.702-1.0396-1.055-.1257-.1341-.2591-.142-.43969-.1104.12659.1271.25209.2528.37669.3774l.0001.0001c.3699.3702.7311.7316 1.0835 1.0974Zm-1.79007-1.5301c.02916.0135.0596.0257.09004.038.07611.0306.15221.0611.20829.1118.37694.3669.74944.7426 1.12084 1.1172v.0001h.0001c.1236.1247.2472.2493.3707.3734-.0078.0158-.0157.0316-.0236.0553-.0309-.0113-.0658-.0186-.1005-.0258-.0621-.0129-.1232-.0256-.1585-.061-.5077-.4943-.9998-.9964-1.49953-1.5064l-.00784-.008c-.01047-.0105-.01396-.021-.01744-.0315-.00175-.0053-.00349-.0105-.00611-.0158l.02355-.0473Zm-.6038.0338-.00004-.0001H8.94972l-.00003-.0001h-.00004c-.01353-.0032-.02681-.0064-.03928-.0099-.00785.0078-.0157.0236-.0157.0394.1755.1763.35013.3526.52447.5287l.00024.0002h.00002l.0001.0001.00005.0001c.34804.3514.69495.7016 1.04525 1.0484.0212.0213.0603.0282.1003.0353.0193.0034.0389.0069.0567.012-.5024-.56-1.02056-1.0806-1.54656-1.6011-.03024-.0304-.07913-.0421-.12511-.053Zm1.92207 1.6424c-.0509-.0125-.1008-.0247-.1327-.0514-.5181-.5127-1.03627-1.0332-1.53086-1.6011.02557.0085.05319.014.08027.0193.04775.0095.09379.0186.12385.0438.51815.5126 1.03634 1.0332 1.54664 1.5538-.0079.0157-.0157.0394-.0157.0552-.0228-.0077-.0473-.0136-.0715-.0196Zm-2.2048-1.6525c.35328.489 1.5387 1.6248 1.6722 1.6405 0-.0079 0-.0236-.0078-.0315-.51027-.5205-1.02049-1.0331-1.53072-1.5457h-.00002l-.0002-.0002c-.01989-.02-.04922-.0305-.08002-.0415-.01784-.0064-.03617-.013-.05344-.0216Zm-.12598.1734c.1915.1961.41236.4217.64881.663-.30864-.2979-.59047-.5837-.64881-.663Zm.64881.663c.39745.3836.83937.7873.90567.7962l-.0628.0631-.0032-.0032-.0008-.0009-.0012-.0011-.0021-.0022-.005-.0051c-.28353-.289-.56676-.5777-.83057-.8468ZM11.682 9.60374v5.78936c.0471 0 .0863.0078.1177.0236.113-.0071.2196-.0206.3314-.0347l.0376-.0047c.9892-.1578 1.8528-.56 2.4652-1.3803.7379-.9859.8478-2.098.6751-3.289-.0942-.6074-.4082-.91496-.9735-1.02539l-.0424-.01192c-.0742-.02112-.1521-.04329-.2245-.04329-.5248-.01581-1.046-.02458-1.5684-.03337H12.4999c-.2591-.00436-.5185-.00872-.7787-.01395-.0157 0-.0235.00789-.0392.02366Zm-.3146.59946c-.0389-.0392-.0779-.0792-.1171-.1195h-.0001c-.0793-.0815-.1598-.16419-.2439-.24335-.0689-.06921-.1378-.13874-.2067-.20833l-.0001-.00007-.0001-.00007v-.00007l-.0001-.00006-.0001-.00007V9.6316c-.2767-.2792-.5544-.55942-.83704-.82449-.15702-.14197-.18057-.29972-.14131-.51268.08057.08095.15908.15567.23555.22843.0725.06902.1431.13626.2119.20538.0909.08933.1818.17816.2726.26687V8.99514l.0001.00003v.00002c.2698.26372.5386.52637.8029.79784.0549.05521.1021.15775.1021.23667.0078 1.7431.0078 3.4862 0 5.2293 0 .0374-.005.0699-.0109.1092l-.0049.0327H9.813v-4.0067c.05939.0417.1143.0835.16471.1219h.00008l.00004.0001h.00003l.04714.0357c.0157-.0079.0314-.0158.0392-.0237-.0287-.0451-.06445-.0881-.10059-.1317-.12178-.1467-.24815-.299-.12706-.5545.05617.069.1111.1355.16475.2005h.0001v.0001h.0001c.0813.0985.1598.1935.2354.2885.0118-.0079.0216-.0158.0314-.0237.0099-.0079.0197-.0158.0314-.0237-.0025-.01-.0042-.0209-.0058-.0315-.0036-.0228-.007-.0445-.0177-.0552-.0201-.0219-.0403-.0446-.0606-.0675h-.0001c-.0749-.0842-.1529-.1719-.24549-.2401-.18057-.142-.21197-.3155-.15701-.5521.2434.2445.4789.4811.7144.7098.0079-.0039.0138-.0098.0196-.0158.0059-.0059.0118-.0118.0197-.0157-.0098-.0132-.0169-.0277-.0241-.0424-.0101-.0207-.0204-.0418-.0387-.0602-.0436-.0457-.0866-.0919-.1295-.138h-.0001c-.1273-.1368-.2535-.2724-.38859-.3904-.16486-.142-.23552-.3076-.16486-.56002.11079.11131.22075.22082.32975.32952.2154.2147.4274.4259.6359.6406.005-.005.0107-.01.0168-.0152.013-.0113.0274-.0238.0381-.04-.0141-.0171-.0272-.0341-.0401-.0508-.0228-.0296-.0447-.0581-.0698-.0833-.0755-.0758-.1495-.1524-.2235-.2288-.1721-.1779-.3434-.355-.53014-.52047-.16486-.14986-.21982-.30761-.15701-.55212l.00001.00002c.41604.41802.81644.82027 1.21684 1.23037.0079-.0078.0177-.0157.0275-.0236s.0196-.0158.0275-.0237c-.0197-.0236-.0393-.0493-.0589-.0749-.0196-.0256-.0393-.0513-.0589-.0749-.1102-.1107-.2186-.2223-.3268-.3336v-.0001c-.2155-.22167-.4298-.44221-.65454-.65226-.15701-.14986-.23552-.30761-.17271-.55212l1.48375 1.46708c.0082-.0082.0164-.0155.0242-.0225.0148-.0131.0284-.0252.0386-.0406Zm1.4107-.86573h.0001c.0601-.00094.1254-.00196.1989-.00196-.1906-.19462-.3786-.37892-.5629-.55968-.2714-.2661-.535-.52453-.7875-.79694-.2174-.24102-.4491-.22312-.743-.20041l-.0421.00322.0001.00007c.5181.52054 1.0127 1.01742 1.5073 1.50642.0314.03154.0942.04732.1413.04732.0904.00505.1809.00363.2878.00196Zm-1.4106.42399c-.3769-.39436-.7537-.79662-1.1227-1.19099-.0474-.05289-.0983-.10224-.148-.15042v-.00001c-.0244-.02366-.0485-.04704-.0718-.07041-.10938-.1061-.16621-.16123-.19313-.22835-.02911-.07259-.02323-.15922-.01099-.33954.02215.01854.04256.03185.06123.04403h.00001c.02104.01373.03988.02601.05652.04273.11746.11803.23596.23607.35466.35435l.0001.00006v.00003c.3572.35591.7166.71404 1.0584 1.08106.0613.06726.0831.17038.1046.27254v.00001c.0088.04159.0175.08302.0288.12181-.0392.01578-.0785.03944-.1177.0631Zm.2595-.63886c.1806.1893.3611.2524.6359.1893-.1582-.15892-.3164-.31518-.4734-.47026V8.84161c-.3105-.3067-.6163-.60881-.9083-.91788-.1727-.18141-.3454-.17353-.581-.14198.1311.13174.2616.26151.3911.39026.32.31836.6338.63048.9357.95059Zm-.0869-1.34874c.2983-.03944.4945.03155.683.23662.2306.24649.4704.48683.7099.72677v.00006c.1437.14393.2871.28771.4284.43261.0373.03744.0696.07488.1088.12014v.00001l.0325.0376c-.2433.03155-.4318.01577-.6123-.17352-.3168-.35368-.6512-.68532-.9966-1.02787V8.12621l-.0001-.00004c-.1167-.11577-.2347-.23278-.3536-.35231Zm1.9632 1.4118c.1334.14197.2826.19718.5024.18141-.1925-.19027-.3774-.37799-.5599-.56316-.2712-.27539-.537-.54513-.8139-.80924-.07-.07032-.1696-.10725-.2683-.14387-.0452-.01678-.0902-.03349-.1321-.05331-.004.01182-.0098.02168-.0157.03154-.0059.00986-.0118.01972-.0157.03155.0235.02367.0451.04733.0667.07099.0216.02366.0432.04732.0667.07099.0983.09871.1965.19693.2947.29502v.00001c.2939.2938.5867.5865.8751.88807Zm-1.8296.16564c-.0216-.00722-.0453-.01296-.0695-.01881-.055-.01333-.1121-.02717-.1503-.06006-.4946-.48902-.9814-.97803-1.46812-1.46705.00785-.01577.01572-.03155.01572-.04732.0219.00735.0462.01242.0708.01757.0546.01142.1111.02324.149.0613.3711.36095.7377.73079 1.1032 1.09951l.0001.00003c.1217.12275.2432.24537.3648.36751 0 .00788-.0079.03155-.0157.04732Zm2.6113.09505.0001.00001c.0358.01783.0714.03556.1048.05476.0079-.00789.0138-.01775.0196-.02761.0059-.00985.0118-.01971.0197-.0276-.1544-.15249-.3079-.30585-.4615-.45921-.307-.30673-.6141-.61347-.9281-.91319-.0424-.0426-.1099-.06363-.1782-.08494-.0329-.01025-.066-.02056-.0966-.03337.0236.07099.0628.11831.1021.15775.2002.19718.3984.39634.5966.59549.1983.19916.3965.39831.5967.5955.0601.06036.143.10163.2248.14241Zm-.947-1.27814c.0202.01126.0417.02187.0633.03258.0541.0268.1094.05417.1487.09362.4475.44169.8872.88338 1.3032 1.35662-.0167-.00842-.0339-.01648-.051-.02457v-.00001c-.0633-.02977-.1272-.05988-.1766-.1095-.2928-.28892-.5822-.58133-.8726-.87492-.1457-.14722-.2917-.29475-.4385-.44227.0039-.00394.0078-.00986.0118-.01577.0039-.00592.0078-.01183.0117-.01578Zm.6832.43379.6516.65465c.0078-.00395.0137-.00986.0196-.01578.0059-.00591.0118-.01183.0196-.01577-.1099-.11042-.2178-.22085-.3258-.33127-.1079-.11042-.2159-.22085-.3258-.33127l-.0392.03944Z" fill="#292343"/></svg>