<svg width="60" height="60" viewBox="0 0 60 60" fill="none" xmlns="http://www.w3.org/2000/svg">
<g filter="url(#filter0_d)">
<circle cx="29" cy="27" r="21" fill="white"/>
</g>
<path d="M39.0153 23.7003C39.4082 23.3141 39.4323 22.6622 39.0691 22.2444C38.7059 21.8266 38.0929 21.801 37.7 22.1872L39.0153 23.7003ZM37.6309 31.8342C38.0244 32.2198 38.6373 32.1933 38.9999 31.7749C39.3625 31.3565 39.3375 30.7047 38.9441 30.3191L37.6309 31.8342ZM34.4987 27.0475L33.53 27.0381L33.53 27.0381L34.4987 27.0475ZM38.3577 22.9438C37.7 22.1872 37.7 22.1873 37.7 22.1873C37.6999 22.1873 37.6999 22.1874 37.6998 22.1875C37.6997 22.1876 37.6995 22.1878 37.6992 22.188C37.6987 22.1885 37.698 22.1893 37.697 22.1902C37.6951 22.1921 37.6922 22.1949 37.6885 22.1986C37.6811 22.2059 37.6701 22.2167 37.6558 22.2308C37.6272 22.259 37.5854 22.3003 37.5323 22.3528C37.4261 22.4578 37.2745 22.608 37.0927 22.7892C36.7293 23.1513 36.2438 23.6383 35.7575 24.136C35.2729 24.6318 34.7801 25.1458 34.4052 25.5595C34.2195 25.7644 34.0509 25.9577 33.924 26.1181C33.8623 26.1961 33.7952 26.2854 33.7383 26.3754C33.7105 26.4195 33.6718 26.4844 33.6366 26.5625C33.6139 26.6128 33.5321 26.7945 33.53 27.0381L35.4675 27.057C35.4655 27.281 35.3914 27.4363 35.3835 27.4539C35.3722 27.4789 35.3626 27.4969 35.3572 27.5065C35.3516 27.5166 35.3477 27.5228 35.3467 27.5244C35.3466 27.5245 35.3626 27.5003 35.4066 27.4447C35.4912 27.3378 35.6242 27.1837 35.8004 26.9892C36.1494 26.6041 36.6211 26.1117 37.1009 25.6207C37.579 25.1316 38.0578 24.6513 38.4175 24.2928C38.5973 24.1137 38.747 23.9653 38.8517 23.8618C38.904 23.81 38.9451 23.7695 38.973 23.742C38.9869 23.7282 38.9976 23.7177 39.0047 23.7107C39.0083 23.7072 39.011 23.7046 39.0128 23.7028C39.0136 23.7019 39.0143 23.7013 39.0147 23.7009C39.0149 23.7007 39.0151 23.7005 39.0152 23.7004C39.0152 23.7004 39.0153 23.7003 39.0153 23.7003C39.0153 23.7003 39.0153 23.7003 38.3577 22.9438ZM33.53 27.0381C33.5278 27.2839 33.6078 27.4683 33.6311 27.5214C33.6662 27.6016 33.705 27.668 33.7328 27.7127C33.7896 27.804 33.8566 27.8938 33.9175 27.9712C34.0427 28.1306 34.2091 28.3218 34.3915 28.5234C34.76 28.9307 35.2447 29.4357 35.7209 29.9223C36.199 30.4108 36.6763 30.8886 37.0336 31.2437C37.2124 31.4214 37.3614 31.5688 37.4659 31.6718C37.5181 31.7233 37.5592 31.7638 37.5873 31.7914C37.6014 31.8052 37.6122 31.8159 37.6196 31.8231C37.6232 31.8267 37.626 31.8294 37.6279 31.8313C37.6289 31.8322 37.6296 31.8329 37.6301 31.8334C37.6304 31.8337 37.6306 31.8338 37.6307 31.834C37.6308 31.834 37.6308 31.8341 37.6309 31.8341C37.6309 31.8342 37.6309 31.8342 38.2875 31.0767C38.9441 30.3191 38.9441 30.3191 38.9441 30.3191C38.9441 30.3191 38.944 30.319 38.944 30.319C38.9439 30.3189 38.9438 30.3187 38.9435 30.3185C38.9431 30.3181 38.9425 30.3175 38.9416 30.3166C38.9399 30.3149 38.9372 30.3123 38.9337 30.3089C38.9267 30.302 38.9162 30.2917 38.9025 30.2783C38.8751 30.2513 38.8348 30.2116 38.7833 30.1609C38.6805 30.0595 38.5333 29.914 38.3567 29.7384C38.0032 29.387 37.5328 28.9162 37.0633 28.4365C36.592 27.9549 36.1293 27.4722 35.7877 27.0947C35.615 26.9039 35.4856 26.7534 35.404 26.6497C35.3615 26.5955 35.3473 26.5734 35.3488 26.5759C35.349 26.5762 35.3667 26.604 35.3876 26.6518C35.3967 26.6725 35.4694 26.8306 35.4675 27.057L33.53 27.0381Z" fill="#2D264B"/>
<line x1="32.3105" y1="20.5" x2="19.5" y2="20.5" stroke="#2D264B" stroke-width="2" stroke-linecap="round"/>
<line x1="28.0791" y1="27.2498" x2="19.5002" y2="27.2498" stroke="#2D264B" stroke-width="2" stroke-linecap="round"/>
<line x1="32.3105" y1="34" x2="19.5" y2="34" stroke="#2D264B" stroke-width="2" stroke-linecap="round"/>
<defs>
<filter id="filter0_d" x="5" y="4" width="52" height="52" filterUnits="userSpaceOnUse" color-interpolation-filters="sRGB">
<feFlood flood-opacity="0" result="BackgroundImageFix"/>
<feColorMatrix in="SourceAlpha" type="matrix" values="0 0 0 0 0 0 0 0 0 0 0 0 0 0 0 0 0 0 127 0" result="hardAlpha"/>
<feMorphology radius="1" operator="erode" in="SourceAlpha" result="effect1_dropShadow"/>
<feOffset dx="2" dy="3"/>
<feGaussianBlur stdDeviation="3"/>
<feComposite in2="hardAlpha" operator="out"/>
<feColorMatrix type="matrix" values="0 0 0 0 0.579271 0 0 0 0 0.637717 0 0 0 0 0.691667 0 0 0 0.25 0"/>
<feBlend mode="normal" in2="BackgroundImageFix" result="effect1_dropShadow"/>
<feBlend mode="normal" in="SourceGraphic" in2="effect1_dropShadow" result="shape"/>
</filter>
</defs>
</svg>
