<svg width="24" height="24" viewBox="0 0 24 24" fill="none" xmlns="http://www.w3.org/2000/svg">
<path d="M7.56649 4.20894C7.65101 4.10136 7.81318 4.09903 7.90076 4.20413L9.77209 6.44972C9.83589 6.52629 9.83872 6.63666 9.77892 6.7164L7.3651 9.93487C7.32449 9.98902 7.26076 10.0209 7.19308 10.0209H3.44241C3.26299 10.0209 3.16248 9.81409 3.27333 9.673L7.56649 4.20894Z" fill="url(#paint0_linear_2739_18182)"/>
<path d="M12.1955 4.20894C12.1109 4.10136 11.9488 4.09903 11.8612 4.20413L9.98987 6.44972C9.92607 6.52629 9.92324 6.63666 9.98304 6.7164L12.3969 9.93487C12.4375 9.98902 12.5012 10.0209 12.5689 10.0209H16.3195C16.499 10.0209 16.5995 9.81409 16.4886 9.673L12.1955 4.20894Z" fill="url(#paint1_linear_2739_18182)"/>
<path fill-rule="evenodd" clip-rule="evenodd" d="M3.0034 11.5265C2.99974 11.4078 3.09636 11.311 3.21512 11.311L7.08563 11.311C7.20439 11.311 7.29972 11.4076 7.30948 11.526C7.41872 12.8505 8.52831 13.8914 9.88101 13.8914C11.2337 13.8914 12.3433 12.8505 12.4525 11.526C12.4623 11.4076 12.5576 11.311 12.6764 11.311L16.547 11.311C16.6657 11.311 16.7623 11.4078 16.7587 11.5265C16.7477 11.8837 16.7095 12.2341 16.646 12.5756C15.7328 12.3591 14.7561 12.4402 13.8627 12.8735C11.9898 13.7819 11.106 15.9364 11.6519 17.962C11.0869 18.112 10.4933 18.192 9.88104 18.192C6.15289 18.192 3.11723 15.227 3.0034 11.5265Z" fill="url(#paint2_linear_2739_18182)"/>
<path d="M13.9919 15.6565C13.8022 15.3848 13.4281 15.3184 13.1565 15.5081C12.8848 15.6978 12.8184 16.0719 13.0081 16.3435L13.9919 15.6565ZM18.5123 15.3123C18.6848 15.0293 18.5952 14.6601 18.3123 14.4877C18.0293 14.3152 17.6601 14.4048 17.4877 14.6877L18.5123 15.3123ZM16.123 18.0796L15.6106 17.7674L16.123 18.0796ZM13.0081 16.3435L14.4853 18.4588L15.4691 17.7718L13.9919 15.6565L13.0081 16.3435ZM16.6353 18.3919L18.5123 15.3123L17.4877 14.6877L15.6106 17.7674L16.6353 18.3919ZM14.4853 18.4588C15.0161 19.2189 16.1528 19.1835 16.6353 18.3919L15.6106 17.7674C15.5789 17.8195 15.5041 17.8218 15.4691 17.7718L14.4853 18.4588Z" fill="url(#paint3_linear_2739_18182)"/>
<defs>
<linearGradient id="paint0_linear_2739_18182" x1="2.7473" y1="4.36863" x2="11.7958" y2="5.95603" gradientUnits="userSpaceOnUse">
<stop stop-color="#1F0C4E"/>
<stop offset="0.78125" stop-color="#4F1FB4"/>
</linearGradient>
<linearGradient id="paint1_linear_2739_18182" x1="17.0147" y1="4.36863" x2="7.96615" y2="5.95603" gradientUnits="userSpaceOnUse">
<stop stop-color="#1F0C4E"/>
<stop offset="0.78125" stop-color="#4F1FB4"/>
</linearGradient>
<linearGradient id="paint2_linear_2739_18182" x1="2.49814" y1="11.7323" x2="19.5388" y2="16.9615" gradientUnits="userSpaceOnUse">
<stop stop-color="#1F0C4E"/>
<stop offset="0.78125" stop-color="#4F1FB4"/>
</linearGradient>
<linearGradient id="paint3_linear_2739_18182" x1="13.3347" y1="15.2433" x2="19.2556" y2="16.2723" gradientUnits="userSpaceOnUse">
<stop stop-color="#1F0C4E"/>
<stop offset="0.78125" stop-color="#4F1FB4"/>
</linearGradient>
</defs>
</svg>
