<svg width="7" height="12" viewBox="0 0 7 12" fill="none" xmlns="http://www.w3.org/2000/svg">
<path d="M6.01532 2.70029C6.40822 2.31405 6.43229 1.66223 6.06909 1.24441C5.70588 0.826595 5.09295 0.800997 4.70005 1.18724L6.01532 2.70029ZM4.63093 10.8342C5.02436 11.2198 5.63726 11.1933 5.99988 10.7749C6.36251 10.3565 6.33754 9.70473 5.94411 9.3191L4.63093 10.8342ZM1.49872 6.04751L0.529962 6.03806L0.529962 6.03806L1.49872 6.04751ZM5.35768 1.94376C4.70005 1.18724 4.70002 1.18727 4.69998 1.18731C4.69994 1.18734 4.69988 1.1874 4.69982 1.18747C4.69968 1.1876 4.69949 1.18779 4.69923 1.18804C4.69873 1.18854 4.69799 1.18926 4.69702 1.19021C4.69509 1.19211 4.69225 1.19491 4.68852 1.19858C4.68106 1.20592 4.67007 1.21675 4.65578 1.23084C4.62719 1.25902 4.5854 1.30025 4.53228 1.35278C4.42606 1.4578 4.2745 1.60802 4.09268 1.7892C3.72932 2.15128 3.24385 2.63827 2.75748 3.13595C2.27293 3.63178 1.78008 4.14575 1.40521 4.55946C1.21954 4.76435 1.05086 4.95775 0.924011 5.11807C0.862306 5.19606 0.79515 5.2854 0.738299 5.3754C0.710458 5.41948 0.671805 5.48445 0.636572 5.56253C0.613891 5.6128 0.532064 5.79448 0.529962 6.03806L2.46748 6.05697C2.46555 6.28099 2.39142 6.43633 2.38349 6.45391C2.37223 6.47886 2.36258 6.49685 2.35721 6.50648C2.35157 6.5166 2.34772 6.52276 2.34671 6.52436C2.34664 6.52446 2.36261 6.50028 2.40661 6.44468C2.49117 6.33781 2.6242 6.18372 2.80044 5.98922C3.14937 5.60415 3.6211 5.11174 4.10095 4.62073C4.57899 4.13157 5.05775 3.65127 5.41753 3.29277C5.59727 3.11366 5.747 2.96527 5.85168 2.86176C5.90401 2.81001 5.94507 2.7695 5.97298 2.74199C5.98693 2.72824 5.99759 2.71774 6.00472 2.71072C6.00829 2.7072 6.01098 2.70456 6.01275 2.70281C6.01364 2.70194 6.0143 2.70129 6.01473 2.70087C6.01495 2.70066 6.0151 2.70051 6.0152 2.70041C6.01525 2.70036 6.01528 2.70033 6.0153 2.70031C6.01532 2.70029 6.01532 2.70029 5.35768 1.94376ZM0.529962 6.03806C0.527841 6.28394 0.607811 6.4683 0.631074 6.52143C0.666174 6.60161 0.705005 6.66801 0.732829 6.71274C0.789603 6.80401 0.856586 6.8938 0.917458 6.97123C1.04272 7.13057 1.20908 7.3218 1.3915 7.5234C1.76002 7.93065 2.24467 8.4357 2.72088 8.92228C3.19897 9.41079 3.6763 9.88858 4.03358 10.2437C4.21236 10.4214 4.36141 10.5688 4.46588 10.6718C4.51812 10.7233 4.55922 10.7638 4.58735 10.7914C4.60141 10.8052 4.61223 10.8159 4.61957 10.8231C4.62324 10.8267 4.62604 10.8294 4.62794 10.8313C4.62889 10.8322 4.62962 10.8329 4.63012 10.8334C4.63037 10.8337 4.63056 10.8338 4.6307 10.834C4.63076 10.834 4.63082 10.8341 4.63086 10.8341C4.6309 10.8342 4.63093 10.8342 5.28752 10.0767C5.94411 9.3191 5.94411 9.3191 5.9441 9.31909C5.94408 9.31906 5.94405 9.31903 5.944 9.31899C5.9439 9.31889 5.94375 9.31874 5.94354 9.31854C5.94312 9.31813 5.94247 9.31749 5.9416 9.31664C5.93986 9.31493 5.93723 9.31234 5.93372 9.3089C5.92671 9.30203 5.91624 9.29174 5.90254 9.27827C5.87512 9.25132 5.83477 9.21162 5.78335 9.16091C5.68048 9.05947 5.53334 8.91402 5.35671 8.73844C5.00316 8.387 4.53279 7.91616 4.06334 7.43648C3.59201 6.95489 3.12929 6.4722 2.78766 6.09466C2.61502 5.90387 2.48561 5.75343 2.40404 5.64967C2.36149 5.59555 2.34729 5.57342 2.34883 5.57588C2.34903 5.57621 2.36672 5.60399 2.38763 5.65175C2.39671 5.67248 2.46943 5.83064 2.46748 6.05697L0.529962 6.03806Z" fill="#2D264B"/>
</svg>
