<svg width="24" height="24" viewBox="0 0 24 24" fill="none" xmlns="http://www.w3.org/2000/svg">
<path d="M15.1998 8.71721L15.3801 8.84284H15.5999H19.1999C20.1868 8.84284 20.8999 9.57677 20.8999 10.3714V18.1714C20.8999 18.9661 20.1868 19.7 19.1999 19.7H4.7999C3.81299 19.7 3.0999 18.9661 3.0999 18.1714V7.02856C3.0999 6.23391 3.81299 5.49999 4.7999 5.49999H10.0012C10.379 5.49999 10.7452 5.61478 11.0415 5.82039C11.0416 5.82049 11.0418 5.82059 11.0419 5.82069L15.1998 8.71721Z" stroke="url(#paint0_linear_632_1321)" stroke-width="1.4"/>
<path d="M9.59985 12.823C9.59978 12.464 9.76365 12.1201 10.0546 11.8686C10.3455 11.6172 10.7391 11.4792 11.1467 11.4859C11.6297 11.4836 12.0906 11.664 12.4124 11.9811C12.7341 11.664 13.195 11.4836 13.678 11.4859C14.0856 11.4792 14.4792 11.6172 14.7701 11.8686C15.0611 12.1201 15.2249 12.464 15.2249 12.823C15.2249 14.1491 13.4308 15.1505 12.4124 15.9428C11.3962 15.1438 9.59985 14.1501 9.59985 12.823Z" fill="url(#paint1_linear_632_1321)"/>
<defs>
<linearGradient id="paint0_linear_632_1321" x1="1.6948" y1="5.75509" x2="26.8231" y2="10.5025" gradientUnits="userSpaceOnUse">
<stop stop-color="#1F0C4E"/>
<stop offset="0.78125" stop-color="#4F1FB4"/>
</linearGradient>
<linearGradient id="paint1_linear_632_1321" x1="9.39328" y1="11.7585" x2="16.7421" y2="13.1822" gradientUnits="userSpaceOnUse">
<stop stop-color="#1F0C4E"/>
<stop offset="0.78125" stop-color="#4F1FB4"/>
</linearGradient>
</defs>
</svg>
