<svg width="24" height="24" viewBox="0 0 24 24" fill="none" xmlns="http://www.w3.org/2000/svg">
<path fill-rule="evenodd" clip-rule="evenodd" d="M16.5294 3.67647V4.23529H19.3235C20.2443 4.23529 21 4.99098 21 5.91176V7.02941C21 9.58858 19.073 11.6836 16.5828 11.9961L16.2629 12.0363L16.1375 12.3333C15.8193 13.0872 15.3224 13.7524 14.6896 14.2712C14.0567 14.7901 13.3071 15.1471 12.5055 15.3114L12.0588 15.4029V19.8824H15.9706C16.2792 19.8824 16.5294 20.1325 16.5294 20.4412C16.5294 20.7498 16.2792 21 15.9706 21H7.02941C6.72078 21 6.47059 20.7498 6.47059 20.4412C6.47059 20.1325 6.72078 19.8824 7.02941 19.8824H10.9412V15.4029L10.4945 15.3114C9.69287 15.1471 8.94325 14.7901 8.31045 14.2712C7.67765 13.7524 7.18068 13.0872 6.8625 12.3333L6.73714 12.0363L6.41724 11.9961C3.92705 11.6836 2 9.58858 2 7.02941V5.91176C2 4.99098 2.75569 4.23529 3.67647 4.23529H6.47059V3.67647C6.47059 2.75058 7.22117 2 8.14706 2H14.8529C15.7788 2 16.5294 2.75058 16.5294 3.67647ZM6.47059 5.35294H3.11765V7.02941C3.11765 8.73137 4.21704 10.1619 5.72152 10.7066L6.47059 10.9778V5.35294ZM15.4118 10.3824V3.11765H7.58824V10.3824C7.58824 12.5351 9.34725 14.2941 11.5 14.2941C13.6527 14.2941 15.4118 12.5351 15.4118 10.3824ZM16.5294 5.35294V10.9778L17.2785 10.7066C18.783 10.1619 19.8824 8.73137 19.8824 7.02941V5.35294H16.5294Z" fill="url(#paint0_linear_7126_32781)"/>
<path fill-rule="evenodd" clip-rule="evenodd" d="M16.7294 3.67652V4.03534H19.3235C20.3548 4.03534 21.2 4.88057 21.2 5.91181V7.02946C21.2 9.69263 19.1947 11.8699 16.6077 12.1946L16.4022 12.2204L16.3218 12.4111C15.9909 13.195 15.4743 13.8865 14.8163 14.4259C14.1584 14.9654 13.3791 15.3366 12.5456 15.5074L12.2588 15.5661V19.6824H15.9706C16.3897 19.6824 16.7294 20.0221 16.7294 20.4412C16.7294 20.8603 16.3897 21.2001 15.9706 21.2001H7.0294C6.61031 21.2001 6.27058 20.8603 6.27058 20.4412C6.27058 20.0221 6.61031 19.6824 7.0294 19.6824H10.7412V15.5661L10.4544 15.5074C9.6209 15.3366 8.84154 14.9654 8.18363 14.4259C7.52571 13.8865 7.00903 13.195 6.67822 12.4111L6.59773 12.2204L6.39232 12.1946C3.80526 11.8699 1.79999 9.69263 1.79999 7.02946V5.91181C1.79999 4.88057 2.64522 4.03534 3.67646 4.03534H6.27058V3.67652C6.27058 2.64017 7.1107 1.80005 8.14705 1.80005H14.8529C15.8893 1.80005 16.7294 2.64017 16.7294 3.67652ZM6.73713 12.0363L6.86249 12.3334C7.18067 13.0873 7.67763 13.7524 8.31044 14.2713C8.94324 14.7901 9.69286 15.1471 10.4945 15.3114L10.9412 15.403V19.8824H7.0294C6.72077 19.8824 6.47058 20.1326 6.47058 20.4412C6.47058 20.7499 6.72077 21 7.0294 21H15.9706C16.2792 21 16.5294 20.7499 16.5294 20.4412C16.5294 20.1326 16.2792 19.8824 15.9706 19.8824H12.0588V15.403L12.5054 15.3114C13.3071 15.1471 14.0567 14.7901 14.6895 14.2713C15.3223 13.7524 15.8193 13.0873 16.1375 12.3334L16.2629 12.0363L16.5828 11.9962C19.0729 11.6836 21 9.58863 21 7.02946V5.91181C21 4.99103 20.2443 4.23534 19.3235 4.23534H16.5294V3.67652C16.5294 2.75063 15.7788 2.00005 14.8529 2.00005H8.14705C7.22116 2.00005 6.47058 2.75063 6.47058 3.67652V4.23534H3.67646C2.75568 4.23534 1.99999 4.99103 1.99999 5.91181V7.02946C1.99999 9.58863 3.92703 11.6836 6.41722 11.9962L6.73713 12.0363ZM6.27058 5.55299H3.31763V7.02946C3.31763 8.64218 4.35945 10.0008 5.78959 10.5186L6.27058 10.6928V5.55299ZM6.47058 10.9779L5.72151 10.7067C4.21702 10.1619 3.11763 8.73142 3.11763 7.02946V5.35299H6.47058V10.9779ZM15.2118 10.3824V3.3177H7.78822V10.3824C7.78822 12.4247 9.4577 14.0942 11.5 14.0942C13.5423 14.0942 15.2118 12.4247 15.2118 10.3824ZM16.5294 10.9779L17.2785 10.7067C18.783 10.1619 19.8823 8.73142 19.8823 7.02946V5.35299H16.5294V10.9779ZM16.7294 10.6928L17.2104 10.5186C18.6405 10.0008 19.6823 8.64218 19.6823 7.02946V5.55299H16.7294V10.6928ZM15.4118 10.3824C15.4118 12.5351 13.6527 14.2942 11.5 14.2942C9.34724 14.2942 7.58822 12.5351 7.58822 10.3824V3.1177H15.4118V10.3824Z" fill="url(#paint1_linear_7126_32781)"/>
<defs>
<linearGradient id="paint0_linear_7126_32781" x1="1.30225" y1="3.16327" x2="26.4635" y2="7.02563" gradientUnits="userSpaceOnUse">
<stop stop-color="#1F0C4E"/>
<stop offset="0.78125" stop-color="#4F1FB4"/>
</linearGradient>
<linearGradient id="paint1_linear_7126_32781" x1="1.08755" y1="2.9878" x2="26.7785" y2="6.93148" gradientUnits="userSpaceOnUse">
<stop stop-color="#1F0C4E"/>
<stop offset="0.78125" stop-color="#4F1FB4"/>
</linearGradient>
</defs>
</svg>
