<svg width="24" height="24" viewBox="0 0 24 24" fill="none" xmlns="http://www.w3.org/2000/svg">
<mask id="path-1-inside-1" fill="white">
<path fill-rule="evenodd" clip-rule="evenodd" d="M20.6145 12.7007C21.5149 12.7007 21.9566 11.6038 21.3075 10.9798L12.5756 2.58546C12.1885 2.21333 11.5766 2.21333 11.1895 2.58546L2.45758 10.9798C1.80845 11.6038 2.25018 12.7007 3.15062 12.7007H3.31621C3.86849 12.7007 4.31621 13.1484 4.31621 13.7007V20.7632C4.31621 21.3155 4.76393 21.7632 5.31621 21.7632H8.40278C8.95507 21.7632 9.40278 21.3155 9.40278 20.7632V17.3557C9.40278 16.8034 9.8505 16.3557 10.4028 16.3557H13.4893C14.0416 16.3557 14.4893 16.8034 14.4893 17.3557V20.7632C14.4893 21.3155 14.9371 21.7632 15.4893 21.7632H18.5759C19.1282 21.7632 19.5759 21.3155 19.5759 20.7632V13.7007C19.5759 13.1484 20.0236 12.7007 20.5759 12.7007H20.6145Z"/>
</mask>
<path d="M2.45758 10.9798L1.48733 9.97055L2.45758 10.9798ZM21.3075 10.9798L22.2777 9.97055L21.3075 10.9798ZM11.1895 2.58546L10.2193 1.5762L11.1895 2.58546ZM11.6053 3.59473L20.3372 11.9891L22.2777 9.97055L13.5458 1.5762L11.6053 3.59473ZM3.42783 11.9891L12.1598 3.59473L10.2193 1.5762L1.48733 9.97055L3.42783 11.9891ZM3.31621 11.3007H3.15062V14.1007H3.31621V11.3007ZM2.91621 13.7007V20.7632H5.71621V13.7007H2.91621ZM5.31621 23.1632H8.40278V20.3632H5.31621V23.1632ZM10.8028 20.7632V17.3557H8.00278V20.7632H10.8028ZM10.4028 17.7557H13.4893V14.9557H10.4028V17.7557ZM13.0893 17.3557V20.7632H15.8893V17.3557H13.0893ZM15.4893 23.1632H18.5759V20.3632H15.4893V23.1632ZM20.9759 20.7632V13.7007H18.1759V20.7632H20.9759ZM20.6145 11.3007H20.5759V14.1007H20.6145V11.3007ZM20.9759 13.7007C20.9759 13.9216 20.7968 14.1007 20.5759 14.1007V11.3007C19.2504 11.3007 18.1759 12.3752 18.1759 13.7007H20.9759ZM18.5759 23.1632C19.9014 23.1632 20.9759 22.0887 20.9759 20.7632H18.1759C18.1759 20.5423 18.355 20.3632 18.5759 20.3632V23.1632ZM13.0893 20.7632C13.0893 22.0887 14.1639 23.1632 15.4893 23.1632V20.3632C15.7103 20.3632 15.8893 20.5423 15.8893 20.7632H13.0893ZM13.4893 17.7557C13.2684 17.7557 13.0893 17.5766 13.0893 17.3557H15.8893C15.8893 16.0302 14.8148 14.9557 13.4893 14.9557V17.7557ZM10.8028 17.3557C10.8028 17.5766 10.6237 17.7557 10.4028 17.7557V14.9557C9.0773 14.9557 8.00278 16.0302 8.00278 17.3557H10.8028ZM8.40278 23.1632C9.72827 23.1632 10.8028 22.0887 10.8028 20.7632H8.00278C8.00278 20.5423 8.18187 20.3632 8.40278 20.3632V23.1632ZM2.91621 20.7632C2.91621 22.0887 3.99073 23.1632 5.31621 23.1632V20.3632C5.53712 20.3632 5.71621 20.5423 5.71621 20.7632H2.91621ZM3.31621 14.1007C3.0953 14.1007 2.91621 13.9216 2.91621 13.7007H5.71621C5.71621 12.3752 4.64169 11.3007 3.31621 11.3007V14.1007ZM1.48733 9.97055C-0.070581 11.4682 0.989568 14.1007 3.15062 14.1007V11.3007C3.51079 11.3007 3.68748 11.7395 3.42783 11.9891L1.48733 9.97055ZM20.3372 11.9891C20.0776 11.7395 20.2543 11.3007 20.6145 11.3007V14.1007C22.7755 14.1007 23.8357 11.4682 22.2777 9.97055L20.3372 11.9891ZM13.5458 1.5762C12.6168 0.68309 11.1483 0.683088 10.2193 1.5762L12.1598 3.59473C12.0049 3.74358 11.7602 3.74358 11.6053 3.59473L13.5458 1.5762Z" fill="url(#paint0_linear)" mask="url(#path-1-inside-1)"/>
<defs>
<linearGradient id="paint0_linear" x1="1.43367" y1="3.4976" x2="27.2138" y2="7.45721" gradientUnits="userSpaceOnUse">
<stop stop-color="#1F0C4E"/>
<stop offset="0.78125" stop-color="#4F1FB4"/>
</linearGradient>
</defs>
</svg>
