<svg width="39" height="40" viewBox="0 0 39 40" fill="none" xmlns="http://www.w3.org/2000/svg">
<path d="M13.3592 0.76443C13.5926 0.467387 14.0404 0.460945 14.2822 0.751152L19.4494 6.95178C19.6256 7.1632 19.6334 7.46798 19.4683 7.68814L12.8031 16.5751C12.691 16.7246 12.515 16.8126 12.3281 16.8126H1.97161C1.47617 16.8126 1.19864 16.2416 1.50473 15.8521L13.3592 0.76443Z" fill="#7F4AFE"/>
<path d="M26.1408 0.76443C25.9074 0.467387 25.4596 0.460945 25.2178 0.751152L20.0506 6.95178C19.8744 7.1632 19.8666 7.46798 20.0317 7.68814L26.6969 16.5751C26.809 16.7246 26.985 16.8126 27.1719 16.8126H37.5284C38.0238 16.8126 38.3014 16.2416 37.9953 15.8521L26.1408 0.76443Z" fill="#7F4AFE"/>
<path fill-rule="evenodd" clip-rule="evenodd" d="M1.34368 20.375C1.01576 20.375 0.748983 20.6423 0.759066 20.97C1.0734 31.1881 9.45559 39.375 19.7499 39.375C30.0443 39.375 38.4265 31.1881 38.7408 20.97C38.7509 20.6423 38.4841 20.375 38.1562 20.375H27.4687C27.1408 20.375 26.8775 20.6418 26.8506 20.9686C26.5489 24.6259 23.4851 27.5 19.7499 27.5C16.0148 27.5 12.9509 24.6259 12.6493 20.9686C12.6223 20.6418 12.3591 20.375 12.0312 20.375H1.34368Z" fill="#0166FF"/>
</svg>
