<svg width="595" height="212" viewBox="0 0 595 212" fill="none" xmlns="http://www.w3.org/2000/svg">
<path d="M288.433 95.1923L521.654 95.1922" stroke="#9B8FAE" stroke-width="0.731494"/>
<rect x="396" y="125.654" width="14.2788" height="7.61538" fill="#7F4AFE"/>
<rect x="388.385" y="114.231" width="21.8942" height="7.61538" fill="#7F4AFE"/>
<rect x="376.01" y="102.808" width="34.2692" height="7.61538" fill="#7F4AFE"/>
<rect x="349.356" y="91.3846" width="60.9231" height="7.61538" fill="#7F4AFE"/>
<rect x="376.01" y="79.9615" width="34.2692" height="7.61538" fill="#7F4AFE"/>
<rect x="388.385" y="68.5385" width="21.8942" height="7.61538" fill="#7F4AFE"/>
<rect x="396" y="57.1154" width="14.2788" height="7.61538" fill="#7F4AFE"/>
<path d="M42.3606 53.3075C42.3606 53.3075 38.077 99.4758 66.159 146.12C94.2411 192.764 205.14 188.005 205.14 188.005" stroke="#6A5E86" stroke-width="0.951923"/>
<g clip-path="url(#clip0_6371_19129)">
<mask id="mask0_6371_19129" style="mask-type:alpha" maskUnits="userSpaceOnUse" x="402" y="-5" width="110" height="204">
<rect x="511.183" y="-4.75964" width="203.712" height="108.519" transform="rotate(90 511.183 -4.75964)" fill="url(#paint0_linear_6371_19129)"/>
</mask>
<g mask="url(#mask0_6371_19129)">
<rect x="502.691" y="101.259" width="2.49667" height="33.9309" transform="rotate(90 502.691 101.259)" fill="url(#paint1_linear_6371_19129)"/>
<rect x="502.691" y="97.5139" width="3.745" height="39.7064" transform="rotate(90 502.691 97.5139)" fill="url(#paint2_linear_6371_19129)"/>
<rect x="501.969" y="95.0172" width="2.49667" height="27.4335" transform="rotate(90 501.969 95.0172)" fill="url(#paint3_linear_6371_19129)"/>
<rect x="501.969" y="91.2721" width="4.36917" height="41.1502" transform="rotate(90 501.969 91.2721)" fill="url(#paint4_linear_6371_19129)"/>
<rect x="500.525" y="88.1512" width="3.745" height="46.9257" transform="rotate(90 500.525 88.1512)" fill="url(#paint5_linear_6371_19129)"/>
<rect x="494.027" y="85.5267" width="3.48146" height="38.7195" transform="rotate(90 494.027 85.5267)" fill="url(#paint6_linear_6371_19129)"/>
<rect x="490.418" y="82.9158" width="2.6111" height="40.1536" transform="rotate(90 490.418 82.9158)" fill="url(#paint7_linear_6371_19129)"/>
<rect x="484.642" y="79.4342" width="3.48146" height="44.4558" transform="rotate(90 484.642 79.4342)" fill="url(#paint8_linear_6371_19129)"/>
<rect x="480.311" y="76.823" width="2.6111" height="45.8898" transform="rotate(90 480.311 76.823)" fill="url(#paint9_linear_6371_19129)"/>
<rect x="478.867" y="73.3418" width="3.48146" height="47.3239" transform="rotate(90 478.867 73.3418)" fill="url(#paint10_linear_6371_19129)"/>
<rect x="472.369" y="70.6747" width="3.12083" height="51.9792" transform="rotate(90 472.369 70.6747)" fill="url(#paint11_linear_6371_19129)"/>
<rect x="464.428" y="67.2491" width="3.48146" height="53.0601" transform="rotate(90 464.428 67.2491)" fill="url(#paint12_linear_6371_19129)"/>
<rect x="456.519" y="64.433" width="3.12083" height="70.7495" transform="rotate(90 456.519 64.433)" fill="url(#paint13_linear_6371_19129)"/>
<rect x="444.214" y="61.1565" width="3.48146" height="55.9282" transform="rotate(90 444.214 61.1565)" fill="url(#paint14_linear_6371_19129)"/>
<rect x="439.882" y="58.5454" width="2.6111" height="57.3623" transform="rotate(90 439.882 58.5454)" fill="url(#paint15_linear_6371_19129)"/>
<rect x="437.674" y="55.064" width="3.48146" height="61.6645" transform="rotate(90 437.674 55.064)" fill="url(#paint16_linear_6371_19129)"/>
<rect x="430.541" y="52.453" width="2.6111" height="63.0985" transform="rotate(90 430.541 52.453)" fill="url(#paint17_linear_6371_19129)"/>
<rect x="428.902" y="48.9716" width="3.48146" height="65.9666" transform="rotate(90 428.902 48.9716)" fill="url(#paint18_linear_6371_19129)"/>
<rect x="428.18" y="46.3602" width="2.6111" height="67.4007" transform="rotate(90 428.18 46.3602)" fill="url(#paint19_linear_6371_19129)"/>
<rect x="425.816" y="43.7491" width="2.6111" height="67.4007" transform="rotate(90 425.816 43.7491)" fill="url(#paint20_linear_6371_19129)"/>
<rect x="424.372" y="40.2677" width="3.48146" height="67.4007" transform="rotate(90 424.372 40.2677)" fill="url(#paint21_linear_6371_19129)"/>
<rect x="421.047" y="37.657" width="2.6111" height="68.8347" transform="rotate(90 421.047 37.657)" fill="url(#paint22_linear_6371_19129)"/>
<rect x="417.734" y="34.1752" width="3.48146" height="73.1369" transform="rotate(90 417.734 34.1752)" fill="url(#paint23_linear_6371_19129)"/>
<rect x="417.746" y="31.5641" width="2.6111" height="76.005" transform="rotate(90 417.746 31.5641)" fill="url(#paint24_linear_6371_19129)"/>
<rect x="415.372" y="28.0828" width="3.48146" height="77.4391" transform="rotate(90 415.372 28.0828)" fill="url(#paint25_linear_6371_19129)"/>
<rect x="413.95" y="25.4716" width="2.6111" height="78.8731" transform="rotate(90 413.95 25.4716)" fill="url(#paint26_linear_6371_19129)"/>
<rect x="413.48" y="21.99" width="3.48146" height="80.3072" transform="rotate(90 413.48 21.99)" fill="url(#paint27_linear_6371_19129)"/>
<rect x="413.975" y="19.379" width="2.6111" height="84.6094" transform="rotate(90 413.975 19.379)" fill="url(#paint28_linear_6371_19129)"/>
<rect x="413.035" y="15.8976" width="3.48146" height="87.4775" transform="rotate(90 413.035 15.8976)" fill="url(#paint29_linear_6371_19129)"/>
<rect x="411.132" y="13.2865" width="2.6111" height="87.4775" transform="rotate(90 411.132 13.2865)" fill="url(#paint30_linear_6371_19129)"/>
<rect width="3.745" height="53.0441" transform="matrix(4.37114e-08 -1 -1 -4.37114e-08 500.276 107.5)" fill="url(#paint31_linear_6371_19129)"/>
<rect width="2.49667" height="34.1517" transform="matrix(4.37114e-08 -1 -1 -4.37114e-08 483.563 109.997)" fill="url(#paint32_linear_6371_19129)"/>
<rect width="3.745" height="45.0512" transform="matrix(4.37114e-08 -1 -1 -4.37114e-08 475.57 113.742)" fill="url(#paint33_linear_6371_19129)"/>
<rect width="2.6539" height="31.9325" transform="matrix(4.37114e-08 -1 -1 -4.37114e-08 462.535 116.189)" fill="url(#paint34_linear_6371_19129)"/>
<rect width="3.53853" height="36.9745" transform="matrix(4.37114e-08 -1 -1 -4.37114e-08 453.771 119.728)" fill="url(#paint35_linear_6371_19129)"/>
<rect width="2.6539" height="38.6551" transform="matrix(4.37114e-08 -1 -1 -4.37114e-08 454.756 122.382)" fill="url(#paint36_linear_6371_19129)"/>
<rect width="3.53853" height="45.3778" transform="matrix(4.37114e-08 -1 -1 -4.37114e-08 447.958 125.92)" fill="url(#paint37_linear_6371_19129)"/>
<rect width="2.6539" height="47.0584" transform="matrix(4.37114e-08 -1 -1 -4.37114e-08 442.872 128.574)" fill="url(#paint38_linear_6371_19129)"/>
<rect width="3.53853" height="47.0584" transform="matrix(4.37114e-08 -1 -1 -4.37114e-08 438.299 132.113)" fill="url(#paint39_linear_6371_19129)"/>
<rect width="2.6539" height="48.7391" transform="matrix(4.37114e-08 -1 -1 -4.37114e-08 433.316 134.766)" fill="url(#paint40_linear_6371_19129)"/>
<rect width="2.85577" height="44.7404" transform="matrix(3.31942e-08 -1 -1 -5.75608e-08 432.173 137.077)" fill="url(#paint41_linear_6371_19129)"/>
<rect width="2.85577" height="45.6923" transform="matrix(3.31942e-08 -1 -1 -5.75608e-08 432.173 139.933)" fill="url(#paint42_linear_6371_19129)"/>
<rect width="3.80769" height="49.5" transform="matrix(3.31942e-08 -1 -1 -5.75608e-08 434.077 143.74)" fill="url(#paint43_linear_6371_19129)"/>
<rect width="3.80769" height="51.4038" transform="matrix(3.19175e-08 -1 -1 -5.98632e-08 435.981 147.548)" fill="url(#paint44_linear_6371_19129)"/>
<rect width="2.85577" height="53.3077" transform="matrix(3.19175e-08 -1 -1 -5.98632e-08 435.981 150.404)" fill="url(#paint45_linear_6371_19129)"/>
<rect width="2.85577" height="56.1635" transform="matrix(3.19175e-08 -1 -1 -5.98632e-08 435.029 153.26)" fill="url(#paint46_linear_6371_19129)"/>
<rect width="3.80769" height="44.7404" transform="matrix(3.19175e-08 -1 -1 -5.98632e-08 431.221 157.067)" fill="url(#paint47_linear_6371_19129)"/>
<rect width="1.90384" height="32.3654" transform="matrix(3.19175e-08 -1 -1 -5.98632e-08 429.318 158.971)" fill="url(#paint48_linear_6371_19129)"/>
<rect width="3.80769" height="28.5577" transform="matrix(4.27646e-08 -1 -1 -4.46791e-08 424.558 162.779)" fill="url(#paint49_linear_6371_19129)"/>
<rect width="3.80769" height="25.7019" transform="matrix(2.24937e-08 -1 -1 -8.49432e-08 422.654 165.635)" fill="url(#paint50_linear_6371_19129)"/>
<rect width="2.85577" height="26.6538" transform="matrix(2.10458e-08 -1 -1 -9.07872e-08 419.798 168.49)" fill="url(#paint51_linear_6371_19129)"/>
<rect width="3.80769" height="26.6538" transform="matrix(2.10458e-08 -1 -1 -9.07872e-08 415.991 172.298)" fill="url(#paint52_linear_6371_19129)"/>
<rect width="2.85577" height="19.9904" transform="matrix(5.08532e-08 -1 -1 -3.75726e-08 415.039 174.202)" fill="url(#paint53_linear_6371_19129)"/>
<rect width="3.80769" height="20.9423" transform="matrix(5.08532e-08 -1 -1 -3.75726e-08 412.183 178.01)" fill="url(#paint54_linear_6371_19129)"/>
</g>
</g>
<path d="M398.616 196.708H395.307V205.192H396.519V202.623H398.616C400.822 202.623 402.155 201.508 402.155 199.666C402.155 197.823 400.822 196.708 398.616 196.708ZM398.58 201.568H396.519V197.763H398.58C400.131 197.763 400.943 198.454 400.943 199.666C400.943 200.878 400.131 201.568 398.58 201.568ZM405.017 199.847V198.769H403.902V205.192H405.065V201.993C405.065 200.587 405.841 199.823 407.089 199.823C407.174 199.823 407.259 199.823 407.356 199.835V198.708C406.229 198.708 405.429 199.096 405.017 199.847ZM409.614 197.533C410.075 197.533 410.402 197.193 410.402 196.757C410.402 196.345 410.063 196.018 409.614 196.018C409.166 196.018 408.826 196.357 408.826 196.781C408.826 197.205 409.166 197.533 409.614 197.533ZM409.032 205.192H410.196V198.769H409.032V205.192ZM415.46 205.265C416.611 205.265 417.568 204.78 418.077 203.883L417.193 203.326C416.781 203.956 416.15 204.247 415.447 204.247C414.187 204.247 413.242 203.374 413.242 201.981C413.242 200.611 414.187 199.726 415.447 199.726C416.15 199.726 416.781 200.017 417.193 200.647L418.077 200.078C417.568 199.181 416.611 198.708 415.46 198.708C413.484 198.708 412.066 200.066 412.066 201.981C412.066 203.895 413.484 205.265 415.46 205.265ZM425.632 202.017C425.632 200.041 424.311 198.708 422.456 198.708C420.602 198.708 419.232 200.078 419.232 201.981C419.232 203.895 420.614 205.265 422.686 205.265C423.753 205.265 424.638 204.901 425.219 204.223L424.577 203.471C424.104 203.992 423.474 204.247 422.723 204.247C421.45 204.247 420.541 203.495 420.396 202.368H425.607C425.619 202.259 425.632 202.114 425.632 202.017ZM422.456 199.69C423.583 199.69 424.395 200.453 424.517 201.532H420.396C420.517 200.441 421.341 199.69 422.456 199.69Z" fill="#9B8FAE"/>
<path d="M530.796 98.5769H536.601V97.5225H532.008L532.008 90.093H530.796V98.5769ZM538.404 90.9172C538.864 90.9172 539.192 90.5778 539.192 90.1415C539.192 89.7294 538.852 89.4022 538.404 89.4022C537.955 89.4022 537.616 89.7416 537.616 90.1658C537.616 90.5899 537.955 90.9172 538.404 90.9172ZM537.822 98.5769H538.986V92.1534H537.822V98.5769ZM546.152 92.1534V93.1715C545.631 92.4564 544.807 92.0928 543.861 92.0928C541.983 92.0928 540.613 93.4017 540.613 95.3652C540.613 97.3407 541.983 98.6496 543.861 98.6496C544.77 98.6496 545.57 98.2981 546.104 97.6073V100.928H547.267V92.1534H546.152ZM543.958 97.6316C542.722 97.6316 541.789 96.7347 541.789 95.3652C541.789 94.0077 542.722 93.1109 543.958 93.1109C545.182 93.1109 546.116 94.0077 546.116 95.3652C546.116 96.7347 545.182 97.6316 543.958 97.6316ZM554.292 92.1534V95.4742C554.292 96.8559 553.517 97.6073 552.305 97.6073C551.202 97.6073 550.571 96.9771 550.571 95.7166V92.1534H549.408V95.8499C549.408 97.7406 550.511 98.6496 552.171 98.6496C553.08 98.6496 553.88 98.2739 554.353 97.6073V98.5769H555.456V92.1534H554.292ZM558.252 90.9172C558.713 90.9172 559.04 90.5778 559.04 90.1415C559.04 89.7294 558.701 89.4022 558.252 89.4022C557.804 89.4022 557.465 89.7416 557.465 90.1658C557.465 90.5899 557.804 90.9172 558.252 90.9172ZM557.671 98.5769H558.834V92.1534H557.671V98.5769ZM565.952 89.584V93.123C565.419 92.4322 564.619 92.0928 563.71 92.0928C561.831 92.0928 560.462 93.4017 560.462 95.3652C560.462 97.3286 561.831 98.6496 563.71 98.6496C564.655 98.6496 565.479 98.286 566.001 97.5588V98.5769H567.116V89.584H565.952ZM563.807 97.6316C562.571 97.6316 561.637 96.7347 561.637 95.3652C561.637 93.9956 562.571 93.1109 563.807 93.1109C565.031 93.1109 565.964 93.9956 565.964 95.3652C565.964 96.7347 565.031 97.6316 563.807 97.6316ZM569.899 90.9172C570.359 90.9172 570.687 90.5778 570.687 90.1415C570.687 89.7294 570.347 89.4022 569.899 89.4022C569.45 89.4022 569.111 89.7416 569.111 90.1658C569.111 90.5899 569.45 90.9172 569.899 90.9172ZM569.317 98.5769H570.481V92.1534H569.317V98.5769ZM575.95 97.3649C575.708 97.5588 575.381 97.6679 575.041 97.6679C574.399 97.6679 574.035 97.2801 574.035 96.5893V93.1109H575.878V92.1534H574.035V90.7475H572.872V92.1534H571.781V93.1109H572.872V96.6377C572.872 97.9346 573.611 98.6496 574.908 98.6496C575.429 98.6496 575.962 98.5042 576.314 98.2012L575.95 97.3649ZM582.147 92.1534L579.929 97.2922L577.687 92.1534H576.475L579.311 98.5648L579.105 99.0132C578.79 99.7525 578.438 100.007 577.881 100.007C577.445 100.007 577.045 99.8374 576.73 99.5344L576.233 100.407C576.633 100.795 577.263 101.001 577.881 101.001C578.863 101.001 579.602 100.577 580.172 99.2193L583.286 92.1534H582.147Z" fill="#9B8FAE"/>
<path d="M410.279 190.385L410.279 2.92957e-05" stroke="#9B8FAE" stroke-width="0.731494"/>
<path d="M9.32611 17.9034L7.10818 23.0422L4.86602 17.9034H3.65404L6.49007 24.3148L6.28404 24.7632C5.96892 25.5025 5.61745 25.757 5.05994 25.757C4.62362 25.757 4.22367 25.5874 3.90855 25.2844L3.41164 26.157C3.81159 26.5448 4.44182 26.7509 5.05994 26.7509C6.04164 26.7509 6.78095 26.3267 7.35058 24.9693L10.4654 17.9034H9.32611Z" fill="#9B8FAE"/>
<path d="M258.775 211.065L256.218 207.78L258.642 204.641H257.369L255.612 206.956L253.842 204.641H252.546L254.957 207.78L252.424 211.065H253.721L255.6 208.605L257.454 211.065H258.775Z" fill="#9B8FAE"/>
<path d="M91.9098 117.637H90.1556V122.135H90.7982V120.772H91.9098C93.0792 120.772 93.786 120.181 93.786 119.205C93.786 118.228 93.0792 117.637 91.9098 117.637ZM91.8905 120.213H90.7982V118.196H91.8905C92.713 118.196 93.1435 118.562 93.1435 119.205C93.1435 119.847 92.713 120.213 91.8905 120.213ZM96.1118 122.173C96.7222 122.173 97.2298 121.916 97.4997 121.441L97.0306 121.145C96.8122 121.479 96.4781 121.633 96.1054 121.633C95.4371 121.633 94.9359 121.171 94.9359 120.432C94.9359 119.706 95.4371 119.237 96.1054 119.237C96.4781 119.237 96.8122 119.391 97.0306 119.725L97.4997 119.423C97.2298 118.948 96.7222 118.697 96.1118 118.697C95.0644 118.697 94.3127 119.417 94.3127 120.432C94.3127 121.447 95.0644 122.173 96.1118 122.173Z" fill="#9B8FAE"/>
<path d="M16.3442 19.2085L16.3442 195.654" stroke="#9B8FAE" stroke-width="0.731494"/>
<path d="M258.957 195.654L16.3443 195.654" stroke="#9B8FAE" stroke-width="0.731494"/>
<path d="M54.5606 14.1423H58.6386C59.6337 14.1423 60.5177 14.3378 61.2907 14.7287C62.0637 15.1108 62.6634 15.6572 63.0898 16.3679C63.5163 17.0698 63.7295 17.8828 63.7295 18.8068C63.7295 19.7308 63.5163 20.5482 63.0898 21.2589C62.6634 21.9608 62.0637 22.5072 61.2907 22.8981C60.5177 23.2802 59.6337 23.4712 58.6386 23.4712H54.5606V14.1423ZM58.5587 22.0052C59.2428 22.0052 59.8425 21.8764 60.3578 21.6187C60.882 21.3522 61.2818 20.9791 61.5572 20.4993C61.8415 20.0106 61.9837 19.4465 61.9837 18.8068C61.9837 18.1671 61.8415 17.6073 61.5572 17.1276C61.2818 16.6389 60.882 16.2658 60.3578 16.0081C59.8425 15.7416 59.2428 15.6083 58.5587 15.6083H56.2931V22.0052H58.5587ZM65.411 16.3546H67.0769V23.4712H65.411V16.3546ZM66.2506 15.1818C65.9485 15.1818 65.6953 15.0886 65.491 14.902C65.2866 14.7065 65.1844 14.4666 65.1844 14.1823C65.1844 13.898 65.2866 13.6626 65.491 13.476C65.6953 13.2805 65.9485 13.1828 66.2506 13.1828C66.5527 13.1828 66.8059 13.2761 67.0102 13.4627C67.2146 13.6404 67.3167 13.8669 67.3167 14.1423C67.3167 14.4355 67.2146 14.6843 67.0102 14.8887C66.8148 15.0841 66.5616 15.1818 66.2506 15.1818ZM71.4623 23.5645C70.8848 23.5645 70.3206 23.489 69.7697 23.3379C69.2189 23.1869 68.7791 22.9959 68.4504 22.7649L69.0901 21.4988C69.4099 21.712 69.7919 21.8853 70.2362 22.0186C70.6893 22.1429 71.1335 22.2051 71.5689 22.2051C72.5639 22.2051 73.0615 21.943 73.0615 21.4188C73.0615 21.1701 72.9327 20.9968 72.675 20.8991C72.4262 20.8014 72.022 20.7081 71.4623 20.6192C70.8759 20.5304 70.3961 20.4282 70.0229 20.3127C69.6587 20.1972 69.3388 19.9973 69.0634 19.713C68.7969 19.4198 68.6636 19.0156 68.6636 18.5002C68.6636 17.825 68.9435 17.2875 69.5032 16.8877C70.0718 16.479 70.8359 16.2747 71.7954 16.2747C72.2841 16.2747 72.7727 16.3324 73.2614 16.4479C73.75 16.5545 74.1499 16.7011 74.4608 16.8877L73.8211 18.1537C73.217 17.7984 72.5373 17.6207 71.7821 17.6207C71.2934 17.6207 70.9203 17.6962 70.6626 17.8472C70.4139 17.9894 70.2895 18.1804 70.2895 18.4203C70.2895 18.6868 70.4228 18.8778 70.6893 18.9933C70.9647 19.1 71.3867 19.2021 71.9554 19.2999C72.524 19.3887 72.9904 19.4909 73.3547 19.6064C73.7189 19.7219 74.0299 19.9173 74.2876 20.1928C74.5541 20.4682 74.6874 20.8591 74.6874 21.3655C74.6874 22.0319 74.3986 22.565 73.8211 22.9648C73.2436 23.3646 72.4573 23.5645 71.4623 23.5645ZM79.3871 23.5645C78.6497 23.5645 77.9878 23.409 77.4014 23.098C76.815 22.7871 76.3574 22.3562 76.0287 21.8053C75.7 21.2456 75.5356 20.6148 75.5356 19.9129C75.5356 19.211 75.7 18.5847 76.0287 18.0338C76.3574 17.483 76.8105 17.0521 77.388 16.7411C77.9744 16.4301 78.6408 16.2747 79.3871 16.2747C80.089 16.2747 80.702 16.4168 81.2262 16.7011C81.7593 16.9854 82.1591 17.3941 82.4256 17.9272L81.1462 18.6735C80.9419 18.3448 80.6842 18.1004 80.3733 17.9405C80.0712 17.7717 79.738 17.6873 79.3738 17.6873C78.7518 17.6873 78.2365 17.8917 77.8278 18.3003C77.4191 18.7002 77.2148 19.2377 77.2148 19.9129C77.2148 20.5881 77.4147 21.1301 77.8145 21.5388C78.2232 21.9386 78.743 22.1385 79.3738 22.1385C79.738 22.1385 80.0712 22.0585 80.3733 21.8986C80.6842 21.7298 80.9419 21.481 81.1462 21.1523L82.4256 21.8986C82.1502 22.4317 81.746 22.8448 81.2129 23.138C80.6887 23.4223 80.0801 23.5645 79.3871 23.5645ZM85.4516 17.3941C85.9313 16.6478 86.7754 16.2747 87.9837 16.2747V17.8606C87.8415 17.8339 87.7127 17.8206 87.5972 17.8206C86.9486 17.8206 86.4422 18.0116 86.0779 18.3936C85.7137 18.7668 85.5315 19.3087 85.5315 20.0195V23.4712H83.8657V16.3546H85.4516V17.3941ZM96.0219 19.9529C96.0219 20.0684 96.013 20.2327 95.9952 20.446H90.4113C90.509 20.9702 90.7622 21.3877 91.1709 21.6987C91.5885 22.0008 92.1038 22.1518 92.7168 22.1518C93.4987 22.1518 94.1428 21.8942 94.6492 21.3789L95.5421 22.405C95.2223 22.7871 94.818 23.0758 94.3294 23.2713C93.8407 23.4667 93.2899 23.5645 92.6768 23.5645C91.895 23.5645 91.2064 23.409 90.6112 23.098C90.0159 22.7871 89.5539 22.3562 89.2252 21.8053C88.9053 21.2456 88.7454 20.6148 88.7454 19.9129C88.7454 19.2199 88.9009 18.598 89.2118 18.0471C89.5317 17.4874 89.9715 17.0521 90.5312 16.7411C91.0909 16.4301 91.7217 16.2747 92.4236 16.2747C93.1166 16.2747 93.7341 16.4301 94.2761 16.7411C94.8269 17.0432 95.2534 17.4741 95.5555 18.0338C95.8664 18.5847 96.0219 19.2243 96.0219 19.9529ZM92.4236 17.6073C91.8906 17.6073 91.4374 17.7673 91.0643 18.0871C90.7 18.3981 90.4779 18.8157 90.3979 19.3398H94.436C94.3649 18.8245 94.1472 18.407 93.783 18.0871C93.4187 17.7673 92.9656 17.6073 92.4236 17.6073ZM101.9 23.0847C101.705 23.2446 101.465 23.3646 101.18 23.4445C100.905 23.5245 100.612 23.5645 100.301 23.5645C99.5189 23.5645 98.9148 23.3601 98.4883 22.9514C98.0619 22.5427 97.8486 21.9475 97.8486 21.1656V17.7406H96.6759V16.4079H97.8486V14.782H99.5145V16.4079H101.42V17.7406H99.5145V21.1257C99.5145 21.4722 99.5989 21.7387 99.7677 21.9253C99.9365 22.103 100.181 22.1918 100.501 22.1918C100.874 22.1918 101.185 22.0941 101.434 21.8986L101.9 23.0847ZM103.27 16.3546H104.936V23.4712H103.27V16.3546ZM104.11 15.1818C103.808 15.1818 103.555 15.0886 103.35 14.902C103.146 14.7065 103.044 14.4666 103.044 14.1823C103.044 13.898 103.146 13.6626 103.35 13.476C103.555 13.2805 103.808 13.1828 104.11 13.1828C104.412 13.1828 104.665 13.2761 104.87 13.4627C105.074 13.6404 105.176 13.8669 105.176 14.1423C105.176 14.4355 105.074 14.6843 104.87 14.8887C104.674 15.0841 104.421 15.1818 104.11 15.1818ZM112.68 22.1385V23.4712H106.536V22.4184L110.441 17.6873H106.616V16.3546H112.573V17.4074L108.655 22.1385H112.68ZM120.802 19.9529C120.802 20.0684 120.793 20.2327 120.775 20.446H115.191C115.289 20.9702 115.542 21.3877 115.951 21.6987C116.368 22.0008 116.884 22.1518 117.497 22.1518C118.278 22.1518 118.923 21.8942 119.429 21.3789L120.322 22.405C120.002 22.7871 119.598 23.0758 119.109 23.2713C118.62 23.4667 118.07 23.5645 117.457 23.5645C116.675 23.5645 115.986 23.409 115.391 23.098C114.796 22.7871 114.334 22.3562 114.005 21.8053C113.685 21.2456 113.525 20.6148 113.525 19.9129C113.525 19.2199 113.681 18.598 113.992 18.0471C114.311 17.4874 114.751 17.0521 115.311 16.7411C115.871 16.4301 116.501 16.2747 117.203 16.2747C117.896 16.2747 118.514 16.4301 119.056 16.7411C119.607 17.0432 120.033 17.4741 120.335 18.0338C120.646 18.5847 120.802 19.2243 120.802 19.9529ZM117.203 17.6073C116.67 17.6073 116.217 17.7673 115.844 18.0871C115.48 18.3981 115.258 18.8157 115.178 19.3398H119.216C119.145 18.8245 118.927 18.407 118.563 18.0871C118.198 17.7673 117.745 17.6073 117.203 17.6073ZM129.372 13.5826V23.4712H127.773V22.5516C127.497 22.8892 127.155 23.1425 126.746 23.3113C126.347 23.4801 125.902 23.5645 125.414 23.5645C124.73 23.5645 124.112 23.4134 123.561 23.1114C123.019 22.8093 122.593 22.3828 122.282 21.832C121.971 21.2722 121.815 20.6326 121.815 19.9129C121.815 19.1932 121.971 18.558 122.282 18.0072C122.593 17.4563 123.019 17.0298 123.561 16.7278C124.112 16.4257 124.73 16.2747 125.414 16.2747C125.885 16.2747 126.315 16.3546 126.706 16.5145C127.097 16.6745 127.431 16.9143 127.706 17.2342V13.5826H129.372ZM125.614 22.1385C126.013 22.1385 126.373 22.0497 126.693 21.872C127.013 21.6854 127.266 21.4233 127.453 21.0857C127.639 20.7481 127.733 20.3571 127.733 19.9129C127.733 19.4687 127.639 19.0777 127.453 18.7401C127.266 18.4025 127.013 18.1449 126.693 17.9672C126.373 17.7806 126.013 17.6873 125.614 17.6873C125.214 17.6873 124.854 17.7806 124.534 17.9672C124.214 18.1449 123.961 18.4025 123.774 18.7401C123.588 19.0777 123.495 19.4687 123.495 19.9129C123.495 20.3571 123.588 20.7481 123.774 21.0857C123.961 21.4233 124.214 21.6854 124.534 21.872C124.854 22.0497 125.214 22.1385 125.614 22.1385ZM135.394 14.1423H137.127V22.0052H142.004V23.4712H135.394V14.1423ZM143.212 16.3546H144.878V23.4712H143.212V16.3546ZM144.052 15.1818C143.75 15.1818 143.496 15.0886 143.292 14.902C143.088 14.7065 142.986 14.4666 142.986 14.1823C142.986 13.898 143.088 13.6626 143.292 13.476C143.496 13.2805 143.75 13.1828 144.052 13.1828C144.354 13.1828 144.607 13.2761 144.811 13.4627C145.016 13.6404 145.118 13.8669 145.118 14.1423C145.118 14.4355 145.016 14.6843 144.811 14.8887C144.616 15.0841 144.363 15.1818 144.052 15.1818ZM154.021 16.3546V26.0566H152.355V22.6049C151.795 23.2446 151.036 23.5645 150.076 23.5645C149.383 23.5645 148.761 23.4134 148.211 23.1114C147.669 22.8093 147.242 22.3828 146.931 21.832C146.629 21.2811 146.478 20.6414 146.478 19.9129C146.478 19.1932 146.634 18.558 146.944 18.0072C147.255 17.4563 147.682 17.0298 148.224 16.7278C148.766 16.4257 149.383 16.2747 150.076 16.2747C150.565 16.2747 151.009 16.3591 151.409 16.5279C151.818 16.6967 152.16 16.9499 152.435 17.2875V16.3546H154.021ZM150.263 22.1385C150.876 22.1385 151.382 21.9342 151.782 21.5255C152.182 21.1168 152.382 20.5792 152.382 19.9129C152.382 19.2466 152.182 18.709 151.782 18.3003C151.382 17.8917 150.876 17.6873 150.263 17.6873C149.65 17.6873 149.143 17.8917 148.744 18.3003C148.353 18.709 148.157 19.2466 148.157 19.9129C148.157 20.5792 148.353 21.1168 148.744 21.5255C149.143 21.9342 149.65 22.1385 150.263 22.1385ZM163.091 16.3546V23.4712H161.505V22.565C161.238 22.8848 160.905 23.1336 160.505 23.3113C160.105 23.4801 159.675 23.5645 159.213 23.5645C158.262 23.5645 157.511 23.3024 156.96 22.7782C156.418 22.2451 156.147 21.4588 156.147 20.4193V16.3546H157.813V20.1928C157.813 20.8325 157.955 21.3122 158.24 21.6321C158.533 21.943 158.946 22.0985 159.479 22.0985C160.074 22.0985 160.545 21.9164 160.892 21.5521C161.247 21.179 161.425 20.6459 161.425 19.9529V16.3546H163.091ZM165.272 16.3546H166.938V23.4712H165.272V16.3546ZM166.111 15.1818C165.809 15.1818 165.556 15.0886 165.352 14.902C165.147 14.7065 165.045 14.4666 165.045 14.1823C165.045 13.898 165.147 13.6626 165.352 13.476C165.556 13.2805 165.809 13.1828 166.111 13.1828C166.413 13.1828 166.667 13.2761 166.871 13.4627C167.075 13.6404 167.178 13.8669 167.178 14.1423C167.178 14.4355 167.075 14.6843 166.871 14.8887C166.676 15.0841 166.422 15.1818 166.111 15.1818ZM176.094 13.5826V23.4712H174.495V22.5516C174.219 22.8892 173.877 23.1425 173.469 23.3113C173.069 23.4801 172.625 23.5645 172.136 23.5645C171.452 23.5645 170.834 23.4134 170.284 23.1114C169.742 22.8093 169.315 22.3828 169.004 21.832C168.693 21.2722 168.538 20.6326 168.538 19.9129C168.538 19.1932 168.693 18.558 169.004 18.0072C169.315 17.4563 169.742 17.0298 170.284 16.7278C170.834 16.4257 171.452 16.2747 172.136 16.2747C172.607 16.2747 173.038 16.3546 173.429 16.5145C173.82 16.6745 174.153 16.9143 174.428 17.2342V13.5826H176.094ZM172.336 22.1385C172.736 22.1385 173.096 22.0497 173.415 21.872C173.735 21.6854 173.988 21.4233 174.175 21.0857C174.362 20.7481 174.455 20.3571 174.455 19.9129C174.455 19.4687 174.362 19.0777 174.175 18.7401C173.988 18.4025 173.735 18.1449 173.415 17.9672C173.096 17.7806 172.736 17.6873 172.336 17.6873C171.936 17.6873 171.576 17.7806 171.256 17.9672C170.937 18.1449 170.683 18.4025 170.497 18.7401C170.31 19.0777 170.217 19.4687 170.217 19.9129C170.217 20.3571 170.31 20.7481 170.497 21.0857C170.683 21.4233 170.937 21.6854 171.256 21.872C171.576 22.0497 171.936 22.1385 172.336 22.1385ZM178.273 16.3546H179.939V23.4712H178.273V16.3546ZM179.113 15.1818C178.811 15.1818 178.558 15.0886 178.353 14.902C178.149 14.7065 178.047 14.4666 178.047 14.1823C178.047 13.898 178.149 13.6626 178.353 13.476C178.558 13.2805 178.811 13.1828 179.113 13.1828C179.415 13.1828 179.668 13.2761 179.873 13.4627C180.077 13.6404 180.179 13.8669 180.179 14.1423C180.179 14.4355 180.077 14.6843 179.873 14.8887C179.677 15.0841 179.424 15.1818 179.113 15.1818ZM186.404 23.0847C186.208 23.2446 185.968 23.3646 185.684 23.4445C185.409 23.5245 185.115 23.5645 184.804 23.5645C184.023 23.5645 183.418 23.3601 182.992 22.9514C182.565 22.5427 182.352 21.9475 182.352 21.1656V17.7406H181.179V16.4079H182.352V14.782H184.018V16.4079H185.924V17.7406H184.018V21.1257C184.018 21.4722 184.103 21.7387 184.271 21.9253C184.44 22.103 184.684 22.1918 185.004 22.1918C185.377 22.1918 185.688 22.0941 185.937 21.8986L186.404 23.0847ZM194.307 16.3546L190.976 24.0442C190.665 24.8172 190.287 25.3592 189.843 25.6701C189.399 25.99 188.861 26.1499 188.23 26.1499C187.875 26.1499 187.524 26.0922 187.177 25.9767C186.831 25.8612 186.547 25.7012 186.325 25.4969L186.991 24.2708C187.151 24.4218 187.337 24.5418 187.551 24.6306C187.773 24.7195 187.995 24.7639 188.217 24.7639C188.51 24.7639 188.75 24.6884 188.937 24.5373C189.132 24.3863 189.31 24.1331 189.47 23.7777L189.59 23.4978L186.484 16.3546H188.217L190.456 21.6187L192.708 16.3546H194.307ZM60.611 37.3122H55.9466L55.027 39.4712H53.2412L57.4392 30.1423H59.1451L63.3564 39.4712H61.5439L60.611 37.3122ZM60.038 35.9529L58.2788 31.8748L56.533 35.9529H60.038ZM73.112 39.4712L73.0987 33.2875L70.0335 38.405H69.2605L66.1953 33.3675V39.4712H64.5428V30.1423H65.9688L69.6736 36.326L73.3119 30.1423H74.7379L74.7512 39.4712H73.112ZM85.8402 39.4712L85.8269 33.2875L82.7617 38.405H81.9888L78.9236 33.3675V39.4712H77.271V30.1423H78.697L82.4019 36.326L86.0401 30.1423H87.4661L87.4794 39.4712H85.8402ZM102.252 39.4712L102.238 33.2875L99.1731 38.405H98.4001L95.3349 33.3675V39.4712H93.6824V30.1423H95.1084L98.8133 36.326L102.452 30.1423H103.877L103.891 39.4712H102.252ZM109.449 39.5645C108.73 39.5645 108.081 39.409 107.503 39.098C106.926 38.7871 106.473 38.3562 106.144 37.8053C105.824 37.2456 105.664 36.6148 105.664 35.9129C105.664 35.211 105.824 34.5847 106.144 34.0338C106.473 33.483 106.926 33.0521 107.503 32.7411C108.081 32.4301 108.73 32.2747 109.449 32.2747C110.178 32.2747 110.831 32.4301 111.408 32.7411C111.986 33.0521 112.434 33.483 112.754 34.0338C113.083 34.5847 113.247 35.211 113.247 35.9129C113.247 36.6148 113.083 37.2456 112.754 37.8053C112.434 38.3562 111.986 38.7871 111.408 39.098C110.831 39.409 110.178 39.5645 109.449 39.5645ZM109.449 38.1385C110.062 38.1385 110.569 37.9342 110.968 37.5255C111.368 37.1168 111.568 36.5792 111.568 35.9129C111.568 35.2466 111.368 34.709 110.968 34.3003C110.569 33.8917 110.062 33.6873 109.449 33.6873C108.836 33.6873 108.33 33.8917 107.93 34.3003C107.539 34.709 107.344 35.2466 107.344 35.9129C107.344 36.5792 107.539 37.1168 107.93 37.5255C108.33 37.9342 108.836 38.1385 109.449 38.1385ZM121.81 29.5826V39.4712H120.211V38.5516C119.936 38.8892 119.594 39.1425 119.185 39.3113C118.785 39.4801 118.341 39.5645 117.852 39.5645C117.168 39.5645 116.551 39.4134 116 39.1114C115.458 38.8093 115.031 38.3828 114.72 37.832C114.409 37.2722 114.254 36.6326 114.254 35.9129C114.254 35.1932 114.409 34.558 114.72 34.0072C115.031 33.4563 115.458 33.0298 116 32.7278C116.551 32.4257 117.168 32.2747 117.852 32.2747C118.323 32.2747 118.754 32.3546 119.145 32.5145C119.536 32.6745 119.869 32.9143 120.144 33.2342V29.5826H121.81ZM118.052 38.1385C118.452 38.1385 118.812 38.0497 119.132 37.872C119.451 37.6854 119.705 37.4233 119.891 37.0857C120.078 36.7481 120.171 36.3571 120.171 35.9129C120.171 35.4687 120.078 35.0777 119.891 34.7401C119.705 34.4025 119.451 34.1449 119.132 33.9672C118.812 33.7806 118.452 33.6873 118.052 33.6873C117.652 33.6873 117.293 33.7806 116.973 33.9672C116.653 34.1449 116.4 34.4025 116.213 34.7401C116.026 35.0777 115.933 35.4687 115.933 35.9129C115.933 36.3571 116.026 36.7481 116.213 37.0857C116.4 37.4233 116.653 37.6854 116.973 37.872C117.293 38.0497 117.652 38.1385 118.052 38.1385ZM130.68 35.9529C130.68 36.0684 130.671 36.2327 130.653 36.446H125.069C125.167 36.9702 125.42 37.3877 125.829 37.6987C126.246 38.0008 126.762 38.1518 127.375 38.1518C128.156 38.1518 128.801 37.8942 129.307 37.3789L130.2 38.405C129.88 38.7871 129.476 39.0758 128.987 39.2713C128.499 39.4667 127.948 39.5645 127.335 39.5645C126.553 39.5645 125.864 39.409 125.269 39.098C124.674 38.7871 124.212 38.3562 123.883 37.8053C123.563 37.2456 123.403 36.6148 123.403 35.9129C123.403 35.2199 123.559 34.598 123.87 34.0471C124.19 33.4874 124.629 33.0521 125.189 32.7411C125.749 32.4301 126.38 32.2747 127.081 32.2747C127.774 32.2747 128.392 32.4301 128.934 32.7411C129.485 33.0432 129.911 33.4741 130.213 34.0338C130.524 34.5847 130.68 35.2243 130.68 35.9529ZM127.081 33.6073C126.548 33.6073 126.095 33.7673 125.722 34.0871C125.358 34.3981 125.136 34.8157 125.056 35.3398H129.094C129.023 34.8245 128.805 34.407 128.441 34.0871C128.077 33.7673 127.623 33.6073 127.081 33.6073ZM132.28 29.5826H133.946V39.4712H132.28V29.5826Z" fill="#52466A"/>
<path d="M454.368 9.3827H458.446C459.441 9.3827 460.325 9.57816 461.098 9.96909C461.871 10.3511 462.471 10.8975 462.897 11.6083C463.324 12.3102 463.537 13.1231 463.537 14.0471C463.537 14.9711 463.324 15.7885 462.897 16.4993C462.471 17.2012 461.871 17.7476 461.098 18.1385C460.325 18.5205 459.441 18.7115 458.446 18.7115H454.368V9.3827ZM458.366 17.2456C459.05 17.2456 459.65 17.1168 460.165 16.8591C460.69 16.5926 461.089 16.2194 461.365 15.7396C461.649 15.251 461.791 14.6868 461.791 14.0471C461.791 13.4074 461.649 12.8477 461.365 12.3679C461.089 11.8793 460.69 11.5061 460.165 11.2485C459.65 10.9819 459.05 10.8487 458.366 10.8487H456.101V17.2456H458.366ZM465.219 11.595H466.884V18.7115H465.219V11.595ZM466.058 10.4222C465.756 10.4222 465.503 10.3289 465.299 10.1423C465.094 9.94687 464.992 9.70699 464.992 9.42268C464.992 9.13837 465.094 8.90293 465.299 8.71635C465.503 8.52089 465.756 8.42316 466.058 8.42316C466.36 8.42316 466.614 8.51645 466.818 8.70303C467.022 8.88072 467.124 9.10728 467.124 9.3827C467.124 9.67589 467.022 9.92466 466.818 10.129C466.622 10.3245 466.369 10.4222 466.058 10.4222ZM471.27 18.8048C470.692 18.8048 470.128 18.7293 469.577 18.5783C469.027 18.4272 468.587 18.2362 468.258 18.0052L468.898 16.7392C469.218 16.9524 469.6 17.1256 470.044 17.2589C470.497 17.3833 470.941 17.4455 471.376 17.4455C472.372 17.4455 472.869 17.1834 472.869 16.6592C472.869 16.4104 472.74 16.2372 472.483 16.1395C472.234 16.0417 471.83 15.9484 471.27 15.8596C470.683 15.7707 470.204 15.6686 469.831 15.5531C469.466 15.4376 469.146 15.2377 468.871 14.9534C468.604 14.6602 468.471 14.2559 468.471 13.7406C468.471 13.0654 468.751 12.5279 469.311 12.128C469.879 11.7194 470.644 11.515 471.603 11.515C472.092 11.515 472.58 11.5728 473.069 11.6883C473.558 11.7949 473.957 11.9415 474.268 12.128L473.629 13.3941C473.025 13.0387 472.345 12.861 471.59 12.861C471.101 12.861 470.728 12.9365 470.47 13.0876C470.221 13.2297 470.097 13.4208 470.097 13.6606C470.097 13.9272 470.23 14.1182 470.497 14.2337C470.772 14.3403 471.194 14.4425 471.763 14.5402C472.332 14.6291 472.798 14.7312 473.162 14.8467C473.527 14.9622 473.838 15.1577 474.095 15.4331C474.362 15.7085 474.495 16.0995 474.495 16.6059C474.495 17.2722 474.206 17.8053 473.629 18.2051C473.051 18.6049 472.265 18.8048 471.27 18.8048ZM479.195 18.8048C478.457 18.8048 477.795 18.6494 477.209 18.3384C476.623 18.0274 476.165 17.5965 475.836 17.0457C475.508 16.486 475.343 15.8551 475.343 15.1533C475.343 14.4514 475.508 13.825 475.836 13.2742C476.165 12.7233 476.618 12.2924 477.196 11.9815C477.782 11.6705 478.448 11.515 479.195 11.515C479.897 11.515 480.51 11.6572 481.034 11.9415C481.567 12.2258 481.967 12.6345 482.233 13.1675L480.954 13.9139C480.75 13.5851 480.492 13.3408 480.181 13.1809C479.879 13.0121 479.546 12.9277 479.181 12.9277C478.559 12.9277 478.044 13.132 477.635 13.5407C477.227 13.9405 477.022 14.478 477.022 15.1533C477.022 15.8285 477.222 16.3705 477.622 16.7791C478.031 17.179 478.551 17.3789 479.181 17.3789C479.546 17.3789 479.879 17.2989 480.181 17.139C480.492 16.9702 480.75 16.7214 480.954 16.3927L482.233 17.139C481.958 17.672 481.554 18.0852 481.02 18.3784C480.496 18.6627 479.888 18.8048 479.195 18.8048ZM485.259 12.6345C485.739 11.8882 486.583 11.515 487.791 11.515V13.1009C487.649 13.0743 487.52 13.0609 487.405 13.0609C486.756 13.0609 486.25 13.252 485.886 13.634C485.521 14.0071 485.339 14.5491 485.339 15.2599V18.7115H483.673V11.595H485.259V12.6345ZM495.83 15.1932C495.83 15.3087 495.821 15.4731 495.803 15.6863H490.219C490.317 16.2105 490.57 16.6281 490.979 16.9391C491.396 17.2411 491.911 17.3922 492.524 17.3922C493.306 17.3922 493.95 17.1345 494.457 16.6192L495.35 17.6454C495.03 18.0274 494.626 18.3162 494.137 18.5116C493.648 18.7071 493.097 18.8048 492.484 18.8048C491.703 18.8048 491.014 18.6494 490.419 18.3384C489.824 18.0274 489.362 17.5965 489.033 17.0457C488.713 16.486 488.553 15.8551 488.553 15.1533C488.553 14.4603 488.708 13.8383 489.019 13.2875C489.339 12.7278 489.779 12.2924 490.339 11.9815C490.899 11.6705 491.529 11.515 492.231 11.515C492.924 11.515 493.542 11.6705 494.084 11.9815C494.635 12.2835 495.061 12.7144 495.363 13.2742C495.674 13.825 495.83 14.4647 495.83 15.1932ZM492.231 12.8477C491.698 12.8477 491.245 13.0076 490.872 13.3275C490.508 13.6384 490.286 14.056 490.206 14.5802H494.244C494.173 14.0649 493.955 13.6473 493.591 13.3275C493.226 13.0076 492.773 12.8477 492.231 12.8477ZM501.708 18.3251C501.512 18.485 501.272 18.6049 500.988 18.6849C500.713 18.7649 500.419 18.8048 500.108 18.8048C499.327 18.8048 498.722 18.6005 498.296 18.1918C497.869 17.7831 497.656 17.1878 497.656 16.406V12.981H496.483V11.6483H497.656V10.0224H499.322V11.6483H501.228V12.981H499.322V16.366C499.322 16.7125 499.407 16.979 499.575 17.1656C499.744 17.3433 499.988 17.4322 500.308 17.4322C500.681 17.4322 500.992 17.3344 501.241 17.139L501.708 18.3251ZM503.078 11.595H504.744V18.7115H503.078V11.595ZM503.918 10.4222C503.616 10.4222 503.362 10.3289 503.158 10.1423C502.954 9.94687 502.851 9.70699 502.851 9.42268C502.851 9.13837 502.954 8.90293 503.158 8.71635C503.362 8.52089 503.616 8.42316 503.918 8.42316C504.22 8.42316 504.473 8.51645 504.677 8.70303C504.882 8.88072 504.984 9.10728 504.984 9.3827C504.984 9.67589 504.882 9.92466 504.677 10.129C504.482 10.3245 504.229 10.4222 503.918 10.4222ZM512.488 17.3789V18.7115H506.344V17.6587L510.249 12.9277H506.424V11.595H512.381V12.6478L508.463 17.3789H512.488ZM520.609 15.1932C520.609 15.3087 520.6 15.4731 520.583 15.6863H514.999C515.096 16.2105 515.35 16.6281 515.758 16.9391C516.176 17.2411 516.691 17.3922 517.304 17.3922C518.086 17.3922 518.73 17.1345 519.237 16.6192L520.129 17.6454C519.81 18.0274 519.405 18.3162 518.917 18.5116C518.428 18.7071 517.877 18.8048 517.264 18.8048C516.482 18.8048 515.794 18.6494 515.199 18.3384C514.603 18.0274 514.141 17.5965 513.813 17.0457C513.493 16.486 513.333 15.8551 513.333 15.1533C513.333 14.4603 513.488 13.8383 513.799 13.2875C514.119 12.7278 514.559 12.2924 515.119 11.9815C515.678 11.6705 516.309 11.515 517.011 11.515C517.704 11.515 518.321 11.6705 518.863 11.9815C519.414 12.2835 519.841 12.7144 520.143 13.2742C520.454 13.825 520.609 14.4647 520.609 15.1932ZM517.011 12.8477C516.478 12.8477 516.025 13.0076 515.652 13.3275C515.287 13.6384 515.065 14.056 514.985 14.5802H519.023C518.952 14.0649 518.735 13.6473 518.37 13.3275C518.006 13.0076 517.553 12.8477 517.011 12.8477ZM529.179 8.82297V18.7115H527.58V17.792C527.305 18.1296 526.963 18.3828 526.554 18.5516C526.154 18.7204 525.71 18.8048 525.221 18.8048C524.537 18.8048 523.92 18.6538 523.369 18.3517C522.827 18.0496 522.4 17.6232 522.089 17.0723C521.779 16.5126 521.623 15.8729 521.623 15.1533C521.623 14.4336 521.779 13.7984 522.089 13.2475C522.4 12.6967 522.827 12.2702 523.369 11.9681C523.92 11.666 524.537 11.515 525.221 11.515C525.692 11.515 526.123 11.595 526.514 11.7549C526.905 11.9148 527.238 12.1547 527.514 12.4745V8.82297H529.179ZM525.421 17.3789C525.821 17.3789 526.181 17.29 526.501 17.1123C526.821 16.9257 527.074 16.6636 527.26 16.326C527.447 15.9884 527.54 15.5975 527.54 15.1533C527.54 14.709 527.447 14.3181 527.26 13.9805C527.074 13.6429 526.821 13.3852 526.501 13.2075C526.181 13.021 525.821 12.9277 525.421 12.9277C525.021 12.9277 524.662 13.021 524.342 13.2075C524.022 13.3852 523.769 13.6429 523.582 13.9805C523.396 14.3181 523.302 14.709 523.302 15.1533C523.302 15.5975 523.396 15.9884 523.582 16.326C523.769 16.6636 524.022 16.9257 524.342 17.1123C524.662 17.29 525.021 17.3789 525.421 17.3789ZM535.042 8.82297H536.708V18.7115H535.042V8.82297ZM538.894 11.595H540.56V18.7115H538.894V11.595ZM539.734 10.4222C539.432 10.4222 539.178 10.3289 538.974 10.1423C538.77 9.94687 538.668 9.70699 538.668 9.42268C538.668 9.13837 538.77 8.90293 538.974 8.71635C539.178 8.52089 539.432 8.42316 539.734 8.42316C540.036 8.42316 540.289 8.51645 540.493 8.70303C540.698 8.88072 540.8 9.10728 540.8 9.3827C540.8 9.67589 540.698 9.92466 540.493 10.129C540.298 10.3245 540.045 10.4222 539.734 10.4222ZM549.703 11.595V21.297H548.037V17.8453C547.477 18.485 546.718 18.8048 545.758 18.8048C545.065 18.8048 544.443 18.6538 543.893 18.3517C543.351 18.0496 542.924 17.6232 542.613 17.0723C542.311 16.5215 542.16 15.8818 542.16 15.1533C542.16 14.4336 542.316 13.7984 542.626 13.2475C542.937 12.6967 543.364 12.2702 543.906 11.9681C544.448 11.666 545.065 11.515 545.758 11.515C546.247 11.515 546.691 11.5994 547.091 11.7682C547.5 11.937 547.842 12.1902 548.117 12.5279V11.595H549.703ZM545.945 17.3789C546.558 17.3789 547.064 17.1745 547.464 16.7658C547.864 16.3571 548.064 15.8196 548.064 15.1533C548.064 14.4869 547.864 13.9494 547.464 13.5407C547.064 13.132 546.558 12.9277 545.945 12.9277C545.332 12.9277 544.825 13.132 544.426 13.5407C544.035 13.9494 543.839 14.4869 543.839 15.1533C543.839 15.8196 544.035 16.3571 544.426 16.7658C544.825 17.1745 545.332 17.3789 545.945 17.3789ZM558.773 11.595V18.7115H557.187V17.8053C556.92 18.1252 556.587 18.3739 556.187 18.5516C555.787 18.7204 555.357 18.8048 554.895 18.8048C553.944 18.8048 553.193 18.5427 552.642 18.0185C552.1 17.4855 551.829 16.6992 551.829 15.6597V11.595H553.495V15.4331C553.495 16.0728 553.637 16.5526 553.922 16.8724C554.215 17.1834 554.628 17.3389 555.161 17.3389C555.756 17.3389 556.227 17.1567 556.574 16.7925C556.929 16.4193 557.107 15.8862 557.107 15.1932V11.595H558.773ZM560.954 11.595H562.62V18.7115H560.954V11.595ZM561.793 10.4222C561.491 10.4222 561.238 10.3289 561.034 10.1423C560.829 9.94687 560.727 9.70699 560.727 9.42268C560.727 9.13837 560.829 8.90293 561.034 8.71635C561.238 8.52089 561.491 8.42316 561.793 8.42316C562.095 8.42316 562.349 8.51645 562.553 8.70303C562.757 8.88072 562.86 9.10728 562.86 9.3827C562.86 9.67589 562.757 9.92466 562.553 10.129C562.358 10.3245 562.104 10.4222 561.793 10.4222ZM571.776 8.82297V18.7115H570.177V17.792C569.901 18.1296 569.559 18.3828 569.151 18.5516C568.751 18.7204 568.307 18.8048 567.818 18.8048C567.134 18.8048 566.516 18.6538 565.966 18.3517C565.424 18.0496 564.997 17.6232 564.686 17.0723C564.375 16.5126 564.22 15.8729 564.22 15.1533C564.22 14.4336 564.375 13.7984 564.686 13.2475C564.997 12.6967 565.424 12.2702 565.966 11.9681C566.516 11.666 567.134 11.515 567.818 11.515C568.289 11.515 568.72 11.595 569.111 11.7549C569.502 11.9148 569.835 12.1547 570.11 12.4745V8.82297H571.776ZM568.018 17.3789C568.418 17.3789 568.778 17.29 569.097 17.1123C569.417 16.9257 569.67 16.6636 569.857 16.326C570.044 15.9884 570.137 15.5975 570.137 15.1533C570.137 14.709 570.044 14.3181 569.857 13.9805C569.67 13.6429 569.417 13.3852 569.097 13.2075C568.778 13.021 568.418 12.9277 568.018 12.9277C567.618 12.9277 567.258 13.021 566.938 13.2075C566.619 13.3852 566.365 13.6429 566.179 13.9805C565.992 14.3181 565.899 14.709 565.899 15.1533C565.899 15.5975 565.992 15.9884 566.179 16.326C566.365 16.6636 566.619 16.9257 566.938 17.1123C567.258 17.29 567.618 17.3789 568.018 17.3789ZM573.955 11.595H575.621V18.7115H573.955V11.595ZM574.795 10.4222C574.493 10.4222 574.24 10.3289 574.035 10.1423C573.831 9.94687 573.729 9.70699 573.729 9.42268C573.729 9.13837 573.831 8.90293 574.035 8.71635C574.24 8.52089 574.493 8.42316 574.795 8.42316C575.097 8.42316 575.35 8.51645 575.555 8.70303C575.759 8.88072 575.861 9.10728 575.861 9.3827C575.861 9.67589 575.759 9.92466 575.555 10.129C575.359 10.3245 575.106 10.4222 574.795 10.4222ZM582.086 18.3251C581.89 18.485 581.65 18.6049 581.366 18.6849C581.091 18.7649 580.797 18.8048 580.486 18.8048C579.705 18.8048 579.1 18.6005 578.674 18.1918C578.247 17.7831 578.034 17.1878 578.034 16.406V12.981H576.861V11.6483H578.034V10.0224H579.7V11.6483H581.606V12.981H579.7V16.366C579.7 16.7125 579.785 16.979 579.953 17.1656C580.122 17.3433 580.366 17.4322 580.686 17.4322C581.059 17.4322 581.37 17.3344 581.619 17.139L582.086 18.3251ZM589.989 11.595L586.658 19.2846C586.347 20.0576 585.969 20.5995 585.525 20.9105C585.081 21.2303 584.543 21.3903 583.912 21.3903C583.557 21.3903 583.206 21.3325 582.859 21.217C582.513 21.1015 582.229 20.9416 582.007 20.7372L582.673 19.5112C582.833 19.6622 583.019 19.7821 583.233 19.871C583.455 19.9598 583.677 20.0043 583.899 20.0043C584.192 20.0043 584.432 19.9287 584.619 19.7777C584.814 19.6267 584.992 19.3735 585.152 19.0181L585.272 18.7382L582.166 11.595H583.899L586.138 16.8591L588.39 11.595H589.989ZM457.407 34.8048C456.687 34.8048 456.039 34.6494 455.461 34.3384C454.884 34.0274 454.43 33.5965 454.102 33.0457C453.782 32.486 453.622 31.8551 453.622 31.1533C453.622 30.4514 453.782 29.825 454.102 29.2742C454.43 28.7233 454.884 28.2924 455.461 27.9815C456.039 27.6705 456.687 27.515 457.407 27.515C458.135 27.515 458.788 27.6705 459.366 27.9815C459.943 28.2924 460.392 28.7233 460.712 29.2742C461.041 29.825 461.205 30.4514 461.205 31.1533C461.205 31.8551 461.041 32.486 460.712 33.0457C460.392 33.5965 459.943 34.0274 459.366 34.3384C458.788 34.6494 458.135 34.8048 457.407 34.8048ZM457.407 33.3789C458.02 33.3789 458.526 33.1745 458.926 32.7658C459.326 32.3571 459.526 31.8196 459.526 31.1533C459.526 30.4869 459.326 29.9494 458.926 29.5407C458.526 29.132 458.02 28.9277 457.407 28.9277C456.794 28.9277 456.287 29.132 455.887 29.5407C455.497 29.9494 455.301 30.4869 455.301 31.1533C455.301 31.8196 455.497 32.3571 455.887 32.7658C456.287 33.1745 456.794 33.3789 457.407 33.3789ZM466.836 27.515C467.733 27.515 468.453 27.7771 468.995 28.3013C469.537 28.8255 469.808 29.6029 469.808 30.6335V34.7115H468.142V30.8467C468.142 30.2248 467.995 29.7584 467.702 29.4474C467.409 29.1276 466.991 28.9676 466.449 28.9676C465.836 28.9676 465.352 29.1542 464.997 29.5274C464.641 29.8916 464.464 30.4203 464.464 31.1133V34.7115H462.798V27.595H464.384V28.5145C464.659 28.1858 465.006 27.937 465.423 27.7682C465.841 27.5994 466.312 27.515 466.836 27.515ZM482.294 31.1932C482.294 31.3087 482.285 31.4731 482.268 31.6863H476.684C476.781 32.2105 477.035 32.6281 477.443 32.9391C477.861 33.2411 478.376 33.3922 478.989 33.3922C479.771 33.3922 480.415 33.1345 480.922 32.6192L481.815 33.6454C481.495 34.0274 481.09 34.3162 480.602 34.5116C480.113 34.7071 479.562 34.8048 478.949 34.8048C478.167 34.8048 477.479 34.6494 476.884 34.3384C476.288 34.0274 475.826 33.5965 475.498 33.0457C475.178 32.486 475.018 31.8551 475.018 31.1533C475.018 30.4603 475.173 29.8383 475.484 29.2875C475.804 28.7278 476.244 28.2924 476.804 27.9815C477.363 27.6705 477.994 27.515 478.696 27.515C479.389 27.515 480.007 27.6705 480.549 27.9815C481.099 28.2835 481.526 28.7144 481.828 29.2742C482.139 29.825 482.294 30.4647 482.294 31.1932ZM478.696 28.8477C478.163 28.8477 477.71 29.0076 477.337 29.3275C476.972 29.6384 476.75 30.056 476.67 30.5802H480.708C480.637 30.0649 480.42 29.6473 480.055 29.3275C479.691 29.0076 479.238 28.8477 478.696 28.8477ZM490.428 27.595L487.376 34.7115H485.657L482.605 27.595H484.337L486.55 32.8724L488.829 27.595H490.428ZM497.964 31.1932C497.964 31.3087 497.955 31.4731 497.937 31.6863H492.353C492.451 32.2105 492.704 32.6281 493.113 32.9391C493.53 33.2411 494.046 33.3922 494.659 33.3922C495.441 33.3922 496.085 33.1345 496.591 32.6192L497.484 33.6454C497.164 34.0274 496.76 34.3162 496.271 34.5116C495.783 34.7071 495.232 34.8048 494.619 34.8048C493.837 34.8048 493.148 34.6494 492.553 34.3384C491.958 34.0274 491.496 33.5965 491.167 33.0457C490.847 32.486 490.687 31.8551 490.687 31.1533C490.687 30.4603 490.843 29.8383 491.154 29.2875C491.474 28.7278 491.913 28.2924 492.473 27.9815C493.033 27.6705 493.664 27.515 494.366 27.515C495.059 27.515 495.676 27.6705 496.218 27.9815C496.769 28.2835 497.195 28.7144 497.497 29.2742C497.808 29.825 497.964 30.4647 497.964 31.1932ZM494.366 28.8477C493.833 28.8477 493.379 29.0076 493.006 29.3275C492.642 29.6384 492.42 30.056 492.34 30.5802H496.378C496.307 30.0649 496.089 29.6473 495.725 29.3275C495.361 29.0076 494.908 28.8477 494.366 28.8477ZM501.15 28.6345C501.63 27.8882 502.474 27.515 503.682 27.515V29.1009C503.54 29.0743 503.411 29.0609 503.296 29.0609C502.647 29.0609 502.141 29.252 501.776 29.634C501.412 30.0071 501.23 30.5491 501.23 31.2599V34.7115H499.564V27.595H501.15V28.6345ZM512.019 27.595L508.687 35.2846C508.376 36.0576 507.999 36.5995 507.555 36.9105C507.11 37.2303 506.573 37.3903 505.942 37.3903C505.587 37.3903 505.236 37.3325 504.889 37.217C504.543 37.1015 504.258 36.9416 504.036 36.7372L504.703 35.5112C504.862 35.6622 505.049 35.7821 505.262 35.871C505.484 35.9598 505.707 36.0043 505.929 36.0043C506.222 36.0043 506.462 35.9287 506.648 35.7777C506.844 35.6267 507.021 35.3735 507.181 35.0181L507.301 34.7382L504.196 27.595H505.929L508.168 32.8591L510.42 27.595H512.019ZM519.635 26.0757C518.933 26.0757 518.582 26.4577 518.582 27.2218V27.6483H520.541V28.981H518.636V34.7115H516.97V28.981H515.797V27.6483H516.97V27.1952C516.97 26.4311 517.192 25.8314 517.636 25.396C518.08 24.9518 518.707 24.7297 519.515 24.7297C520.155 24.7297 520.657 24.8585 521.021 25.1162L520.555 26.3689C520.271 26.1734 519.964 26.0757 519.635 26.0757ZM522.727 27.595H524.393V34.7115H522.727V27.595ZM523.567 26.4222C523.265 26.4222 523.011 26.3289 522.807 26.1423C522.603 25.9469 522.501 25.707 522.501 25.4227C522.501 25.1384 522.603 24.9029 522.807 24.7164C523.011 24.5209 523.265 24.4232 523.567 24.4232C523.869 24.4232 524.122 24.5165 524.326 24.703C524.531 24.8807 524.633 25.1073 524.633 25.3827C524.633 25.6759 524.531 25.9247 524.326 26.129C524.131 26.3245 523.878 26.4222 523.567 26.4222ZM531.113 34.7115L529.288 32.2461L527.449 34.7115H525.609L528.381 31.1L525.729 27.595H527.582L529.328 29.9272L531.074 27.595H532.873L530.207 31.0733L532.993 34.7115H531.113ZM540.678 31.1932C540.678 31.3087 540.669 31.4731 540.651 31.6863H535.067C535.165 32.2105 535.418 32.6281 535.827 32.9391C536.244 33.2411 536.76 33.3922 537.373 33.3922C538.155 33.3922 538.799 33.1345 539.305 32.6192L540.198 33.6454C539.878 34.0274 539.474 34.3162 538.985 34.5116C538.497 34.7071 537.946 34.8048 537.333 34.8048C536.551 34.8048 535.862 34.6494 535.267 34.3384C534.672 34.0274 534.21 33.5965 533.881 33.0457C533.561 32.486 533.401 31.8551 533.401 31.1533C533.401 30.4603 533.557 29.8383 533.868 29.2875C534.188 28.7278 534.627 28.2924 535.187 27.9815C535.747 27.6705 536.378 27.515 537.079 27.515C537.772 27.515 538.39 27.6705 538.932 27.9815C539.483 28.2835 539.909 28.7144 540.211 29.2742C540.522 29.825 540.678 30.4647 540.678 31.1932ZM537.079 28.8477C536.546 28.8477 536.093 29.0076 535.72 29.3275C535.356 29.6384 535.134 30.056 535.054 30.5802H539.092C539.021 30.0649 538.803 29.6473 538.439 29.3275C538.075 29.0076 537.621 28.8477 537.079 28.8477ZM549.248 24.823V34.7115H547.649V33.792C547.373 34.1296 547.031 34.3828 546.622 34.5516C546.223 34.7204 545.778 34.8048 545.29 34.8048C544.606 34.8048 543.988 34.6538 543.437 34.3517C542.895 34.0496 542.469 33.6232 542.158 33.0723C541.847 32.5126 541.692 31.8729 541.692 31.1533C541.692 30.4336 541.847 29.7984 542.158 29.2475C542.469 28.6967 542.895 28.2702 543.437 27.9681C543.988 27.666 544.606 27.515 545.29 27.515C545.761 27.515 546.192 27.595 546.583 27.7549C546.973 27.9148 547.307 28.1547 547.582 28.4745V24.823H549.248ZM545.49 33.3789C545.89 33.3789 546.249 33.29 546.569 33.1123C546.889 32.9257 547.142 32.6636 547.329 32.326C547.515 31.9884 547.609 31.5975 547.609 31.1533C547.609 30.709 547.515 30.3181 547.329 29.9805C547.142 29.6429 546.889 29.3852 546.569 29.2075C546.249 29.021 545.89 28.9277 545.49 28.9277C545.09 28.9277 544.73 29.021 544.41 29.2075C544.09 29.3852 543.837 29.6429 543.651 29.9805C543.464 30.3181 543.371 30.709 543.371 31.1533C543.371 31.5975 543.464 31.9884 543.651 32.326C543.837 32.6636 544.09 32.9257 544.41 33.1123C544.73 33.29 545.09 33.3789 545.49 33.3789ZM559.055 27.515C559.748 27.515 560.366 27.666 560.907 27.9681C561.458 28.2702 561.889 28.6967 562.2 29.2475C562.511 29.7984 562.667 30.4336 562.667 31.1533C562.667 31.8729 562.511 32.5126 562.2 33.0723C561.889 33.6232 561.458 34.0496 560.907 34.3517C560.366 34.6538 559.748 34.8048 559.055 34.8048C558.096 34.8048 557.336 34.485 556.776 33.8453V37.297H555.11V27.595H556.696V28.5279C556.972 28.1902 557.309 27.937 557.709 27.7682C558.118 27.5994 558.566 27.515 559.055 27.515ZM558.868 33.3789C559.482 33.3789 559.983 33.1745 560.374 32.7658C560.774 32.3571 560.974 31.8196 560.974 31.1533C560.974 30.4869 560.774 29.9494 560.374 29.5407C559.983 29.132 559.482 28.9277 558.868 28.9277C558.469 28.9277 558.109 29.021 557.789 29.2075C557.469 29.3852 557.216 29.6429 557.029 29.9805C556.843 30.3181 556.749 30.709 556.749 31.1533C556.749 31.5975 556.843 31.9884 557.029 32.326C557.216 32.6636 557.469 32.9257 557.789 33.1123C558.109 33.29 558.469 33.3789 558.868 33.3789ZM565.832 28.6345C566.312 27.8882 567.156 27.515 568.365 27.515V29.1009C568.222 29.0743 568.094 29.0609 567.978 29.0609C567.329 29.0609 566.823 29.252 566.459 29.634C566.095 30.0071 565.912 30.5491 565.912 31.2599V34.7115H564.247V27.595H565.832V28.6345ZM569.778 27.595H571.444V34.7115H569.778V27.595ZM570.617 26.4222C570.315 26.4222 570.062 26.3289 569.858 26.1423C569.653 25.9469 569.551 25.707 569.551 25.4227C569.551 25.1384 569.653 24.9029 569.858 24.7164C570.062 24.5209 570.315 24.4232 570.617 24.4232C570.919 24.4232 571.173 24.5165 571.377 24.703C571.581 24.8807 571.683 25.1073 571.683 25.3827C571.683 25.6759 571.581 25.9247 571.377 26.129C571.181 26.3245 570.928 26.4222 570.617 26.4222ZM576.895 34.8048C576.158 34.8048 575.496 34.6494 574.909 34.3384C574.323 34.0274 573.865 33.5965 573.537 33.0457C573.208 32.486 573.044 31.8551 573.044 31.1533C573.044 30.4514 573.208 29.825 573.537 29.2742C573.865 28.7233 574.319 28.2924 574.896 27.9815C575.482 27.6705 576.149 27.515 576.895 27.515C577.597 27.515 578.21 27.6572 578.734 27.9415C579.267 28.2258 579.667 28.6345 579.934 29.1675L578.654 29.9139C578.45 29.5851 578.192 29.3408 577.881 29.1809C577.579 29.0121 577.246 28.9277 576.882 28.9277C576.26 28.9277 575.745 29.132 575.336 29.5407C574.927 29.9405 574.723 30.478 574.723 31.1533C574.723 31.8285 574.923 32.3705 575.323 32.7791C575.731 33.179 576.251 33.3789 576.882 33.3789C577.246 33.3789 577.579 33.2989 577.881 33.139C578.192 32.9702 578.45 32.7214 578.654 32.3927L579.934 33.139C579.658 33.672 579.254 34.0852 578.721 34.3784C578.197 34.6627 577.588 34.8048 576.895 34.8048ZM587.96 31.1932C587.96 31.3087 587.951 31.4731 587.933 31.6863H582.349C582.447 32.2105 582.7 32.6281 583.109 32.9391C583.526 33.2411 584.042 33.3922 584.655 33.3922C585.436 33.3922 586.081 33.1345 586.587 32.6192L587.48 33.6454C587.16 34.0274 586.756 34.3162 586.267 34.5116C585.779 34.7071 585.228 34.8048 584.615 34.8048C583.833 34.8048 583.144 34.6494 582.549 34.3384C581.954 34.0274 581.492 33.5965 581.163 33.0457C580.843 32.486 580.683 31.8551 580.683 31.1533C580.683 30.4603 580.839 29.8383 581.15 29.2875C581.469 28.7278 581.909 28.2924 582.469 27.9815C583.029 27.6705 583.66 27.515 584.361 27.515C585.054 27.515 585.672 27.6705 586.214 27.9815C586.765 28.2835 587.191 28.7144 587.493 29.2742C587.804 29.825 587.96 30.4647 587.96 31.1932ZM584.361 28.8477C583.828 28.8477 583.375 29.0076 583.002 29.3275C582.638 29.6384 582.416 30.056 582.336 30.5802H586.374C586.303 30.0649 586.085 29.6473 585.721 29.3275C585.356 29.0076 584.903 28.8477 584.361 28.8477ZM591.759 34.8048C591.181 34.8048 590.617 34.7293 590.066 34.5783C589.515 34.4272 589.076 34.2362 588.747 34.0052L589.387 32.7392C589.706 32.9524 590.088 33.1256 590.533 33.2589C590.986 33.3833 591.43 33.4455 591.865 33.4455C592.86 33.4455 593.358 33.1834 593.358 32.6592C593.358 32.4104 593.229 32.2372 592.972 32.1395C592.723 32.0417 592.319 31.9484 591.759 31.8596C591.172 31.7707 590.693 31.6686 590.319 31.5531C589.955 31.4376 589.635 31.2377 589.36 30.9534C589.093 30.6602 588.96 30.2559 588.96 29.7406C588.96 29.0654 589.24 28.5279 589.8 28.128C590.368 27.7194 591.132 27.515 592.092 27.515C592.581 27.515 593.069 27.5728 593.558 27.6883C594.047 27.7949 594.446 27.9415 594.757 28.128L594.118 29.3941C593.514 29.0387 592.834 28.861 592.079 28.861C591.59 28.861 591.217 28.9365 590.959 29.0876C590.71 29.2297 590.586 29.4208 590.586 29.6606C590.586 29.9272 590.719 30.1182 590.986 30.2337C591.261 30.3403 591.683 30.4425 592.252 30.5402C592.821 30.6291 593.287 30.7312 593.651 30.8467C594.015 30.9622 594.326 31.1577 594.584 31.4331C594.851 31.7085 594.984 32.0995 594.984 32.6059C594.984 33.2722 594.695 33.8053 594.118 34.2051C593.54 34.6049 592.754 34.8048 591.759 34.8048Z" fill="#52466A"/>
<path d="M110.956 88.1104L108.905 88.4295L110.375 89.6375C110.683 89.8883 110.762 90.1846 110.512 90.4125C110.238 90.6518 109.93 90.629 109.714 90.2302L108.779 88.5093L107.993 90.2415C107.856 90.5834 107.537 90.7088 107.264 90.5265C106.967 90.3099 106.956 90.0022 107.252 89.7401L108.665 88.4181L106.705 88.0649C106.318 88.0079 106.135 87.7572 106.249 87.4381C106.375 87.0962 106.66 86.9936 107.013 87.2215L108.688 88.27L108.346 86.2529C108.289 85.854 108.437 85.6033 108.779 85.6033C109.144 85.6033 109.304 85.854 109.247 86.2529L108.882 88.27L110.614 87.2899C110.967 87.0848 111.252 87.119 111.378 87.4495C111.503 87.7914 111.355 88.0535 110.956 88.1104Z" fill="#0166FF" stroke="#0166FF" stroke-width="0.227925" stroke-miterlimit="10"/>
<path d="M132.901 82.4285V83.0484H124.549L120.36 95.541L117.429 89.8748L116.205 90.0321L115.993 89.5443L117.814 88.6805L120.36 93.182L124.237 82.4307H132.901V82.4285Z" fill="#0166FF"/>
<path d="M99.3912 92.3408V91.9601C99.9769 91.8918 100.098 91.796 99.8675 91.4291L98.8464 89.8382C98.5478 90.3282 98.247 90.8046 97.9757 91.2809C97.7182 91.7436 97.7455 91.8667 98.4521 91.9601V92.3408H95.8811V91.9601C96.7381 91.8507 96.9159 91.755 97.4173 91.0895C97.798 90.5584 98.1512 90.0296 98.5592 89.4165L97.39 87.5794C96.982 86.9276 96.8179 86.8318 96.0566 86.7361V86.3691H98.7917V86.7361C98.2196 86.8182 98.1649 86.9276 98.4111 87.3219L99.227 88.5595C99.4846 88.1652 99.7581 87.7025 100.002 87.2945C100.232 86.9139 100.152 86.8045 99.5667 86.7361V86.3691H102.042V86.7361C101.308 86.8182 101.021 86.8729 100.478 87.5794C100.287 87.837 99.961 88.286 99.512 88.9675L100.818 90.9801C101.335 91.7277 101.484 91.8507 102.313 91.9601V92.3408H99.3912Z" fill="#0166FF"/>
<path d="M125.379 86.1641C126.02 86.0684 126.726 85.8382 127.351 85.5784C127.351 85.9043 127.351 86.3396 127.351 86.6656C127.392 86.6382 128.479 86.0137 128.534 85.9864C128.86 85.8086 129.147 85.7151 129.322 85.7151C130.818 85.7151 131.729 86.9664 131.729 88.3135C131.729 90.3808 130.097 91.6868 128.315 92.0127C127.907 91.999 127.54 91.8759 127.349 91.7688V93.6059C127.349 94.6133 127.458 94.6931 128.504 94.7888V95.1695H125.281V94.7888C126.166 94.6931 126.275 94.6247 126.275 93.7153V87.5249C126.275 86.7089 126.248 86.6542 125.377 86.5311V86.1641H125.379ZM127.351 90.8161C127.663 91.1283 128.194 91.3472 128.643 91.3472C129.826 91.3472 130.587 90.3534 130.587 88.8309C130.587 87.363 129.73 86.5311 128.764 86.5311C128.288 86.5311 127.715 86.8434 127.349 87.1169V90.8161H127.351Z" fill="#0166FF"/>
<path d="M167.317 92.2292V92.8492H158.966L154.777 105.342L151.846 99.6756L150.622 99.8328L150.41 99.3451L152.231 98.4812L154.777 102.983L158.654 92.2315H167.317V92.2292Z" fill="#0166FF" stroke="#0166FF" stroke-width="0.227925" stroke-miterlimit="10"/>
<path d="M159.796 95.9649C160.434 95.8692 161.143 95.639 161.768 95.3792C161.768 95.7051 161.768 96.1404 161.768 96.4664C161.809 96.439 162.896 95.8145 162.95 95.7871C163.276 95.6094 163.564 95.5159 163.739 95.5159C165.234 95.5159 166.146 96.7672 166.146 98.1143C166.146 100.182 164.514 101.488 162.732 101.813C162.324 101.8 161.957 101.677 161.765 101.57V103.407C161.765 104.414 161.875 104.494 162.921 104.59V104.97H159.698V104.59C160.582 104.494 160.692 104.426 160.692 103.516V97.3279C160.692 96.5119 160.664 96.4572 159.794 96.3342V95.9649H159.796ZM161.768 100.617C162.08 100.929 162.611 101.148 163.06 101.148C164.243 101.148 165.004 100.154 165.004 98.6316C165.004 97.1638 164.147 96.3319 163.181 96.3319C162.704 96.3319 162.135 96.6441 161.765 96.9176V100.617H161.768Z" fill="#0166FF"/>
<path d="M162.347 76.6435C161.615 76.7552 161.46 76.8692 161.107 77.6715C160.753 78.4601 160.375 79.4174 159.402 81.8699C158.485 84.124 158.232 84.997 158.007 85.7309C157.922 86.0272 157.768 86.0979 157.585 86.0979C157.134 86.0979 156.726 85.7742 156.726 85.4209C156.726 85.2386 156.824 85.111 157.036 84.9286C157.487 84.5753 157.811 84.238 157.979 83.887C158.276 83.2944 158.485 82.8021 158.556 82.6197C158.613 82.4078 158.613 82.2824 158.529 82.0431C157.979 80.4362 157.218 78.704 156.797 77.6897C156.487 76.9148 156.359 76.7461 155.584 76.6481V76.2675H158.431V76.6481C157.783 76.7461 157.713 76.8874 157.895 77.4094L159.263 80.8761C159.657 79.9051 160.22 78.3393 160.516 77.4527C160.685 76.917 160.587 76.7621 159.769 76.6504V76.2697H162.347V76.6435Z" fill="#0166FF"/>
<path d="M193.274 89.4554C193.189 89.893 192.768 91.3586 192.626 91.7939H186.076V91.3996C187.357 91.272 187.471 91.2013 187.471 90.0047V84.4114C187.471 83.2148 187.329 83.1441 186.203 83.0302V82.6359H189.98V83.0302C188.852 83.1419 188.699 83.1988 188.699 84.4114V90.146C188.699 91.0053 188.811 91.2036 189.615 91.2172C189.629 91.2172 190.643 91.2309 190.728 91.2309C191.446 91.2309 191.658 91.1466 191.981 90.7933C192.335 90.4263 192.629 89.8634 192.841 89.3414L193.274 89.4554Z" fill="#0166FF"/>
<path d="M149.995 89.061H167.406" stroke="#0166FF" stroke-width="0.911701" stroke-miterlimit="10"/>
<path d="M172.332 87.4655H180.879" stroke="#0166FF" stroke-width="0.911701" stroke-miterlimit="10"/>
<path d="M172.332 90.4285H180.879" stroke="#0166FF" stroke-width="0.911701" stroke-miterlimit="10"/>
<path d="M137.407 88.6302H145.726" stroke="#0166FF" stroke-width="0.911701" stroke-miterlimit="10"/>
<path d="M141.566 84.4706V92.7899" stroke="#0166FF" stroke-width="0.911701" stroke-miterlimit="10"/>
<path d="M158.724 174.635H159.61V169.149H161.758V168.371H156.577V169.149H158.724V174.635ZM163.228 170.688V169.892H162.404V174.635H163.263V172.272C163.263 171.234 163.836 170.67 164.758 170.67C164.82 170.67 164.883 170.67 164.955 170.679V169.847C164.122 169.847 163.532 170.133 163.228 170.688ZM167.642 169.847C166.882 169.847 166.175 170.062 165.683 170.456L166.041 171.1C166.407 170.787 166.98 170.59 167.544 170.59C168.394 170.59 168.815 171.01 168.815 171.735V171.905H167.454C166.041 171.905 165.548 172.532 165.548 173.292C165.548 174.116 166.228 174.688 167.302 174.688C168.045 174.688 168.573 174.438 168.859 174.008V174.635H169.674V171.771C169.674 170.474 168.94 169.847 167.642 169.847ZM167.445 174.026C166.792 174.026 166.398 173.731 166.398 173.257C166.398 172.854 166.64 172.523 167.49 172.523H168.815V173.185C168.6 173.731 168.09 174.026 167.445 174.026ZM174.815 167.995V170.608C174.422 170.098 173.831 169.847 173.16 169.847C171.773 169.847 170.762 170.814 170.762 172.263C170.762 173.713 171.773 174.688 173.16 174.688C173.858 174.688 174.466 174.42 174.851 173.883V174.635H175.675V167.995H174.815ZM173.232 173.937C172.319 173.937 171.63 173.274 171.63 172.263C171.63 171.252 172.319 170.599 173.232 170.599C174.135 170.599 174.824 171.252 174.824 172.263C174.824 173.274 174.135 173.937 173.232 173.937ZM177.64 168.979C177.98 168.979 178.222 168.729 178.222 168.406C178.222 168.102 177.971 167.861 177.64 167.861C177.309 167.861 177.058 168.111 177.058 168.424C177.058 168.737 177.309 168.979 177.64 168.979ZM177.21 174.635H178.07V169.892H177.21V174.635ZM182.019 173.74C181.84 173.883 181.598 173.963 181.347 173.963C180.873 173.963 180.605 173.677 180.605 173.167V170.599H181.965V169.892H180.605V168.854H179.746V169.892H178.94V170.599H179.746V173.203C179.746 174.16 180.291 174.688 181.249 174.688C181.634 174.688 182.027 174.581 182.287 174.357L182.019 173.74ZM183.666 168.979C184.006 168.979 184.247 168.729 184.247 168.406C184.247 168.102 183.997 167.861 183.666 167.861C183.335 167.861 183.084 168.111 183.084 168.424C183.084 168.737 183.335 168.979 183.666 168.979ZM183.236 174.635H184.095V169.892H183.236V174.635ZM187.677 174.688C189.1 174.688 190.138 173.677 190.138 172.263C190.138 170.849 189.1 169.847 187.677 169.847C186.254 169.847 185.207 170.849 185.207 172.263C185.207 173.677 186.254 174.688 187.677 174.688ZM187.677 173.937C186.765 173.937 186.076 173.274 186.076 172.263C186.076 171.252 186.765 170.599 187.677 170.599C188.59 170.599 189.27 171.252 189.27 172.263C189.27 173.274 188.59 173.937 187.677 173.937ZM193.769 169.847C193.018 169.847 192.409 170.125 192.06 170.608V169.892H191.237V174.635H192.096V172.192C192.096 171.163 192.686 170.617 193.599 170.617C194.414 170.617 194.879 171.073 194.879 172.004V174.635H195.738V171.905C195.738 170.509 194.924 169.847 193.769 169.847ZM198.965 169.847C198.205 169.847 197.498 170.062 197.006 170.456L197.364 171.1C197.73 170.787 198.303 170.59 198.867 170.59C199.717 170.59 200.138 171.01 200.138 171.735V171.905H198.777C197.364 171.905 196.871 172.532 196.871 173.292C196.871 174.116 197.552 174.688 198.625 174.688C199.368 174.688 199.896 174.438 200.182 174.008V174.635H200.997V171.771C200.997 170.474 200.263 169.847 198.965 169.847ZM198.769 174.026C198.115 174.026 197.722 173.731 197.722 173.257C197.722 172.854 197.963 172.523 198.813 172.523H200.138V173.185C199.923 173.731 199.413 174.026 198.769 174.026ZM202.497 174.635H203.356V167.995H202.497V174.635ZM211.221 174.635L209.332 172.21L211.122 169.892H210.183L208.885 171.601L207.579 169.892H206.621L208.402 172.21L206.532 174.635H207.489L208.876 172.818L210.245 174.635H211.221ZM214.777 169.069L214.5 168.567L213.417 169.203L213.426 167.995H212.889L212.898 169.203L211.815 168.567L211.538 169.069L212.612 169.659L211.538 170.259L211.815 170.751L212.898 170.116L212.889 171.333H213.426L213.417 170.116L214.5 170.751L214.777 170.259L213.712 169.659L214.777 169.069ZM219.407 169.892L217.77 173.686L216.114 169.892H215.219L217.313 174.626L217.161 174.957C216.928 175.503 216.669 175.691 216.257 175.691C215.935 175.691 215.64 175.565 215.407 175.342L215.04 175.986C215.336 176.272 215.801 176.424 216.257 176.424C216.982 176.424 217.528 176.111 217.949 175.109L220.248 169.892H219.407ZM220.746 170.796H224.755V170.089H220.746V170.796ZM220.746 172.917H224.755V172.21H220.746V172.917ZM229.704 174.635H230.76L228.567 171.852L230.563 169.892H229.525L226.939 172.254V167.995H226.08V174.635H226.939V173.337L227.923 172.424L229.704 174.635Z" fill="#6A5E86"/>
<path d="M360.493 158.452L358.605 156.027L360.395 153.709H359.455L358.157 155.418L356.851 153.709H355.893L357.674 156.027L355.804 158.452H356.761L358.148 156.635L359.518 158.452H360.493ZM364.05 152.886L363.772 152.385L362.689 153.02L362.698 151.812H362.161L362.17 153.02L361.088 152.385L360.81 152.886L361.884 153.476L360.81 154.076L361.088 154.568L362.17 153.933L362.161 155.15H362.698L362.689 153.933L363.772 154.568L364.05 154.076L362.985 153.476L364.05 152.886ZM368.68 153.709L367.042 157.503L365.386 153.709H364.492L366.586 158.443L366.433 158.774C366.201 159.32 365.941 159.508 365.53 159.508C365.207 159.508 364.912 159.383 364.679 159.159L364.313 159.803C364.608 160.09 365.073 160.242 365.53 160.242C366.254 160.242 366.8 159.928 367.221 158.926L369.521 153.709H368.68ZM370.018 154.613H374.027V153.906H370.018V154.613ZM370.018 156.734H374.027V156.027H370.018V156.734ZM378.976 158.452H380.032L377.84 155.669L379.835 153.709H378.797L376.211 156.072V151.812H375.352V158.452H376.211V157.154L377.195 156.242L378.976 158.452Z" fill="#6A5E86"/>
<path d="M324.777 62.3793C326.432 62.3793 327.425 61.4218 327.425 59.6052V56.0437H326.557V59.5695C326.557 60.9565 325.913 61.5829 324.785 61.5829C323.658 61.5829 323.023 60.9565 323.023 59.5695V56.0437H322.128V59.6052C322.128 61.4218 323.13 62.3793 324.777 62.3793ZM331.578 57.5202C330.826 57.5202 330.217 57.7976 329.868 58.2808V57.565H329.045V62.3077H329.904V59.8648C329.904 58.8357 330.495 58.2898 331.408 58.2898C332.222 58.2898 332.687 58.7462 332.687 59.6768V62.3077H333.546V59.5784C333.546 58.1824 332.732 57.5202 331.578 57.5202ZM335.476 56.6522C335.816 56.6522 336.058 56.4016 336.058 56.0795C336.058 55.7752 335.807 55.5336 335.476 55.5336C335.145 55.5336 334.895 55.7842 334.895 56.0974C334.895 56.4106 335.145 56.6522 335.476 56.6522ZM335.047 62.3077H335.906V57.565H335.047V62.3077ZM338.817 62.3614C340.079 62.3614 340.866 61.8156 340.866 60.9565C340.866 59.1131 337.859 60.0258 337.859 58.9073C337.859 58.5314 338.226 58.254 338.978 58.254C339.443 58.254 339.917 58.3524 340.347 58.6298L340.714 57.9497C340.302 57.6813 339.604 57.5202 338.987 57.5202C337.77 57.5202 337.009 58.0929 337.009 58.943C337.009 60.8312 340.007 59.9095 340.007 60.9744C340.007 61.3771 339.676 61.6187 338.879 61.6187C338.262 61.6187 337.618 61.4129 337.215 61.1265L336.857 61.8066C337.251 62.1198 338.029 62.3614 338.817 62.3614ZM348.17 57.565L346.756 61.3592L345.351 57.565H344.626L343.195 61.3413L341.816 57.565H341.002L342.765 62.3077H343.588L344.975 58.7104L346.344 62.3077H347.168L348.94 57.565H348.17ZM351.3 57.5202C350.54 57.5202 349.833 57.735 349.341 58.1287L349.699 58.773C350.065 58.4598 350.638 58.2629 351.202 58.2629C352.052 58.2629 352.473 58.6835 352.473 59.4084V59.5784H351.112C349.699 59.5784 349.206 60.2048 349.206 60.9654C349.206 61.7887 349.886 62.3614 350.96 62.3614C351.703 62.3614 352.231 62.1109 352.517 61.6813V62.3077H353.332V59.4442C353.332 58.1466 352.598 57.5202 351.3 57.5202ZM351.103 61.6992C350.45 61.6992 350.056 61.4039 350.056 60.9296C350.056 60.527 350.298 60.1959 351.148 60.1959H352.473V60.8581C352.258 61.4039 351.748 61.6992 351.103 61.6992ZM357.347 57.5202C356.649 57.5202 356.04 57.7887 355.655 58.3166V57.565H354.832V64.0438H355.691V61.5918C356.085 62.1019 356.675 62.3614 357.347 62.3614C358.734 62.3614 359.745 61.395 359.745 59.9363C359.745 58.4867 358.734 57.5202 357.347 57.5202ZM357.275 61.6097C356.371 61.6097 355.682 60.9475 355.682 59.9363C355.682 58.9341 356.371 58.2719 357.275 58.2719C358.188 58.2719 358.877 58.9341 358.877 59.9363C358.877 60.9475 358.188 61.6097 357.275 61.6097ZM366.512 57.565L364.847 61.3681L363.219 57.565H362.324L364.4 62.3077H365.277L367.353 57.565H366.512ZM370.061 58.6746L371.699 56.6522V56.0437H367.564V56.8222H370.58L369.005 58.7551V59.3815H369.506C370.58 59.3815 371.054 59.8111 371.054 60.4733C371.054 61.1534 370.518 61.5829 369.578 61.5829C368.808 61.5829 368.11 61.3055 367.69 60.9117L367.278 61.6187C367.806 62.093 368.683 62.3793 369.578 62.3793C371.171 62.3793 371.949 61.5203 371.949 60.4643C371.949 59.4979 371.314 58.7909 370.061 58.6746Z" fill="#7F4AFE"/>
<path d="M39.9108 87.9241L43.2733 108.712L53.748 132.183L66.9107 148.02L81.0199 163.758L104.567 177.776L128.209 186.218" stroke="#0166FF" stroke-width="0.475962"/>
<circle cx="43.671" cy="109.318" r="1.42788" transform="rotate(-6.03994 43.671 109.318)" fill="#0166FF"/>
<circle cx="53.7484" cy="132.183" r="1.42788" transform="rotate(-6.03994 53.7484 132.183)" fill="#0166FF"/>
<circle cx="78.9267" cy="162.065" r="1.42788" transform="rotate(-6.03994 78.9267 162.065)" fill="#0166FF"/>
<circle cx="102.5" cy="176.778" r="1.42788" transform="rotate(-6.03994 102.5 176.778)" fill="#0166FF"/>
<line x1="22.9823" y1="189.576" x2="88.6719" y2="123.886" stroke="#B7B1BE" stroke-width="0.951923" stroke-dasharray="1.9 1.9"/>
<circle cx="66.3012" cy="146.263" r="1.42788" transform="rotate(-6.03994 66.3012 146.263)" fill="#0166FF"/>
<path d="M405.519 12.8509C405.519 12.8509 409.327 40.457 387.909 69.0145C366.49 97.572 309.375 95.1923 309.375 95.1923" stroke="#6A5E86" stroke-width="0.951923"/>
<path d="M405.519 177.333C405.519 177.333 409.327 149.727 387.909 121.17C366.491 92.6122 309.375 95.1923 309.375 95.1923" stroke="#6A5E86" stroke-width="0.951923"/>
<line x1="365.775" y1="66.2214" x2="385.765" y2="77.6445" stroke="#7F4AFE" stroke-width="0.951923"/>
<line x1="382.585" y1="155.648" x2="397.816" y2="152.792" stroke="#6A5E86" stroke-width="0.951923"/>
<line x1="143.509" y1="180.449" x2="152.077" y2="175.69" stroke="#6A5E86" stroke-width="0.951923"/>
<line x1="51.0829" y1="121.495" x2="84.4002" y2="91.0334" stroke="#0166FF" stroke-width="0.951923"/>
<defs>
<linearGradient id="paint0_linear_6371_19129" x1="537.608" y1="52.6184" x2="696.638" y2="52.9885" gradientUnits="userSpaceOnUse">
<stop stop-color="#C4C4C4" stop-opacity="0.47"/>
<stop offset="0.140625" stop-color="#C4C4C4" stop-opacity="0.859375"/>
<stop offset="0.895728" stop-color="#C4C4C4"/>
<stop offset="1" stop-color="#C4C4C4" stop-opacity="0.4"/>
</linearGradient>
<linearGradient id="paint1_linear_6371_19129" x1="503.939" y1="101.259" x2="503.939" y2="135.19" gradientUnits="userSpaceOnUse">
<stop stop-color="#E5A1E7"/>
<stop offset="0.489583" stop-color="#CF8CEE" stop-opacity="0.66"/>
<stop offset="1" stop-color="#C5C4FC" stop-opacity="0.07"/>
</linearGradient>
<linearGradient id="paint2_linear_6371_19129" x1="504.563" y1="97.5139" x2="504.563" y2="137.22" gradientUnits="userSpaceOnUse">
<stop stop-color="#E5A1E7"/>
<stop offset="0.489583" stop-color="#CF8CEE" stop-opacity="0.66"/>
<stop offset="1" stop-color="#C5C4FC" stop-opacity="0.07"/>
</linearGradient>
<linearGradient id="paint3_linear_6371_19129" x1="503.217" y1="95.0172" x2="503.217" y2="122.451" gradientUnits="userSpaceOnUse">
<stop stop-color="#E5A1E7"/>
<stop offset="0.489583" stop-color="#CF8CEE" stop-opacity="0.66"/>
<stop offset="1" stop-color="#C5C4FC" stop-opacity="0.07"/>
</linearGradient>
<linearGradient id="paint4_linear_6371_19129" x1="504.153" y1="91.2721" x2="504.153" y2="132.422" gradientUnits="userSpaceOnUse">
<stop stop-color="#8A96FF"/>
<stop offset="0.567708" stop-color="#91A2FF" stop-opacity="0.47"/>
<stop offset="1" stop-color="#7EFDB1" stop-opacity="0"/>
</linearGradient>
<linearGradient id="paint5_linear_6371_19129" x1="502.397" y1="88.1512" x2="502.397" y2="135.077" gradientUnits="userSpaceOnUse">
<stop stop-color="#8A96FF"/>
<stop offset="0.567708" stop-color="#91A2FF" stop-opacity="0.47"/>
<stop offset="1" stop-color="#7EFDB1" stop-opacity="0"/>
</linearGradient>
<linearGradient id="paint6_linear_6371_19129" x1="495.768" y1="85.5267" x2="495.768" y2="124.246" gradientUnits="userSpaceOnUse">
<stop stop-color="#8A96FF"/>
<stop offset="0.567708" stop-color="#91A2FF" stop-opacity="0.47"/>
<stop offset="1" stop-color="#7EFDB1" stop-opacity="0"/>
</linearGradient>
<linearGradient id="paint7_linear_6371_19129" x1="491.723" y1="82.9158" x2="491.723" y2="123.069" gradientUnits="userSpaceOnUse">
<stop stop-color="#8A96FF"/>
<stop offset="0.567708" stop-color="#91A2FF" stop-opacity="0.47"/>
<stop offset="1" stop-color="#7EFDB1" stop-opacity="0"/>
</linearGradient>
<linearGradient id="paint8_linear_6371_19129" x1="486.383" y1="79.4342" x2="486.383" y2="123.89" gradientUnits="userSpaceOnUse">
<stop stop-color="#8A96FF"/>
<stop offset="0.567708" stop-color="#91A2FF" stop-opacity="0.47"/>
<stop offset="1" stop-color="#7EFDB1" stop-opacity="0"/>
</linearGradient>
<linearGradient id="paint9_linear_6371_19129" x1="481.616" y1="76.823" x2="481.616" y2="122.713" gradientUnits="userSpaceOnUse">
<stop stop-color="#8A96FF"/>
<stop offset="0.567708" stop-color="#91A2FF" stop-opacity="0.47"/>
<stop offset="1" stop-color="#7EFDB1" stop-opacity="0"/>
</linearGradient>
<linearGradient id="paint10_linear_6371_19129" x1="480.607" y1="73.3418" x2="480.607" y2="120.666" gradientUnits="userSpaceOnUse">
<stop stop-color="#8A96FF"/>
<stop offset="0.567708" stop-color="#91A2FF" stop-opacity="0.47"/>
<stop offset="1" stop-color="#7EFDB1" stop-opacity="0"/>
</linearGradient>
<linearGradient id="paint11_linear_6371_19129" x1="473.93" y1="70.6747" x2="473.93" y2="122.654" gradientUnits="userSpaceOnUse">
<stop stop-color="#8A96FF"/>
<stop offset="0.567708" stop-color="#91A2FF" stop-opacity="0.47"/>
<stop offset="1" stop-color="#7EFDB1" stop-opacity="0"/>
</linearGradient>
<linearGradient id="paint12_linear_6371_19129" x1="466.169" y1="67.2491" x2="466.169" y2="120.309" gradientUnits="userSpaceOnUse">
<stop stop-color="#8A96FF"/>
<stop offset="0.567708" stop-color="#91A2FF" stop-opacity="0.47"/>
<stop offset="1" stop-color="#7EFDB1" stop-opacity="0"/>
</linearGradient>
<linearGradient id="paint13_linear_6371_19129" x1="458.079" y1="64.433" x2="458.079" y2="135.183" gradientUnits="userSpaceOnUse">
<stop stop-color="#8A96FF"/>
<stop offset="0.567708" stop-color="#91A2FF" stop-opacity="0.47"/>
<stop offset="1" stop-color="#7EFDB1" stop-opacity="0"/>
</linearGradient>
<linearGradient id="paint14_linear_6371_19129" x1="445.955" y1="61.1565" x2="445.955" y2="117.085" gradientUnits="userSpaceOnUse">
<stop stop-color="#8A96FF"/>
<stop offset="0.567708" stop-color="#91A2FF" stop-opacity="0.47"/>
<stop offset="1" stop-color="#7EFDB1" stop-opacity="0"/>
</linearGradient>
<linearGradient id="paint15_linear_6371_19129" x1="441.188" y1="58.5454" x2="441.188" y2="115.908" gradientUnits="userSpaceOnUse">
<stop stop-color="#8A96FF"/>
<stop offset="0.567708" stop-color="#91A2FF" stop-opacity="0.47"/>
<stop offset="1" stop-color="#7EFDB1" stop-opacity="0"/>
</linearGradient>
<linearGradient id="paint16_linear_6371_19129" x1="439.415" y1="55.064" x2="439.415" y2="116.728" gradientUnits="userSpaceOnUse">
<stop stop-color="#8A96FF"/>
<stop offset="0.567708" stop-color="#91A2FF" stop-opacity="0.47"/>
<stop offset="1" stop-color="#7EFDB1" stop-opacity="0"/>
</linearGradient>
<linearGradient id="paint17_linear_6371_19129" x1="431.847" y1="52.453" x2="431.847" y2="115.552" gradientUnits="userSpaceOnUse">
<stop stop-color="#8A96FF"/>
<stop offset="0.567708" stop-color="#91A2FF" stop-opacity="0.47"/>
<stop offset="1" stop-color="#7EFDB1" stop-opacity="0"/>
</linearGradient>
<linearGradient id="paint18_linear_6371_19129" x1="430.643" y1="48.9716" x2="430.643" y2="114.938" gradientUnits="userSpaceOnUse">
<stop stop-color="#8A96FF"/>
<stop offset="0.567708" stop-color="#91A2FF" stop-opacity="0.47"/>
<stop offset="1" stop-color="#7EFDB1" stop-opacity="0"/>
</linearGradient>
<linearGradient id="paint19_linear_6371_19129" x1="429.485" y1="46.3602" x2="429.485" y2="113.761" gradientUnits="userSpaceOnUse">
<stop stop-color="#8A96FF"/>
<stop offset="0.567708" stop-color="#91A2FF" stop-opacity="0.47"/>
<stop offset="1" stop-color="#7EFDB1" stop-opacity="0"/>
</linearGradient>
<linearGradient id="paint20_linear_6371_19129" x1="427.122" y1="43.7491" x2="427.122" y2="111.15" gradientUnits="userSpaceOnUse">
<stop stop-color="#8A96FF"/>
<stop offset="0.567708" stop-color="#91A2FF" stop-opacity="0.47"/>
<stop offset="1" stop-color="#7EFDB1" stop-opacity="0"/>
</linearGradient>
<linearGradient id="paint21_linear_6371_19129" x1="426.113" y1="40.2677" x2="426.113" y2="107.668" gradientUnits="userSpaceOnUse">
<stop stop-color="#8A96FF"/>
<stop offset="0.567708" stop-color="#91A2FF" stop-opacity="0.47"/>
<stop offset="1" stop-color="#7EFDB1" stop-opacity="0"/>
</linearGradient>
<linearGradient id="paint22_linear_6371_19129" x1="422.352" y1="37.657" x2="422.352" y2="106.492" gradientUnits="userSpaceOnUse">
<stop stop-color="#8A96FF"/>
<stop offset="0.567708" stop-color="#91A2FF" stop-opacity="0.47"/>
<stop offset="1" stop-color="#7EFDB1" stop-opacity="0"/>
</linearGradient>
<linearGradient id="paint23_linear_6371_19129" x1="419.474" y1="34.1752" x2="419.474" y2="107.312" gradientUnits="userSpaceOnUse">
<stop stop-color="#8A96FF"/>
<stop offset="0.567708" stop-color="#91A2FF" stop-opacity="0.47"/>
<stop offset="1" stop-color="#7EFDB1" stop-opacity="0"/>
</linearGradient>
<linearGradient id="paint24_linear_6371_19129" x1="419.051" y1="31.5641" x2="419.051" y2="107.569" gradientUnits="userSpaceOnUse">
<stop stop-color="#8A96FF"/>
<stop offset="0.567708" stop-color="#91A2FF" stop-opacity="0.47"/>
<stop offset="1" stop-color="#7EFDB1" stop-opacity="0"/>
</linearGradient>
<linearGradient id="paint25_linear_6371_19129" x1="417.113" y1="28.0828" x2="417.113" y2="105.522" gradientUnits="userSpaceOnUse">
<stop stop-color="#8A96FF"/>
<stop offset="0.567708" stop-color="#91A2FF" stop-opacity="0.47"/>
<stop offset="1" stop-color="#7EFDB1" stop-opacity="0"/>
</linearGradient>
<linearGradient id="paint26_linear_6371_19129" x1="415.256" y1="25.4716" x2="415.256" y2="104.345" gradientUnits="userSpaceOnUse">
<stop stop-color="#8A96FF"/>
<stop offset="0.567708" stop-color="#91A2FF" stop-opacity="0.47"/>
<stop offset="1" stop-color="#7EFDB1" stop-opacity="0"/>
</linearGradient>
<linearGradient id="paint27_linear_6371_19129" x1="415.221" y1="21.99" x2="415.221" y2="102.297" gradientUnits="userSpaceOnUse">
<stop stop-color="#8A96FF"/>
<stop offset="0.567708" stop-color="#91A2FF" stop-opacity="0.47"/>
<stop offset="1" stop-color="#7EFDB1" stop-opacity="0"/>
</linearGradient>
<linearGradient id="paint28_linear_6371_19129" x1="415.281" y1="19.379" x2="415.281" y2="103.988" gradientUnits="userSpaceOnUse">
<stop stop-color="#8A96FF"/>
<stop offset="0.567708" stop-color="#91A2FF" stop-opacity="0.47"/>
<stop offset="1" stop-color="#7EFDB1" stop-opacity="0"/>
</linearGradient>
<linearGradient id="paint29_linear_6371_19129" x1="414.776" y1="15.8976" x2="414.776" y2="103.375" gradientUnits="userSpaceOnUse">
<stop stop-color="#8A96FF"/>
<stop offset="0.567708" stop-color="#91A2FF" stop-opacity="0.47"/>
<stop offset="1" stop-color="#7EFDB1" stop-opacity="0"/>
</linearGradient>
<linearGradient id="paint30_linear_6371_19129" x1="412.437" y1="13.2865" x2="412.437" y2="100.764" gradientUnits="userSpaceOnUse">
<stop stop-color="#8A96FF"/>
<stop offset="0.567708" stop-color="#91A2FF" stop-opacity="0.47"/>
<stop offset="1" stop-color="#7EFDB1" stop-opacity="0"/>
</linearGradient>
<linearGradient id="paint31_linear_6371_19129" x1="1.8725" y1="0" x2="1.8725" y2="53.0441" gradientUnits="userSpaceOnUse">
<stop stop-color="#E5A1E7"/>
<stop offset="0.489583" stop-color="#CF8CEE" stop-opacity="0.66"/>
<stop offset="1" stop-color="#C5C4FC" stop-opacity="0.07"/>
</linearGradient>
<linearGradient id="paint32_linear_6371_19129" x1="1.24833" y1="0" x2="1.24833" y2="34.1517" gradientUnits="userSpaceOnUse">
<stop stop-color="#E5A1E7"/>
<stop offset="0.489583" stop-color="#CF8CEE" stop-opacity="0.66"/>
<stop offset="1" stop-color="#C5C4FC" stop-opacity="0.07"/>
</linearGradient>
<linearGradient id="paint33_linear_6371_19129" x1="1.8725" y1="0" x2="1.8725" y2="45.0512" gradientUnits="userSpaceOnUse">
<stop stop-color="#E5A1E7"/>
<stop offset="0.489583" stop-color="#CF8CEE" stop-opacity="0.66"/>
<stop offset="1" stop-color="#C5C4FC" stop-opacity="0.07"/>
</linearGradient>
<linearGradient id="paint34_linear_6371_19129" x1="1.32695" y1="0" x2="1.32695" y2="31.9325" gradientUnits="userSpaceOnUse">
<stop stop-color="#E5A1E7"/>
<stop offset="0.489583" stop-color="#CF8CEE" stop-opacity="0.66"/>
<stop offset="1" stop-color="#C5C4FC" stop-opacity="0.07"/>
</linearGradient>
<linearGradient id="paint35_linear_6371_19129" x1="1.76927" y1="0" x2="1.76927" y2="36.9745" gradientUnits="userSpaceOnUse">
<stop stop-color="#E5A1E7"/>
<stop offset="0.489583" stop-color="#CF8CEE" stop-opacity="0.66"/>
<stop offset="1" stop-color="#C5C4FC" stop-opacity="0.07"/>
</linearGradient>
<linearGradient id="paint36_linear_6371_19129" x1="1.32695" y1="0" x2="1.32695" y2="38.6551" gradientUnits="userSpaceOnUse">
<stop stop-color="#E5A1E7"/>
<stop offset="0.489583" stop-color="#CF8CEE" stop-opacity="0.66"/>
<stop offset="1" stop-color="#C5C4FC" stop-opacity="0.07"/>
</linearGradient>
<linearGradient id="paint37_linear_6371_19129" x1="1.76927" y1="0" x2="1.76927" y2="45.3778" gradientUnits="userSpaceOnUse">
<stop stop-color="#E5A1E7"/>
<stop offset="0.489583" stop-color="#CF8CEE" stop-opacity="0.66"/>
<stop offset="1" stop-color="#C5C4FC" stop-opacity="0.07"/>
</linearGradient>
<linearGradient id="paint38_linear_6371_19129" x1="1.32695" y1="0" x2="1.32695" y2="47.0584" gradientUnits="userSpaceOnUse">
<stop stop-color="#E5A1E7"/>
<stop offset="0.489583" stop-color="#CF8CEE" stop-opacity="0.66"/>
<stop offset="1" stop-color="#C5C4FC" stop-opacity="0.07"/>
</linearGradient>
<linearGradient id="paint39_linear_6371_19129" x1="1.76927" y1="0" x2="1.76927" y2="47.0584" gradientUnits="userSpaceOnUse">
<stop stop-color="#E5A1E7"/>
<stop offset="0.489583" stop-color="#CF8CEE" stop-opacity="0.66"/>
<stop offset="1" stop-color="#C5C4FC" stop-opacity="0.07"/>
</linearGradient>
<linearGradient id="paint40_linear_6371_19129" x1="1.32695" y1="0" x2="1.32695" y2="48.7391" gradientUnits="userSpaceOnUse">
<stop stop-color="#E5A1E7"/>
<stop offset="0.489583" stop-color="#CF8CEE" stop-opacity="0.66"/>
<stop offset="1" stop-color="#C5C4FC" stop-opacity="0.07"/>
</linearGradient>
<linearGradient id="paint41_linear_6371_19129" x1="1.42788" y1="0" x2="1.42788" y2="44.7404" gradientUnits="userSpaceOnUse">
<stop stop-color="#E5A1E7"/>
<stop offset="0.489583" stop-color="#CF8CEE" stop-opacity="0.66"/>
<stop offset="1" stop-color="#C5C4FC" stop-opacity="0.07"/>
</linearGradient>
<linearGradient id="paint42_linear_6371_19129" x1="1.42788" y1="0" x2="1.42788" y2="45.6923" gradientUnits="userSpaceOnUse">
<stop stop-color="#E5A1E7"/>
<stop offset="0.489583" stop-color="#CF8CEE" stop-opacity="0.66"/>
<stop offset="1" stop-color="#C5C4FC" stop-opacity="0.07"/>
</linearGradient>
<linearGradient id="paint43_linear_6371_19129" x1="1.90384" y1="0" x2="1.90384" y2="49.5" gradientUnits="userSpaceOnUse">
<stop stop-color="#E5A1E7"/>
<stop offset="0.489583" stop-color="#CF8CEE" stop-opacity="0.66"/>
<stop offset="1" stop-color="#C5C4FC" stop-opacity="0.07"/>
</linearGradient>
<linearGradient id="paint44_linear_6371_19129" x1="1.90384" y1="0" x2="1.90384" y2="51.4038" gradientUnits="userSpaceOnUse">
<stop stop-color="#E5A1E7"/>
<stop offset="0.489583" stop-color="#CF8CEE" stop-opacity="0.66"/>
<stop offset="1" stop-color="#C5C4FC" stop-opacity="0.07"/>
</linearGradient>
<linearGradient id="paint45_linear_6371_19129" x1="1.42788" y1="0" x2="1.42788" y2="53.3077" gradientUnits="userSpaceOnUse">
<stop stop-color="#E5A1E7"/>
<stop offset="0.489583" stop-color="#CF8CEE" stop-opacity="0.66"/>
<stop offset="1" stop-color="#C5C4FC" stop-opacity="0.07"/>
</linearGradient>
<linearGradient id="paint46_linear_6371_19129" x1="1.42788" y1="0" x2="1.42788" y2="56.1635" gradientUnits="userSpaceOnUse">
<stop stop-color="#E5A1E7"/>
<stop offset="0.489583" stop-color="#CF8CEE" stop-opacity="0.66"/>
<stop offset="1" stop-color="#C5C4FC" stop-opacity="0.07"/>
</linearGradient>
<linearGradient id="paint47_linear_6371_19129" x1="1.90384" y1="0" x2="1.90384" y2="44.7404" gradientUnits="userSpaceOnUse">
<stop stop-color="#E5A1E7"/>
<stop offset="0.489583" stop-color="#CF8CEE" stop-opacity="0.66"/>
<stop offset="1" stop-color="#C5C4FC" stop-opacity="0.07"/>
</linearGradient>
<linearGradient id="paint48_linear_6371_19129" x1="0.951922" y1="0" x2="0.951922" y2="32.3654" gradientUnits="userSpaceOnUse">
<stop stop-color="#E5A1E7"/>
<stop offset="0.489583" stop-color="#CF8CEE" stop-opacity="0.66"/>
<stop offset="1" stop-color="#C5C4FC" stop-opacity="0.07"/>
</linearGradient>
<linearGradient id="paint49_linear_6371_19129" x1="1.90385" y1="0" x2="1.90385" y2="28.5577" gradientUnits="userSpaceOnUse">
<stop stop-color="#E5A1E7"/>
<stop offset="0.489583" stop-color="#CF8CEE" stop-opacity="0.66"/>
<stop offset="1" stop-color="#C5C4FC" stop-opacity="0.07"/>
</linearGradient>
<linearGradient id="paint50_linear_6371_19129" x1="1.90384" y1="0" x2="1.90384" y2="25.7019" gradientUnits="userSpaceOnUse">
<stop stop-color="#E5A1E7"/>
<stop offset="0.489583" stop-color="#CF8CEE" stop-opacity="0.66"/>
<stop offset="1" stop-color="#C5C4FC" stop-opacity="0.07"/>
</linearGradient>
<linearGradient id="paint51_linear_6371_19129" x1="1.42788" y1="0" x2="1.42788" y2="26.6538" gradientUnits="userSpaceOnUse">
<stop stop-color="#E5A1E7"/>
<stop offset="0.489583" stop-color="#CF8CEE" stop-opacity="0.66"/>
<stop offset="1" stop-color="#C5C4FC" stop-opacity="0.07"/>
</linearGradient>
<linearGradient id="paint52_linear_6371_19129" x1="1.90384" y1="0" x2="1.90384" y2="26.6538" gradientUnits="userSpaceOnUse">
<stop stop-color="#E5A1E7"/>
<stop offset="0.489583" stop-color="#CF8CEE" stop-opacity="0.66"/>
<stop offset="1" stop-color="#C5C4FC" stop-opacity="0.07"/>
</linearGradient>
<linearGradient id="paint53_linear_6371_19129" x1="1.42788" y1="0" x2="1.42788" y2="19.9904" gradientUnits="userSpaceOnUse">
<stop stop-color="#E5A1E7"/>
<stop offset="0.489583" stop-color="#CF8CEE" stop-opacity="0.66"/>
<stop offset="1" stop-color="#C5C4FC" stop-opacity="0.07"/>
</linearGradient>
<linearGradient id="paint54_linear_6371_19129" x1="1.90385" y1="0" x2="1.90385" y2="20.9423" gradientUnits="userSpaceOnUse">
<stop stop-color="#E5A1E7"/>
<stop offset="0.489583" stop-color="#CF8CEE" stop-opacity="0.66"/>
<stop offset="1" stop-color="#C5C4FC" stop-opacity="0.07"/>
</linearGradient>
<clipPath id="clip0_6371_19129">
<rect width="177.058" height="111.375" fill="white" transform="translate(521.654 13.3269) rotate(90)"/>
</clipPath>
</defs>
</svg>
