<svg width="15" height="15" viewBox="0 0 15 15" fill="none" xmlns="http://www.w3.org/2000/svg">
<rect y="0.173828" width="15" height="14.3478" rx="2.85823" fill="#6A5E86"/>
<path d="M4.87067 6.44862C4.72283 6.28435 4.46982 6.27104 4.30555 6.41888C4.14129 6.56672 4.12797 6.81973 4.27581 6.984L4.87067 6.44862ZM10.0155 6.984C10.1633 6.81973 10.15 6.56672 9.98575 6.41888C9.82148 6.27104 9.56847 6.28435 9.42063 6.44862L10.0155 6.984ZM7.14565 9.57454L6.84822 9.84223C6.92411 9.92655 7.03221 9.97469 7.14565 9.97469C7.25909 9.97469 7.3672 9.92655 7.44308 9.84223L7.14565 9.57454ZM4.27581 6.984L6.84822 9.84223L7.44308 9.30685L4.87067 6.44862L4.27581 6.984ZM7.44308 9.84223L10.0155 6.984L9.42063 6.44862L6.84822 9.30685L7.44308 9.84223Z" fill="#F5F5F5"/>
</svg>
