<svg width="15" height="15" viewBox="0 0 15 15" fill="none" xmlns="http://www.w3.org/2000/svg">
<rect y="0.17395" width="15" height="14.3478" rx="2.85823" fill="#EBEAEC"/>
<path d="M4.87067 6.44874C4.72283 6.28448 4.46982 6.27116 4.30555 6.419C4.14129 6.56684 4.12797 6.81985 4.27581 6.98412L4.87067 6.44874ZM10.0155 6.98412C10.1633 6.81985 10.15 6.56684 9.98575 6.419C9.82148 6.27116 9.56847 6.28448 9.42063 6.44874L10.0155 6.98412ZM7.14565 9.57466L6.84822 9.84235C6.92411 9.92667 7.03221 9.97482 7.14565 9.97482C7.25909 9.97482 7.3672 9.92667 7.44308 9.84235L7.14565 9.57466ZM4.27581 6.98412L6.84822 9.84235L7.44308 9.30697L4.87067 6.44874L4.27581 6.98412ZM7.44308 9.84235L10.0155 6.98412L9.42063 6.44874L6.84822 9.30697L7.44308 9.84235Z" fill="#1D0928"/>
</svg>
