<?xml version="1.0" encoding="utf-8"?>
<!-- Generator: Adobe Illustrator 25.0.0, SVG Export Plug-In . SVG Version: 6.00 Build 0)  -->
<svg version="1.1" id="图层_1" xmlns="http://www.w3.org/2000/svg" xmlns:xlink="http://www.w3.org/1999/xlink" x="0px" y="0px"
	 viewBox="0 0 154.5 38" style="enable-background:new 0 0 154.5 38;" xml:space="preserve">
<style type="text/css">
	.st0{fill:#1D0928;}
	.st1{fill:#7E49FC;}
	.st2{fill:#0066FF;}
</style>
<g>
	<path class="st0" d="M10.3,37.6h-10V12.5h10V37.6z"/>
	<path class="st0" d="M5.3,10.5C3.9,10.5,2.5,10,1.5,9C0.6,8,0,6.7,0,5.3c0-1.4,0.6-2.7,1.5-3.7c1-1,2.3-1.5,3.7-1.5
		C6.7,0,8,0.6,9,1.5c1,1,1.5,2.3,1.5,3.7C10.5,6.7,10,8,9,9S6.7,10.5,5.3,10.5z"/>
	<path class="st0" d="M49.2,37.6H15.5l17.2-25.3H16.9v-8h32.4L32.1,29.6h17.2L49.2,37.6z"/>
	<path class="st0" d="M89.2,22.7c0.1,2.5-0.5,5-1.6,7.3c-1,1.9-2.4,3.6-4.2,4.8c-1.7,1.2-3.7,2-5.7,2.5c-2,0.5-4,0.8-6.1,0.8
		c-2.8,0-5.6-0.5-8.2-1.4c-2.7-1-5-2.7-6.7-4.9c-1.8-2.3-2.7-5.3-2.7-9V4.3h10v15.8c-0.1,1.9,0.3,3.7,1,5.4c0.5,1.3,1.4,2.4,2.6,3.1
		c1.2,0.7,2.6,1,4,1c1.4,0,2.7-0.3,3.9-1c1.2-0.7,2.1-1.8,2.6-3.1c0.7-1.7,1-3.6,1-5.4V4.3h10L89.2,22.7z"/>
	<path class="st0" d="M135.8,37.6h-10V18.3l-9,11.2h-0.8l-9.1-11.2v19.3h-9.7V4.3h9.1l10.2,12.5l10.3-12.5h9.1V37.6z"/>
	<path class="st0" d="M154.2,37.6h-10V12.5h10V37.6z"/>
	<path class="st0" d="M149.2,10.5c-0.7,0-1.4-0.1-2-0.4c-0.6-0.3-1.2-0.7-1.7-1.1s-0.9-1.1-1.1-1.7c-0.3-0.6-0.4-1.3-0.4-2
		c0-0.7,0.1-1.4,0.4-2c0.3-0.6,0.7-1.2,1.1-1.7c0.5-0.5,1.1-0.9,1.7-1.1c0.6-0.3,1.3-0.4,2-0.4c1.4,0,2.7,0.6,3.7,1.5
		c1,1,1.5,2.3,1.5,3.7c0,1.4-0.6,2.7-1.5,3.7S150.6,10.5,149.2,10.5z"/>
</g>
</svg>
