<?xml version="1.0" encoding="utf-8"?>
<!-- Generator: Adobe Illustrator 25.0.0, SVG Export Plug-In . SVG Version: 6.00 Build 0)  -->
<svg version="1.1" id="图层_1" xmlns="http://www.w3.org/2000/svg" xmlns:xlink="http://www.w3.org/1999/xlink" x="0px" y="0px"
	 viewBox="0 0 257 89" style="enable-background:new 0 0 257 89;" xml:space="preserve">
<style type="text/css">
	.st0{fill:#FFFFFF;}
	.st1{fill:#7E49FC;}
	.st2{fill:#0066FF;}
</style>
<path class="st0" d="M112.79,64.59h-10.03V39.47h10.03V64.59z"/>
<path class="st0" d="M107.77,37.54c-1.4,0-2.74-0.56-3.73-1.54c-0.99-0.99-1.54-2.33-1.54-3.72c0-1.4,0.56-2.74,1.54-3.73
	c0.99-0.99,2.33-1.54,3.73-1.54c1.4,0,2.74,0.56,3.72,1.54c0.99,0.99,1.54,2.33,1.54,3.73c0,1.4-0.56,2.74-1.54,3.72
	S109.17,37.54,107.77,37.54z"/>
<path class="st0" d="M151.73,64.59h-33.75l17.22-25.32h-15.8v-7.95h32.36l-17.17,25.3h17.17L151.73,64.59z"/>
<path class="st0" d="M191.69,49.68c0.07,2.52-0.48,5.02-1.6,7.28c-0.98,1.92-2.44,3.56-4.22,4.76c-1.73,1.16-3.66,2.01-5.68,2.52
	c-1.98,0.51-4.01,0.77-6.06,0.77c-2.8,0.01-5.58-0.47-8.22-1.42c-2.66-0.95-4.98-2.65-6.69-4.9c-1.8-2.31-2.7-5.31-2.69-9V31.31
	h10.01v15.78c-0.06,1.86,0.26,3.71,0.95,5.44c0.52,1.3,1.45,2.4,2.64,3.15c1.22,0.68,2.6,1.03,4,0.99c1.37,0.03,2.72-0.31,3.91-0.99
	c1.2-0.73,2.12-1.82,2.65-3.12c0.69-1.72,1.01-3.57,0.95-5.42V31.31h10.03L191.69,49.68z"/>
<path class="st0" d="M238.26,64.59h-10.04V45.3l-9.05,11.16h-0.79l-9.07-11.16v19.28h-9.75V31.31h9.1l10.22,12.49l10.27-12.49h9.1
	V64.59z"/>
<path class="st0" d="M256.74,64.59h-10.03V39.47h10.03V64.59z"/>
<path class="st0" d="M251.73,37.54c-0.69,0-1.38-0.14-2.02-0.4c-0.64-0.26-1.22-0.65-1.71-1.14s-0.88-1.07-1.14-1.71
	c-0.26-0.64-0.4-1.32-0.4-2.02c0-0.69,0.14-1.38,0.4-2.02c0.26-0.64,0.65-1.22,1.14-1.71c0.49-0.49,1.07-0.88,1.71-1.14
	c0.64-0.26,1.32-0.4,2.02-0.4c1.4,0,2.74,0.56,3.72,1.54c0.99,0.99,1.54,2.33,1.54,3.73c0,1.4-0.56,2.74-1.54,3.72
	S253.12,37.54,251.73,37.54z"/>
<path class="st1" d="M0.48,40.21L28.4,0l14.05,20.37L28.2,40.74H0.77c-0.06,0-0.12-0.02-0.18-0.05c-0.05-0.03-0.1-0.08-0.13-0.13
	c-0.03-0.06-0.04-0.12-0.04-0.18C0.43,40.32,0.45,40.26,0.48,40.21z"/>
<path class="st1" d="M84.41,40.21L56.49,0L42.45,20.37l14.24,20.38h27.43c0.06,0,0.12-0.02,0.18-0.05c0.05-0.03,0.1-0.08,0.13-0.13
	c0.03-0.06,0.04-0.12,0.04-0.18C84.46,40.32,84.44,40.26,84.41,40.21z"/>
<path class="st2" d="M84.89,46.01c0.07,5.62-0.97,11.2-3.07,16.41c-2.1,5.21-5.22,9.96-9.16,13.96S64,83.56,58.82,85.73
	s-10.75,3.28-16.37,3.28c-5.62,0-11.19-1.12-16.37-3.28s-9.89-5.34-13.84-9.34c-3.95-4-7.06-8.74-9.16-13.96
	C0.97,57.21-0.07,51.63,0,46.01h26.98c-0.04,2.06,0.32,4.1,1.08,6.02c0.76,1.91,1.89,3.66,3.33,5.13c1.44,1.47,3.16,2.64,5.05,3.44
	c1.9,0.8,3.93,1.21,5.99,1.21c2.06,0,4.09-0.41,5.99-1.21c1.9-0.8,3.62-1.97,5.05-3.44c1.44-1.47,2.57-3.21,3.33-5.13
	c0.76-1.91,1.12-3.96,1.08-6.02H84.89z"/>
</svg>
