<svg width="147" height="36" viewBox="0 0 147 36" fill="none" xmlns="http://www.w3.org/2000/svg">
<path d="M6.18401 28.1434H0.827148V20.4594H6.18401V15.8804H0.827148V8.19644H6.18401V0.197998H15.4264V8.19644H19.7946V0.197998H29.0369V8.19644H34.3938V15.8804H29.0369V20.4594H34.3938V28.1434H29.0369V35.1789H19.7946V28.1434H15.4264V35.1789H6.18401V28.1434ZM19.7946 20.4594V15.8804H15.4264V20.4594H19.7946Z" fill="#241E63"/>
<path d="M44.9471 16.8437V11.341H46.8553C49.5912 11.341 51.0396 11.0463 52.1432 10.2209C53.3617 9.31687 53.8905 8.00017 53.8905 5.93669C53.8905 3.83391 53.4766 2.69408 52.3961 1.75078C51.2925 0.787821 49.7751 0.414429 46.8323 0.414429H40.096V16.8633H44.9471V16.8437ZM46.9013 8.05913H44.8781V3.63739H46.9013C48.6026 3.63739 49.1774 4.18765 49.1774 5.85808C49.1774 7.50887 48.6026 8.05913 46.9013 8.05913ZM60.4889 17.1188C62.3511 17.1188 63.3167 16.8044 64.0295 15.9397L64.6502 16.8437H67.639V4.75756H63.1098V11.0659C63.1098 13.0901 62.742 13.7779 61.5924 13.7779C60.4888 13.7779 60.075 13.0704 60.075 11.1642V4.73791H55.5458V11.6358C55.5458 13.1883 55.6608 14.1317 55.9597 14.7802C56.6034 16.3327 58.1438 17.1188 60.4889 17.1188ZM80.9047 16.8437V13.7583H75.203L80.5139 7.19443V4.77721H70.0531V7.86261H74.9041L69.5473 14.4264V16.8437H80.9047ZM93.6417 16.8437V13.7583H87.9399L93.2508 7.19443V4.77721H82.79V7.86261H87.6411L82.2842 14.4264V16.8437H93.6417ZM103.229 16.8437V13.7386H102.93C100.976 13.7583 100.424 13.1883 100.447 11.2231V0.394775H95.9178V10.8301C95.8948 15.7824 97.1133 16.8437 102.746 16.8437H103.229ZM110.011 17.1188C113.437 17.1188 115.253 16.3524 116.495 14.4264L113.138 12.8543C112.494 13.7976 111.781 14.171 110.54 14.171C109.046 14.171 108.333 13.4831 108.333 12.0485V11.8127H116.472V10.5353C116.472 6.15287 114.724 4.48243 110.126 4.48243C105.528 4.48243 103.781 6.17252 103.781 10.5353V11.2428C103.781 15.4877 105.528 17.1188 110.011 17.1188ZM112.218 9.23826H108.333V8.94348C108.333 7.90191 109.069 7.25339 110.287 7.25339C111.506 7.25339 112.241 7.88226 112.241 8.90417V9.23826H112.218ZM48.8095 35.1005L55.3159 18.6517H50.5338L46.6944 29.7551L42.8549 18.6517H38.0498L44.5562 35.1005H48.8095ZM61.4545 35.3757C64.8801 35.3757 66.6964 34.6092 67.9379 32.6833L64.5812 31.1111C63.9375 32.0544 63.2248 32.4278 61.9833 32.4278C60.4889 32.4278 59.7762 31.74 59.7762 30.3054V30.0696H67.9149V28.7922C67.9149 24.4097 66.1676 22.7393 61.5694 22.7393C56.9713 22.7393 55.224 24.4294 55.224 28.7922V29.4997C55.201 33.7249 56.9483 35.3757 61.4545 35.3757ZM63.6386 27.4951H59.7531V27.2004C59.7531 26.1588 60.4888 25.5103 61.7074 25.5103C62.9259 25.5103 63.6616 26.1391 63.6616 27.1611V27.4951H63.6386ZM74.6282 35.1005V28.7922C74.6282 26.768 75.0651 26.0802 76.3296 26.0802C77.5021 26.0802 77.9159 26.7877 77.9159 28.6939V35.1005H82.4451V28.2026C82.4451 26.6108 82.3302 25.7461 82.0313 25.0583C81.3645 23.5451 79.7552 22.7393 77.4331 22.7393C75.7318 22.7393 74.7432 23.0341 73.8236 23.8005L73.4557 23.0144H70.076V35.1005H74.6282ZM92.768 35.1005V31.9955H92.4921C90.5839 32.0151 89.9861 31.4452 90.0091 29.48V26.0605H92.837V23.0144H90.0091V19.7915H85.7328L85.4569 23.0144H83.9625V26.0605H85.4569V29.087C85.4569 34.1179 86.5605 35.1005 92.3082 35.1005H92.768ZM99.5043 35.3757C101.367 35.3757 102.332 35.0612 103.045 34.1965L103.666 35.1005H106.654V23.0144H102.125V29.3228C102.125 31.347 101.757 32.0348 100.608 32.0348C99.5043 32.0348 99.0905 31.3273 99.0905 29.4211V22.9948H94.5613V29.8927C94.5613 31.4452 94.6763 32.3885 94.9751 33.0371C95.6189 34.5896 97.1593 35.3757 99.5043 35.3757ZM113.989 35.1005V29.3228C113.989 27.0235 114.425 26.0802 115.506 26.0802C116.081 26.0802 116.61 26.2964 117.322 26.7877L119.299 23.604C118.012 23.0144 117.046 22.759 115.966 22.759C115.023 22.759 114.448 22.9948 113.483 23.6826L112.908 23.0341H109.459V35.1005H113.989ZM125.875 35.3757C129.3 35.3757 131.117 34.6092 132.358 32.6833L129.002 31.1111C128.358 32.0544 127.645 32.4278 126.404 32.4278C124.909 32.4278 124.197 31.74 124.197 30.3054V30.0696H132.335V28.7922C132.335 24.4097 130.588 22.7393 125.99 22.7393C121.392 22.7393 119.644 24.4294 119.644 28.7922V29.4997C119.644 33.7249 121.392 35.3757 125.875 35.3757ZM128.082 27.4951H124.197V27.2004C124.197 26.1588 124.932 25.5103 126.151 25.5103C127.369 25.5103 128.105 26.1391 128.105 27.1611V27.4951H128.082ZM139.922 35.3757C144.222 35.3757 146.13 34.1376 146.13 31.3666C146.13 28.6546 144.865 27.7703 140.566 27.4755C139.072 27.3772 138.727 27.22 138.727 26.6894C138.727 26.0998 139.301 25.7461 140.267 25.7461C141.394 25.7461 141.968 26.0409 142.566 27.0235L145.9 25.4317C144.773 23.604 142.865 22.759 139.991 22.759C136.428 22.759 134.473 24.2132 134.473 26.8466C134.473 29.4014 135.922 30.3251 140.405 30.5805C141.486 30.6591 141.853 30.8557 141.853 31.3666C141.853 32.0741 141.187 32.4278 139.738 32.4278C138.244 32.4278 137.738 32.1724 137.094 31.1308L133.738 32.703C134.726 34.511 136.681 35.3757 139.922 35.3757Z" fill="#241E63"/>
</svg>
