<svg width="106" height="72" viewBox="0 0 106 72" fill="none" xmlns="http://www.w3.org/2000/svg">
<path d="M53.524 4.96918L83.8402 50.8235H87.0393L53.5427 0.171875L19.4102 50.8235H22.6186L53.524 4.96918Z" fill="#241E63"/>
<path d="M96.628 64.3916H93.4289L96.7963 69.4773H9.41146L12.8444 64.3916H9.63596L4.60352 71.8523H101.567L96.628 64.3916Z" fill="#241E63"/>
<path d="M73.5606 40.0695L71.6057 40.9491L70.4177 37.4309L68.1915 35.6718H65.1047L64.2909 31.0342L59.7355 29.2751L56.4242 24.3977L55.3392 25.1173L52.3552 21.759L45.4988 31.8818L43.0294 31.2021L39.6806 35.272L37.8379 33.433L33.5538 41.5088L31.3837 42.5482L27.6982 50.584L28.3437 50.8239L32.5155 43.9475L34.6856 42.908L37.8473 36.0156L40.0642 37.6148L43.0481 33.5369L45.8917 34.2166L52.374 24.0938L55.3579 27.9238L56.4429 26.2607L60.1284 31.6179L63.1778 32.4335L64.3657 37.0711L67.4525 37.3109L69.6787 39.07L70.4925 42.8281L72.8217 41.9485L78.8737 50.592H79.6875L73.5606 40.0695ZM57.6963 33.321L58.8001 36.5593L58.7908 36.4074L58.454 30.1946L56.8171 27.7719L55.5824 29.0992L53.8332 28.0358L57.6122 37.6548L57.6963 33.321ZM37.9782 41.8926L33.0768 50.1443L38.315 45.3628L37.9782 41.8926ZM52.8697 27.9398L54.039 27.1962L52.2149 25.613L46.2565 35.336L43.6374 34.5524L40.0829 38.5263L38.0718 37.215L35.1253 42.7801L36.2758 42.2764L39.6526 39.2779L39.7181 43.9155L41.4205 38.7902L43.3567 37.199L42.5991 46.2343L48.0057 35.208L49.2497 38.3984L50.0074 34.8242L52.5984 44.1474L54.8621 37.6708L56.9574 38.1505L52.8697 27.9398ZM41.3644 48.833L41.8601 41.7726L36.7529 51.7754L41.3644 48.833ZM69.0427 41.053L68.1541 39.3899L66.8819 38.3824H63.5332L63.4584 37.9746L58.3885 45.7466L61.494 43.044L62.4856 48.1293L63.8512 44.2673L65.6472 42.6042L66.8726 47.2098L68.0605 40.8771L69.0427 41.053ZM61.3444 35.5838L59.8197 37.247L57.6122 39.0221L56.3026 39.182L58.4447 40.3973L57.7712 41.053L56.4803 41.4128L56.3213 47.8655L59.4362 41.4128L62.4388 36.9831L61.3444 35.5838ZM72.2698 42.8521L70.2306 43.7716L68.9117 42.5322L68.603 44.3873L69.6694 44.0754L67.7986 48.5051L71.5028 46.3383L74.6831 49.7525L73.8225 46.5461L74.8983 47.3537L72.2698 42.8521ZM61.5408 34.3925L63.1029 36.3754L62.392 33.9687L59.0246 32.3775L60.2032 35.368L61.5408 34.3925Z" fill="#241E63"/>
<path d="M1.92865 53.3652H5.68892L5.51119 54.6925H3.07918L2.82662 56.4196H4.84706L4.66934 57.6909H2.65825L2.37764 59.6099H4.84706L4.65999 60.9372H0.862305L1.92865 53.3652Z" fill="#241E63"/>
<path d="M6.12793 53.366H7.50297L7.78359 58.9067L9.51407 53.366H10.702L8.18581 60.9374H6.6424L6.12793 53.366Z" fill="#241E63"/>
<path d="M11.6005 53.366H15.3609L15.1831 54.6932H12.7511L12.4985 56.4201H14.519L14.3413 57.6914H12.3302L12.0495 59.6102H14.519L14.3319 60.9374H10.5342L11.6005 53.366Z" fill="#241E63"/>
<path d="M16.3515 53.366H18.2316C19.1015 53.366 20.252 53.5339 20.252 55.4127C20.252 57.1157 19.4102 57.4995 19.0454 57.6674L19.7563 60.9374H18.3158L17.7078 57.9552H17.0437L16.6228 60.9374H15.2852L16.3515 53.366ZM17.2214 56.692H17.7546C18.6806 56.692 18.8583 55.9324 18.8583 55.3728C18.8583 54.6612 18.4748 54.5652 18.0258 54.5652H17.5207L17.2214 56.692Z" fill="#241E63"/>
<path d="M21.5898 53.366H25.3502L25.1724 54.6932H22.7404L22.4878 56.4201H24.5083L24.3306 57.6914H22.3194L22.0388 59.6102H24.5083L24.3212 60.9374H20.5234L21.5898 53.366Z" fill="#241E63"/>
<path d="M26.4926 58.5238C26.6329 59.2834 26.8387 59.7232 27.4373 59.7232C28.0266 59.7232 28.2324 59.2994 28.2324 58.8916C28.2324 58.3239 27.9331 58.116 27.3812 57.8042C26.5768 57.3644 25.8191 56.8607 25.8191 55.6854C25.8191 54.8458 26.2494 53.2307 27.8957 53.2307C28.7563 53.2307 29.5888 53.6705 29.8694 55.1816L28.5879 55.5814C28.5037 55.1417 28.4008 54.582 27.8583 54.582C27.4654 54.582 27.1848 54.9258 27.1848 55.3576C27.1848 55.7813 27.2503 55.9172 28.3353 56.5569C28.962 56.9327 29.6542 57.4444 29.6542 58.5798C29.6542 59.3634 29.3362 60.0989 28.9995 60.4667C28.5224 60.9865 27.8115 61.0824 27.3906 61.0824C26.2681 61.0824 25.3608 60.5147 25.1924 58.8117L26.4926 58.5238Z" fill="#241E63"/>
<path d="M31.9544 54.7731H30.6074L30.8039 53.366H34.7888L34.5924 54.7731H33.2921L32.4222 60.9374H31.0845L31.9544 54.7731Z" fill="#241E63"/>
<path d="M37.0713 53.366H38.4463L38.7269 58.9067L40.4574 53.366H41.6453L39.1198 60.9374H37.5764L37.0713 53.366Z" fill="#241E63"/>
<path d="M42.5341 53.366H46.2945L46.1168 54.6932H43.6847L43.4321 56.4201H45.4526L45.2749 57.6914H43.2638L42.9831 59.6102H45.4526L45.2656 60.9374H41.4678L42.5341 53.366Z" fill="#241E63"/>
<path d="M47.2861 53.366H48.633L49.8116 57.9952L50.429 53.366H51.5515L50.4851 60.9374H49.4562L48.0812 55.4687L47.3422 60.9374H46.2197L47.2861 53.366Z" fill="#241E63"/>
<path d="M53.385 54.7731H52.0381L52.2345 53.366H56.2192L56.0228 54.7731H54.7226L53.8527 60.9374H52.5151L53.385 54.7731Z" fill="#241E63"/>
<path d="M58.2199 53.366L57.6306 57.5791C57.5744 58.0188 57.509 58.6264 57.509 58.8502C57.509 59.5457 57.9393 59.7216 58.2573 59.7216C58.9963 59.7216 59.0992 59.162 59.2582 57.9868L59.913 53.366H61.129L60.4368 58.2666C60.3433 58.9621 60.1936 59.7856 59.8475 60.2972C59.4546 60.8728 58.6782 61.0727 58.1076 61.0727C56.8074 61.0727 56.1807 60.2812 56.1807 59.098C56.1807 58.6423 56.2274 58.1867 56.2836 57.747L56.9009 53.366H58.2199Z" fill="#241E63"/>
<path d="M62.3544 53.366H64.2346C65.1045 53.366 66.255 53.5339 66.255 55.4127C66.255 57.1157 65.4132 57.4995 65.0484 57.6674L65.7593 60.9374H64.3188L63.7108 57.9552H63.0466L62.6257 60.9374H61.2881L62.3544 53.366ZM63.2244 56.692H63.7575C64.6836 56.692 64.8613 55.9324 64.8613 55.3728C64.8613 54.6612 64.4778 54.5652 64.0288 54.5652H63.5237L63.2244 56.692Z" fill="#241E63"/>
<path d="M67.5937 53.366H71.3541L71.1764 54.6932H68.7443L68.4917 56.4201H70.5122L70.3345 57.6914H68.3233L68.0427 59.6102H70.5122L70.3251 60.9374H66.5273L67.5937 53.366Z" fill="#241E63"/>
<path d="M72.5034 58.5238C72.6437 59.2834 72.8495 59.7232 73.4481 59.7232C74.0375 59.7232 74.2433 59.2994 74.2433 58.8916C74.2433 58.3239 73.9439 58.116 73.392 57.8042C72.5876 57.3644 71.8299 56.8607 71.8299 55.6854C71.8299 54.8458 72.2602 53.2307 73.9065 53.2307C74.7671 53.2307 75.5996 53.6705 75.8802 55.1816L74.5987 55.5814C74.5145 55.1417 74.4116 54.582 73.8691 54.582C73.4762 54.582 73.1956 54.9258 73.1956 55.3576C73.1956 55.7813 73.2611 55.9172 74.3461 56.5569C74.9729 56.9327 75.6651 57.4444 75.6651 58.5798C75.6651 59.3634 75.3471 60.0989 75.0103 60.4667C74.5332 60.9865 73.8223 61.0824 73.4014 61.0824C72.2789 61.0824 71.3715 60.5147 71.2031 58.8117L72.5034 58.5238Z" fill="#241E63"/>
<path d="M82.7458 61.0177L82.671 60.0423C82.4933 60.4021 82.1659 61.0736 81.1743 61.0736C79.3409 61.0736 79.21 59.1549 79.21 58.0996C79.21 55.797 79.9302 53.2307 82.0162 53.2307C83.8215 53.2307 83.9525 55.2374 83.9899 55.7251L82.7458 55.9729C82.7271 55.6132 82.671 54.5738 81.9507 54.5738C81.4737 54.5738 81.2211 55.0695 81.0995 55.4213C80.7534 56.3967 80.6318 57.5319 80.6318 58.2834C80.6318 58.8431 80.7253 59.7145 81.3895 59.7145C82.1846 59.7145 82.3436 58.7231 82.4278 58.2035H81.483L81.6701 56.8763H83.8683L83.2884 61.0097H82.7458V61.0177Z" fill="#241E63"/>
<path d="M85.5713 53.366H87.4514C88.3214 53.366 89.4719 53.5339 89.4719 55.4127C89.4719 57.1157 88.6301 57.4995 88.2653 57.6674L88.9762 60.9374H87.5356L86.9276 57.9552H86.2635L85.8425 60.9374H84.5049L85.5713 53.366ZM86.4412 56.692H86.9744C87.9004 56.692 88.0782 55.9324 88.0782 55.3728C88.0782 54.6612 87.6947 54.5652 87.2457 54.5652H86.7405L86.4412 56.692Z" fill="#241E63"/>
<path d="M89.8184 58.0996C89.8184 56.2288 90.4544 53.2307 92.5778 53.2307C92.8771 53.2307 93.8592 53.3027 94.3082 54.4299C94.5421 55.0056 94.5982 55.6531 94.5982 56.2927C94.5982 57.5559 94.3737 58.8111 93.7938 59.8584C93.1764 60.9617 92.3907 61.0736 91.9043 61.0736C90.127 61.0736 89.8184 59.4187 89.8184 58.0996ZM92.8116 58.7711C93.1483 57.6039 93.2325 56.4206 93.2325 55.909C93.2325 55.7011 93.2325 54.5818 92.5123 54.5818C92.0259 54.5818 91.7733 55.1495 91.6985 55.3733C91.315 56.4206 91.184 57.6758 91.184 58.4913C91.184 59.1069 91.343 59.7145 91.9698 59.7145C92.4655 59.7225 92.6994 59.1309 92.8116 58.7711Z" fill="#241E63"/>
<path d="M97.4416 53.366L96.8522 57.5791C96.7961 58.0188 96.7306 58.6264 96.7306 58.8502C96.7306 59.5457 97.1609 59.7216 97.479 59.7216C98.218 59.7216 98.3209 59.162 98.4799 57.9868L99.1347 53.366H100.351L99.6585 58.2666C99.565 58.9621 99.4153 59.7856 99.0692 60.2972C98.6763 60.8728 97.8999 61.0727 97.3293 61.0727C96.0291 61.0727 95.4023 60.2812 95.4023 59.098C95.4023 58.6423 95.4491 58.1867 95.5052 57.747L96.1226 53.366H97.4416Z" fill="#241E63"/>
<path d="M101.585 53.366H103.447C103.989 53.366 105.458 53.366 105.458 55.4767C105.458 56.1883 105.28 57.0757 104.747 57.5555C104.139 58.0991 103.578 58.0991 103.148 58.0991H102.25L101.847 60.9374H100.51L101.585 53.366ZM102.446 56.7719H103.082C103.278 56.7719 103.54 56.7639 103.746 56.604C103.999 56.3962 104.092 55.9005 104.092 55.5726C104.092 54.7332 103.587 54.7012 103.157 54.7012H102.736L102.446 56.7719Z" fill="#241E63"/>
</svg>
