<svg width="178" height="29" viewBox="0 0 178 29" fill="none" xmlns="http://www.w3.org/2000/svg">
<path d="M0.172326 17.8327C0.172326 14.6767 0.136482 11.5105 0.18427 8.35446C0.244004 3.68684 4.42544 0.224428 9.87324 0.234642C14.9865 0.244855 20.0998 0.234642 25.2131 0.234642C26.1211 0.234642 26.1211 0.234647 26.1211 0.98024C26.1211 7.21054 26.1211 13.4408 26.1211 19.6813C26.1211 20.4269 26.0972 20.4474 25.2131 20.4474C22.6684 20.4474 20.1237 20.4474 17.579 20.4474C16.7308 20.4474 16.7308 20.4474 16.7308 21.193C16.7308 23.3991 16.7188 25.6052 16.7427 27.8114C16.7427 28.2914 16.5874 28.4548 16.002 28.4548C10.9724 28.4344 5.94269 28.4344 0.901085 28.4548C0.327633 28.4548 0.148438 28.3118 0.148438 27.8216C0.172331 24.492 0.160379 21.1623 0.172326 17.8327Z" fill="#EBE6F0"/>
<path d="M28.3555 14.2765C28.3555 9.84379 28.3555 5.41107 28.3555 0.968141C28.3555 0.222546 28.3555 0.212333 29.2037 0.222547C30.9719 0.253188 32.752 0.110199 34.5082 0.314472C38.7614 0.804727 42.1424 3.83817 42.5366 7.48444C42.5964 8.02576 42.6203 8.56709 42.6203 9.10841C42.6203 15.2775 42.6203 21.4465 42.6203 27.6155C42.6203 28.4326 42.6203 28.4326 41.6765 28.4326C37.5189 28.4326 33.3613 28.4326 29.2037 28.4326C28.3794 28.4326 28.3674 28.4326 28.3674 27.7279C28.3555 23.2543 28.3555 18.7705 28.3555 14.2765ZM37.6742 8.31175C37.6742 7.25975 36.6587 6.4018 35.4281 6.41201C34.2334 6.42222 33.2299 7.28017 33.2179 8.30153C33.206 9.34332 34.2215 10.2217 35.4401 10.2319C36.6587 10.2319 37.6742 9.36375 37.6742 8.31175Z" fill="#EBE6F0"/>
<path d="M173.368 9.7212C174.682 9.7212 175.997 9.73142 177.311 9.71099C177.765 9.70078 177.956 9.84376 177.944 10.2421C177.92 11.1102 177.956 11.9784 177.932 12.8363C177.884 14.5318 176.785 15.6757 174.862 16.0843C174.061 16.2477 173.249 16.3498 172.436 16.3498C169.987 16.3498 167.538 16.452 165.101 16.2885C164.683 16.2579 164.265 16.2068 163.87 16.1251C161.744 15.7064 160.764 14.8689 160.501 12.9691C160.239 11.0285 160.239 9.06753 160.489 7.11674C160.764 5.03317 161.983 4.03223 164.838 3.80753C167.729 3.58283 170.632 3.62369 173.536 3.79732C173.966 3.81775 174.396 3.90967 174.826 3.99138C177.359 4.49185 178.063 5.95239 177.944 7.8419C177.932 8.0666 177.813 8.18916 177.55 8.19938C177.466 8.19938 177.394 8.20959 177.311 8.20959C176.809 8.19938 176.259 8.30151 175.841 8.1381C175.316 7.94404 175.626 7.38229 175.507 6.98396C175.268 6.19752 174.909 5.84004 173.989 5.67662C173.524 5.59491 173.046 5.56427 172.568 5.56427C170.298 5.56427 168.028 5.56427 165.758 5.56427C165.459 5.56427 165.161 5.56427 164.862 5.59491C163.464 5.74811 162.998 6.15666 162.879 7.36187C162.712 9.10839 162.712 10.8549 162.879 12.6014C162.998 13.8883 163.357 14.3275 164.838 14.4195C167.717 14.5931 170.609 14.6033 173.476 14.4195C175.101 14.3173 175.483 13.8271 175.566 12.4278C175.614 11.5699 175.614 11.5699 174.635 11.5699C172.926 11.5699 171.218 11.5597 169.497 11.5801C168.972 11.5903 168.745 11.4575 168.769 10.9775C168.816 9.51693 168.578 9.73142 170.214 9.71099C171.266 9.71099 172.317 9.7212 173.368 9.7212Z" fill="#EBE6F0"/>
<path d="M87.875 3.70548C89.1175 3.74633 90.6109 3.64421 92.1042 3.78719C92.7374 3.84847 93.3587 3.94038 93.968 4.114C95.306 4.48167 96.1423 5.25785 96.4649 6.43234C96.6202 6.99406 96.7277 7.56598 96.7277 8.14812C96.7158 9.48602 96.7516 10.8341 96.7158 12.172C96.6441 14.7866 95.2463 16.0938 92.1879 16.2777C89.1533 16.4615 86.1069 16.4308 83.0604 16.2777C82.4869 16.247 81.9254 16.1245 81.3758 15.9713C79.8586 15.5525 78.9984 14.6334 78.7714 13.3159C78.4847 11.7125 78.4966 10.0988 78.5922 8.48516C78.628 7.91323 78.628 7.33109 78.7475 6.75916C79.0581 5.32934 79.978 4.39997 81.6387 4.02209C82.7258 3.77697 83.825 3.68506 84.948 3.68506C85.844 3.70548 86.74 3.70548 87.875 3.70548ZM87.6838 5.58467C86.286 5.59488 84.9002 5.56424 83.5143 5.59488C81.7103 5.63573 81.113 6.13617 81.0772 7.66812C81.0413 9.26134 81.0413 10.8648 81.0772 12.458C81.113 13.898 81.6626 14.4291 83.3232 14.4802C86.2263 14.5721 89.1294 14.5721 92.0326 14.4802C93.6454 14.4291 94.2189 13.8776 94.2666 12.4886C94.3144 11.2018 94.3144 9.90476 94.3025 8.61792C94.3025 8.046 94.2905 7.46385 94.1591 6.89193C94.0038 6.20766 93.5379 5.80935 92.7374 5.69701C92.3432 5.63573 91.9489 5.59488 91.5547 5.58467C90.2644 5.57446 88.9741 5.58467 87.6838 5.58467Z" fill="#EBE6F0"/>
<path d="M73.9801 13.5208C74.1235 13.2859 74.0638 13.102 74.0638 12.9181C74.0638 10.15 74.0757 7.38183 74.0518 4.61368C74.0518 4.09273 74.2549 3.9293 74.8403 3.93952C76.8115 3.97016 76.5009 3.77608 76.5129 5.3287C76.5248 8.70973 76.5129 12.0908 76.5129 15.4718C76.5129 16.1358 76.4651 16.1664 75.7005 16.1358C75.5213 16.1255 75.3421 16.0949 75.1629 16.1153C74.0518 16.289 73.2872 15.8293 72.4987 15.2062C68.8191 12.2542 65.0917 9.33282 61.3881 6.41145C61.3404 6.3808 61.2926 6.36037 61.2089 6.3093C61.0656 6.48295 61.1253 6.66681 61.1253 6.84046C61.1253 9.71076 61.1253 12.5811 61.1253 15.4514C61.1253 16.1255 61.1253 16.1153 60.3368 16.1153C60.0142 16.1153 59.7036 16.1255 59.3811 16.146C58.9032 16.1766 58.6643 16.054 58.6762 15.5842C58.712 14.0418 58.6882 12.4891 58.6882 10.9467C58.6882 8.82209 58.7001 6.69745 58.6762 4.57282C58.6762 4.11316 58.8554 3.90887 59.393 3.93952C59.6678 3.95994 59.9545 3.93952 60.2293 3.93952C62.2125 3.93952 62.2005 3.93951 63.658 5.12441C66.9673 7.82106 70.2766 10.5177 73.5859 13.2144C73.7053 13.3165 73.8248 13.3982 73.9801 13.5208Z" fill="#EBE6F0"/>
<path d="M155.865 13.5006C155.865 12.7549 155.865 12.0501 155.865 11.3352C155.865 9.07781 155.877 6.81026 155.853 4.55292C155.853 4.08307 156.032 3.91964 156.57 3.92985C158.577 3.97071 158.278 3.72557 158.278 5.38027C158.29 8.57732 158.278 11.7642 158.278 14.9612C158.278 15.0429 158.278 15.1348 158.278 15.2166C158.266 16.1154 158.254 16.0235 157.215 16.1154C155.877 16.238 154.981 15.7681 154.037 15.0021C150.489 12.1217 146.869 9.31274 143.273 6.47319C143.189 6.41191 143.129 6.30976 142.974 6.31998C142.855 6.48341 142.914 6.67747 142.914 6.86133C142.914 9.7111 142.902 12.5711 142.926 15.4208C142.926 15.9213 142.783 16.1461 142.162 16.095C141.744 16.0541 141.326 16.0848 140.907 16.0848C140.609 16.0848 140.465 15.9622 140.477 15.7068C140.477 15.5843 140.477 15.4719 140.477 15.3493C140.477 11.7846 140.477 8.20961 140.477 4.64485C140.477 3.92985 140.489 3.91964 141.302 3.91964C141.696 3.91964 142.102 3.96049 142.496 3.90942C143.595 3.76642 144.348 4.175 145.113 4.80828C148.518 7.64783 151.97 10.4363 155.399 13.2452C155.507 13.3678 155.59 13.4904 155.865 13.5006Z" fill="#EBE6F0"/>
<path d="M116.272 10.0477C116.272 8.24992 116.272 6.44194 116.272 4.64418C116.272 3.98023 116.32 3.94959 117.06 3.93938C118.685 3.91895 118.685 3.91894 118.685 5.28769C118.685 6.36022 118.697 7.43275 118.673 8.49507C118.661 8.87301 118.817 8.99558 119.259 8.99558C122.735 8.98537 126.224 8.98537 129.7 8.99558C130.226 8.99558 130.333 8.81172 130.322 8.42356C130.298 7.13653 130.333 5.83928 130.31 4.55225C130.298 4.08238 130.501 3.91894 131.038 3.92916C133.165 3.9598 132.759 3.76573 132.771 5.3592C132.795 8.71979 132.771 12.0804 132.795 15.4512C132.795 15.9517 132.663 16.1764 132.03 16.1151C131.683 16.0743 131.313 16.0845 130.955 16.1151C130.477 16.156 130.322 16.013 130.322 15.6044C130.333 14.2459 130.31 12.8873 130.333 11.5288C130.345 11.0283 130.19 10.8444 129.569 10.8444C126.188 10.8648 122.807 10.8648 119.426 10.8444C118.864 10.8444 118.661 10.9772 118.673 11.4777C118.709 12.8363 118.661 14.1948 118.697 15.5533C118.709 16.0028 118.506 16.1662 118.004 16.1458C117.634 16.1253 117.252 16.1049 116.869 16.1253C116.391 16.156 116.248 15.9823 116.248 15.5942C116.284 13.7556 116.272 11.8965 116.272 10.0477Z" fill="#EBE6F0"/>
<path d="M107.468 10.9668C107.468 12.4784 107.468 13.99 107.468 15.5016C107.468 16.1042 107.396 16.1553 106.679 16.1553C106.464 16.1553 106.237 16.1246 106.022 16.1144C105.078 16.1042 105.019 16.2574 105.03 15.1748C105.03 12.2537 105.019 9.33268 105.042 6.41164C105.042 5.92139 104.875 5.76819 104.302 5.77841C102.534 5.80905 100.765 5.7784 98.9853 5.79883C98.4477 5.80904 98.2327 5.64563 98.2446 5.18602C98.2685 3.78678 98.1132 3.9502 99.6782 3.9502C104.194 3.93998 108.71 3.9502 113.226 3.9502C114.254 3.9502 114.254 3.9502 114.254 4.81834C114.254 5.79883 114.254 5.79883 113.083 5.79883C111.47 5.79883 109.857 5.81926 108.244 5.78862C107.659 5.7784 107.444 5.91118 107.456 6.44228C107.492 7.94366 107.468 9.45525 107.468 10.9668Z" fill="#EBE6F0"/>
<path d="M135.448 9.99673C135.448 8.15824 135.46 6.32996 135.436 4.49146C135.436 4.07269 135.579 3.89906 136.081 3.9297C136.475 3.95013 136.882 3.95013 137.276 3.9297C137.742 3.90927 137.897 4.10334 137.897 4.48125C137.885 8.17867 137.885 11.8863 137.897 15.5837C137.897 15.9821 137.742 16.1353 137.264 16.1046C136.894 16.074 136.511 16.0842 136.129 16.125C135.615 16.1863 135.424 16.0638 135.436 15.5837C135.46 13.735 135.448 11.8659 135.448 9.99673Z" fill="#EBE6F0"/>
<path d="M58.6999 25.9412C58.6999 25.2978 58.7118 24.6544 58.6999 24.0008C58.688 23.6229 58.8313 23.4391 59.3092 23.4595C59.9424 23.48 60.5875 23.4595 61.2207 23.4698C62.2242 23.4902 62.941 23.9293 63.18 24.634C63.4428 25.4204 63.1561 26.1046 62.3198 26.5744C62.045 26.7276 62.0211 26.8399 62.2123 27.0442C62.5109 27.3812 62.7977 27.7284 63.0724 28.0859C63.1441 28.188 63.3472 28.3003 63.1561 28.4331C62.9888 28.5454 62.7977 28.4842 62.6782 28.3616C62.4273 28.0961 62.1764 27.8306 61.9733 27.5344C61.6388 27.0442 61.2087 26.8399 60.5158 26.8706C59.2017 26.9216 59.3092 26.8093 59.3092 27.8918C59.3092 27.9735 59.3092 28.0654 59.2972 28.1471C59.2733 28.3106 59.2375 28.4637 58.9986 28.4535C58.7596 28.4535 58.7118 28.3003 58.7118 28.1369C58.6999 27.4016 58.6999 26.6765 58.6999 25.9412ZM59.3092 25.1038C59.345 26.6561 59.0344 26.411 60.8981 26.4314C61.2446 26.4314 61.5671 26.3906 61.8897 26.268C62.8454 25.8902 62.9888 24.6748 62.1167 24.154C61.7224 23.9191 61.2685 23.8578 60.8025 23.8578C59.0464 23.8476 59.3331 23.6842 59.2972 25.0527C59.3092 25.0731 59.3092 25.0936 59.3092 25.1038Z" fill="#EBE6F0"/>
<path d="M140.502 26.0018C140.502 25.3072 140.502 24.6127 140.502 23.9181C140.502 23.6015 140.645 23.4483 141.04 23.4585C141.756 23.4789 142.473 23.4483 143.19 23.4687C144.074 23.4993 144.779 23.9794 144.994 24.6637C145.233 25.44 144.958 26.1448 144.158 26.5636C143.787 26.7576 143.871 26.8802 144.062 27.1049C144.325 27.4011 144.588 27.7076 144.827 28.014C144.922 28.1365 145.185 28.2795 144.934 28.4328C144.719 28.5553 144.516 28.4123 144.385 28.2591C144.134 27.9731 143.871 27.6973 143.668 27.3807C143.393 26.9721 143.023 26.8598 142.485 26.87C141.099 26.8904 141.099 26.8802 141.04 28.0242C141.028 28.1876 141.123 28.4532 140.777 28.4328C140.466 28.4123 140.526 28.1672 140.526 27.9936C140.502 27.3296 140.502 26.6657 140.502 26.0018ZM141.04 25.0315C141.04 25.44 141.04 25.7567 141.04 26.0835C141.04 26.3082 141.135 26.441 141.422 26.441C141.995 26.4308 142.569 26.4614 143.142 26.4104C143.895 26.3389 144.301 26.012 144.444 25.4707C144.588 24.9191 144.373 24.4186 143.883 24.1326C143.489 23.9079 143.023 23.8671 142.569 23.8671C140.717 23.8568 141.075 23.6628 141.04 25.0315Z" fill="#EBE6F0"/>
<path d="M177.931 26.0021C177.931 26.6659 177.943 27.3298 177.931 27.9834C177.931 28.1469 178.026 28.4226 177.704 28.4226C177.345 28.4328 177.429 28.1469 177.417 27.9528C177.405 27.5136 177.393 27.0745 177.417 26.6251C177.429 26.2778 177.25 26.1348 176.844 26.145C175.983 26.1553 175.135 26.1553 174.275 26.145C173.869 26.1348 173.702 26.288 173.713 26.6353C173.725 27.0949 173.725 27.5545 173.713 28.0141C173.713 28.1877 173.749 28.4328 173.439 28.443C173.116 28.4533 173.128 28.2183 173.128 28.0447C173.116 26.6557 173.116 25.2565 173.128 23.8675C173.128 23.7041 173.104 23.4998 173.391 23.4794C173.713 23.459 173.725 23.6734 173.725 23.8675C173.737 24.3475 173.737 24.8173 173.725 25.2973C173.713 25.5935 173.857 25.7263 174.215 25.7263C175.111 25.7161 176.007 25.7161 176.903 25.7263C177.297 25.7365 177.429 25.5731 177.417 25.2565C177.405 24.8173 177.405 24.3781 177.417 23.9288C177.417 23.7551 177.345 23.4998 177.668 23.4896C178.014 23.4794 177.931 23.7449 177.931 23.9083C177.931 24.6131 177.931 25.3076 177.931 26.0021Z" fill="#EBE6F0"/>
<path d="M108.041 25.9614C108.041 25.2975 108.053 24.6336 108.041 23.9799C108.041 23.6224 108.184 23.459 108.638 23.4692C109.606 23.4896 110.586 23.4692 111.553 23.4794C111.721 23.4794 111.96 23.4181 111.983 23.6428C112.007 23.9084 111.733 23.8573 111.553 23.8573C110.753 23.8675 109.964 23.8675 109.164 23.8573C108.794 23.8471 108.614 23.9697 108.626 24.2965C108.65 26.0431 108.399 25.6856 110.156 25.7264C110.454 25.7367 110.753 25.7162 111.052 25.7367C111.267 25.7469 111.613 25.6549 111.601 25.9614C111.589 26.2371 111.243 26.1758 111.028 26.1758C110.466 26.1861 109.917 26.2065 109.355 26.1758C108.83 26.1554 108.603 26.2984 108.614 26.7785C108.662 28.331 108.411 28.045 110.12 28.0756C110.681 28.0858 111.231 28.0756 111.792 28.0858C111.948 28.0858 112.127 28.096 112.139 28.2901C112.139 28.4739 111.972 28.5148 111.804 28.5148C110.693 28.525 109.582 28.525 108.471 28.5148C108.089 28.5148 108.041 28.2799 108.041 28.0245C108.041 27.3198 108.041 26.6355 108.041 25.9614Z" fill="#EBE6F0"/>
<path d="M75.3073 25.961C75.3073 25.2971 75.3193 24.6331 75.3073 23.9794C75.2954 23.6219 75.4387 23.4482 75.8927 23.4584C76.8485 23.4789 77.8043 23.4584 78.7482 23.4686C78.9274 23.4686 79.2261 23.4074 79.2261 23.6423C79.238 23.9283 78.9154 23.8364 78.7243 23.8466C77.9716 23.8568 77.2189 23.8568 76.4543 23.8466C76.0839 23.8364 75.9047 23.9487 75.9047 24.2858C75.9286 26.0529 75.6538 25.675 77.4937 25.7159C77.8521 25.7261 78.2105 25.7159 78.569 25.7159C78.7243 25.7159 78.9154 25.7056 78.9393 25.8895C78.9632 26.104 78.7721 26.1449 78.5809 26.1449C77.9238 26.1551 77.2667 26.1755 76.6096 26.1551C76.1078 26.1347 75.8808 26.2674 75.9047 26.7271C75.9525 28.3206 75.6896 28.0243 77.4459 28.055C77.9835 28.0652 78.5212 28.055 79.0588 28.0652C79.2141 28.0652 79.3933 28.0856 79.3814 28.2797C79.3814 28.4329 79.2261 28.4738 79.0827 28.4738C77.9477 28.484 76.8246 28.484 75.6896 28.4738C75.3312 28.4738 75.3073 28.2286 75.3073 27.9937C75.3073 27.3195 75.3073 26.6454 75.3073 25.961Z" fill="#EBE6F0"/>
<path d="M129.308 28.2388C129.332 28.3614 129.296 28.4329 129.176 28.4534C129.009 28.484 128.854 28.4534 128.77 28.3206C128.615 28.0652 128.46 27.8098 128.34 27.5443C128.197 27.2378 127.982 27.0948 127.575 27.105C126.823 27.1255 126.07 27.1255 125.318 27.105C124.935 27.0948 124.732 27.2174 124.613 27.5238C124.505 27.7792 124.362 28.0243 124.218 28.2695C124.123 28.4431 123.944 28.5453 123.741 28.4636C123.478 28.3614 123.669 28.198 123.729 28.0754C124.493 26.6454 125.258 25.2051 126.022 23.7751C126.106 23.6219 126.202 23.4687 126.441 23.4585C126.727 23.4482 126.811 23.6117 126.906 23.7853C127.683 25.2154 128.448 26.6454 129.224 28.0754C129.26 28.1367 129.296 28.198 129.308 28.2388ZM126.476 24.0305C126.034 24.8783 125.64 25.6137 125.258 26.3492C125.138 26.5841 125.282 26.6556 125.533 26.6556C126.166 26.6556 126.799 26.6556 127.432 26.6556C127.671 26.6556 127.838 26.5943 127.707 26.3492C127.313 25.6137 126.918 24.8783 126.476 24.0305Z" fill="#EBE6F0"/>
<path d="M93.753 28.5352C93.1317 28.5045 92.5344 28.4024 91.9967 28.0959C91.8295 28.004 91.5547 27.8916 91.71 27.6669C91.8892 27.3911 92.0804 27.6464 92.2476 27.718C92.9884 28.0857 93.7769 28.1776 94.6012 27.9631C95.0314 27.8507 95.3181 27.6158 95.342 27.197C95.3659 26.7884 95.103 26.5534 94.6968 26.4309C94.1234 26.2572 93.514 26.1346 92.9406 25.961C92.0684 25.7056 91.7339 25.3276 91.7697 24.6739C91.8056 24.061 92.3193 23.6217 93.1317 23.4379C93.8844 23.2744 94.5893 23.3868 95.2822 23.6422C95.4615 23.7034 95.6885 23.7852 95.5929 23.9997C95.4734 24.2448 95.2703 24.1223 95.0911 24.0508C94.5535 23.8362 93.9919 23.7647 93.4065 23.8362C92.8569 23.9077 92.4149 24.1223 92.3313 24.6432C92.2596 25.1744 92.6777 25.4094 93.1795 25.5422C93.7291 25.6954 94.2906 25.8077 94.8402 25.961C95.5809 26.1755 95.9155 26.5637 95.9035 27.1561C95.8916 27.7282 95.5093 28.1674 94.8163 28.3615C94.4698 28.4739 94.1114 28.5352 93.753 28.5352Z" fill="#EBE6F0"/>
<path d="M159.652 28.0648C160.201 28.075 160.715 27.9525 161.157 27.6665C161.3 27.5746 161.467 27.4623 161.623 27.6359C161.814 27.8402 161.587 27.9423 161.444 28.0444C160.619 28.6266 159.126 28.6776 158.063 28.167C157.047 27.6767 156.438 26.6146 156.617 25.6137C156.808 24.5414 157.656 23.7141 158.803 23.4792C159.675 23.3056 160.5 23.3567 161.276 23.755C161.467 23.8571 161.85 23.949 161.659 24.2248C161.444 24.5312 161.205 24.235 161.013 24.1329C160.094 23.6733 158.851 23.7448 158.051 24.3167C157.25 24.8886 156.964 25.8078 157.31 26.6759C157.644 27.5133 158.588 28.0648 159.652 28.0648Z" fill="#EBE6F0"/>
</svg>
