<svg width="106" height="72" viewBox="0 0 106 72" fill="none" xmlns="http://www.w3.org/2000/svg">
<path d="M53.5221 4.79812L83.8382 50.6602H87.0373L53.5408 0L19.4082 50.6602H22.6166L53.5221 4.79812Z" fill="#EBE6F0"/>
<path d="M96.626 64.2307H93.4269L96.7944 69.3173H9.40951L12.8424 64.2307H9.634L4.60156 71.6926H101.565L96.626 64.2307Z" fill="#EBE6F0"/>
<path d="M73.5577 39.9044L71.6027 40.7841L70.4148 37.2653L68.1885 35.5059H65.1017L64.2879 30.8676L59.7326 29.1082L56.4213 24.2299L55.3362 24.9496L52.3523 21.5908L45.4959 31.7153L43.0264 31.0355L39.6777 35.1061L37.835 33.2667L33.5509 41.3439L31.3808 42.3835L27.6953 50.4207L28.3407 50.6606L32.5126 43.783L34.6827 42.7434L37.8443 35.8498L40.0612 37.4493L43.0451 33.3707L45.8887 34.0505L52.371 23.926L55.3549 27.7567L56.44 26.0932L60.1254 31.4514L63.1748 32.2671L64.3628 36.9055L67.4496 37.1454L69.6758 38.9048L70.4896 42.6634L72.8187 41.7837L78.8707 50.4287H79.6845L73.5577 39.9044ZM57.6934 33.1548L58.7972 36.3936L58.7878 36.2417L58.4511 30.0279L56.8141 27.6047L55.5794 28.9322L53.8302 27.8686L57.6092 37.4893L57.6934 33.1548ZM37.9753 41.7278L33.0738 49.9809L38.312 45.1986L37.9753 41.7278ZM52.8668 27.7727L54.036 27.0289L52.212 25.4455L46.2535 35.1701L43.6344 34.3863L40.0799 38.3609L38.0688 37.0494L35.1223 42.6155L36.2729 42.1116L39.6497 39.1127L39.7151 43.7511L41.4176 38.6249L43.3538 37.0334L42.5961 46.0702L48.0027 35.0421L49.2468 38.233L50.0045 34.6582L52.5955 43.983L54.8592 37.5052L56.9545 37.9851L52.8668 27.7727ZM41.3614 48.6693L41.8572 41.6078L36.7499 51.6123L41.3614 48.6693ZM69.0398 40.8881L68.1511 39.2246L66.879 38.217H63.5303L63.4554 37.8091L58.3856 45.5824L61.4911 42.8794L62.4826 47.9656L63.8483 44.1029L65.6443 42.4395L66.8696 47.0459L68.0576 40.7121L69.0398 40.8881ZM61.3415 35.418L59.8168 37.0814L57.6092 38.8568L56.2997 39.0167L58.4417 40.2323L57.7682 40.8881L56.4774 41.2479L56.3184 47.7017L59.4333 41.2479L62.4359 36.8175L61.3415 35.418ZM72.2669 42.6874L70.2277 43.6071L68.9088 42.3675L68.6001 44.2229L69.6665 43.911L67.7957 48.3414L71.4998 46.1742L74.6802 49.589L73.8196 46.3821L74.8953 47.1898L72.2669 42.6874ZM61.5379 34.2264L63.1 36.2097L62.3891 33.8025L59.0217 32.2111L60.2003 35.2021L61.5379 34.2264Z" fill="#EBE6F0"/>
<path d="M1.92767 53.2024H5.68794L5.51021 54.5299H3.0782L2.82565 56.2573H4.84609L4.66836 57.5288H2.65728L2.37666 59.4481H4.84609L4.65901 60.7756H0.861328L1.92767 53.2024Z" fill="#EBE6F0"/>
<path d="M6.12695 53.2031H7.50199L7.78261 58.7447L9.5131 53.2031H10.7011L8.18483 60.7759H6.64142L6.12695 53.2031Z" fill="#EBE6F0"/>
<path d="M11.5996 53.2031H15.3599L15.1821 54.5306H12.7501L12.4975 56.2578H14.518L14.3403 57.5293H12.3292L12.0486 59.4485H14.518L14.3309 60.7759H10.5332L11.5996 53.2031Z" fill="#EBE6F0"/>
<path d="M16.3515 53.2031H18.2316C19.1015 53.2031 20.252 53.3711 20.252 55.2503C20.252 56.9535 19.4102 57.3374 19.0454 57.5053L19.7563 60.7759H18.3158L17.7078 57.7932H17.0437L16.6228 60.7759H15.2852L16.3515 53.2031ZM17.2214 56.5297H17.7546C18.6806 56.5297 18.8583 55.77 18.8583 55.2103C18.8583 54.4986 18.4748 54.4026 18.0258 54.4026H17.5207L17.2214 56.5297Z" fill="#EBE6F0"/>
<path d="M21.5898 53.2031H25.3502L25.1724 54.5306H22.7404L22.4878 56.2578H24.5083L24.3306 57.5293H22.3194L22.0388 59.4485H24.5083L24.3212 60.7759H20.5234L21.5898 53.2031Z" fill="#EBE6F0"/>
<path d="M26.4916 58.3619C26.6319 59.1216 26.8377 59.5614 27.4364 59.5614C28.0257 59.5614 28.2315 59.1376 28.2315 58.7297C28.2315 58.1619 27.9321 57.954 27.3802 57.6421C26.5758 57.2023 25.8181 56.6985 25.8181 55.5229C25.8181 54.6833 26.2484 53.0679 27.8947 53.0679C28.7553 53.0679 29.5878 53.5077 29.8684 55.0191L28.5869 55.419C28.5027 54.9791 28.3998 54.4194 27.8573 54.4194C27.4644 54.4194 27.1838 54.7632 27.1838 55.1951C27.1838 55.6189 27.2493 55.7549 28.3343 56.3946C28.9611 56.7705 29.6533 57.2823 29.6533 58.4178C29.6533 59.2016 29.3352 59.9373 28.9985 60.3051C28.5214 60.8249 27.8105 60.9209 27.3896 60.9209C26.2671 60.9209 25.3598 60.3531 25.1914 58.6498L26.4916 58.3619Z" fill="#EBE6F0"/>
<path d="M31.9544 54.6105H30.6074L30.8039 53.2031H34.7888L34.5924 54.6105H33.2921L32.4222 60.7759H31.0845L31.9544 54.6105Z" fill="#EBE6F0"/>
<path d="M37.0703 53.2031H38.4453L38.7259 58.7447L40.4564 53.2031H41.6444L39.1188 60.7759H37.5754L37.0703 53.2031Z" fill="#EBE6F0"/>
<path d="M42.5332 53.2031H46.2935L46.1158 54.5306H43.6837L43.4312 56.2578H45.4517L45.2739 57.5293H43.2628L42.9822 59.4485H45.4517L45.2646 60.7759H41.4668L42.5332 53.2031Z" fill="#EBE6F0"/>
<path d="M47.2851 53.2031H48.6321L49.8107 57.8331L50.428 53.2031H51.5505L50.4842 60.7759H49.4552L48.0802 55.3062L47.3412 60.7759H46.2188L47.2851 53.2031Z" fill="#EBE6F0"/>
<path d="M53.3841 54.6105H52.0371L52.2335 53.2031H56.2182L56.0218 54.6105H54.7216L53.8517 60.7759H52.5142L53.3841 54.6105Z" fill="#EBE6F0"/>
<path d="M58.2189 53.2031L57.6296 57.4169C57.5735 57.8567 57.508 58.4644 57.508 58.6883C57.508 59.3839 57.9383 59.5598 58.2563 59.5598C58.9953 59.5598 59.0982 59.0001 59.2572 57.8247L59.912 53.2031H61.1281L60.4359 58.1046C60.3423 58.8002 60.1926 59.6238 59.8465 60.1355C59.4537 60.7112 58.6773 60.9111 58.1067 60.9111C56.8064 60.9111 56.1797 60.1195 56.1797 58.9362C56.1797 58.4804 56.2265 58.0246 56.2826 57.5849L56.9 53.2031H58.2189Z" fill="#EBE6F0"/>
<path d="M62.3535 53.2031H64.2336C65.1035 53.2031 66.2541 53.3711 66.2541 55.2503C66.2541 56.9535 65.4122 57.3374 65.0474 57.5053L65.7583 60.7759H64.3178L63.7098 57.7932H63.0456L62.6247 60.7759H61.2871L62.3535 53.2031ZM63.2234 56.5297H63.7566C64.6826 56.5297 64.8603 55.77 64.8603 55.2103C64.8603 54.4986 64.4768 54.4026 64.0278 54.4026H63.5227L63.2234 56.5297Z" fill="#EBE6F0"/>
<path d="M67.5918 53.2031H71.3521L71.1744 54.5306H68.7423L68.4898 56.2578H70.5103L70.3325 57.5293H68.3214L68.0408 59.4485H70.5103L70.3232 60.7759H66.5254L67.5918 53.2031Z" fill="#EBE6F0"/>
<path d="M72.5034 58.3619C72.6437 59.1216 72.8495 59.5614 73.4481 59.5614C74.0375 59.5614 74.2433 59.1376 74.2433 58.7297C74.2433 58.1619 73.9439 57.954 73.392 57.6421C72.5876 57.2023 71.8299 56.6985 71.8299 55.5229C71.8299 54.6833 72.2602 53.0679 73.9065 53.0679C74.7671 53.0679 75.5996 53.5077 75.8802 55.0191L74.5987 55.419C74.5145 54.9791 74.4116 54.4194 73.8691 54.4194C73.4762 54.4194 73.1956 54.7632 73.1956 55.1951C73.1956 55.6189 73.2611 55.7549 74.3461 56.3946C74.9729 56.7705 75.6651 57.2823 75.6651 58.4178C75.6651 59.2016 75.3471 59.9373 75.0103 60.3051C74.5332 60.8249 73.8223 60.9209 73.4014 60.9209C72.2789 60.9209 71.3715 60.3531 71.2031 58.6498L72.5034 58.3619Z" fill="#EBE6F0"/>
<path d="M82.7448 60.8561L82.67 59.8806C82.4923 60.2404 82.1649 60.9121 81.1733 60.9121C79.3399 60.9121 79.209 58.993 79.209 57.9375C79.209 55.6346 79.9293 53.0679 82.0152 53.0679C83.8206 53.0679 83.9515 55.0749 83.9889 55.5627L82.7448 55.8106C82.7261 55.4507 82.67 54.4112 81.9497 54.4112C81.4727 54.4112 81.2201 54.907 81.0985 55.2588C80.7524 56.2344 80.6308 57.3698 80.6308 58.1214C80.6308 58.6812 80.7244 59.5528 81.3885 59.5528C82.1836 59.5528 82.3426 58.5612 82.4268 58.0415H81.482L81.6691 56.7141H83.8673L83.2874 60.8481H82.7448V60.8561Z" fill="#EBE6F0"/>
<path d="M85.5703 53.2031H87.4505C88.3204 53.2031 89.471 53.3711 89.471 55.2503C89.471 56.9535 88.6291 57.3374 88.2643 57.5053L88.9752 60.7759H87.5347L86.9266 57.7932H86.2625L85.8416 60.7759H84.5039L85.5703 53.2031ZM86.4402 56.5297H86.9734C87.8995 56.5297 88.0772 55.77 88.0772 55.2103C88.0772 54.4986 87.6937 54.4026 87.2447 54.4026H86.7396L86.4402 56.5297Z" fill="#EBE6F0"/>
<path d="M89.8184 57.9375C89.8184 56.0664 90.4544 53.0679 92.5778 53.0679C92.8771 53.0679 93.8592 53.1398 94.3082 54.2673C94.5421 54.843 94.5982 55.4907 94.5982 56.1304C94.5982 57.3938 94.3737 58.6492 93.7938 59.6967C93.1764 60.8002 92.3907 60.9121 91.9043 60.9121C90.127 60.9121 89.8184 59.2569 89.8184 57.9375ZM92.8116 58.6092C93.1483 57.4418 93.2325 56.2583 93.2325 55.7466C93.2325 55.5387 93.2325 54.4192 92.5123 54.4192C92.0259 54.4192 91.7733 54.987 91.6985 55.2108C91.315 56.2583 91.184 57.5137 91.184 58.3293C91.184 58.9451 91.343 59.5528 91.9698 59.5528C92.4655 59.5608 92.6994 58.969 92.8116 58.6092Z" fill="#EBE6F0"/>
<path d="M97.4416 53.2031L96.8522 57.4169C96.7961 57.8567 96.7306 58.4644 96.7306 58.6883C96.7306 59.3839 97.1609 59.5598 97.479 59.5598C98.218 59.5598 98.3209 59.0001 98.4799 57.8247L99.1347 53.2031H100.351L99.6585 58.1046C99.565 58.8002 99.4153 59.6238 99.0692 60.1355C98.6763 60.7112 97.8999 60.9111 97.3293 60.9111C96.0291 60.9111 95.4023 60.1195 95.4023 58.9362C95.4023 58.4804 95.4491 58.0246 95.5052 57.5849L96.1226 53.2031H97.4416Z" fill="#EBE6F0"/>
<path d="M101.583 53.2031H103.445C103.987 53.2031 105.456 53.2031 105.456 55.3142C105.456 56.0259 105.278 56.9135 104.745 57.3933C104.137 57.9371 103.576 57.9371 103.146 57.9371H102.248L101.845 60.7759H100.508L101.583 53.2031ZM102.444 56.6097H103.08C103.277 56.6097 103.538 56.6017 103.744 56.4417C103.997 56.2338 104.09 55.738 104.09 55.4102C104.09 54.5705 103.585 54.5386 103.155 54.5386H102.734L102.444 56.6097Z" fill="#EBE6F0"/>
</svg>
