<svg width="194" height="23" viewBox="0 0 194 23" fill="none" xmlns="http://www.w3.org/2000/svg">
<path d="M0.172748 1.419C1.07316 0.741687 2.15364 0.849443 3.19811 0.972591C4.20657 1.09574 4.29661 1.83463 4.29661 2.55812C4.29661 6.12942 4.2786 9.68532 4.29661 13.2566C4.31462 16.1814 6.52964 18.3211 9.91519 18.7213C13.3548 19.1369 16.7403 16.7509 16.8483 13.78C16.9204 12.1175 16.8483 10.4704 16.8664 8.80789C16.8664 8.23833 16.7583 7.57641 17.6227 7.37629C18.397 7.19157 18.7572 7.74573 19.0994 8.19215C21.6025 11.3632 21.7646 14.6574 19.6216 17.9824C17.7848 20.8456 13.4448 22.739 9.80714 22.3696C5.19704 21.8924 2.11763 19.7835 0.56892 16.0582C0.406846 15.658 0.280784 15.227 0.136719 14.8268C0.172735 10.3626 0.172748 5.89851 0.172748 1.419Z" fill="#241E63"/>
<path d="M14.6693 10.0855C14.6693 11.1938 14.6873 12.3175 14.6693 13.4258C14.6153 15.3808 13.0125 16.7815 10.7975 16.8739C8.67257 16.9663 6.69167 15.5809 6.58362 13.7183C6.43956 11.317 6.5116 8.90023 6.56562 6.4835C6.58363 5.55991 7.26792 4.94418 8.3304 4.72868C9.82508 4.42081 11.3378 4.34385 12.8504 4.71328C14.039 4.99036 14.7233 5.63688 14.7053 6.74519C14.6513 7.8535 14.6693 8.9618 14.6693 10.0855Z" fill="#241E63"/>
<path d="M80.2013 8.06934C81.3898 8.06934 82.5604 8.05395 83.7489 8.06934C86.09 8.08473 87.0804 9.00827 86.7563 11.0093C86.6482 11.6711 86.6842 12.2253 86.9724 12.8718C87.9088 15.0267 86.6662 16.6583 83.983 16.7352C81.3178 16.8122 78.6526 16.7506 76.0054 16.766C75.141 16.766 74.7988 16.3966 74.7988 15.7039C74.8168 13.549 74.8168 11.3787 74.7988 9.22377C74.7988 8.42337 75.141 8.03856 76.1494 8.06934C77.5001 8.11552 78.8507 8.08473 80.2013 8.06934ZM81.0657 13.1026C80.1293 13.1026 79.2108 13.1026 78.2744 13.1026C77.5541 13.1026 77.338 13.4567 77.338 14.0108C77.356 14.5495 77.6621 14.7804 78.2924 14.7804C80.1112 14.7804 81.9301 14.7804 83.7489 14.7804C84.3792 14.7804 84.6673 14.5187 84.6853 13.9954C84.7033 13.4259 84.4332 13.1026 83.7309 13.1026C82.8485 13.1026 81.9481 13.1026 81.0657 13.1026ZM80.9036 9.93181C80.0212 9.93181 79.1388 9.93181 78.2564 9.93181C77.7162 9.93181 77.356 10.0857 77.356 10.6091C77.356 11.1016 77.6441 11.3171 78.2204 11.3171C79.9492 11.3171 81.66 11.3171 83.3887 11.3171C83.965 11.3171 84.3792 11.1632 84.3612 10.5783C84.3432 10.055 83.947 9.93181 83.4248 9.93181C82.5784 9.93181 81.75 9.93181 80.9036 9.93181Z" fill="#241E63"/>
<path d="M50.0196 16.7968C48.831 16.7968 47.6605 16.8276 46.472 16.7815C44.5991 16.7045 43.6267 15.8733 43.5366 14.257C43.4826 12.9948 43.4826 11.7326 43.5366 10.4858C43.6267 8.85419 44.5991 8.08455 46.526 8.06916C48.849 8.05377 51.1721 8.05377 53.4952 8.06916C55.35 8.08455 56.3585 8.80801 56.4846 10.3781C56.5746 11.7019 56.5746 13.041 56.4846 14.3648C56.3585 15.9964 55.368 16.7507 53.4412 16.7968C52.3066 16.8276 51.1541 16.7968 50.0196 16.7968ZM49.9836 14.8266C50.956 14.8266 51.9285 14.8112 52.9009 14.8266C53.6392 14.842 53.9994 14.5649 53.9814 13.9184C53.9634 12.8717 53.9634 11.825 53.9814 10.7937C53.9814 10.1472 53.6212 9.9009 52.8829 9.91629C50.938 9.93168 48.9931 9.93168 47.0482 9.91629C46.3099 9.91629 45.9497 10.178 45.9497 10.8091C45.9497 11.8558 45.9497 12.9025 45.9497 13.9338C45.9317 14.5957 46.3639 14.8112 47.0662 14.8112C48.0387 14.8112 49.0111 14.8266 49.9836 14.8266Z" fill="#241E63"/>
<path d="M109.879 8.06935C111.14 8.06935 112.418 8.05395 113.679 8.06935C114.742 8.08474 115.552 8.50035 115.984 9.34696C116.218 9.83953 116.542 10.4552 115.786 10.7785C115.138 11.0556 114.345 11.1171 113.895 10.4399C113.589 9.97807 113.157 9.9165 112.617 9.9165C110.798 9.9165 108.979 9.93189 107.16 9.9165C106.35 9.90111 105.99 10.1936 106.008 10.8709C106.026 11.8868 106.026 12.8873 106.008 13.9033C105.99 14.6113 106.404 14.8576 107.178 14.8422C108.997 14.8269 110.816 14.8422 112.635 14.8422C113.157 14.8422 113.589 14.7653 113.931 14.3343C114.435 13.7339 115.246 13.7801 115.876 14.088C116.506 14.4112 116.164 14.9962 115.948 15.458C115.516 16.3661 114.615 16.7664 113.535 16.7818C111.122 16.8279 108.709 16.8279 106.296 16.7818C104.747 16.751 103.847 16.0737 103.612 14.7653C103.306 13.1644 103.306 11.5328 103.612 9.93189C103.847 8.74663 104.747 8.11553 106.17 8.06935C107.43 8.03856 108.655 8.06935 109.879 8.06935Z" fill="#241E63"/>
<path d="M139.575 8.08497C140.835 8.08497 142.114 8.06957 143.375 8.08497C145.175 8.11575 146.094 8.82373 146.328 10.332C146.418 10.9015 146.4 11.471 146.274 12.0558C145.968 13.364 145.157 13.9951 143.573 14.0259C141.844 14.0566 140.115 14.0412 138.386 14.0412C136.604 14.0412 136.568 14.0412 136.586 15.5649C136.604 16.4114 136.315 16.8732 135.235 16.7808C134.587 16.7347 134.19 16.5038 134.19 15.9189C134.19 13.6257 134.19 11.3171 134.19 9.02381C134.19 8.31583 134.659 8.10036 135.415 8.10036C136.784 8.08497 138.188 8.08497 139.575 8.08497ZM140.151 12.1789C141.034 12.1789 141.934 12.1636 142.816 12.1789C143.717 12.1943 143.861 11.7326 143.843 11.1324C143.825 10.5321 143.861 9.93187 142.852 9.93187C141.034 9.93187 139.215 9.93187 137.396 9.93187C136.802 9.93187 136.604 10.1781 136.55 10.6706C136.405 12.0096 136.568 12.1789 138.116 12.1943C138.801 12.1789 139.485 12.1789 140.151 12.1789Z" fill="#241E63"/>
<path d="M65.5063 16.7968C64.4438 16.7968 63.3994 16.8276 62.3369 16.7968C60.32 16.7353 59.2935 15.8732 59.2755 14.1646C59.2395 12.5021 59.2935 10.855 59.2575 9.1925C59.2395 8.43823 59.5996 8.06879 60.5181 8.06879C61.4365 8.08418 61.6706 8.4998 61.6526 9.17711C61.6345 10.6857 61.6706 12.2096 61.6526 13.7182C61.6345 14.5032 61.9947 14.8419 62.9312 14.8265C64.714 14.8111 66.4788 14.7957 68.2616 14.8265C69.144 14.8419 69.4681 14.5186 69.4501 13.7951C69.4141 12.2866 69.4501 10.778 69.4321 9.25408C69.4141 8.45362 69.7743 8.05339 70.7827 8.06879C71.7552 8.08418 72.0253 8.53059 72.0073 9.25408C71.9533 11.0551 72.1874 12.8561 71.8632 14.6418C71.6111 16.0734 70.7647 16.7045 69.072 16.7968C68.9819 16.7968 68.9099 16.7968 68.8198 16.7968C67.7033 16.7968 66.6048 16.7968 65.5063 16.7968Z" fill="#241E63"/>
<path d="M130.319 16.7664C129.617 16.7972 129.076 16.5662 128.77 16.0274C128.428 15.4117 127.87 15.2423 127.131 15.2577C125.691 15.2885 124.268 15.2885 122.827 15.2577C122.071 15.2423 121.531 15.4271 121.171 16.012C120.955 16.3661 120.63 16.674 120.126 16.7202C119.55 16.7664 118.866 16.9511 118.469 16.5047C118.091 16.0736 118.65 15.7042 118.902 15.3655C120.396 13.2411 121.891 11.1167 123.422 9.00768C124.376 7.69917 125.601 7.68378 126.537 8.97689C128.104 11.1475 129.653 13.3335 131.201 15.5194C131.399 15.8119 131.778 16.1198 131.507 16.4893C131.219 16.8279 130.733 16.7356 130.319 16.7664ZM124.79 13.3181C126.447 13.3181 126.519 13.3027 126.537 12.964C126.555 12.6715 125.205 10.9474 124.97 10.9474C124.772 10.9474 123.314 12.7331 123.404 12.964C123.674 13.6567 124.412 13.1179 124.79 13.3181Z" fill="#241E63"/>
<path d="M179.012 16.7513C178.094 16.7974 177.536 16.5819 177.229 16.0432C176.869 15.3967 176.257 15.2273 175.465 15.2581C174.276 15.2889 173.106 15.3043 171.917 15.2581C170.837 15.212 169.972 15.3197 169.378 16.2587C168.928 16.9822 167.973 16.8744 167.217 16.6897C166.407 16.4896 166.875 15.997 167.127 15.6584C168.622 13.5341 170.134 11.4099 171.647 9.30101C171.809 9.0855 171.935 8.8546 172.115 8.65449C172.781 7.88484 174.096 7.82326 174.672 8.62371C176.437 11.025 178.184 13.4417 179.859 15.9046C180.525 16.8898 179.336 16.6281 179.012 16.7513ZM173.394 10.671C172.853 11.4406 172.385 12.0872 171.917 12.7645C171.737 13.0261 171.791 13.2878 172.205 13.2878C173.124 13.2878 174.276 13.6419 174.87 13.1339C175.339 12.7337 174.33 12.0718 174.042 11.5022C173.898 11.2405 173.664 11.025 173.394 10.671Z" fill="#241E63"/>
<path d="M160.086 8.06934C161.689 8.06934 163.291 8.08473 164.894 8.06934C165.632 8.06934 166.119 8.22326 166.137 8.9621C166.155 9.73173 165.668 9.97801 164.858 9.93183C164.768 9.93183 164.696 9.93183 164.606 9.93183C161.347 9.97801 161.347 9.97801 161.347 12.7179C161.347 13.5029 161.365 14.3033 161.347 15.0883C161.329 15.8426 161.617 16.7507 160.104 16.7815C158.609 16.7969 158.807 15.9349 158.807 15.1499C158.789 13.7492 158.771 12.3485 158.807 10.9477C158.825 10.2243 158.519 9.88565 157.619 9.93183C156.772 9.97801 155.926 9.91644 155.08 9.94723C154.305 9.96262 153.909 9.70094 153.909 9.00828C153.909 8.26944 154.395 8.08473 155.134 8.10012C155.224 8.10012 155.296 8.10012 155.386 8.10012C156.971 8.06933 158.537 8.06934 160.086 8.06934Z" fill="#241E63"/>
<path d="M188.215 16.7657C186.828 16.7657 185.424 16.7349 184.037 16.7811C182.993 16.8118 182.614 16.4116 182.632 15.5497C182.668 13.4563 182.668 11.3783 182.632 9.28496C182.632 8.53074 182.795 8.03818 183.875 8.05357C184.883 8.06897 185.082 8.51535 185.046 9.2234C185.028 9.57742 185.028 9.94684 185.046 10.3009C185.136 11.7324 184.325 13.5794 185.37 14.4722C186.468 15.4111 188.665 14.6877 190.376 14.78C191.096 14.8262 191.817 14.7954 192.537 14.78C193.383 14.7646 193.906 14.9955 193.888 15.8267C193.87 16.6271 193.293 16.7657 192.537 16.7657C191.078 16.7657 189.656 16.7657 188.215 16.7657Z" fill="#241E63"/>
<path d="M30.3552 8.08462C31.0215 8.00766 31.5617 8.28472 32.048 8.74647C32.9124 9.57764 33.8128 10.3934 34.6771 11.2246C35.0733 11.6094 35.3795 11.6402 35.7936 11.2246C36.586 10.4396 37.4684 9.70077 38.2248 8.885C38.8911 8.19236 39.7014 7.99227 40.6919 8.08462C40.98 8.1154 41.3222 8.06923 41.4662 8.34628C41.5923 8.62334 41.3402 8.82343 41.1601 9.00813C40.0436 10.0856 38.9811 11.2246 37.7565 12.1943C36.532 13.1793 36.442 14.3491 36.478 15.6267C36.514 16.5963 36.0098 16.8888 34.8752 16.7503C34.335 16.6887 33.9028 16.4424 34.0108 15.9961C34.6411 13.2255 32.21 11.7941 30.4632 10.0548C30.1931 9.77773 29.887 9.53146 29.6169 9.25441C29.3647 8.97735 28.9686 8.76187 29.0226 8.34628C29.0406 8.1308 29.3827 8.06923 30.3552 8.08462Z" fill="#241E63"/>
<path d="M92.3022 12.3791C92.3022 13.4873 92.2841 14.611 92.3022 15.7192C92.3202 16.4272 91.96 16.7812 91.0956 16.7812C90.2492 16.7812 89.709 16.5658 89.727 15.75C89.745 13.5181 89.745 11.3017 89.727 9.06982C89.727 8.331 90.1592 8.06934 90.9876 8.06934C91.8159 8.06934 92.2841 8.28482 92.2841 9.03903C92.3022 10.1473 92.3022 11.2709 92.3022 12.3791Z" fill="#241E63"/>
<path d="M151.28 12.425C151.28 13.5334 151.262 14.6418 151.298 15.7655C151.316 16.4274 151.028 16.7815 150.217 16.7661C149.461 16.7661 148.885 16.6276 148.885 15.8425C148.885 13.5488 148.885 11.2551 148.885 8.96144C148.885 8.22253 149.389 8.08398 150.127 8.08398C150.884 8.08398 151.334 8.26871 151.316 9.00761C151.244 10.1314 151.28 11.2859 151.28 12.425Z" fill="#241E63"/>
</svg>
