<svg width="194" height="23" viewBox="0 0 194 23" fill="none" xmlns="http://www.w3.org/2000/svg">
<path d="M0.170795 1.25186C1.07121 0.574427 2.15169 0.682201 3.19616 0.80537C4.20462 0.928539 4.29466 1.66755 4.29466 2.39117C4.29466 5.96307 4.27665 9.51957 4.29466 13.0915C4.31267 16.0167 6.52769 18.1568 9.91323 18.5571C13.3528 18.9728 16.7383 16.5864 16.8464 13.6149C16.9184 11.9522 16.8464 10.3048 16.8644 8.64199C16.8644 8.07234 16.7563 7.41031 17.6207 7.21016C18.3951 7.0254 18.7553 7.57966 19.0974 8.02615C21.6006 11.1978 21.7626 14.4925 19.6197 17.8181C17.7828 20.6818 13.4428 22.5755 9.80519 22.206C5.19509 21.7287 2.11567 19.6194 0.566967 15.8936C0.404893 15.4933 0.278831 15.0622 0.134766 14.6619C0.170782 10.197 0.170795 5.73213 0.170795 1.25186Z" fill="#EBE6F0"/>
<path d="M14.6663 9.92044C14.6663 11.0289 14.6844 12.1528 14.6663 13.2613C14.6123 15.2166 13.0096 16.6176 10.7946 16.71C8.66964 16.8024 6.68874 15.4167 6.58069 13.5539C6.43663 11.1521 6.50867 8.73497 6.56269 6.31783C6.5807 5.39408 7.26499 4.77825 8.32747 4.56271C9.82215 4.25479 11.3348 4.17781 12.8475 4.54731C14.036 4.82443 14.7204 5.47106 14.7024 6.57956C14.6483 7.68806 14.6663 8.79655 14.6663 9.92044Z" fill="#EBE6F0"/>
<path d="M80.1993 7.90333C81.3879 7.90333 82.5584 7.88793 83.747 7.90333C86.088 7.91872 87.0785 8.84242 86.7543 10.8438C86.6463 11.5057 86.6823 12.06 86.9704 12.7066C87.9068 14.8618 86.6643 16.4937 83.981 16.5707C81.3158 16.6477 78.6506 16.5861 76.0034 16.6015C75.139 16.6015 74.7969 16.232 74.7969 15.5392C74.8149 13.3839 74.8149 11.2132 74.7969 9.05795C74.7969 8.25741 75.139 7.87254 76.1475 7.90333C77.4981 7.94951 78.8487 7.91872 80.1993 7.90333ZM81.0637 12.9375C80.1273 12.9375 79.2089 12.9375 78.2725 12.9375C77.5521 12.9375 77.336 13.2916 77.336 13.8458C77.3541 14.3846 77.6602 14.6155 78.2905 14.6155C80.1093 14.6155 81.9281 14.6155 83.747 14.6155C84.3772 14.6155 84.6654 14.3538 84.6834 13.8304C84.7014 13.2608 84.4313 12.9375 83.7289 12.9375C82.8465 12.9375 81.9461 12.9375 81.0637 12.9375ZM80.9017 9.76611C80.0193 9.76611 79.1369 9.76611 78.2545 9.76611C77.7142 9.76611 77.354 9.92007 77.354 10.4435C77.354 10.9361 77.6422 11.1517 78.2184 11.1517C79.9472 11.1517 81.658 11.1517 83.3868 11.1517C83.9631 11.1517 84.3772 10.9977 84.3592 10.4127C84.3412 9.88927 83.945 9.76611 83.4228 9.76611C82.5764 9.76611 81.748 9.76611 80.9017 9.76611Z" fill="#EBE6F0"/>
<path d="M50.0176 16.6323C48.8291 16.6323 47.6586 16.6631 46.47 16.6169C44.5972 16.5399 43.6247 15.7086 43.5347 14.0921C43.4806 12.8297 43.4806 11.5672 43.5347 10.3202C43.6247 8.68831 44.5971 7.91854 46.524 7.90315C48.8471 7.88775 51.1702 7.88775 53.4932 7.90315C55.3481 7.91854 56.3565 8.64213 56.4826 10.2125C56.5726 11.5365 56.5726 12.8758 56.4826 14.1998C56.3565 15.8318 55.3661 16.5861 53.4392 16.6323C52.3047 16.6631 51.1522 16.6323 50.0176 16.6323ZM49.9816 14.6617C50.9541 14.6617 51.9265 14.6463 52.899 14.6617C53.6373 14.6771 53.9975 14.4 53.9795 13.7534C53.9614 12.7065 53.9614 11.6596 53.9795 10.6281C53.9795 9.98152 53.6193 9.7352 52.881 9.75059C50.9361 9.76599 48.9912 9.76599 47.0463 9.75059C46.3079 9.75059 45.9478 10.0123 45.9478 10.6435C45.9478 11.6904 45.9478 12.7373 45.9478 13.7688C45.9298 14.4308 46.362 14.6463 47.0643 14.6463C48.0367 14.6463 49.0092 14.6617 49.9816 14.6617Z" fill="#EBE6F0"/>
<path d="M109.877 7.90333C111.138 7.90333 112.416 7.88794 113.677 7.90333C114.74 7.91873 115.55 8.33441 115.982 9.18116C116.216 9.67382 116.54 10.2896 115.784 10.6129C115.136 10.8901 114.343 10.9517 113.893 10.2742C113.587 9.81238 113.155 9.7508 112.615 9.7508C110.796 9.7508 108.977 9.7662 107.158 9.7508C106.348 9.7354 105.988 10.0279 106.006 10.7053C106.024 11.7214 106.024 12.7221 106.006 13.7382C105.988 14.4464 106.402 14.6928 107.176 14.6774C108.995 14.662 110.814 14.6774 112.633 14.6774C113.155 14.6774 113.587 14.6004 113.929 14.1693C114.433 13.5689 115.244 13.6151 115.874 13.923C116.504 14.2463 116.162 14.8313 115.946 15.2932C115.514 16.2015 114.614 16.6018 113.533 16.6172C111.12 16.6634 108.707 16.6634 106.294 16.6172C104.745 16.5864 103.845 15.909 103.61 14.6004C103.304 12.9993 103.304 11.3673 103.61 9.76619C103.845 8.58073 104.745 7.94952 106.168 7.90333C107.428 7.87254 108.653 7.90333 109.877 7.90333Z" fill="#EBE6F0"/>
<path d="M139.574 7.91895C140.834 7.91895 142.113 7.90356 143.374 7.91895C145.175 7.94974 146.093 8.65784 146.327 10.1664C146.417 10.736 146.399 11.3055 146.273 11.8905C145.967 13.1989 145.157 13.8301 143.572 13.8608C141.843 13.8916 140.114 13.8762 138.385 13.8762C136.603 13.8762 136.567 13.8762 136.585 15.4002C136.603 16.2468 136.314 16.7086 135.234 16.6163C134.586 16.5701 134.189 16.3392 134.189 15.7543C134.189 13.4606 134.189 11.1516 134.189 8.85796C134.189 8.14985 134.658 7.93435 135.414 7.93435C136.783 7.91895 138.187 7.91895 139.574 7.91895ZM140.15 12.0136C141.033 12.0136 141.933 11.9982 142.815 12.0136C143.716 12.029 143.86 11.5672 143.842 10.9669C143.824 10.3665 143.86 9.76617 142.851 9.76617C141.033 9.76617 139.214 9.76617 137.395 9.76617C136.801 9.76617 136.603 10.0125 136.549 10.5051C136.404 11.8443 136.567 12.0136 138.115 12.029C138.8 12.0136 139.484 12.0136 140.15 12.0136Z" fill="#EBE6F0"/>
<path d="M65.5053 16.6323C64.4429 16.6323 63.3984 16.6631 62.3359 16.6323C60.319 16.5707 59.2925 15.7085 59.2745 13.9996C59.2385 12.3368 59.2925 10.6894 59.2565 9.02668C59.2385 8.27227 59.5987 7.90277 60.5171 7.90277C61.4355 7.91817 61.6696 8.33386 61.6516 9.01128C61.6336 10.5201 61.6696 12.0443 61.6516 13.5531C61.6336 14.3383 61.9938 14.677 62.9302 14.6616C64.713 14.6462 66.4778 14.6308 68.2606 14.6616C69.143 14.677 69.4672 14.3537 69.4491 13.6301C69.4131 12.1213 69.4492 10.6125 69.4311 9.08826C69.4131 8.28767 69.7733 7.88738 70.7818 7.90277C71.7542 7.91817 72.0243 8.36465 72.0063 9.08826C71.9523 10.8896 72.1864 12.6909 71.8623 14.4769C71.6101 15.9087 70.7638 16.5399 69.071 16.6323C68.9809 16.6323 68.9089 16.6323 68.8189 16.6323C67.7024 16.6323 66.6038 16.6323 65.5053 16.6323Z" fill="#EBE6F0"/>
<path d="M130.317 16.6018C129.615 16.6326 129.074 16.4017 128.768 15.8628C128.426 15.2469 127.868 15.0775 127.129 15.0929C125.689 15.1237 124.266 15.1237 122.825 15.0929C122.069 15.0775 121.529 15.2623 121.169 15.8474C120.953 16.2015 120.628 16.5095 120.124 16.5556C119.548 16.6018 118.864 16.7866 118.467 16.3401C118.089 15.909 118.648 15.5395 118.9 15.2007C120.394 13.076 121.889 10.9512 123.42 8.84183C124.374 7.5331 125.599 7.51771 126.535 8.81104C128.102 10.982 129.651 13.1683 131.199 15.3547C131.397 15.6472 131.776 15.9552 131.505 16.3247C131.217 16.6634 130.731 16.571 130.317 16.6018ZM124.788 13.1529C126.445 13.1529 126.517 13.1375 126.535 12.7988C126.553 12.5063 125.203 10.7818 124.968 10.7818C124.77 10.7818 123.312 12.5679 123.402 12.7988C123.672 13.4917 124.41 12.9528 124.788 13.1529Z" fill="#EBE6F0"/>
<path d="M179.01 16.5867C178.092 16.6329 177.534 16.4174 177.227 15.8785C176.867 15.2319 176.255 15.0625 175.463 15.0933C174.274 15.1241 173.104 15.1395 171.915 15.0933C170.835 15.0472 169.97 15.1549 169.376 16.0941C168.926 16.8177 167.971 16.7099 167.215 16.5251C166.405 16.325 166.873 15.8323 167.125 15.4936C168.62 13.369 170.132 11.2444 171.645 9.1352C171.807 8.91966 171.933 8.68872 172.113 8.48858C172.779 7.7188 174.094 7.65721 174.67 8.45779C176.435 10.8595 178.182 13.2766 179.857 15.74C180.523 16.7253 179.334 16.4636 179.01 16.5867ZM173.392 10.5054C172.851 11.2752 172.383 11.9218 171.915 12.5992C171.735 12.861 171.789 13.1227 172.203 13.1227C173.122 13.1227 174.274 13.4768 174.868 12.9687C175.337 12.5684 174.328 11.9064 174.04 11.3368C173.896 11.0751 173.662 10.8595 173.392 10.5054Z" fill="#EBE6F0"/>
<path d="M160.083 7.90332C161.686 7.90332 163.288 7.91872 164.891 7.90332C165.63 7.90332 166.116 8.05727 166.134 8.79624C166.152 9.566 165.666 9.81232 164.855 9.76613C164.765 9.76613 164.693 9.76613 164.603 9.76613C161.344 9.81232 161.344 9.81232 161.344 12.5527C161.344 13.3378 161.362 14.1384 161.344 14.9235C161.326 15.6779 161.614 16.5862 160.101 16.617C158.606 16.6324 158.804 15.7703 158.804 14.9851C158.786 13.5841 158.768 12.1832 158.804 10.7822C158.822 10.0586 158.516 9.71995 157.616 9.76613C156.77 9.81232 155.923 9.75074 155.077 9.78153C154.302 9.79692 153.906 9.5352 153.906 8.84242C153.906 8.10345 154.392 7.91871 155.131 7.93411C155.221 7.93411 155.293 7.93411 155.383 7.93411C156.968 7.90332 158.534 7.90332 160.083 7.90332Z" fill="#EBE6F0"/>
<path d="M188.212 16.6011C186.825 16.6011 185.421 16.5703 184.034 16.6165C182.99 16.6473 182.612 16.247 182.63 15.3849C182.666 13.2912 182.666 11.2129 182.63 9.11916C182.63 8.3648 182.792 7.87216 183.872 7.88756C184.881 7.90295 185.079 8.34941 185.043 9.05758C185.025 9.41166 185.025 9.78114 185.043 10.1352C185.133 11.567 184.322 13.4144 185.367 14.3073C186.465 15.2464 188.662 14.5228 190.373 14.6152C191.093 14.6614 191.814 14.6306 192.534 14.6152C193.38 14.5998 193.903 14.8307 193.885 15.662C193.867 16.4626 193.29 16.6011 192.534 16.6011C191.075 16.6011 189.653 16.6011 188.212 16.6011Z" fill="#EBE6F0"/>
<path d="M30.3532 7.91861C31.0195 7.84163 31.5598 8.11874 32.046 8.58057C32.9104 9.41188 33.8108 10.2278 34.6752 11.0591C35.0714 11.444 35.3775 11.4747 35.7917 11.0591C36.5841 10.274 37.4665 9.53503 38.2228 8.71912C38.8891 8.02637 39.6995 7.82624 40.6899 7.91861C40.9781 7.9494 41.3202 7.90321 41.4643 8.18032C41.5903 8.45742 41.3382 8.65754 41.1581 8.84228C40.0416 9.91989 38.9791 11.0591 37.7546 12.0289C36.53 13.0142 36.44 14.1842 36.476 15.4619C36.512 16.4318 36.0078 16.7243 34.8733 16.5857C34.333 16.5241 33.9008 16.2778 34.0089 15.8314C34.6392 13.0604 32.2081 11.6287 30.4613 9.88911C30.1912 9.61201 29.885 9.36569 29.6149 9.08859C29.3628 8.81149 28.9666 8.59597 29.0206 8.18032C29.0386 7.96479 29.3808 7.90321 30.3532 7.91861Z" fill="#EBE6F0"/>
<path d="M92.3002 12.2138C92.3002 13.3222 92.2822 14.4461 92.3002 15.5545C92.3182 16.2626 91.958 16.6167 91.0937 16.6167C90.2473 16.6167 89.707 16.4012 89.725 15.5853C89.7431 13.353 89.7431 11.1362 89.725 8.90397C89.725 8.16503 90.1572 7.90332 90.9856 7.90332C91.814 7.90332 92.2822 8.11884 92.2822 8.87318C92.3002 9.9816 92.3002 11.1054 92.3002 12.2138Z" fill="#EBE6F0"/>
<path d="M151.278 12.2598C151.278 13.3683 151.26 14.4769 151.296 15.6008C151.314 16.2628 151.026 16.617 150.215 16.6016C149.459 16.6016 148.883 16.463 148.883 15.6778C148.883 13.3837 148.883 11.0896 148.883 8.79557C148.883 8.05654 149.387 7.91797 150.125 7.91797C150.882 7.91797 151.332 8.10273 151.314 8.84176C151.242 9.9657 151.278 11.1204 151.278 12.2598Z" fill="#EBE6F0"/>
</svg>
