<svg width="194" height="39" viewBox="0 0 194 39" fill="none" xmlns="http://www.w3.org/2000/svg">
<path fill-rule="evenodd" clip-rule="evenodd" d="M31.4897 0.655646C50.6674 2.69404 61.9473 19.3792 50.6863 31.8561C43.7332 39.5659 36.1754 39.9768 37.9893 33.4343C38.8206 30.4753 35.9865 28.9136 31.9431 28.9136C27.4274 28.9136 26.0481 30.2945 22.1748 32.4808C18.3014 34.6672 4.5464 36.6891 1.2399 25.1492C-2.0666 13.6093 12.3309 -1.38274 31.4897 0.655646ZM27.7864 12.6887C19.8319 13.1819 16.7899 21.1217 22.8361 22.519C28.9011 23.9327 33.9081 20.0532 44.4889 27.8123C44.4889 27.8123 46.8318 23.0615 41.5414 17.5546C37.4036 13.2476 31.6408 12.4421 27.7864 12.6887Z" fill="url(#paint0_linear)"/>
<path fill-rule="evenodd" clip-rule="evenodd" d="M31.4908 0.655522C50.6686 2.69389 61.9485 19.3789 50.6875 31.8557C47.1164 35.8173 43.3943 37.8557 40.8624 38.0037C42.1095 37.1817 43.4321 36.0146 44.7169 34.5187C53.4083 24.4091 44.698 10.9131 29.8848 9.25282C15.0717 7.59254 3.98071 19.7077 6.53145 29.0611C7.0038 30.8201 7.77847 32.1844 8.72319 33.2365C5.45447 32.0694 2.56364 29.6365 1.25993 25.1159C-2.04658 13.5761 12.332 -1.38284 31.4908 0.655522Z" fill="url(#paint1_linear)"/>
<path fill-rule="evenodd" clip-rule="evenodd" d="M134.577 4.38656V17.2909H132.083L131.856 16.1567H131.8C131.403 16.4854 130.968 16.7485 130.477 16.9786C129.986 17.1923 129.457 17.3074 128.947 17.3074C128.304 17.3074 127.7 17.1923 127.171 16.9786C126.642 16.7649 126.188 16.4526 125.791 16.0416C125.413 15.6306 125.111 15.1539 124.903 14.5621C124.695 13.9703 124.582 13.3292 124.582 12.5895C124.582 11.8497 124.714 11.1922 124.96 10.6168C125.206 10.0415 125.546 9.54831 125.942 9.13734C126.358 8.72637 126.812 8.43048 127.341 8.20034C127.87 7.98663 128.418 7.87156 128.984 7.87156C129.589 7.87156 130.08 7.95375 130.477 8.13458C130.874 8.31541 131.252 8.54555 131.63 8.82501L131.516 7.42772V4.37012L134.577 4.38656ZM129.797 10.0579C129.23 10.0579 128.739 10.2552 128.323 10.6661C127.907 11.0771 127.718 11.7018 127.718 12.5402C127.718 13.4278 127.889 14.0854 128.248 14.4964C128.588 14.9073 129.079 15.1046 129.721 15.1046C130.061 15.1046 130.383 15.0388 130.685 14.9073C130.987 14.7758 131.252 14.5621 131.535 14.2662V10.6333C131.252 10.4196 130.968 10.2552 130.685 10.173C130.383 10.0908 130.099 10.0579 129.797 10.0579Z" fill="#111111"/>
<path fill-rule="evenodd" clip-rule="evenodd" d="M84.5637 17.2911C85.3195 17.2911 85.9619 17.1596 86.5098 16.8802C87.0578 16.6007 87.5679 16.2391 88.0214 15.7788H88.097L88.3237 17.2747H90.8178V7.87183H87.7569V13.987C87.3979 14.3815 87.0578 14.661 86.7744 14.8089C86.4721 14.9569 86.132 15.0226 85.7541 15.0226C85.1683 15.0226 84.7716 14.8911 84.5637 14.6116C84.3559 14.3322 84.2425 13.8883 84.2425 13.2966V7.88826H81.1816V13.6418C81.1816 14.776 81.4462 15.6637 81.9752 16.3213C82.5231 16.9624 83.3734 17.2911 84.5637 17.2911Z" fill="#111111"/>
<path fill-rule="evenodd" clip-rule="evenodd" d="M101.606 17.2911C102.305 17.2911 103.042 17.1925 103.798 16.9788C104.554 16.7651 105.253 16.4363 105.876 15.9761L104.629 14.2994C104.27 14.5295 103.855 14.7268 103.401 14.8911C102.948 15.0555 102.438 15.1377 101.908 15.1377C101.058 15.1377 100.359 14.9076 99.8112 14.4473C99.2822 13.987 99.0177 13.3624 99.0177 12.5898C99.0177 11.8007 99.3011 11.1925 99.849 10.7323C100.397 10.272 101.134 10.0418 102.003 10.0418C102.759 10.0418 103.533 10.272 104.289 10.7487L105.706 9.10486C105.272 8.75966 104.705 8.46377 104.044 8.23363C103.382 8.0035 102.645 7.88843 101.833 7.88843C101.039 7.88843 100.284 7.98706 99.5656 8.20076C98.8476 8.41445 98.2052 8.71034 97.6573 9.1213C97.1093 9.53226 96.6748 10.009 96.3536 10.6007C96.0324 11.1925 95.8623 11.8501 95.8623 12.6062C95.8623 13.3459 96.0135 14.0199 96.2969 14.6117C96.5803 15.2035 96.996 15.6802 97.5061 16.0911C98.0352 16.4857 98.6398 16.798 99.32 17.0117C100 17.2254 100.794 17.2911 101.606 17.2911Z" fill="#111111"/>
<path fill-rule="evenodd" clip-rule="evenodd" d="M76.6664 17.2905V15.0384H70.639V5.48779H67.5781V17.2905H76.6664Z" fill="#111111"/>
<path fill-rule="evenodd" clip-rule="evenodd" d="M116.211 7.00011C116.816 7.00011 117.288 6.85221 117.685 6.57283C118.063 6.27701 118.252 5.89903 118.252 5.38958C118.252 4.89655 118.063 4.50214 117.685 4.18989C117.307 3.87764 116.816 3.72974 116.211 3.72974C115.607 3.72974 115.134 3.87764 114.738 4.18989C114.36 4.50214 114.171 4.89655 114.171 5.38958C114.171 5.8826 114.36 6.27701 114.738 6.57283C115.116 6.85221 115.607 7.00011 116.211 7.00011Z" fill="#111111"/>
<path fill-rule="evenodd" clip-rule="evenodd" d="M117.875 17.2911V7.87183H110.676V9.95952H114.814V17.2911H117.875Z" fill="#111111"/>
<path fill-rule="evenodd" clip-rule="evenodd" d="M144.138 5.48747H144.402C145.007 5.50391 145.574 5.53678 146.103 5.61898C146.707 5.71761 147.236 5.86556 147.671 6.09571C148.105 6.32586 148.464 6.62176 148.729 6.99985C148.993 7.37795 149.107 7.83824 149.107 8.4136C149.107 8.67663 149.069 8.93965 148.975 9.20267C148.88 9.4657 148.748 9.71228 148.54 9.94243C148.351 10.1726 148.105 10.3698 147.803 10.5507C147.52 10.7315 147.161 10.863 146.764 10.9452V11.011L146.934 11.0438C147.822 11.2082 148.502 11.5041 148.975 11.9151C149.466 12.359 149.73 12.9836 149.73 13.7727C149.73 14.3809 149.598 14.8906 149.334 15.3344C149.069 15.7618 148.71 16.1235 148.238 16.4029C147.765 16.6824 147.217 16.8961 146.575 17.0441C145.951 17.1756 145.252 17.2578 144.534 17.2578H139.905V5.45459H144.138V5.48747ZM144.289 12.1288H142.966V15.2193H144.289C145.933 15.2193 146.745 14.6768 146.745 13.6083C146.745 13.0823 146.556 12.7206 146.159 12.474C145.744 12.2439 145.139 12.1288 144.289 12.1288ZM144.024 7.55878H142.966V10.2548H144.005C144.761 10.2548 145.29 10.1233 145.63 9.86023C145.97 9.59721 146.122 9.25199 146.122 8.80814C146.122 8.36429 145.951 8.03551 145.611 7.85468C145.271 7.65741 144.742 7.55878 144.024 7.55878Z" fill="#111111"/>
<path fill-rule="evenodd" clip-rule="evenodd" d="M160.916 17.2908C161.237 17.2908 161.521 17.2743 161.785 17.2579C162.05 17.2415 162.295 17.2086 162.541 17.1593C162.787 17.11 163.013 17.0607 163.24 17.0113C163.467 16.9456 163.731 16.8798 164.015 16.8141L163.335 14.8579C163.013 14.973 162.73 15.0388 162.465 15.0881C162.201 15.1374 161.955 15.1538 161.71 15.1538C161.502 15.1538 161.294 15.1374 161.105 15.0881C160.897 15.0388 160.727 14.9566 160.557 14.8415C160.406 14.7264 160.274 14.5785 160.179 14.3812C160.085 14.2004 160.047 13.9539 160.047 13.6908V4.40332H154.001V6.5074H157.005V13.5758C157.005 14.7264 157.326 15.6305 157.988 16.3045C158.649 16.9456 159.612 17.2908 160.916 17.2908Z" fill="#111111"/>
<path fill-rule="evenodd" clip-rule="evenodd" d="M171.912 17.2911C172.668 17.2911 173.31 17.1596 173.858 16.8802C174.406 16.6007 174.916 16.2391 175.37 15.7788H175.445L175.672 17.2747H178.166V7.87183H175.105V13.987C174.746 14.3815 174.406 14.661 174.123 14.8089C173.82 14.9569 173.48 15.0226 173.102 15.0226C172.517 15.0226 172.12 14.8911 171.912 14.6116C171.704 14.3322 171.591 13.8883 171.591 13.2966V7.88826H168.549V13.6418C168.549 14.776 168.813 15.6637 169.342 16.3213C169.871 16.9624 170.722 17.2911 171.912 17.2911Z" fill="#111111"/>
<path fill-rule="evenodd" clip-rule="evenodd" d="M188.331 7.87183C189.124 7.87183 189.823 7.9869 190.428 8.2006C191.033 8.4143 191.543 8.72663 191.94 9.10472C192.336 9.48281 192.639 9.94309 192.846 10.4691C193.054 10.9952 193.168 11.5705 193.168 12.1787C193.168 12.4253 193.149 12.639 193.13 12.8363C193.111 13.0335 193.073 13.1815 193.054 13.2966H186.101C186.252 13.987 186.593 14.4801 187.14 14.7925C187.688 15.1048 188.331 15.2527 189.087 15.2527C189.559 15.2527 190.012 15.2034 190.428 15.1048C190.844 15.0062 191.297 14.8418 191.751 14.6445L192.752 16.2391C192.166 16.5678 191.524 16.8144 190.806 17.0117C190.088 17.1925 189.37 17.2911 188.69 17.2911C187.877 17.2911 187.14 17.1925 186.441 16.9788C185.742 16.7651 185.138 16.4528 184.628 16.0582C184.117 15.6637 183.702 15.1706 183.418 14.5788C183.116 14.0034 182.965 13.3294 182.965 12.5897C182.965 11.85 183.116 11.1924 183.418 10.6171C183.721 10.0417 184.117 9.54856 184.609 9.1376C185.1 8.72663 185.686 8.43074 186.328 8.2006C186.97 7.9869 187.651 7.87183 188.331 7.87183ZM188.387 9.91021C187.84 9.91021 187.329 10.0582 186.895 10.3376C186.46 10.6171 186.177 11.0609 186.045 11.6691H190.39C190.39 11.1431 190.239 10.7321 189.918 10.4034C189.616 10.0746 189.105 9.91021 188.387 9.91021Z" fill="#111111"/>
<path fill-rule="evenodd" clip-rule="evenodd" d="M73.4544 35.0285L77.5356 23.2258H74.418L72.812 28.7327C72.6231 29.3902 72.4341 30.0148 72.2641 30.6231C72.094 31.2313 71.9051 31.8559 71.6972 32.5135H71.6217C71.4327 31.8559 71.2438 31.2313 71.0926 30.6231C70.9415 30.0148 70.7525 29.3902 70.5447 28.7327L68.9198 23.2258H65.6699L69.77 35.0285H73.4544Z" fill="#111111"/>
<path fill-rule="evenodd" clip-rule="evenodd" d="M86.4343 25.6091C87.2278 25.6091 87.9269 25.7242 88.5315 25.9379C89.1361 26.1516 89.6463 26.4639 90.0431 26.842C90.4398 27.2201 90.7421 27.6804 90.95 28.2064C91.1578 28.7325 91.2712 29.3078 91.2712 29.916C91.2712 30.1626 91.2523 30.3763 91.2334 30.5736C91.2145 30.7708 91.1767 30.9188 91.1578 31.0339H84.2048C84.3559 31.7243 84.696 32.2174 85.244 32.5298C85.7919 32.8421 86.4343 32.9901 87.1901 32.9901C87.6624 32.9901 88.1159 32.9407 88.5315 32.8421C88.9472 32.7435 89.4007 32.5791 89.8541 32.3818L90.8555 33.9764C90.2698 34.3051 89.6274 34.5517 88.9094 34.749C88.1914 34.9298 87.4735 35.0284 86.7933 35.0284C85.9808 35.0284 85.244 34.9298 84.5449 34.7161C83.8458 34.5024 83.2412 34.1901 82.731 33.7955C82.2209 33.401 81.8052 32.9079 81.5218 32.3161C81.2195 31.7407 81.0684 31.0667 81.0684 30.327C81.0684 29.5873 81.2195 28.9297 81.5218 28.3544C81.8241 27.779 82.2209 27.2859 82.7121 26.8749C83.2034 26.4639 83.7891 26.168 84.4315 25.9379C85.0739 25.7242 85.7352 25.6091 86.4343 25.6091ZM86.491 27.6311C85.943 27.6311 85.4329 27.779 84.9983 28.0585C84.5638 28.3379 84.2804 28.7818 84.1481 29.39H88.4937C88.4937 28.864 88.3426 28.453 88.0214 28.1242C87.7191 27.7955 87.1901 27.6311 86.491 27.6311Z" fill="#111111"/>
<path fill-rule="evenodd" clip-rule="evenodd" d="M99.0368 35.0284V28.8147C99.3958 28.5023 99.7359 28.2722 100.038 28.1078C100.34 27.9434 100.718 27.8777 101.134 27.8777C101.701 27.8777 102.098 28.0092 102.324 28.2886C102.551 28.5681 102.664 29.0119 102.664 29.6037V35.012H105.725V29.2585C105.725 28.1242 105.461 27.2366 104.913 26.579C104.365 25.9215 103.515 25.6091 102.362 25.6091C101.588 25.6091 100.907 25.7406 100.34 26.0201C99.7737 26.2996 99.2635 26.6283 98.81 27.0228H98.7345L98.5077 25.8228H96.0137V35.012H99.0368V35.0284Z" fill="#111111"/>
<path fill-rule="evenodd" clip-rule="evenodd" d="M117.099 35.0285C117.76 35.0285 118.384 34.9792 118.951 34.8806C119.518 34.7819 120.028 34.6669 120.481 34.5518L119.933 32.6285C119.631 32.7271 119.31 32.8093 118.97 32.8586C118.629 32.9244 118.252 32.9573 117.855 32.9573C117.099 32.9573 116.551 32.8093 116.211 32.5299C115.871 32.2504 115.682 31.7573 115.682 31.0668V27.9106H120.028V25.823H115.682V23.2092H113.188L112.791 25.823L110.07 25.938V27.9106H112.64V31.0833C112.64 31.6751 112.716 32.2175 112.867 32.6942C113.018 33.171 113.263 33.5819 113.622 33.9271C113.981 34.2723 114.435 34.5354 115.002 34.7326C115.587 34.9299 116.287 35.0285 117.099 35.0285Z" fill="#111111"/>
<path fill-rule="evenodd" clip-rule="evenodd" d="M128.229 35.0284C128.984 35.0284 129.627 34.8969 130.175 34.6175C130.723 34.338 131.233 33.9764 131.686 33.5161H131.762L131.989 35.012H134.483V25.6091H131.422V31.7243C131.063 32.1188 130.723 32.3983 130.439 32.5462C130.137 32.6942 129.797 32.7599 129.419 32.7599C128.833 32.7599 128.437 32.6284 128.229 32.3489C128.021 32.0695 127.908 31.6256 127.908 31.0339V25.6256H124.847V31.3791C124.847 32.5133 125.111 33.401 125.64 34.0586C126.207 34.6997 127.057 35.0284 128.229 35.0284Z" fill="#111111"/>
<path fill-rule="evenodd" clip-rule="evenodd" d="M143.628 35.0284V30.1463C144.063 29.3408 144.61 28.7654 145.215 28.4531C145.839 28.1244 146.462 27.96 147.105 27.96C147.501 27.96 147.823 27.9764 148.068 28.0257C148.314 28.075 148.616 28.1244 148.937 28.223L149.561 26.0038C149.259 25.8887 148.956 25.7901 148.673 25.7244C148.389 25.6586 148.011 25.6257 147.558 25.6257C146.727 25.6257 145.952 25.8066 145.234 26.1518C144.516 26.5134 143.892 27.0559 143.382 27.7956H143.326L143.08 25.8394H140.586V35.0284H143.628Z" fill="#111111"/>
<path fill-rule="evenodd" clip-rule="evenodd" d="M159.216 25.6091C160.009 25.6091 160.708 25.7242 161.313 25.9379C161.918 26.1516 162.428 26.4639 162.825 26.842C163.221 27.2201 163.524 27.6804 163.731 28.2064C163.939 28.7325 164.053 29.3078 164.053 29.916C164.053 30.1626 164.034 30.3763 164.015 30.5736C163.996 30.7708 163.958 30.9188 163.939 31.0339H156.986C157.137 31.7243 157.477 32.2174 158.025 32.5298C158.573 32.8421 159.216 32.9901 159.971 32.9901C160.444 32.9901 160.897 32.9407 161.313 32.8421C161.729 32.7435 162.182 32.5791 162.636 32.3818L163.637 33.9764C163.051 34.3051 162.409 34.5517 161.691 34.749C160.973 34.9298 160.255 35.0284 159.575 35.0284C158.762 35.0284 158.025 34.9298 157.326 34.7161C156.627 34.5024 156.022 34.1901 155.512 33.7955C155.002 33.401 154.586 32.9079 154.303 32.3161C154.001 31.7407 153.85 31.0667 153.85 30.327C153.85 29.5873 154.001 28.9297 154.303 28.3544C154.605 27.779 155.002 27.2859 155.493 26.8749C155.985 26.4639 156.57 26.168 157.213 25.9379C157.855 25.7242 158.517 25.6091 159.216 25.6091ZM159.272 27.6311C158.724 27.6311 158.214 27.779 157.78 28.0585C157.345 28.3379 157.062 28.7818 156.929 29.39H161.275C161.275 28.864 161.124 28.453 160.803 28.1242C160.5 27.7955 159.99 27.6311 159.272 27.6311Z" fill="#111111"/>
<path fill-rule="evenodd" clip-rule="evenodd" d="M173.423 35.0284C174.254 35.0284 174.991 34.9462 175.615 34.7983C176.238 34.6503 176.767 34.4366 177.202 34.1901C177.618 33.9271 177.939 33.6312 178.166 33.2695C178.392 32.9243 178.506 32.5462 178.506 32.1352C178.506 31.7572 178.392 31.4119 178.184 31.1161C177.977 30.8202 177.693 30.5736 177.353 30.3763C177.013 30.1791 176.597 29.9982 176.144 29.8503C175.69 29.7023 175.199 29.5708 174.689 29.4393C174.33 29.3571 173.99 29.2749 173.669 29.1927C173.347 29.1105 173.064 29.0284 172.818 28.9462C172.592 28.864 172.403 28.7653 172.252 28.6503C172.119 28.5352 172.044 28.4201 172.044 28.2886C172.044 28.0585 172.176 27.8777 172.441 27.7626C172.705 27.6475 173.177 27.5818 173.82 27.5818C174.368 27.5818 174.878 27.664 175.388 27.8283C175.879 27.9927 176.371 28.19 176.843 28.4366L178.222 26.842C177.674 26.5461 177.032 26.2667 176.276 26.0037C175.52 25.7406 174.689 25.6091 173.763 25.6091C173.026 25.6091 172.365 25.6749 171.779 25.8228C171.194 25.9543 170.683 26.1516 170.287 26.3982C169.89 26.6448 169.569 26.9407 169.342 27.2859C169.115 27.6311 169.002 28.0092 169.002 28.4201C169.002 28.7818 169.115 29.0941 169.323 29.3736C169.531 29.653 169.814 29.8996 170.173 30.1133C170.513 30.327 170.91 30.5078 171.345 30.6558C171.779 30.8037 172.233 30.9352 172.686 31.0503C173.518 31.2476 174.179 31.4448 174.689 31.6256C175.199 31.8065 175.445 32.0202 175.445 32.2996C175.445 32.5462 175.294 32.727 174.991 32.8585C174.689 32.9901 174.179 33.0558 173.48 33.0558C172.781 33.0558 172.138 32.9572 171.534 32.7599C170.929 32.5626 170.324 32.2996 169.739 31.9873L168.359 33.6476C169.021 34.0257 169.795 34.3545 170.683 34.6175C171.571 34.8805 172.497 35.0284 173.423 35.0284Z" fill="#111111"/>
<defs>
<linearGradient id="paint0_linear" x1="9.50031" y1="10.3162" x2="33.7674" y2="36.4406" gradientUnits="userSpaceOnUse">
<stop/>
<stop offset="1" stop-color="#959595"/>
</linearGradient>
<linearGradient id="paint1_linear" x1="45.433" y1="15.9273" x2="21.3796" y2="28.9883" gradientUnits="userSpaceOnUse">
<stop/>
<stop offset="1" stop-color="#959595"/>
</linearGradient>
</defs>
</svg>
