<svg width="134" height="47" viewBox="0 0 134 47" fill="none" xmlns="http://www.w3.org/2000/svg">
<path d="M51.0446 27.8491C50.9809 27.7699 50.9172 27.6682 50.8408 27.6003C44.3202 21.8103 37.7869 16.0203 31.2663 10.219C31.0498 10.0267 30.9479 10.0493 30.7568 10.2303C26.898 13.6681 23.0264 17.0946 19.1675 20.5324C18.9637 20.7134 18.8746 20.6794 18.6963 20.5211C17.2826 19.2546 15.8435 17.9993 14.4299 16.7214C14.2388 16.5518 14.1497 16.5292 13.9459 16.7101C9.73044 20.4533 5.51497 24.1964 1.29951 27.9396C1.22309 28.0074 1.15942 28.0866 1.083 28.1657C0.484431 27.1027 0.306133 22.4662 0.700935 20.1479C1.15942 17.4678 2.07637 14.9233 3.54096 12.5485C5.00555 10.1624 6.89041 8.08163 9.18281 6.28356C17.7029 -0.42246 30.5276 -1.23668 40.1047 4.39502C50.2295 10.3434 52.9294 20.3854 51.0446 27.8491Z" fill="#E4C63E"/>
<path d="M26.1202 46.0553C18.5043 45.9536 12.0856 43.477 6.94047 38.4673C4.48251 36.0812 2.73774 33.322 1.61702 30.2347C1.55334 30.0764 1.57881 29.9746 1.7189 29.8502C5.807 26.2315 9.88237 22.6128 13.9577 18.9941C14.1106 18.8584 14.187 18.8471 14.3525 18.9941C15.7917 20.2945 17.2562 21.5724 18.6954 22.8616C18.8609 23.0086 18.9373 23.0086 19.1029 22.8616C22.9745 19.4125 26.8588 15.9747 30.7304 12.5256C30.9215 12.356 31.0106 12.3334 31.2144 12.5143C36.8817 17.5579 42.5617 22.5902 48.2418 27.6338C48.9677 28.2784 49.6936 28.9229 50.4195 29.5562C50.5087 29.6354 50.5724 29.7032 50.5214 29.8389C48.3182 35.9003 44.3192 40.6612 37.8623 43.6579C35.5062 44.7548 32.9846 45.3994 30.3611 45.75C28.9857 45.9536 27.5593 46.044 26.1202 46.0553ZM35.3534 34.7581C35.3789 34.7355 35.4171 34.7242 35.4426 34.7016C36.2322 33.7743 37.0218 32.8357 37.8241 31.9084C37.926 31.784 37.8878 31.6935 37.8368 31.5804C37.2255 30.3026 36.6015 29.0247 36.0029 27.7469C35.9138 27.5433 35.8501 27.5433 35.6591 27.6564C34.3728 28.4593 33.0865 29.2509 31.7875 30.0312C31.7111 30.0764 31.6346 30.2121 31.4946 30.1216C31.52 30.099 31.5582 30.0877 31.5837 30.0651C32.6025 28.8099 33.6087 27.5659 34.6275 26.3107C34.6402 26.2881 34.6912 26.2654 34.6402 26.2428C34.6275 26.2428 34.602 26.2654 34.5893 26.2768C33.9525 26.6499 33.3157 27.0118 32.679 27.385C32.6917 27.2832 32.7299 27.204 32.7681 27.1362C33.3157 26.2541 33.8506 25.3721 34.411 24.5013C34.5129 24.3317 34.5256 24.196 34.4492 24.015C33.3412 21.3349 32.2332 18.6548 31.1252 15.986C31.0106 15.7146 31.0106 15.7146 30.7814 15.9182C27.4956 18.8358 24.1971 21.7533 20.9113 24.6823C20.8731 24.7162 20.8477 24.7501 20.8095 24.7727C20.6821 24.8632 20.7203 24.9197 20.8222 25.0102C22.2231 26.141 23.6113 27.2945 25.0376 28.4027C27.33 30.1782 29.6606 31.9084 31.9658 33.6612C34.5511 35.6176 37.1364 37.5739 39.7217 39.5416C39.8745 39.6547 39.9764 39.6886 40.1292 39.5529C40.4221 39.3155 40.7405 39.1006 41.0589 38.8857C41.199 38.7953 41.2118 38.7048 41.1481 38.5578C40.4094 36.9859 39.658 35.414 38.9321 33.8421C38.8429 33.6499 38.7538 33.6499 38.5755 33.7177C37.6203 34.057 36.6524 34.385 35.6845 34.7016C35.5699 34.7468 35.468 34.8373 35.3534 34.7581ZM18.6317 40.4124C18.6189 40.4011 18.5935 40.3898 18.5807 40.3672C19.2302 39.5756 19.8798 38.784 20.5293 37.9924C20.733 37.7436 21.0514 37.5061 21.0896 37.246C21.1278 36.9859 20.8604 36.6919 20.733 36.4205C20.1472 35.2331 19.5486 34.057 18.9501 32.847C17.4727 33.7743 16.0082 34.7016 14.5436 35.6289C14.5308 35.6176 14.5181 35.6063 14.5054 35.595C14.5563 35.5158 14.6073 35.4366 14.6709 35.3575C15.6134 34.1588 16.543 32.9714 17.4855 31.7727C17.5364 31.7048 17.6128 31.6483 17.6256 31.5239C16.9251 31.9536 16.2629 32.3607 15.5879 32.7791C15.5879 32.6661 15.6261 32.5982 15.6643 32.519C16.2119 31.5917 16.7723 30.6644 17.3327 29.7485C17.4345 29.5788 17.46 29.4318 17.3709 29.2396C16.6577 27.6225 15.97 25.994 15.2695 24.3769C14.9256 23.574 14.569 22.7711 14.2124 21.9456C14.1615 21.9908 14.1233 22.0134 14.0851 22.0361C10.9139 24.8406 7.75554 27.6564 4.58439 30.4609C4.46977 30.5627 4.46977 30.6531 4.52072 30.7775C5.92162 33.9326 8.06119 36.624 10.9649 38.8405C14.1488 41.2831 17.8293 42.8324 21.9684 43.4996C22.7452 43.624 23.5221 43.7258 24.3117 43.7484C24.3245 43.6466 24.2735 43.5788 24.2353 43.5109C23.5731 42.1426 22.8981 40.7856 22.2358 39.4172C22.1467 39.225 22.0703 39.1911 21.841 39.2702C20.7712 39.666 19.7015 40.0392 18.6317 40.4124Z" fill="#FDFDFD"/>
<path d="M128.553 29.9297C128.566 28.7649 128.464 27.3852 128.336 26.0168C128.324 25.8472 128.349 25.8133 128.553 25.8359C130.221 26.0281 131.89 26.0168 133.558 25.8359C133.673 25.8246 133.787 25.7794 133.762 25.9716C133.533 27.3965 133.533 28.844 133.52 30.2802C133.507 31.4111 133.52 32.5533 133.533 33.6841C133.533 33.8085 133.533 33.9216 133.545 34.046C133.584 34.4871 133.596 34.4871 133.125 34.6002C130.043 35.3352 126.923 35.8102 123.726 35.7536C121.154 35.7084 118.67 35.3013 116.378 34.2383C112.99 32.6551 110.889 30.2124 110.405 26.7858C110.099 24.6146 110.367 22.4772 111.296 20.4303C112.57 17.6597 114.811 15.7485 117.919 14.6177C120.262 13.7582 122.733 13.4642 125.254 13.4868C128.031 13.5094 130.642 14.0862 133.1 15.2396C133.329 15.3414 133.354 15.4319 133.278 15.6355C132.959 16.5175 132.641 17.3996 132.425 18.3043C132.399 18.3948 132.45 18.5418 132.272 18.5418C132.093 18.5418 131.915 18.6096 131.762 18.4287C131.533 18.1573 131.291 17.8972 131.024 17.6484C129.266 16.0199 127.101 15.3075 124.579 15.4432C121.803 15.5902 119.651 16.7324 118.097 18.734C116.747 20.4756 116.161 22.432 116.085 24.5354C116.021 26.1752 116.212 27.7697 116.913 29.2964C117.855 31.3319 119.422 32.8134 121.803 33.5258C123.077 33.9103 124.401 33.9669 125.738 33.8538C126.452 33.7972 127.165 33.752 127.853 33.5597C128.591 33.3562 128.477 33.458 128.528 32.8134C128.578 31.9313 128.578 31.0379 128.553 29.9297Z" fill="#241E63"/>
<path d="M89.4676 24.9303C89.4676 26.6153 89.7223 28.2437 90.5501 29.7817C91.8109 32.0886 93.8104 33.5135 96.7013 33.8414C99.5031 34.1468 101.936 33.3778 104.024 31.7154C104.228 31.5458 104.317 31.6928 104.47 31.7381C104.648 31.7946 104.623 31.8964 104.572 32.0208C104.253 32.7558 103.999 33.5135 103.897 34.3051C103.871 34.4634 103.795 34.52 103.655 34.5765C102.432 35.0854 101.159 35.402 99.8215 35.5717C97.1471 35.8996 94.4981 35.8883 91.9001 35.1985C88.5506 34.3051 86.0163 32.541 84.6154 29.6347C83.8258 27.9949 83.6093 26.276 83.7239 24.5232C83.8003 23.2453 83.9914 21.9901 84.4753 20.78C85.7743 17.5232 88.2705 15.3293 91.9765 14.2889C96.0518 13.1468 100.089 13.2485 104.062 14.696C104.317 14.7865 104.674 14.8543 104.788 15.0466C104.903 15.2388 104.661 15.4876 104.585 15.7251C104.33 16.4602 104.164 17.2178 104.062 17.9868C104.05 18.066 104.139 18.2243 103.948 18.2356C103.769 18.2356 103.591 18.2922 103.438 18.1225C102.929 17.5458 102.356 17.0256 101.694 16.5959C100.624 15.8947 99.414 15.5442 98.1022 15.4876C94.7655 15.3519 92.4604 16.7768 90.894 19.2873C89.7987 21.0288 89.4676 22.9513 89.4676 24.9303Z" fill="#241E63"/>
<path d="M71.4204 25.3038C71.4331 23.0873 71.4331 20.8821 71.3694 18.6655C71.3312 17.1954 71.2548 15.7139 71.153 14.2438C71.1275 13.8932 71.1275 13.9045 71.5095 13.9385C73.2161 14.0968 74.9226 14.1081 76.6291 13.9158C76.8966 13.8819 76.9093 13.9611 76.8966 14.1533C76.54 19.3667 76.6291 24.5913 76.6673 29.816C76.6801 31.5802 76.7819 33.3557 76.9093 35.1198C76.922 35.3234 76.8584 35.3573 76.6419 35.346C74.9099 35.2668 73.1651 35.2668 71.4204 35.346C71.1912 35.3573 71.1275 35.3121 71.1402 35.1085C71.3822 31.8403 71.4331 28.572 71.4204 25.3038Z" fill="#241E63"/>
<path d="M14.5318 35.6398C15.9964 34.7125 17.461 33.7965 18.9383 32.8579C19.5369 34.0566 20.1355 35.244 20.7213 36.4314C20.8614 36.7028 21.1161 36.9968 21.0779 37.2569C21.0397 37.517 20.7213 37.7544 20.5175 38.0032C19.868 38.7948 19.2185 39.5864 18.569 40.378C18.5562 40.4006 18.5308 40.4232 18.5435 40.4345C18.569 40.4571 18.6072 40.4458 18.6199 40.4232C19.6897 40.05 20.7595 39.6769 21.8166 39.2924C22.0458 39.2132 22.1095 39.2471 22.2114 39.4394C22.8736 40.8077 23.5359 42.1647 24.2109 43.533C24.2491 43.6009 24.3 43.6687 24.2873 43.7705C23.4977 43.7366 22.7208 43.6461 21.9439 43.5217C17.8048 42.8545 14.1243 41.3053 10.9403 38.8627C8.04937 36.6462 5.90979 33.9548 4.49613 30.7998C4.43245 30.6754 4.44519 30.585 4.55981 30.4832C7.73098 27.6787 10.8894 24.863 14.0606 22.0585C14.0988 22.0246 14.137 22.0019 14.1879 21.968C14.5445 22.7935 14.9011 23.5964 15.245 24.3993C15.9454 26.0164 16.6459 27.6448 17.3464 29.2619C17.4355 29.4541 17.41 29.6011 17.3082 29.7708C16.7478 30.6867 16.2002 31.614 15.6398 32.5413C15.6016 32.6092 15.5634 32.6883 15.5634 32.8014C16.2384 32.383 16.9006 31.9759 17.6011 31.5462C17.5883 31.6819 17.5119 31.7271 17.461 31.795C16.5185 32.9936 15.5888 34.181 14.6464 35.3797C14.5827 35.4589 14.5318 35.538 14.4808 35.6172C14.4681 35.6398 14.4426 35.6624 14.4426 35.6624C14.4808 35.6963 14.5063 35.6511 14.5318 35.6398Z" fill="black"/>
<path d="M34.6156 26.3216C33.5967 27.5769 32.5906 28.8209 31.5718 30.0761C31.5463 30.0987 31.5081 30.1101 31.4826 30.1327C31.4954 30.144 31.5081 30.1553 31.5208 30.1666C31.5081 30.1553 31.4954 30.144 31.4826 30.1327C31.6227 30.2231 31.6991 30.0874 31.7756 30.0422C33.0746 29.2506 34.3609 28.459 35.6472 27.6674C35.8382 27.543 35.9019 27.5543 35.991 27.7578C36.5896 29.0357 37.2136 30.3136 37.825 31.5915C37.8759 31.7046 37.9141 31.7951 37.8122 31.9194C37.0099 32.8468 36.2203 33.7854 35.4307 34.7127C35.4052 34.7353 35.367 34.7466 35.3415 34.7692C35.3543 34.7805 35.367 34.7919 35.3797 34.8032V34.7919C35.367 34.7805 35.3543 34.7805 35.3288 34.7692C35.4561 34.8484 35.558 34.7579 35.6599 34.724C36.6278 34.396 37.5957 34.0681 38.5509 33.7401C38.7292 33.6723 38.8183 33.6723 38.9075 33.8645C39.6334 35.4365 40.3721 37.0084 41.1235 38.5803C41.1872 38.7273 41.1744 38.8064 41.0343 38.9082C40.7159 39.1231 40.3975 39.338 40.1046 39.5754C39.9391 39.6998 39.8372 39.6772 39.6971 39.5641C37.1118 37.5964 34.5264 35.64 31.9411 33.6836C29.636 31.9308 27.3054 30.1892 25.013 28.4251C23.5866 27.3168 22.1984 26.1633 20.7975 25.0325C20.6956 24.942 20.6574 24.8854 20.7847 24.795C20.8229 24.7724 20.8612 24.7384 20.8866 24.7045C24.1724 21.7869 27.4709 18.8692 30.7567 15.9403C30.9859 15.7367 30.9859 15.7367 31.1006 16.0081C32.2086 18.6883 33.3038 21.3684 34.4246 24.0373C34.501 24.2182 34.4882 24.3539 34.3863 24.5236C33.826 25.3943 33.2911 26.2764 32.7435 27.1585C32.6925 27.2263 32.6543 27.3055 32.6543 27.4073C33.2911 27.0341 33.9279 26.6722 34.5646 26.299C34.5901 26.299 34.6029 26.3103 34.6156 26.3216Z" fill="black"/>
<path d="M34.5645 26.2879C34.5772 26.2765 34.6026 26.2424 34.6153 26.2538C34.6661 26.2765 34.6153 26.2993 34.6026 26.322C34.6026 26.3106 34.5899 26.2993 34.5645 26.2879Z" fill="black"/>
<path d="M14.5312 35.6397C14.5059 35.6509 14.4805 35.6956 14.4551 35.6509C14.4551 35.6397 14.4805 35.6174 14.4932 35.6062C14.5059 35.6062 14.5186 35.6286 14.5312 35.6397Z" fill="#FDFDFD"/>
<path d="M18.632 40.4113C18.6065 40.4447 18.5811 40.4559 18.5557 40.4224C18.5557 40.4224 18.5684 40.389 18.5811 40.3667C18.5938 40.389 18.6192 40.4001 18.632 40.4113Z" fill="#FDFDFD"/>
<path d="M31.4824 30.1213C31.4951 30.1327 31.5078 30.144 31.5205 30.1553C31.5078 30.1553 31.4951 30.144 31.4824 30.1213C31.4824 30.1327 31.4824 30.1213 31.4824 30.1213Z" fill="#FDFDFD"/>
<path d="M35.3545 34.7578C35.3673 34.7691 35.3801 34.7691 35.4056 34.7804V34.7917C35.3801 34.7804 35.3673 34.7691 35.3545 34.7578Z" fill="#FDFDFD"/>
</svg>
