<svg width="199" height="44" viewBox="0 0 199 44" fill="none" xmlns="http://www.w3.org/2000/svg">
<path d="M37.794 2.74126L44.9691 19.7936L50.0634 7.72082C50.2069 7.47005 50.458 7.29093 50.7091 7.29093C50.9961 7.29093 51.2831 7.47005 51.4266 7.72082L56.5209 19.7936L63.696 2.74126C63.8753 2.38301 64.27 2.20389 64.6287 2.38301C64.9875 2.52631 65.131 2.92038 64.9875 3.27862V3.31444L57.1667 21.8356C57.059 22.0863 56.8438 22.2296 56.5927 22.3013H56.4492C56.3057 22.3013 56.198 22.2654 56.0904 22.1938C56.0545 22.158 56.0187 22.1222 55.9828 22.0863C55.9469 22.0505 55.911 21.9789 55.8751 21.9072C55.8751 21.8714 55.8752 21.8356 55.8393 21.8356L50.745 9.72698L45.6148 21.8356C45.6148 21.8714 45.579 21.943 45.5431 21.9789C45.5072 22.0505 45.4713 22.1222 45.3996 22.1938C45.3637 22.1938 45.3637 22.1938 45.3278 22.2296C45.2202 22.3013 45.0767 22.3371 44.9332 22.3371C44.7897 22.3371 44.6103 22.3013 44.5027 22.1938L44.4309 22.1222L44.3951 22.0863C44.2874 21.9789 44.2516 21.8714 44.2157 21.7281L36.5384 3.31444C36.3949 2.9562 36.5384 2.56214 36.8971 2.38301C37.2559 2.20389 37.6505 2.41884 37.794 2.74126Z" fill="#241E63"/>
<path d="M77.0779 1.9541C82.4592 1.9541 86.6566 6.50378 86.6925 12.1282C86.6566 17.7526 82.4592 22.3023 77.0779 22.3023C71.6608 22.3023 67.3916 17.7526 67.3916 12.1282C67.3916 6.50378 71.6608 1.9541 77.0779 1.9541ZM77.0779 20.9051C81.4906 20.9051 85.2216 17.0361 85.2575 12.1282C85.2216 7.18444 81.4906 3.38707 77.0779 3.38707C72.5218 3.38707 68.7907 7.18444 68.7907 12.1282C68.7907 17.0361 72.5218 20.9051 77.0779 20.9051Z" fill="#241E63"/>
<path d="M93.2573 22.3013H93.2214C92.8268 22.3013 92.5039 22.0147 92.5039 21.6206V2.92035C92.5757 2.52628 92.9703 2.27551 93.3649 2.34716C93.6519 2.41881 93.8672 2.63375 93.9389 2.92035V20.9041H103.553C103.948 20.8325 104.307 21.0832 104.414 21.4773C104.522 21.8714 104.235 22.2296 103.84 22.3371C103.733 22.3729 103.661 22.3729 103.553 22.3371H93.2573V22.3013Z" fill="#241E63"/>
<path d="M108.684 2.92041C108.684 2.56216 108.971 2.23975 109.33 2.23975H119.734C120.129 2.31139 120.38 2.70546 120.308 3.09953C120.236 3.38612 120.021 3.60107 119.734 3.67271H110.083V11.6257H118.514C118.909 11.554 119.267 11.8048 119.375 12.1989C119.483 12.5929 119.196 12.9512 118.801 13.0587C118.693 13.0945 118.622 13.0945 118.514 13.0587H110.083V21.6923C110.012 22.0864 109.617 22.3371 109.222 22.2655C108.935 22.1938 108.72 21.9789 108.648 21.6923L108.684 2.92041Z" fill="#241E63"/>
<path d="M126.048 2.92041C126.048 2.56216 126.37 2.23975 126.729 2.23975H137.061C137.42 2.23975 137.743 2.52634 137.743 2.92041C137.743 3.31447 137.456 3.60107 137.097 3.63689H137.061H127.447V11.5899H135.842C136.236 11.6615 136.487 12.0556 136.416 12.4496C136.344 12.7362 136.129 12.9512 135.842 13.0228H127.447V20.94H137.061C137.456 20.94 137.743 21.2266 137.743 21.6206V21.6565C137.743 22.0147 137.456 22.3371 137.061 22.3371H126.657C126.299 22.3013 126.012 22.0147 126.012 21.6565L126.048 2.92041Z" fill="#241E63"/>
<path d="M143.806 22.3013H143.698C143.34 22.2655 143.053 21.9789 143.053 21.6206V2.92041C143.053 2.56216 143.376 2.23975 143.734 2.23975H147.501C153.062 2.23975 157.546 6.71777 157.546 12.2705C157.546 17.8233 153.062 22.3013 147.501 22.3013H143.806ZM147.501 20.9042C152.273 20.9042 156.147 17.0351 156.147 12.2705C156.147 7.5059 152.273 3.63689 147.501 3.63689H144.452V20.9042H147.501Z" fill="#241E63"/>
<path d="M173.08 13.2746C172.685 13.2746 172.398 12.988 172.362 12.6297V12.5939C172.362 12.1998 172.685 11.8774 173.08 11.8774H179.358C179.717 11.9132 180.004 12.2357 180.004 12.5939V19.5796C179.968 19.7946 179.896 19.9737 179.752 20.0812C177.887 21.5141 175.627 22.3023 173.259 22.3023C167.483 22.2664 162.819 17.7884 162.819 12.0924C162.819 6.50378 167.483 1.9541 173.259 1.9541C175.627 1.9541 177.923 2.74223 179.788 4.21103C180.075 4.4618 180.111 4.89169 179.86 5.17828C179.609 5.46487 179.178 5.53652 178.856 5.28575C177.277 3.99608 175.304 3.31542 173.259 3.35125C168.236 3.35125 164.218 7.29191 164.218 12.0924C164.218 16.9644 168.236 20.9051 173.259 20.9051C175.16 20.9051 177.026 20.2961 178.569 19.1855V13.2746H173.08Z" fill="#241E63"/>
<path d="M187.036 2.92041C187.036 2.56216 187.359 2.23975 187.718 2.23975H198.05C198.408 2.23975 198.731 2.52634 198.731 2.92041C198.731 3.31447 198.444 3.60107 198.085 3.63689H198.05H188.435V11.5899H196.83C197.224 11.6615 197.476 12.0556 197.404 12.4496C197.332 12.7362 197.117 12.9512 196.83 13.0228H188.435V20.94H198.05C198.444 20.94 198.731 21.2266 198.731 21.6206V21.6565C198.731 22.0147 198.444 22.3371 198.05 22.3371H187.646C187.287 22.3013 187 22.0147 187 21.6565L187.036 2.92041Z" fill="#241E63"/>
<path d="M40.5205 34.8765C41.4174 34.8765 42.3143 35.1631 43.0318 35.7362C43.1394 35.8437 43.1753 35.987 43.0676 36.1303C42.9959 36.2378 42.8165 36.2736 42.7089 36.202C42.099 35.7004 41.3098 35.4497 40.5205 35.4497C38.655 35.4497 37.1123 36.9901 37.1123 38.853C37.1123 40.7158 38.655 42.2563 40.5205 42.2563C41.3098 42.2563 42.0631 42.0055 42.673 41.5039C42.7806 41.4323 42.96 41.4323 43.0676 41.5398C43.1753 41.6472 43.1753 41.7905 43.0676 41.898C43.0676 41.898 43.0676 41.898 43.0318 41.9338C42.3143 42.4712 41.4174 42.7936 40.5205 42.7936C38.3321 42.7936 36.5742 41.0382 36.5742 38.853C36.5742 36.6677 38.3321 34.9123 40.5205 34.8765Z" fill="#241E63"/>
<path d="M69.2217 40.7516H65.67L64.9884 42.5787C64.9525 42.6862 64.8449 42.7578 64.7373 42.7578H64.6297C64.4862 42.6862 64.4144 42.5429 64.4862 42.3996L67.1768 35.1989C67.2127 35.0914 67.3203 35.0198 67.4279 35.0198C67.5356 35.0198 67.6432 35.0914 67.7149 35.1989L70.4056 42.3996C70.4773 42.5429 70.4056 42.6862 70.2621 42.7578C70.2262 42.7578 70.1903 42.7578 70.1544 42.7578C70.0468 42.7578 69.9392 42.6862 69.9033 42.5787L69.2217 40.7516ZM65.8853 40.2143H69.0423L67.4638 36.0229L65.8853 40.2143Z" fill="#241E63"/>
<path d="M91.8943 35.2705C91.8943 35.1272 92.0019 35.0198 92.1454 35.0198H94.3338C95.5536 35.0556 96.5222 36.0945 96.4504 37.3125C96.4146 38.4589 95.4818 39.3903 94.3338 39.4262L92.3965 39.462V42.507C92.3965 42.6503 92.253 42.7936 92.1095 42.7578C91.966 42.7578 91.8584 42.6503 91.8584 42.507V35.2705H91.8943ZM94.3697 38.8888C95.3024 38.8888 96.0558 38.1365 96.0558 37.2051C96.0558 36.2736 95.3024 35.5213 94.3697 35.5213H92.4324V38.8888H94.3697Z" fill="#241E63"/>
<path d="M118.227 35.2705C118.227 35.1272 118.334 35.0198 118.478 35.0198C118.621 35.0198 118.764 35.1272 118.764 35.2705V42.507C118.764 42.6503 118.621 42.7578 118.478 42.7578C118.334 42.7578 118.227 42.6503 118.227 42.507V35.2705Z" fill="#241E63"/>
<path d="M143.303 35.5212H140.935C140.792 35.5212 140.648 35.378 140.648 35.2347C140.648 35.0914 140.756 34.9839 140.935 34.9839H146.173C146.317 34.9839 146.424 35.0914 146.46 35.2347C146.46 35.378 146.353 35.5212 146.173 35.5212H143.841V42.4711C143.841 42.6144 143.698 42.7219 143.554 42.7219C143.447 42.7219 143.339 42.6144 143.303 42.4711V35.5212Z" fill="#241E63"/>
<path d="M171.43 40.7516H167.878L167.196 42.5787C167.161 42.6862 167.053 42.7578 166.945 42.7578H166.838C166.694 42.6862 166.622 42.5429 166.694 42.3996L169.385 35.1989C169.421 35.0914 169.528 35.0198 169.636 35.0198C169.744 35.0198 169.851 35.0914 169.923 35.1989L172.614 42.3996C172.685 42.5429 172.614 42.6862 172.47 42.7578C172.434 42.7578 172.398 42.7578 172.362 42.7578C172.255 42.7578 172.147 42.6862 172.111 42.5787L171.43 40.7516ZM168.093 40.2143H171.25L169.672 36.0229L168.093 40.2143Z" fill="#241E63"/>
<path d="M194.391 42.7578C194.211 42.7578 194.104 42.6503 194.104 42.507V35.2705C194.104 35.1272 194.211 35.0198 194.355 35.0198C194.498 35.0198 194.642 35.1272 194.642 35.2705V42.2204H198.373C198.516 42.2204 198.66 42.3279 198.66 42.507C198.66 42.6503 198.516 42.7578 198.373 42.7578H194.391Z" fill="#241E63"/>
<path d="M24.9873 3.38623H20.5029V32.4039H24.9873V3.38623Z" fill="#241E63"/>
<path d="M28.2874 3.38623H23.8389V32.4039H28.2874V3.38623Z" fill="#7974AE"/>
<path d="M26.2911 0.204258L20.2041 3.573L22.4651 7.64545L28.5521 4.27671L26.2911 0.204258Z" fill="#413C7A"/>
<path d="M19.8214 24.5947H15.4805V31.3297H19.8214V24.5947Z" fill="#241E63"/>
<path d="M23.0494 24.4873H18.6367V31.3297H23.0494V24.4873Z" fill="#7974AE"/>
<path d="M21.0996 21.4765L15.0439 24.8279L17.218 28.7437L23.2736 25.3923L21.0996 21.4765Z" fill="#413C7A"/>
<path d="M15.0138 19.7944H10.6729V30.0402H15.0138V19.7944Z" fill="#241E63"/>
<path d="M18.2781 19.6868H13.9014V30.04H18.2781V19.6868Z" fill="#7974AE"/>
<path d="M16.317 16.6773L10.3555 19.9766L12.5121 23.8611L18.4737 20.5618L16.317 16.6773Z" fill="#413C7A"/>
<path d="M10.0987 30.04H5.75781V36.775H10.0987V30.04Z" fill="#241E63"/>
<path d="M13.3638 29.9685H8.95117V36.8109H13.3638V29.9685Z" fill="#7974AE"/>
<path d="M11.2501 26.8464L5.1875 30.186L7.33659 34.075L13.3992 30.7353L11.2501 26.8464Z" fill="#413C7A"/>
<path d="M5.39873 14.3132H0.950195V43.3308H5.39873V14.3132Z" fill="#241E63"/>
<path d="M8.73564 14.3132H4.28711V43.3308H8.73564V14.3132Z" fill="#7974AE"/>
<path d="M6.74329 11.1374L0.65625 14.5061L2.91725 18.5786L9.00429 15.2098L6.74329 11.1374Z" fill="#413C7A"/>
</svg>
