<svg width="199" height="44" viewBox="0 0 199 44" fill="none" xmlns="http://www.w3.org/2000/svg">
<g clip-path="url(#clip0_486:1489)">
<path d="M37.793 2.54406L44.9681 19.5993L50.0624 7.52447C50.2059 7.27366 50.457 7.09451 50.7081 7.09451C50.9951 7.09451 51.2821 7.27366 51.4256 7.52447L56.5199 19.5993L63.695 2.54406C63.8744 2.18576 64.269 2.00661 64.6277 2.18576C64.9865 2.32908 65.13 2.72321 64.9865 3.08152V3.11735L57.1657 21.6416C57.0581 21.8924 56.8428 22.0357 56.5917 22.1074H56.4482C56.3047 22.1074 56.1971 22.0716 56.0894 21.9999C56.0536 21.9641 56.0177 21.9282 55.9818 21.8924C55.9459 21.8566 55.91 21.7849 55.8742 21.7133C55.8742 21.6774 55.8742 21.6416 55.8383 21.6416L50.744 9.53097L45.6139 21.6416C45.6139 21.6774 45.578 21.7491 45.5421 21.7849C45.5062 21.8566 45.4703 21.9282 45.3986 21.9999C45.3627 21.9999 45.3627 21.9999 45.3268 22.0357C45.2192 22.1074 45.0757 22.1432 44.9322 22.1432C44.7887 22.1432 44.6093 22.1074 44.5017 21.9999L44.43 21.9282L44.3941 21.8924C44.2865 21.7849 44.2506 21.6774 44.2147 21.5341L36.5374 3.11735C36.3939 2.75904 36.5374 2.36491 36.8962 2.18576C37.2549 2.00661 37.6495 2.22159 37.793 2.54406Z" fill="#EBE6F0"/>
<path d="M77.075 1.75562C82.4563 1.75562 86.6537 6.30606 86.6896 11.9314C86.6537 17.5568 82.4563 22.1072 77.075 22.1072C71.6578 22.1072 67.3887 17.5568 67.3887 11.9314C67.3887 6.30606 71.6578 1.75562 77.075 1.75562ZM77.075 20.7098C81.4877 20.7098 85.2187 16.8402 85.2546 11.9314C85.2187 6.98684 81.4877 3.18883 77.075 3.18883C72.5188 3.18883 68.7878 6.98684 68.7878 11.9314C68.7878 16.8402 72.5188 20.7098 77.075 20.7098Z" fill="#EBE6F0"/>
<path d="M93.2553 22.1071H93.2195C92.8248 22.1071 92.502 21.8205 92.502 21.4263V2.72294C92.5737 2.3288 92.9683 2.07799 93.363 2.14965C93.65 2.22131 93.8652 2.43629 93.937 2.72294V20.7097H103.552C103.946 20.6381 104.305 20.8889 104.413 21.283C104.52 21.6772 104.233 22.0355 103.839 22.143C103.731 22.1788 103.659 22.1788 103.552 22.143H93.2553V22.1071Z" fill="#EBE6F0"/>
<path d="M108.682 2.72326C108.682 2.36495 108.969 2.04248 109.328 2.04248H119.732C120.127 2.11414 120.378 2.50827 120.306 2.90241C120.234 3.18905 120.019 3.40403 119.732 3.47569H110.081V11.43H118.512C118.907 11.3584 119.266 11.6092 119.373 12.0033C119.481 12.3974 119.194 12.7557 118.799 12.8632C118.692 12.8991 118.62 12.8991 118.512 12.8632H110.081V21.4983C110.01 21.8925 109.615 22.1433 109.22 22.0716C108.933 22 108.718 21.785 108.646 21.4983L108.682 2.72326Z" fill="#EBE6F0"/>
<path d="M126.046 2.72326C126.046 2.36495 126.369 2.04248 126.727 2.04248H137.059C137.418 2.04248 137.741 2.32912 137.741 2.72326C137.741 3.11739 137.454 3.40403 137.095 3.43986H137.059H127.445V11.3942H135.84C136.234 11.4658 136.485 11.86 136.414 12.2541C136.342 12.5408 136.127 12.7557 135.84 12.8274H127.445V20.7459H137.059C137.454 20.7459 137.741 21.0325 137.741 21.4267V21.4625C137.741 21.8208 137.454 22.1433 137.059 22.1433H126.656C126.297 22.1074 126.01 21.8208 126.01 21.4625L126.046 2.72326Z" fill="#EBE6F0"/>
<path d="M143.804 22.1074H143.697C143.338 22.0716 143.051 21.785 143.051 21.4267V2.72326C143.051 2.36495 143.374 2.04248 143.732 2.04248H147.499C153.06 2.04248 157.544 6.52127 157.544 12.075C157.544 17.6287 153.06 22.1074 147.499 22.1074H143.804ZM147.499 20.7101C152.271 20.7101 156.145 16.8404 156.145 12.075C156.145 7.30953 152.271 3.43986 147.499 3.43986H144.45V20.7101H147.499Z" fill="#EBE6F0"/>
<path d="M173.079 13.078C172.684 13.078 172.397 12.7913 172.361 12.433V12.3972C172.361 12.0031 172.684 11.6806 173.079 11.6806H179.357C179.716 11.7164 180.003 12.0389 180.003 12.3972V19.3841C179.967 19.5991 179.895 19.7782 179.751 19.8857C177.886 21.3189 175.626 22.1072 173.258 22.1072C167.482 22.0714 162.818 17.5926 162.818 11.8956C162.818 6.30606 167.482 1.75562 173.258 1.75562C175.626 1.75562 177.922 2.54388 179.787 4.01292C180.074 4.26374 180.11 4.6937 179.859 4.98034C179.608 5.26698 179.177 5.33864 178.855 5.08783C177.276 3.79794 175.303 3.11717 173.258 3.153C168.236 3.153 164.217 7.09433 164.217 11.8956C164.217 16.7685 168.236 20.7098 173.258 20.7098C175.159 20.7098 177.025 20.1007 178.568 18.99V13.078H173.079Z" fill="#EBE6F0"/>
<path d="M187.034 2.72326C187.034 2.36495 187.357 2.04248 187.716 2.04248H198.048C198.406 2.04248 198.729 2.32912 198.729 2.72326C198.729 3.11739 198.442 3.40403 198.084 3.43986H198.048H188.433V11.3942H196.828C197.223 11.4658 197.474 11.86 197.402 12.2541C197.33 12.5408 197.115 12.7557 196.828 12.8274H188.433V20.7459H198.048C198.442 20.7459 198.729 21.0325 198.729 21.4267V21.4625C198.729 21.8208 198.442 22.1433 198.048 22.1433H187.644C187.285 22.1074 186.998 21.8208 186.998 21.4625L187.034 2.72326Z" fill="#EBE6F0"/>
<path d="M40.5185 34.6838C41.4154 34.6838 42.3123 34.9705 43.0298 35.5438C43.1374 35.6513 43.1733 35.7946 43.0657 35.9379C42.9939 36.0454 42.8146 36.0812 42.7069 36.0096C42.0971 35.5079 41.3078 35.2571 40.5185 35.2571C38.653 35.2571 37.1104 36.7978 37.1104 38.661C37.1104 40.5242 38.653 42.0649 40.5185 42.0649C41.3078 42.0649 42.0612 41.8141 42.6711 41.3124C42.7787 41.2408 42.9581 41.2408 43.0657 41.3483C43.1733 41.4558 43.1733 41.5991 43.0657 41.7066C43.0657 41.7066 43.0657 41.7066 43.0298 41.7424C42.3123 42.2799 41.4154 42.6023 40.5185 42.6023C38.3302 42.6023 36.5723 40.8466 36.5723 38.661C36.5723 36.4754 38.3302 34.7197 40.5185 34.6838Z" fill="#EBE6F0"/>
<path d="M69.2188 40.56H65.6671L64.9855 42.3873C64.9496 42.4948 64.842 42.5665 64.7344 42.5665H64.6267C64.4832 42.4948 64.4115 42.3515 64.4832 42.2082L67.1739 35.0063C67.2097 34.8988 67.3174 34.8271 67.425 34.8271C67.5326 34.8271 67.6402 34.8988 67.712 35.0063L70.4026 42.2082C70.4744 42.3515 70.4026 42.4948 70.2591 42.5665C70.2233 42.5665 70.1874 42.5665 70.1515 42.5665C70.0439 42.5665 69.9363 42.4948 69.9004 42.3873L69.2188 40.56ZM65.8824 40.0225H69.0394L67.4609 35.8304L65.8824 40.0225Z" fill="#EBE6F0"/>
<path d="M91.8933 35.078C91.8933 34.9346 92.0009 34.8271 92.1444 34.8271H94.3328C95.5526 34.863 96.5212 35.9021 96.4495 37.1203C96.4136 38.2669 95.4808 39.1984 94.3328 39.2343L92.3956 39.2701V42.3157C92.3956 42.459 92.2521 42.6023 92.1085 42.5665C91.965 42.5665 91.8574 42.459 91.8574 42.3157V35.078H91.8933ZM94.3687 38.6968C95.3015 38.6968 96.0548 37.9444 96.0548 37.0128C96.0548 36.0812 95.3015 35.3288 94.3687 35.3288H92.4314V38.6968H94.3687Z" fill="#EBE6F0"/>
<path d="M118.225 35.078C118.225 34.9346 118.332 34.8271 118.476 34.8271C118.619 34.8271 118.762 34.9346 118.762 35.078V42.3157C118.762 42.459 118.619 42.5665 118.476 42.5665C118.332 42.5665 118.225 42.459 118.225 42.3157V35.078Z" fill="#EBE6F0"/>
<path d="M143.301 35.3287H140.933C140.79 35.3287 140.646 35.1854 140.646 35.0421C140.646 34.8988 140.754 34.7913 140.933 34.7913H146.171C146.315 34.7913 146.422 34.8988 146.458 35.0421C146.458 35.1854 146.351 35.3287 146.171 35.3287H143.839V42.2798C143.839 42.4231 143.696 42.5306 143.552 42.5306C143.445 42.5306 143.337 42.4231 143.301 42.2798V35.3287Z" fill="#EBE6F0"/>
<path d="M171.428 40.56H167.876L167.194 42.3873C167.159 42.4948 167.051 42.5665 166.943 42.5665H166.836C166.692 42.4948 166.62 42.3515 166.692 42.2082L169.383 35.0063C169.419 34.8988 169.526 34.8271 169.634 34.8271C169.742 34.8271 169.849 34.8988 169.921 35.0063L172.612 42.2082C172.683 42.3515 172.612 42.4948 172.468 42.5665C172.432 42.5665 172.396 42.5665 172.361 42.5665C172.253 42.5665 172.145 42.4948 172.109 42.3873L171.428 40.56ZM168.091 40.0225H171.248L169.67 35.8304L168.091 40.0225Z" fill="#EBE6F0"/>
<path d="M194.389 42.5665C194.209 42.5665 194.102 42.459 194.102 42.3157V35.078C194.102 34.9346 194.209 34.8271 194.353 34.8271C194.496 34.8271 194.64 34.9346 194.64 35.078V42.029H198.371C198.514 42.029 198.658 42.1365 198.658 42.3157C198.658 42.459 198.514 42.5665 198.371 42.5665H194.389Z" fill="#EBE6F0"/>
<path d="M24.9844 3.18896H20.5V32.2115H24.9844V3.18896Z" fill="#EBE6F0"/>
<path d="M28.2864 3.18896H23.8379V32.2115H28.2864V3.18896Z" fill="#CAC8E0"/>
<path d="M26.2882 0.00585073L20.2012 3.37573L22.4622 7.44956L28.5492 4.07968L26.2882 0.00585073Z" fill="url(#paint0_linear_486:1489)"/>
<path d="M19.8194 24.4004H15.4785V31.1365H19.8194V24.4004Z" fill="#EBE6F0"/>
<path d="M23.0474 24.293H18.6348V31.1365H23.0474V24.293Z" fill="#CAC8E0"/>
<path d="M21.0986 21.2818L15.043 24.6343L17.217 28.5514L23.2727 25.1989L21.0986 21.2818Z" fill="url(#paint1_linear_486:1489)"/>
<path d="M15.0108 19.5994H10.6699V29.8468H15.0108V19.5994Z" fill="#EBE6F0"/>
<path d="M18.2772 19.4917H13.9004V29.8466H18.2772V19.4917Z" fill="#CAC8E0"/>
<path d="M16.315 16.4813L10.3535 19.7817L12.5102 23.6675L18.4717 20.3671L16.315 16.4813Z" fill="url(#paint2_linear_486:1489)"/>
<path d="M10.0968 29.8467H5.75586V36.5828H10.0968V29.8467Z" fill="#EBE6F0"/>
<path d="M13.3619 29.7749H8.94922V36.6185H13.3619V29.7749Z" fill="#CAC8E0"/>
<path d="M11.2481 26.6524L5.18555 29.9932L7.33463 33.8834L13.3972 30.5427L11.2481 26.6524Z" fill="url(#paint3_linear_486:1489)"/>
<path d="M5.39775 14.1172H0.949219V43.1397H5.39775V14.1172Z" fill="#EBE6F0"/>
<path d="M8.73369 14.1172H4.28516V43.1397H8.73369V14.1172Z" fill="#CAC8E0"/>
<path d="M6.74134 10.9409L0.654297 14.3108L2.9153 18.3846L9.00234 15.0147L6.74134 10.9409Z" fill="url(#paint4_linear_486:1489)"/>
</g>
<defs>
<linearGradient id="paint0_linear_486:1489" x1="23.2447" y1="1.69079" x2="25.5014" y2="5.76702" gradientUnits="userSpaceOnUse">
<stop stop-color="white" stop-opacity="0.53"/>
<stop offset="1" stop-color="white" stop-opacity="0"/>
</linearGradient>
<linearGradient id="paint1_linear_486:1489" x1="18.0708" y1="22.958" x2="20.2407" y2="26.8775" gradientUnits="userSpaceOnUse">
<stop stop-color="white" stop-opacity="0.53"/>
<stop offset="1" stop-color="white" stop-opacity="0"/>
</linearGradient>
<linearGradient id="paint2_linear_486:1489" x1="13.3343" y1="18.1315" x2="15.4868" y2="22.0196" gradientUnits="userSpaceOnUse">
<stop stop-color="white" stop-opacity="0.53"/>
<stop offset="1" stop-color="white" stop-opacity="0"/>
</linearGradient>
<linearGradient id="paint3_linear_486:1489" x1="8.21684" y1="28.3228" x2="10.3618" y2="32.2153" gradientUnits="userSpaceOnUse">
<stop stop-color="white" stop-opacity="0.53"/>
<stop offset="1" stop-color="white" stop-opacity="0"/>
</linearGradient>
<linearGradient id="paint4_linear_486:1489" x1="3.69782" y1="12.6258" x2="5.95448" y2="16.7021" gradientUnits="userSpaceOnUse">
<stop stop-color="white" stop-opacity="0.53"/>
<stop offset="1" stop-color="white" stop-opacity="0"/>
</linearGradient>
<clipPath id="clip0_486:1489">
<rect width="198.103" height="43.1397" fill="white" transform="translate(0.662109)"/>
</clipPath>
</defs>
</svg>
