<svg width="157" height="50" viewBox="0 0 157 50" fill="none" xmlns="http://www.w3.org/2000/svg">
<g clip-path="url(#clip0)">
<path d="M54.8112 34.1968C56.0634 33.6991 56.8147 32.7867 56.6645 31.2936C56.414 29.2613 54.3604 28.5562 51.5555 28.3903V25.5286H49.4017V28.2659C48.8507 28.2659 48.2497 28.2659 47.6987 28.3074V25.5286H45.5449V28.3489C44.7435 28.3489 43.8419 28.3489 41.2373 28.3489V30.1738C42.9403 30.1323 43.8419 30.0493 44.0422 30.9203V38.6761C43.892 39.3812 43.2408 39.2568 41.6881 39.2568L41.2373 41.3305C45.1442 41.3305 45.5449 41.3305 45.5449 41.3305V43.736H47.6987V41.3305C48.2997 41.3305 48.8507 41.3305 49.4017 41.3305V43.6946H51.5555V41.289C55.1618 41.1231 57.5661 40.4181 57.9167 37.6807C58.1671 35.5655 56.8648 34.5701 54.8112 34.1968ZM47.7488 30.3397C48.9509 30.3397 52.7576 30.0493 52.7576 32.0816C52.7576 34.0309 48.9509 33.7821 47.7488 33.7821V30.3397ZM47.7488 39.2982V35.4825C49.2013 35.4825 53.6592 35.1507 53.6592 37.3904C53.6592 39.5471 49.2013 39.2982 47.7488 39.2982Z" fill="#241E63"/>
<path d="M156.791 0.22876H0.515625V3.54619H156.791V0.22876Z" fill="#241E63"/>
<path d="M58.118 46.6807H0.516602V49.9981H58.118V46.6807Z" fill="#241E63"/>
<path d="M11.4852 21.2151H5.87535L4.87358 23.8695H0.46582L6.72685 9.72653H10.5836L16.9448 23.8695H12.487L11.4852 21.2151ZM6.82702 18.6022H10.4835L8.6302 13.7081L6.82702 18.6022ZM24.1575 23.8695V9.72653H29.6672C31.1699 9.72653 32.5223 10.0169 33.7244 10.5975C34.9265 11.1782 35.8782 11.9662 36.5293 13.0031C37.2306 14.0399 37.5311 15.2012 37.5812 16.4869V17.1505C37.5812 18.4363 37.2306 19.5976 36.5794 20.6344C35.9283 21.6713 34.9766 22.4593 33.7745 23.04C32.5724 23.6206 31.22 23.911 29.7674 23.911H24.1575V23.8695ZM28.2648 12.3395V21.2151H29.7173C30.9195 21.2151 31.821 20.8833 32.4221 20.1782C33.0732 19.4731 33.3738 18.4363 33.3738 17.0676V16.4455C33.3738 15.0768 33.0732 14.0399 32.4221 13.3349C31.771 12.6298 30.8694 12.298 29.6672 12.298H28.2648V12.3395ZM55.4126 21.2151H49.7526L48.7509 23.8695H44.3431L50.6041 9.72653H54.4609L60.8221 23.8695H56.4143L55.4126 21.2151ZM50.7544 18.6022H54.4108L52.5576 13.6667L50.7544 18.6022ZM72.1921 19.0584V23.8695H68.0849V9.72653H74.8969C76.1992 9.72653 77.3512 9.93391 78.353 10.3487C79.3548 10.7634 80.1562 11.3026 80.7071 12.0491C81.2581 12.7957 81.5586 13.6252 81.5586 14.5376C81.5586 15.9063 80.9576 17.0261 79.7555 17.8556C78.5533 18.6851 76.9505 19.0999 74.8468 19.0999H72.1921V19.0584ZM72.1921 16.4455H74.8969C75.6983 16.4455 76.2994 16.2796 76.7001 15.9478C77.1008 15.616 77.3512 15.1597 77.3512 14.5376C77.3512 13.874 77.1509 13.3349 76.7001 12.9616C76.2493 12.5468 75.6983 12.3809 74.947 12.3395H72.1921V16.4455ZM102.445 12.3395H97.3364V23.8695H93.2292V12.3395H88.1703V9.68506H102.445V12.3395ZM113.866 23.8695H109.758V9.72653H113.866V23.8695ZM129.343 20.0123L132.749 9.72653H137.357L131.597 23.8695H127.089L121.379 9.72653H125.937L129.343 20.0123ZM155.188 17.8556H148.727V21.2151H156.39V23.8695H144.62V9.72653H156.441V12.3809H148.727V15.3671H155.188V17.8556Z" fill="#241E63"/>
<path d="M5.92392 39.5056H13.0865V42.1185H1.7666V27.9756H5.87383V39.5056H5.92392ZM30.5172 39.4641H24.8573L23.8555 42.1185H19.4978L25.7589 27.9756H29.6156L35.9268 42.1185H31.519L30.5172 39.4641ZM25.859 36.8512H29.5155L27.6622 31.9572L25.859 36.8512Z" fill="#241E63"/>
<path d="M79.8869 26.2986L96.3969 49.9985H63.377L71.6319 38.1486L79.8869 26.2986Z" fill="#413C7A"/>
<path d="M79.8867 26.2986L96.3967 49.9985L79.8867 42.0985L79.8867 26.2986Z" fill="url(#paint0_linear)"/>
<path d="M91.7164 43.2834L96.3971 49.9984L88.9902 46.4434L91.7164 43.2834Z" fill="url(#paint1_linear)"/>
<path d="M91.7164 43.2834L96.3971 49.9984L88.9902 46.4434L91.7164 43.2834Z" fill="#504B86"/>
<path d="M79.8871 42.0986L96.4482 49.9986H63.6826L79.8871 42.0986Z" fill="#241E63"/>
<path d="M79.8871 33.4087L79.8871 42.0987L70.8066 46.4437L79.8871 33.4087Z" fill="#241E63"/>
<path d="M79.8871 33.4087L79.8871 42.0987L70.8066 46.4437L79.8871 33.4087Z" fill="#241E63"/>
<path d="M88.9779 46.4428L79.8977 42.0979L79.8973 33.4087L88.9779 46.4428Z" fill="#7974AE"/>
<path d="M88.9779 46.4428L79.8977 42.0979L79.8973 33.4087L88.9779 46.4428Z" fill="#7974AE"/>
<path d="M70.8197 46.4442L79.8999 42.0994L88.9797 46.4437L79.8997 46.4439L70.8197 46.4442Z" fill="#504B86"/>
<path d="M70.8197 46.4442L79.8999 42.0994L88.9797 46.4437L70.8197 46.4442Z" fill="#504B86"/>
<path d="M70.8313 46.4436L75.7643 49.998H63.3818L70.8313 46.4436Z" fill="#504B86"/>
</g>
<defs>
<linearGradient id="paint0_linear" x1="81.2119" y1="27.9743" x2="95.5731" y2="54.3361" gradientUnits="userSpaceOnUse">
<stop stop-color="#7974AE"/>
<stop offset="1" stop-color="#241E63" stop-opacity="0"/>
</linearGradient>
<linearGradient id="paint1_linear" x1="80.3638" y1="26.2985" x2="87.4974" y2="50.0711" gradientUnits="userSpaceOnUse">
<stop stop-color="#E4DAFC"/>
<stop offset="1" stop-color="#D1BEFF" stop-opacity="0"/>
</linearGradient>
<clipPath id="clip0">
<rect width="156.325" height="49.7699" fill="white" transform="translate(0.46582 0.22876)"/>
</clipPath>
</defs>
</svg>
