<svg width="134" height="46" viewBox="0 0 134 46" fill="none" xmlns="http://www.w3.org/2000/svg">
<path d="M51.0426 27.6843C50.9789 27.6051 50.9153 27.5033 50.8388 27.4354C44.3182 21.6445 37.7849 15.8535 31.2643 10.0511C31.0478 9.85887 30.9459 9.88149 30.7549 10.0625C26.896 13.5009 23.0244 16.928 19.1655 20.3664C18.9618 20.5473 18.8726 20.5134 18.6943 20.355C17.2807 19.0883 15.8416 17.8328 14.4279 16.5547C14.2369 16.385 14.1477 16.3624 13.944 16.5434C9.72849 20.2872 5.51302 24.031 1.29755 27.7748C1.22114 27.8426 1.15746 27.9218 1.08105 28.001C0.482478 26.9378 0.30418 22.3005 0.698982 19.9818C1.15746 17.3012 2.07442 14.7563 3.53901 12.3811C5.0036 9.99459 6.88846 7.91345 9.18086 6.11508C17.7009 -0.592076 30.5256 -1.40644 40.1028 4.22621C50.2275 10.1756 52.9275 20.2193 51.0426 27.6843Z" fill="#CAC8E0"/>
<path d="M26.1182 45.8936C18.5024 45.7918 12.0837 43.3148 6.93851 38.3043C4.48056 35.9178 2.73579 33.158 1.61506 30.0703C1.55139 29.9119 1.57686 29.8101 1.71695 29.6857C5.80505 26.0664 9.88042 22.447 13.9558 18.8277C14.1086 18.692 14.185 18.6807 14.3506 18.8277C15.7897 20.1284 17.2543 21.4065 18.6934 22.6959C18.859 22.8429 18.9354 22.8429 19.1009 22.6959C22.9725 19.2462 26.8569 15.8078 30.7285 12.3581C30.9195 12.1885 31.0086 12.1659 31.2124 12.3468C36.8797 17.3913 42.5598 22.4244 48.2398 27.4689C48.9657 28.1136 49.6917 28.7583 50.4176 29.3916C50.5067 29.4708 50.5704 29.5387 50.5195 29.6744C48.3162 35.7368 44.3173 40.4985 37.8604 43.4957C35.5043 44.5929 32.9827 45.2375 30.3591 45.5882C28.9837 45.7918 27.5573 45.8822 26.1182 45.8936ZM35.3515 34.5944C35.3769 34.5718 35.4151 34.5605 35.4406 34.5379C36.2302 33.6104 37.0198 32.6717 37.8222 31.7442C37.924 31.6198 37.8858 31.5293 37.8349 31.4162C37.2236 30.1381 36.5995 28.8601 36.001 27.582C35.9118 27.3784 35.8481 27.3784 35.6571 27.4915C34.3708 28.2945 33.0845 29.0863 31.7855 29.8667C31.7091 29.9119 31.6327 30.0477 31.4926 29.9572C31.5181 29.9345 31.5563 29.9232 31.5817 29.9006C32.6006 28.6452 33.6067 27.401 34.6255 26.1456C34.6383 26.1229 34.6892 26.1003 34.6383 26.0777C34.6255 26.0777 34.6001 26.1003 34.5873 26.1116C33.9506 26.4849 33.3138 26.8468 32.677 27.22C32.6897 27.1183 32.7279 27.0391 32.7661 26.9712C33.3138 26.089 33.8487 25.2068 34.409 24.3359C34.5109 24.1662 34.5237 24.0305 34.4472 23.8495C33.3393 21.169 32.2313 18.4884 31.1233 15.8191C31.0086 15.5477 31.0086 15.5477 30.7794 15.7513C27.4936 18.6694 24.1951 21.5875 20.9094 24.5169C20.8712 24.5508 20.8457 24.5847 20.8075 24.6073C20.6801 24.6978 20.7183 24.7544 20.8202 24.8449C22.2211 25.9759 23.6093 27.1296 25.0357 28.238C27.3281 30.0137 29.6587 31.7442 31.9638 33.4973C34.5491 35.454 37.1344 37.4107 39.7197 39.3787C39.8726 39.4919 39.9745 39.5258 40.1273 39.3901C40.4202 39.1525 40.7386 38.9376 41.057 38.7227C41.1971 38.6323 41.2098 38.5418 41.1461 38.3947C40.4075 36.8226 39.6561 35.2504 38.9301 33.6783C38.841 33.486 38.7518 33.486 38.5735 33.5539C37.6184 33.8932 36.6505 34.2212 35.6826 34.5379C35.568 34.5831 35.4661 34.6736 35.3515 34.5944ZM18.6297 40.2497C18.617 40.2383 18.5915 40.227 18.5788 40.2044C19.2283 39.4127 19.8778 38.621 20.5273 37.8292C20.7311 37.5804 21.0495 37.3429 21.0877 37.0827C21.1259 36.8226 20.8584 36.5285 20.7311 36.2571C20.1452 35.0695 19.5467 33.8932 18.9481 32.683C17.4708 33.6104 16.0062 34.5379 14.5416 35.4653C14.5289 35.454 14.5161 35.4427 14.5034 35.4314C14.5544 35.3522 14.6053 35.2731 14.669 35.1939C15.6114 33.995 16.5411 32.8074 17.4835 31.6085C17.5345 31.5406 17.6109 31.4841 17.6236 31.3597C16.9232 31.7895 16.2609 32.1966 15.5859 32.6151C15.5859 32.502 15.6241 32.4341 15.6623 32.355C16.21 31.4275 16.7703 30.5001 17.3307 29.5839C17.4326 29.4143 17.4581 29.2672 17.3689 29.075C16.6557 27.4576 15.968 25.8289 15.2675 24.2115C14.9237 23.4084 14.5671 22.6054 14.2105 21.7797C14.1596 21.825 14.1213 21.8476 14.0831 21.8702C10.912 24.6752 7.75359 27.4915 4.58244 30.2965C4.46782 30.3983 4.46782 30.4888 4.51876 30.6132C5.91967 33.7688 8.05924 36.4607 10.9629 38.6775C14.1468 41.1206 17.8274 42.6701 21.9664 43.3374C22.7433 43.4618 23.5202 43.5636 24.3098 43.5862C24.3225 43.4844 24.2716 43.4166 24.2334 43.3487C23.5711 41.9801 22.8961 40.6229 22.2339 39.2543C22.1447 39.0621 22.0683 39.0281 21.8391 39.1073C20.7693 39.5032 19.6995 39.8764 18.6297 40.2497Z" fill="#FDFDFD"/>
<path d="M128.552 29.7652C128.565 28.6002 128.463 27.2203 128.335 25.8517C128.323 25.6821 128.348 25.6481 128.552 25.6708C130.22 25.863 131.889 25.8517 133.557 25.6708C133.672 25.6594 133.786 25.6142 133.761 25.8065C133.532 27.2316 133.532 28.6794 133.519 30.1158C133.506 31.2469 133.519 32.3893 133.532 33.5203C133.532 33.6447 133.532 33.7579 133.544 33.8823C133.583 34.3234 133.595 34.3234 133.124 34.4365C130.042 35.1717 126.922 35.6467 123.725 35.5902C121.153 35.5449 118.669 35.1377 116.377 34.0746C112.989 32.4911 110.888 30.048 110.404 26.6209C110.098 24.4492 110.366 22.3115 111.295 20.2643C112.569 17.4932 114.81 15.5817 117.918 14.4506C120.261 13.591 122.732 13.2969 125.253 13.3196C128.03 13.3422 130.641 13.919 133.099 15.0727C133.328 15.1745 133.353 15.265 133.277 15.4686C132.958 16.3508 132.64 17.233 132.424 18.1379C132.398 18.2284 132.449 18.3754 132.271 18.3754C132.092 18.3754 131.914 18.4433 131.761 18.2623C131.532 17.9908 131.29 17.7307 131.023 17.4819C129.265 15.8531 127.1 15.1406 124.579 15.2763C121.802 15.4233 119.65 16.5657 118.096 18.5677C116.746 20.3095 116.16 22.2663 116.084 24.37C116.02 26.0101 116.211 27.6049 116.912 29.1318C117.854 31.1677 119.421 32.6494 121.802 33.362C123.076 33.7465 124.4 33.8031 125.737 33.69C126.451 33.6334 127.164 33.5882 127.852 33.3959C128.59 33.1923 128.476 33.2941 128.527 32.6494C128.577 31.7672 128.577 30.8736 128.552 29.7652Z" fill="#EBE6F0"/>
<path d="M89.4656 24.765C89.4656 26.4503 89.7204 28.079 90.5482 29.6172C91.809 31.9245 93.8084 33.3497 96.6994 33.6777C99.5012 33.983 101.934 33.2139 104.022 31.5513C104.226 31.3816 104.315 31.5287 104.468 31.5739C104.646 31.6305 104.621 31.7323 104.57 31.8567C104.251 32.5918 103.997 33.3497 103.895 34.1414C103.869 34.2997 103.793 34.3563 103.653 34.4128C102.43 34.9218 101.157 35.2385 99.8195 35.4082C97.1451 35.7362 94.4961 35.7249 91.8981 35.0349C88.5487 34.1414 86.0143 32.3769 84.6134 29.4702C83.8239 27.8301 83.6073 26.1109 83.722 24.3578C83.7984 23.0797 83.9894 21.8243 84.4734 20.614C85.7724 17.3566 88.2685 15.1624 91.9745 14.1218C96.0499 12.9795 100.087 13.0812 104.06 14.529C104.315 14.6195 104.672 14.6873 104.786 14.8796C104.901 15.0719 104.659 15.3207 104.583 15.5582C104.328 16.2934 104.162 17.0512 104.06 17.8203C104.048 17.8995 104.137 18.0579 103.946 18.0692C103.768 18.0692 103.589 18.1257 103.436 17.9561C102.927 17.3792 102.354 16.859 101.692 16.4292C100.622 15.7279 99.412 15.3773 98.1003 15.3207C94.7636 15.185 92.4585 16.6101 90.892 19.1211C89.7968 20.8629 89.4656 22.7857 89.4656 24.765Z" fill="#EBE6F0"/>
<path d="M71.4184 25.1387C71.4312 22.9218 71.4312 20.7162 71.3675 18.4993C71.3293 17.029 71.2529 15.5472 71.151 14.0769C71.1255 13.7262 71.1255 13.7375 71.5076 13.7715C73.2141 13.9298 74.9206 13.9411 76.6272 13.7488C76.8946 13.7149 76.9073 13.7941 76.8946 13.9864C76.538 19.2006 76.6272 24.4262 76.6654 29.6517C76.6781 31.4162 76.78 33.192 76.9073 34.9564C76.9201 35.16 76.8564 35.194 76.6399 35.1826C74.9079 35.1035 73.1632 35.1035 71.4184 35.1826C71.1892 35.194 71.1255 35.1487 71.1383 34.9451C71.3802 31.6763 71.4312 28.4075 71.4184 25.1387Z" fill="#EBE6F0"/>
<path d="M14.5289 35.4763C15.9935 34.5489 17.4581 33.6328 18.9354 32.694C19.534 33.8929 20.1325 35.0805 20.7184 36.2681C20.8585 36.5395 21.1132 36.8336 21.075 37.0937C21.0368 37.3538 20.7184 37.5913 20.5146 37.8402C19.8651 38.6319 19.2156 39.4236 18.566 40.2153C18.5533 40.2379 18.5278 40.2606 18.5406 40.2719C18.566 40.2945 18.6043 40.2832 18.617 40.2606C19.6868 39.8873 20.7566 39.5141 21.8136 39.1295C22.0429 39.0504 22.1065 39.0843 22.2084 39.2766C22.8707 40.6451 23.5329 42.0023 24.2079 43.3709C24.2461 43.4387 24.2971 43.5066 24.2843 43.6084C23.4947 43.5745 22.7179 43.484 21.941 43.3596C17.8019 42.6923 14.1213 41.1428 10.9374 38.6998C8.04644 36.4829 5.90686 33.7911 4.4932 30.6355C4.42953 30.5111 4.44226 30.4207 4.55688 30.3189C7.72805 27.5139 10.8865 24.6977 14.0576 21.8927C14.0959 21.8588 14.1341 21.8362 14.185 21.8022C14.5416 22.6279 14.8982 23.4309 15.2421 24.2339C15.9425 25.8513 16.643 27.48 17.3434 29.0974C17.4326 29.2896 17.4071 29.4367 17.3052 29.6063C16.7449 30.5224 16.1972 31.4499 15.6369 32.3773C15.5987 32.4452 15.5604 32.5244 15.5604 32.6375C16.2354 32.219 16.8977 31.8118 17.5981 31.382C17.5854 31.5177 17.509 31.563 17.4581 31.6308C16.5156 32.8297 15.5859 34.0173 14.6435 35.2162C14.5798 35.2954 14.5289 35.3745 14.4779 35.4537C14.4652 35.4763 14.4397 35.499 14.4397 35.499C14.4779 35.5329 14.5034 35.4876 14.5289 35.4763Z" fill="#0B0122"/>
<path d="M34.6146 26.1567C33.5958 27.4122 32.5897 28.6563 31.5708 29.9118C31.5453 29.9344 31.5071 29.9457 31.4817 29.9684C31.4944 29.9797 31.5071 29.991 31.5199 30.0023C31.5071 29.991 31.4944 29.9797 31.4817 29.9684C31.6217 30.0588 31.6982 29.9231 31.7746 29.8779C33.0736 29.0861 34.3599 28.2944 35.6462 27.5026C35.8372 27.3782 35.9009 27.3895 35.9901 27.5931C36.5886 28.8712 37.2127 30.1493 37.824 31.4274C37.8749 31.5405 37.9131 31.631 37.8112 31.7554C37.0089 32.6829 36.2193 33.6217 35.4297 34.5492C35.4042 34.5718 35.366 34.5831 35.3405 34.6057C35.3533 34.617 35.366 34.6283 35.3787 34.6396V34.6283C35.366 34.617 35.3533 34.617 35.3278 34.6057C35.4552 34.6849 35.557 34.5944 35.6589 34.5605C36.6268 34.2325 37.5947 33.9044 38.5499 33.5764C38.7282 33.5086 38.8174 33.5086 38.9065 33.7009C39.6324 35.273 40.3711 36.8452 41.1225 38.4174C41.1862 38.5644 41.1734 38.6436 41.0333 38.7454C40.715 38.9603 40.3966 39.1752 40.1036 39.4127C39.9381 39.5371 39.8362 39.5145 39.6961 39.4014C37.1108 37.4334 34.5255 35.4766 31.9401 33.5199C29.635 31.7667 27.3044 30.0249 25.012 28.2605C23.5856 27.152 22.1974 25.9983 20.7965 24.8673C20.6946 24.7768 20.6564 24.7202 20.7838 24.6297C20.822 24.6071 20.8602 24.5732 20.8857 24.5393C24.1714 21.6211 27.4699 18.703 30.7557 15.7735C30.985 15.5699 30.985 15.5699 31.0996 15.8414C32.2076 18.522 33.3028 21.2026 34.4236 23.8719C34.5 24.0529 34.4873 24.1886 34.3854 24.3583C33.825 25.2292 33.2901 26.1114 32.7425 26.9937C32.6915 27.0615 32.6533 27.1407 32.6533 27.2425C33.2901 26.8692 33.9269 26.5073 34.5637 26.1341C34.5891 26.1341 34.6019 26.1454 34.6146 26.1567Z" fill="#0B0122"/>
<path d="M34.5625 26.1228C34.5752 26.1115 34.6006 26.0773 34.6133 26.0887C34.6642 26.1115 34.6133 26.1342 34.6006 26.157C34.6006 26.1456 34.5879 26.1342 34.5625 26.1228Z" fill="#0B0122"/>
<path d="M14.5293 35.4764C14.5039 35.4876 14.4785 35.5323 14.4531 35.4876C14.4531 35.4764 14.4785 35.4541 14.4912 35.4429C14.5039 35.4429 14.5166 35.4652 14.5293 35.4764Z" fill="#FDFDFD"/>
<path d="M18.631 40.2487C18.6056 40.2821 18.5801 40.2933 18.5547 40.2598C18.5547 40.2598 18.5674 40.2264 18.5801 40.2041C18.5928 40.2264 18.6183 40.2375 18.631 40.2487Z" fill="#FDFDFD"/>
<path d="M31.4805 29.957C31.4932 29.9683 31.5059 29.9797 31.5186 29.991C31.5059 29.991 31.4932 29.9797 31.4805 29.957C31.4805 29.9683 31.4805 29.957 31.4805 29.957Z" fill="#FDFDFD"/>
<path d="M35.3535 34.5942C35.3663 34.6056 35.3791 34.6055 35.4047 34.6169V34.6282C35.3791 34.6169 35.3663 34.6056 35.3535 34.5942Z" fill="#FDFDFD"/>
</svg>
