<svg width="194" height="38" viewBox="0 0 194 38" fill="none" xmlns="http://www.w3.org/2000/svg">
<path fill-rule="evenodd" clip-rule="evenodd" d="M31.4897 0.427895C50.6674 2.46663 61.9473 19.1547 50.6863 31.6337C43.7332 39.3447 36.1754 39.7557 37.9893 33.2121C38.8206 30.2526 35.9865 28.6907 31.9431 28.6907C27.4274 28.6907 26.0481 30.0718 22.1748 32.2585C18.3014 34.4452 4.5464 36.4675 1.2399 24.9256C-2.0666 13.3837 12.3309 -1.61084 31.4897 0.427895ZM27.7864 12.463C19.8319 12.9562 16.7899 20.8974 22.8361 22.295C28.9011 23.7089 33.9081 19.8288 44.4889 27.5891C44.4889 27.5891 46.8318 22.8375 41.5414 17.3297C37.4036 13.022 31.6408 12.2164 27.7864 12.463Z" fill="url(#paint0_linear_486:1641)"/>
<path fill-rule="evenodd" clip-rule="evenodd" d="M31.4908 0.427771C50.6686 2.46648 61.9485 19.1543 50.6875 31.6332C47.1164 35.5955 43.3943 37.6343 40.8624 37.7822C42.1095 36.9602 43.4321 35.7928 44.7169 34.2967C53.4083 24.1853 44.698 10.6871 29.8848 9.02653C15.0717 7.36597 3.98071 19.4831 6.53145 28.8382C7.0038 30.5974 7.77847 31.962 8.72319 33.0143C5.45447 31.8469 2.56364 29.4136 1.25993 24.8923C-2.04658 13.3506 12.332 -1.61094 31.4908 0.427771Z" fill="url(#paint1_linear_486:1641)"/>
<path fill-rule="evenodd" clip-rule="evenodd" d="M134.577 4.16V17.0666H132.083L131.856 15.9321H131.8C131.403 16.2609 130.968 16.524 130.477 16.7542C129.986 16.9679 129.457 17.083 128.947 17.083C128.304 17.083 127.7 16.9679 127.171 16.7542C126.642 16.5404 126.188 16.2281 125.791 15.817C125.413 15.406 125.111 14.9292 124.903 14.3373C124.695 13.7454 124.582 13.1042 124.582 12.3643C124.582 11.6244 124.714 10.9668 124.96 10.3913C125.206 9.81587 125.546 9.32262 125.942 8.91159C126.358 8.50055 126.812 8.2046 127.341 7.97442C127.87 7.76068 128.418 7.64559 128.984 7.64559C129.589 7.64559 130.08 7.7278 130.477 7.90866C130.874 8.08951 131.252 8.31969 131.63 8.5992L131.516 7.20167V4.14355L134.577 4.16ZM129.797 9.83231C129.23 9.83231 128.739 10.0296 128.323 10.4406C127.907 10.8517 127.718 11.4765 127.718 12.315C127.718 13.2028 127.889 13.8605 128.248 14.2715C128.588 14.6826 129.079 14.8798 129.721 14.8798C130.061 14.8798 130.383 14.8141 130.685 14.6826C130.987 14.551 131.252 14.3373 131.535 14.0413V10.4078C131.252 10.194 130.968 10.0296 130.685 9.9474C130.383 9.86519 130.099 9.83231 129.797 9.83231Z" fill="#F3F3F3"/>
<path fill-rule="evenodd" clip-rule="evenodd" d="M84.5637 17.0664C85.3195 17.0664 85.9619 16.9349 86.5098 16.6554C87.0578 16.3759 87.5679 16.0142 88.0214 15.5538H88.097L88.3237 17.05H90.8178V7.64551H87.7569V13.7617C87.3979 14.1563 87.0578 14.4358 86.7744 14.5838C86.4721 14.7317 86.132 14.7975 85.7541 14.7975C85.1683 14.7975 84.7716 14.666 84.5637 14.3865C84.3559 14.107 84.2425 13.663 84.2425 13.0712V7.66195H81.1816V13.4164C81.1816 14.5509 81.4462 15.4387 81.9752 16.0964C82.5231 16.7376 83.3734 17.0664 84.5637 17.0664Z" fill="#F3F3F3"/>
<path fill-rule="evenodd" clip-rule="evenodd" d="M101.605 17.0664C102.304 17.0664 103.041 16.9678 103.797 16.754C104.553 16.5403 105.252 16.2115 105.875 15.7511L104.628 14.0741C104.269 14.3043 103.854 14.5016 103.4 14.666C102.947 14.8304 102.437 14.9126 101.908 14.9126C101.057 14.9126 100.358 14.6824 99.8103 14.2221C99.2812 13.7617 99.0167 13.137 99.0167 12.3643C99.0167 11.5751 99.3001 10.9668 99.848 10.5064C100.396 10.0461 101.133 9.81589 102.002 9.81589C102.758 9.81589 103.532 10.0461 104.288 10.5229L105.705 8.87875C105.271 8.53349 104.704 8.23755 104.043 8.00737C103.381 7.7772 102.644 7.66211 101.832 7.66211C101.038 7.66211 100.283 7.76076 99.5646 7.97449C98.8466 8.18822 98.2042 8.48416 97.6563 8.89519C97.1084 9.30622 96.6738 9.78301 96.3526 10.3749C96.0314 10.9668 95.8613 11.6244 95.8613 12.3807C95.8613 13.1205 96.0125 13.7946 96.2959 14.3865C96.5793 14.9784 96.995 15.4552 97.5051 15.8662C98.0342 16.2608 98.6388 16.5732 99.319 16.7869C99.9992 17.0006 100.793 17.0664 101.605 17.0664Z" fill="#F3F3F3"/>
<path fill-rule="evenodd" clip-rule="evenodd" d="M76.6664 17.0664V14.814H70.639V5.26172H67.5781V17.0664H76.6664Z" fill="#F3F3F3"/>
<path fill-rule="evenodd" clip-rule="evenodd" d="M116.212 6.77441C116.817 6.77441 117.289 6.62646 117.686 6.34698C118.064 6.05107 118.253 5.67296 118.253 5.16333C118.253 4.67014 118.064 4.27559 117.686 3.96324C117.308 3.65089 116.817 3.50293 116.212 3.50293C115.608 3.50293 115.135 3.65089 114.739 3.96324C114.361 4.27559 114.172 4.67014 114.172 5.16333C114.172 5.65652 114.361 6.05107 114.739 6.34698C115.117 6.62646 115.608 6.77441 116.212 6.77441Z" fill="#F3F3F3"/>
<path fill-rule="evenodd" clip-rule="evenodd" d="M117.875 17.0664V7.64551H110.676V9.73356H114.814V17.0664H117.875Z" fill="#F3F3F3"/>
<path fill-rule="evenodd" clip-rule="evenodd" d="M144.139 5.2614H144.403C145.008 5.27784 145.575 5.31072 146.104 5.39293C146.708 5.49158 147.237 5.63956 147.672 5.86974C148.106 6.09993 148.465 6.39588 148.73 6.77404C148.994 7.1522 149.108 7.61257 149.108 8.18803C149.108 8.4511 149.07 8.71417 148.976 8.97723C148.881 9.2403 148.749 9.48693 148.541 9.71711C148.352 9.9473 148.106 10.1446 147.804 10.3255C147.521 10.5063 147.162 10.6379 146.765 10.7201V10.7858L146.935 10.8187C147.823 10.9831 148.503 11.2791 148.976 11.6901C149.467 12.134 149.731 12.7588 149.731 13.548C149.731 14.1564 149.599 14.6661 149.335 15.11C149.07 15.5375 148.711 15.8992 148.239 16.1787C147.766 16.4582 147.218 16.672 146.576 16.8199C145.952 16.9515 145.253 17.0337 144.535 17.0337H139.906V5.22852H144.139V5.2614ZM144.29 11.9039H142.967V14.9949H144.29C145.934 14.9949 146.746 14.4523 146.746 13.3836C146.746 12.8575 146.557 12.4958 146.16 12.2491C145.745 12.019 145.14 11.9039 144.29 11.9039ZM144.025 7.33306H142.967V10.0295H144.006C144.762 10.0295 145.291 9.89797 145.631 9.6349C145.971 9.37184 146.122 9.02656 146.122 8.58263C146.122 8.13871 145.952 7.80987 145.612 7.62901C145.272 7.43171 144.743 7.33306 144.025 7.33306Z" fill="#F3F3F3"/>
<path fill-rule="evenodd" clip-rule="evenodd" d="M160.915 17.0664C161.236 17.0664 161.52 17.05 161.784 17.0335C162.049 17.0171 162.294 16.9842 162.54 16.9349C162.786 16.8856 163.012 16.8362 163.239 16.7869C163.466 16.7211 163.73 16.6554 164.014 16.5896L163.334 14.6332C163.012 14.7482 162.729 14.814 162.464 14.8633C162.2 14.9127 161.954 14.9291 161.709 14.9291C161.501 14.9291 161.293 14.9127 161.104 14.8633C160.896 14.814 160.726 14.7318 160.556 14.6167C160.405 14.5016 160.273 14.3537 160.178 14.1564C160.084 13.9755 160.046 13.7289 160.046 13.4659V4.17676H154V6.28119H157.004V13.3508C157.004 14.5016 157.325 15.4059 157.987 16.08C158.648 16.7211 159.611 17.0664 160.915 17.0664Z" fill="#F3F3F3"/>
<path fill-rule="evenodd" clip-rule="evenodd" d="M171.912 17.0664C172.668 17.0664 173.31 16.9349 173.858 16.6554C174.406 16.3759 174.916 16.0142 175.37 15.5538H175.445L175.672 17.05H178.166V7.64551H175.105V13.7617C174.746 14.1563 174.406 14.4358 174.123 14.5838C173.82 14.7317 173.48 14.7975 173.102 14.7975C172.517 14.7975 172.12 14.666 171.912 14.3865C171.704 14.107 171.591 13.663 171.591 13.0712V7.66195H168.549V13.4164C168.549 14.5509 168.813 15.4387 169.342 16.0964C169.871 16.7376 170.722 17.0664 171.912 17.0664Z" fill="#F3F3F3"/>
<path fill-rule="evenodd" clip-rule="evenodd" d="M188.331 7.64551C189.124 7.64551 189.823 7.7606 190.428 7.97433C191.033 8.18807 191.543 8.50046 191.94 8.87861C192.336 9.25676 192.639 9.71712 192.846 10.2432C193.054 10.7694 193.168 11.3448 193.168 11.9531C193.168 12.1998 193.149 12.4135 193.13 12.6108C193.111 12.8081 193.073 12.9561 193.054 13.0712H186.101C186.252 13.7617 186.593 14.2549 187.14 14.5673C187.688 14.8797 188.331 15.0277 189.087 15.0277C189.559 15.0277 190.012 14.9784 190.428 14.8797C190.844 14.7811 191.297 14.6166 191.751 14.4193L192.752 16.0142C192.166 16.343 191.524 16.5896 190.806 16.7869C190.088 16.9678 189.37 17.0664 188.69 17.0664C187.877 17.0664 187.14 16.9678 186.441 16.754C185.742 16.5403 185.138 16.2279 184.628 15.8333C184.117 15.4387 183.702 14.9455 183.418 14.3536C183.116 13.7781 182.965 13.104 182.965 12.3642C182.965 11.6243 183.116 10.9667 183.418 10.3912C183.721 9.81577 184.117 9.32253 184.609 8.91149C185.1 8.50046 185.686 8.20451 186.328 7.97433C186.97 7.7606 187.651 7.64551 188.331 7.64551ZM188.387 9.68424C187.84 9.68424 187.329 9.83221 186.895 10.1117C186.46 10.3912 186.177 10.8351 186.045 11.4435H190.39C190.39 10.9173 190.239 10.5063 189.918 10.1775C189.616 9.84865 189.105 9.68424 188.387 9.68424Z" fill="#F3F3F3"/>
<path fill-rule="evenodd" clip-rule="evenodd" d="M73.4544 34.8066L77.5356 23.002H74.418L72.812 28.5097C72.6231 29.1674 72.4341 29.7921 72.2641 30.4004C72.094 31.0088 71.9051 31.6335 71.6972 32.2912H71.6217C71.4327 31.6335 71.2438 31.0088 71.0926 30.4004C70.9415 29.7921 70.7525 29.1674 70.5447 28.5097L68.9198 23.002H65.6699L69.77 34.8066H73.4544Z" fill="#F3F3F3"/>
<path fill-rule="evenodd" clip-rule="evenodd" d="M86.4343 25.3857C87.2278 25.3857 87.9269 25.5008 88.5315 25.7146C89.1361 25.9283 89.6463 26.2407 90.0431 26.6188C90.4398 26.997 90.7421 27.4574 90.95 27.9835C91.1578 28.5096 91.2712 29.085 91.2712 29.6934C91.2712 29.94 91.2523 30.1537 91.2334 30.351C91.2145 30.5483 91.1767 30.6963 91.1578 30.8114H84.2048C84.3559 31.5019 84.696 31.9952 85.244 32.3076C85.7919 32.6199 86.4343 32.7679 87.1901 32.7679C87.6624 32.7679 88.1159 32.7186 88.5315 32.6199C88.9472 32.5213 89.4007 32.3569 89.8541 32.1596L90.8555 33.7544C90.2698 34.0832 89.6274 34.3298 88.9094 34.5271C88.1914 34.708 87.4735 34.8066 86.7933 34.8066C85.9808 34.8066 85.244 34.708 84.5449 34.4943C83.8458 34.2805 83.2412 33.9681 82.731 33.5735C82.2209 33.1789 81.8052 32.6857 81.5218 32.0938C81.2195 31.5184 81.0684 30.8443 81.0684 30.1044C81.0684 29.3646 81.2195 28.7069 81.5218 28.1315C81.8241 27.556 82.2209 27.0628 82.7121 26.6517C83.2034 26.2407 83.7891 25.9447 84.4315 25.7146C85.0739 25.5008 85.7352 25.3857 86.4343 25.3857ZM86.491 27.408C85.943 27.408 85.4329 27.556 84.9983 27.8355C84.5638 28.115 84.2804 28.5589 84.1481 29.1673H88.4937C88.4937 28.6411 88.3426 28.2301 88.0214 27.9013C87.7191 27.5724 87.1901 27.408 86.491 27.408Z" fill="#F3F3F3"/>
<path fill-rule="evenodd" clip-rule="evenodd" d="M99.0368 34.8066V28.5918C99.3958 28.2794 99.7359 28.0492 100.038 27.8848C100.34 27.7204 100.718 27.6546 101.134 27.6546C101.701 27.6546 102.098 27.7862 102.324 28.0657C102.551 28.3452 102.664 28.7891 102.664 29.381V34.7902H105.725V29.0357C105.725 27.9013 105.461 27.0134 104.913 26.3558C104.365 25.6981 103.515 25.3857 102.362 25.3857C101.588 25.3857 100.907 25.5173 100.34 25.7968C99.7737 26.0763 99.2635 26.4051 98.81 26.7997H98.7345L98.5077 25.5995H96.0137V34.7902H99.0368V34.8066Z" fill="#F3F3F3"/>
<path fill-rule="evenodd" clip-rule="evenodd" d="M117.099 34.8066C117.76 34.8066 118.384 34.7573 118.951 34.6587C119.518 34.56 120.028 34.4449 120.481 34.3298L119.933 32.4062C119.631 32.5049 119.31 32.5871 118.97 32.6364C118.629 32.7022 118.252 32.735 117.855 32.735C117.099 32.735 116.551 32.5871 116.211 32.3076C115.871 32.0281 115.682 31.5348 115.682 30.8443V27.6876H120.028V25.5995H115.682V22.9854H113.188L112.791 25.5995L110.07 25.7146V27.6876H112.64V30.8607C112.64 31.4526 112.716 31.9952 112.867 32.472C113.018 32.9488 113.263 33.3598 113.622 33.7051C113.981 34.0503 114.435 34.3134 115.002 34.5107C115.587 34.708 116.287 34.8066 117.099 34.8066Z" fill="#F3F3F3"/>
<path fill-rule="evenodd" clip-rule="evenodd" d="M128.23 34.8066C128.985 34.8066 129.628 34.6751 130.176 34.3956C130.724 34.1161 131.234 33.7544 131.687 33.294H131.763L131.99 34.7902H134.484V25.3857H131.423V31.5019C131.064 31.8965 130.724 32.176 130.44 32.324C130.138 32.472 129.798 32.5377 129.42 32.5377C128.834 32.5377 128.438 32.4062 128.23 32.1267C128.022 31.8472 127.909 31.4033 127.909 30.8114V25.4022H124.848V31.1567C124.848 32.2911 125.112 33.1789 125.641 33.8366C126.208 34.4778 127.058 34.8066 128.23 34.8066Z" fill="#F3F3F3"/>
<path fill-rule="evenodd" clip-rule="evenodd" d="M143.628 34.8066V29.9236C144.063 29.118 144.61 28.5426 145.215 28.2302C145.839 27.9014 146.462 27.737 147.105 27.737C147.501 27.737 147.823 27.7534 148.068 27.8027C148.314 27.8521 148.616 27.9014 148.937 28L149.561 25.7805C149.259 25.6654 148.956 25.5668 148.673 25.501C148.389 25.4352 148.011 25.4023 147.558 25.4023C146.727 25.4023 145.952 25.5832 145.234 25.9285C144.516 26.2902 143.892 26.8327 143.382 27.5726H143.326L143.08 25.6161H140.586V34.8066H143.628Z" fill="#F3F3F3"/>
<path fill-rule="evenodd" clip-rule="evenodd" d="M159.216 25.3857C160.009 25.3857 160.708 25.5008 161.313 25.7146C161.918 25.9283 162.428 26.2407 162.825 26.6188C163.221 26.997 163.524 27.4574 163.731 27.9835C163.939 28.5096 164.053 29.085 164.053 29.6934C164.053 29.94 164.034 30.1537 164.015 30.351C163.996 30.5483 163.958 30.6963 163.939 30.8114H156.986C157.137 31.5019 157.477 31.9952 158.025 32.3076C158.573 32.6199 159.216 32.7679 159.971 32.7679C160.444 32.7679 160.897 32.7186 161.313 32.6199C161.729 32.5213 162.182 32.3569 162.636 32.1596L163.637 33.7544C163.051 34.0832 162.409 34.3298 161.691 34.5271C160.973 34.708 160.255 34.8066 159.575 34.8066C158.762 34.8066 158.025 34.708 157.326 34.4943C156.627 34.2805 156.022 33.9681 155.512 33.5735C155.002 33.1789 154.586 32.6857 154.303 32.0938C154.001 31.5184 153.85 30.8443 153.85 30.1044C153.85 29.3646 154.001 28.7069 154.303 28.1315C154.605 27.556 155.002 27.0628 155.493 26.6517C155.985 26.2407 156.57 25.9447 157.213 25.7146C157.855 25.5008 158.517 25.3857 159.216 25.3857ZM159.272 27.408C158.724 27.408 158.214 27.556 157.78 27.8355C157.345 28.115 157.062 28.5589 156.929 29.1673H161.275C161.275 28.6411 161.124 28.2301 160.803 27.9013C160.5 27.5724 159.99 27.408 159.272 27.408Z" fill="#F3F3F3"/>
<path fill-rule="evenodd" clip-rule="evenodd" d="M173.423 34.8066C174.254 34.8066 174.991 34.7244 175.615 34.5765C176.238 34.4285 176.767 34.2148 177.202 33.9681C177.618 33.7051 177.939 33.4091 178.166 33.0474C178.392 32.7021 178.506 32.324 178.506 31.913C178.506 31.5348 178.392 31.1895 178.184 30.8936C177.977 30.5977 177.693 30.351 177.353 30.1537C177.013 29.9564 176.597 29.7756 176.144 29.6276C175.69 29.4796 175.199 29.3481 174.689 29.2166C174.33 29.1344 173.99 29.0522 173.669 28.97C173.347 28.8878 173.064 28.8055 172.818 28.7233C172.592 28.6411 172.403 28.5425 172.252 28.4274C172.119 28.3123 172.044 28.1972 172.044 28.0657C172.044 27.8355 172.176 27.6547 172.441 27.5396C172.705 27.4245 173.177 27.3587 173.82 27.3587C174.368 27.3587 174.878 27.4409 175.388 27.6053C175.879 27.7697 176.371 27.967 176.843 28.2137L178.222 26.6188C177.674 26.3229 177.032 26.0434 176.276 25.7803C175.52 25.5173 174.689 25.3857 173.763 25.3857C173.026 25.3857 172.365 25.4515 171.779 25.5995C171.194 25.731 170.683 25.9283 170.287 26.1749C169.89 26.4215 169.569 26.7175 169.342 27.0628C169.115 27.408 169.002 27.7862 169.002 28.1972C169.002 28.5589 169.115 28.8713 169.323 29.1508C169.531 29.4303 169.814 29.6769 170.173 29.8907C170.513 30.1044 170.91 30.2853 171.345 30.4332C171.779 30.5812 172.233 30.7127 172.686 30.8278C173.518 31.0251 174.179 31.2224 174.689 31.4033C175.199 31.5841 175.445 31.7979 175.445 32.0774C175.445 32.324 175.294 32.5049 174.991 32.6364C174.689 32.7679 174.179 32.8337 173.48 32.8337C172.781 32.8337 172.138 32.735 171.534 32.5377C170.929 32.3404 170.324 32.0774 169.739 31.765L168.359 33.4256C169.021 33.8037 169.795 34.1325 170.683 34.3956C171.571 34.6587 172.497 34.8066 173.423 34.8066Z" fill="#F3F3F3"/>
<defs>
<linearGradient id="paint0_linear_486:1641" x1="9.50031" y1="10.0901" x2="33.7719" y2="36.2148" gradientUnits="userSpaceOnUse">
<stop stop-color="#D4CDDD"/>
<stop offset="1" stop-color="#E6E6E6"/>
</linearGradient>
<linearGradient id="paint1_linear_486:1641" x1="45.433" y1="15.7021" x2="21.3778" y2="28.7619" gradientUnits="userSpaceOnUse">
<stop stop-color="#D3CCDC"/>
<stop offset="1" stop-color="#E6E6E6"/>
</linearGradient>
</defs>
</svg>
