<svg width="211" height="16" viewBox="0 0 211 16" fill="none" xmlns="http://www.w3.org/2000/svg">
<path d="M112.472 6.33685C112.472 8.6964 112.472 11.0351 112.472 13.3946C112.472 15.1904 112.472 15.1904 110.245 15.1904C109.942 15.1904 109.663 15.1695 109.36 15.1904C108.626 15.2113 108.297 14.9398 108.297 14.3134C108.297 10.2207 108.322 6.10716 108.297 2.01448C108.297 1.32541 108.676 1.07484 109.461 1.1166C109.512 1.1166 109.537 1.1166 109.587 1.1166C113.586 0.991315 113.586 0.991315 115.762 3.78937C116.875 5.23016 117.989 6.65006 119.102 8.09085C119.128 8.13261 119.254 8.13261 119.33 8.17438C119.659 7.88204 119.507 7.52707 119.507 7.19297C119.532 5.52249 119.532 3.85201 119.507 2.18153C119.507 1.47158 119.785 1.09572 120.747 1.1166C124.34 1.15836 123.809 0.824267 123.834 3.55968C123.86 7.00504 123.809 10.4295 123.86 13.8749C123.885 14.8354 123.531 15.1486 122.316 15.253C120.216 15.3992 118.925 14.8563 117.913 13.2693C116.622 11.2021 115.003 9.28107 113.51 7.31826C113.257 6.98416 112.978 6.65006 112.7 6.31597C112.624 6.29509 112.548 6.31597 112.472 6.33685Z" fill="#EBE6F0"/>
<path d="M162.679 8.13242C162.679 6.14873 162.704 4.16503 162.654 2.18134C162.628 1.38786 162.983 1.05377 163.969 1.07465C166.551 1.13729 169.106 1.09553 171.688 1.13729C174.168 1.17905 176.116 2.28575 176.698 3.89358C177.356 5.71023 176.571 7.50599 174.496 8.6962C173.737 9.11382 173.813 9.42704 174.294 9.92818C175.686 11.369 177.052 12.8306 178.419 14.2923C178.621 14.5011 179.001 14.7099 178.849 15.0023C178.672 15.3572 178.191 15.1693 177.837 15.2111C174.851 15.6705 172.649 14.8352 171.257 12.5592C170.827 11.8492 170.093 11.2854 169.537 10.6381C169.081 10.137 168.474 10.0952 167.841 10.2414C167.183 10.3876 167.335 10.8887 167.335 11.2854C167.31 12.2669 167.31 13.2274 167.335 14.2088C167.36 14.8979 167.057 15.2319 166.171 15.2319C162.046 15.1902 162.805 15.6287 162.73 12.5592C162.654 11.0558 162.679 9.59409 162.679 8.13242ZM167.284 5.60582C167.284 7.50599 167.335 7.54775 169.613 7.25542C169.942 7.21366 170.296 7.19277 170.599 7.10925C171.409 6.87956 171.966 6.46194 172.042 5.71023C172.168 4.45737 171.51 3.95622 169.714 3.89358C167.284 3.81006 167.284 3.81006 167.284 5.60582Z" fill="#EBE6F0"/>
<path d="M143.498 6.23181C143.498 4.87455 143.523 3.51729 143.498 2.16003C143.472 1.45008 143.751 1.07422 144.738 1.07422C148.812 1.13686 148.103 0.677481 148.154 3.76786C148.179 5.77243 148.103 7.79788 148.179 9.82334C148.255 11.8906 149.191 12.6423 151.418 12.6005C153.189 12.5587 154.05 11.8906 154.1 10.408C154.151 7.83965 154.126 5.27129 154.126 2.70293C154.126 1.11598 154.126 1.0951 155.998 1.11598C159.161 1.13686 158.934 0.698362 158.908 3.49641C158.883 5.96036 159.086 8.42431 158.757 10.8883C158.478 13.039 156.96 14.5633 154.455 15.1689C152.481 15.6282 150.456 15.67 148.457 15.2941C145.32 14.6886 143.599 12.9346 143.498 10.2201C143.472 8.88369 143.498 7.56819 143.498 6.23181Z" fill="#EBE6F0"/>
<path d="M46.7296 3.35106C46.7296 3.5181 46.7296 3.58074 46.7296 3.64337C46.7296 5.29287 46.7296 5.29287 44.9329 4.52032C43.0603 3.70601 41.1118 3.22578 38.9861 3.72689C38.3029 3.87305 37.6956 4.12361 37.645 4.81263C37.6197 5.50166 38.2523 5.7731 38.9102 5.91925C40.3779 6.23245 41.871 6.46212 43.3134 6.81708C46.0463 7.50611 47.3369 8.75888 47.4128 10.6589C47.4887 12.4546 45.8692 14.2711 43.4905 14.9601C40.1249 15.9206 36.7846 15.6492 33.4696 14.6469C32.9129 14.4799 32.6851 14.1667 32.7104 13.6865C32.7357 13.1018 32.6851 12.4963 32.7104 11.9117C32.7357 10.8886 32.9888 10.7633 34.0263 11.3271C35.9495 12.3293 37.9992 12.8095 40.2767 12.6425C40.4792 12.6216 40.7069 12.6216 40.9094 12.6007C41.6685 12.4755 42.4783 12.3502 42.5542 11.5568C42.6301 10.7633 41.9216 10.4501 41.1624 10.2831C39.8718 9.99078 38.5307 9.82374 37.2401 9.51055C35.3675 9.0512 33.672 8.34129 33.0394 6.67092C32.2043 4.52032 33.419 2.47412 36.1266 1.49277C39.4163 0.302635 42.706 0.657589 45.9957 1.55541C47.1851 1.86861 46.5524 2.78731 46.7296 3.35106Z" fill="#EBE6F0"/>
<path d="M63.1787 3.47725C63.1787 3.6443 63.204 3.83222 63.1787 3.99927C63.1534 4.33335 63.3305 4.75096 62.9256 4.98065C62.4448 5.2521 62.0652 4.83449 61.6857 4.66744C59.9649 3.8531 58.1429 3.37285 56.1438 3.6443C55.2581 3.76958 54.1447 3.83222 54.0941 4.85537C54.0688 5.83675 55.1569 5.87851 55.992 6.06643C57.3585 6.37964 58.7756 6.58845 60.1421 6.94342C62.1665 7.46543 63.6595 8.48857 63.8619 10.3678C64.0644 12.3097 62.9762 13.7713 60.9265 14.6066C57.232 16.11 53.4868 15.7341 49.7922 14.6066C49.1849 14.4186 49.1596 14.001 49.1849 13.5625C49.2355 12.7691 48.7547 11.725 49.4126 11.2448C50.2983 10.6184 51.0575 11.7042 51.8673 11.9756C53.6639 12.5812 55.5112 12.79 57.4344 12.602C58.2189 12.5185 58.9527 12.2888 59.0286 11.5162C59.1298 10.7019 58.396 10.4305 57.6368 10.2634C55.7389 9.82492 53.7398 9.69964 51.9432 8.92706C49.7416 7.96656 48.7547 6.1082 49.4633 4.18719C49.8934 3.05964 50.8297 2.28707 52.0444 1.74417C55.4606 0.240777 58.978 0.637506 62.4448 1.55625C63.204 1.74417 63.1787 1.82769 63.1787 3.47725Z" fill="#EBE6F0"/>
<path d="M195.803 12.7058C195.803 12.6014 195.778 12.497 195.803 12.3926C195.879 11.9333 195.525 11.3277 196.157 11.0563C196.714 10.8266 197.144 11.3277 197.6 11.5574C199.599 12.5388 201.775 12.8311 204.053 12.6014C204.837 12.5179 205.546 12.2882 205.672 11.5156C205.773 10.7013 205.04 10.4299 204.306 10.2628C202.408 9.82433 200.409 9.69905 198.612 8.92647C195.246 7.46483 194.968 3.87339 198.081 2.07767C198.941 1.57654 199.903 1.22157 200.94 1.01276C203.648 0.49075 206.28 0.824838 208.911 1.47213C209.595 1.63918 209.873 1.97326 209.822 2.53704C209.746 3.3305 210.252 4.37452 209.62 4.85477C208.81 5.46031 208.076 4.3954 207.266 4.16572C205.571 3.70635 203.876 3.30962 202.079 3.74811C201.396 3.91515 200.763 4.14484 200.738 4.83389C200.712 5.54383 201.345 5.77351 202.028 5.91968C203.8 6.31641 205.672 6.50433 207.393 7.08898C211.088 8.36269 211.695 11.9959 208.557 14.0631C207.469 14.773 206.229 15.1697 204.888 15.3577C202.534 15.7126 200.206 15.5456 197.903 14.9818C195.803 14.4807 195.803 14.4807 195.803 12.7058Z" fill="#EBE6F0"/>
<path d="M17.6282 8.15324C17.6282 6.21133 17.6535 4.26942 17.6029 2.32751C17.5776 1.45052 17.9066 1.07467 19.0453 1.09555C22.2844 1.13731 25.5235 1.15819 28.7625 1.09555C30.129 1.07467 30.2556 1.63845 30.2303 2.51544C30.1796 3.87269 30.1543 3.95621 28.6866 3.95621C26.9659 3.95621 25.2451 3.99797 23.499 3.95621C22.4868 3.93533 22.1832 4.26942 22.1832 5.06289C22.1832 5.83548 22.4109 6.23221 23.4484 6.19045C24.992 6.14869 26.561 6.21133 28.1299 6.16957C29.1421 6.14869 29.6735 6.42014 29.547 7.29713C29.5217 7.50594 29.5217 7.71475 29.547 7.92355C29.6988 8.92583 29.0915 9.1764 28.0034 9.15552C26.4598 9.11376 24.8908 9.15552 23.3219 9.13464C22.5121 9.11376 22.2338 9.38521 22.2085 10.0534C22.1072 12.2459 22.0819 12.2459 24.7137 12.2459C26.1055 12.2459 27.4973 12.2668 28.8891 12.2459C29.8507 12.225 30.3062 12.5591 30.2303 13.3525C30.2049 13.7075 30.2303 14.0416 30.2049 14.3966C30.2049 14.9604 29.876 15.2109 29.1927 15.2109C25.7006 15.2109 22.2085 15.1901 18.7163 15.2109C17.7547 15.2109 17.6282 14.7307 17.6282 14.1251C17.6282 12.1206 17.6282 10.1369 17.6282 8.15324Z" fill="#EBE6F0"/>
<path d="M180.872 8.15331C180.872 6.16966 180.898 4.18601 180.847 2.20236C180.822 1.4089 181.176 1.09569 182.163 1.09569C185.452 1.13745 188.742 1.13745 192.032 1.09569C193.424 1.07481 193.373 1.74299 193.348 2.51557C193.348 3.26727 193.449 3.99809 192.057 3.95633C190.26 3.89368 188.438 3.97721 186.617 3.93544C185.579 3.91456 185.478 4.37394 185.478 5.06299C185.478 5.77293 185.655 6.19054 186.667 6.16966C188.261 6.1279 189.881 6.19054 191.475 6.14878C192.437 6.1279 192.917 6.42023 192.842 7.23457C192.816 7.50602 192.816 7.79834 192.842 8.06979C192.917 8.90501 192.411 9.15558 191.475 9.1347C189.957 9.09294 188.438 9.15558 186.92 9.11382C185.908 9.09294 185.503 9.36438 185.503 10.2414C185.503 12.2459 185.452 12.2459 187.907 12.2459C189.248 12.2459 190.615 12.2877 191.956 12.2459C193.069 12.2041 193.5 12.6009 193.398 13.4987C193.373 13.8119 193.373 14.1251 193.373 14.4384C193.373 14.9395 193.069 15.2109 192.437 15.2109C188.894 15.2109 185.351 15.2109 181.809 15.2109C180.973 15.2109 180.872 14.7516 180.872 14.2296C180.872 12.1833 180.872 10.1578 180.872 8.15331Z" fill="#EBE6F0"/>
<path d="M92.38 8.13256C92.38 6.14878 92.4053 4.16501 92.3547 2.20212C92.3294 1.38773 92.709 1.09539 93.6706 1.11627C96.9602 1.15803 100.225 1.15803 103.514 1.11627C104.881 1.09539 104.855 1.76361 104.83 2.53623C104.805 3.28798 104.957 4.01884 103.54 3.97708C101.743 3.91443 99.9209 3.99796 98.1243 3.9562C97.0867 3.93531 96.9602 4.39471 96.9602 5.06293C96.9602 5.75203 97.1374 6.19055 98.1496 6.16967C99.6679 6.1279 101.186 6.14878 102.704 6.16967C104.223 6.16967 104.324 6.29496 104.324 7.67316C104.324 9.03047 104.223 9.114 102.654 9.13488C101.262 9.13488 99.8703 9.19753 98.4785 9.114C97.2892 9.05135 96.859 9.46899 96.9855 10.3878C96.9855 10.4296 96.9855 10.4504 96.9855 10.4922C96.9602 12.2254 96.9602 12.2463 99.0352 12.2463C100.554 12.2463 102.072 12.2672 103.59 12.2463C104.501 12.2463 104.83 12.5595 104.881 13.3112C104.957 15.1488 104.931 15.1906 102.755 15.2115C99.8197 15.2115 96.859 15.1906 93.9236 15.2324C92.8102 15.2532 92.3547 14.9609 92.38 14.0003C92.4306 12.0166 92.38 10.0746 92.38 8.13256Z" fill="#EBE6F0"/>
<path d="M81.5999 10.2403C82.6374 7.75557 83.7002 5.27082 84.7377 2.78607C85.4462 1.11566 85.4462 1.11566 87.5212 1.11566C90.1783 1.11566 90.1783 1.11566 89.2926 3.14104C87.6731 6.77419 86.0282 10.4282 84.434 14.0823C84.0798 14.8966 83.5483 15.2307 82.5108 15.1889C77.9812 15.0636 79.2212 15.7736 77.627 12.3701C76.0833 9.02926 74.641 5.66754 73.148 2.30583C72.6672 1.19918 72.7178 1.0739 74.1095 1.09478C78.209 1.13654 77.1968 0.593653 78.5379 3.64216C79.4995 5.8137 80.3852 8.02701 81.2962 10.2194C81.3974 10.2403 81.4986 10.2403 81.5999 10.2403Z" fill="#EBE6F0"/>
<path d="M133.906 1.11542C135.93 1.11542 137.955 1.1363 139.979 1.09454C140.915 1.07366 141.345 1.32422 141.345 2.15944C141.345 3.93427 141.396 3.91339 139.22 3.93427C135.778 3.95515 136.208 3.53755 136.183 6.39816C136.158 8.90381 136.158 11.4095 136.183 13.8942C136.208 14.813 135.829 15.2097 134.64 15.1679C130.97 15.0844 131.426 15.5855 131.4 12.5161C131.375 10.094 131.35 7.65098 131.426 5.22886C131.451 4.14308 130.996 3.78811 129.756 3.89251C128.996 3.95515 128.237 3.87163 127.478 3.91339C126.542 3.95515 126.162 3.60019 126.263 2.84849C126.289 2.68145 126.289 2.49353 126.263 2.32648C126.137 1.40775 126.567 1.01102 127.756 1.05278C129.781 1.15718 131.831 1.11542 133.906 1.11542Z" fill="#EBE6F0"/>
<path d="M7.75971 1.11658C9.73352 1.11658 11.7073 1.11658 13.6811 1.11658C15.2754 1.11658 15.3513 1.17923 15.326 2.55734C15.326 3.89369 15.2754 3.93545 13.6052 3.95634C12.8461 3.95634 12.0869 3.9981 11.3278 3.95634C10.3408 3.89369 9.98657 4.22778 10.0119 5.04212C10.0625 7.88187 10.0372 10.7425 10.0372 13.5823C10.0372 15.2109 10.0372 15.2109 8.11398 15.2109C5.07734 15.1692 5.43162 15.4406 5.43162 12.9558C5.40631 10.4919 5.43162 8.02804 5.43162 5.56414C5.43162 3.95634 5.43162 3.95634 3.40719 3.95634C2.69864 3.95634 1.96479 3.93545 1.25624 3.95634C0.446472 3.97722 0.0921978 3.68489 0.117503 3.01671C0.142808 2.7035 0.142808 2.3903 0.117503 2.07709C0.0668925 1.36715 0.471777 1.0957 1.30685 1.0957C3.4578 1.13746 5.60876 1.11658 7.75971 1.11658Z" fill="#EBE6F0"/>
</svg>
