<svg width="125" height="30" viewBox="0 0 125 30" fill="none" xmlns="http://www.w3.org/2000/svg">
<path d="M41.9988 6.97734H45.8868V23.7773H41.9988V6.97734ZM65.8818 20.6093V23.7773H51.1938V21.2573L60.4098 10.1453H51.3858V6.97734H65.5218V9.49734L56.3298 20.6093H65.8818ZM78.2394 24.0653C75.8394 24.0653 73.9674 23.4013 72.6234 22.0733C71.2954 20.7453 70.6314 18.8493 70.6314 16.3853V6.97734H74.5194V16.2413C74.5194 19.2493 75.7674 20.7533 78.2634 20.7533C79.4794 20.7533 80.4074 20.3933 81.0474 19.6733C81.6874 18.9373 82.0074 17.7933 82.0074 16.2413V6.97734H85.8474V16.3853C85.8474 18.8493 85.1754 20.7453 83.8314 22.0733C82.5034 23.4013 80.6394 24.0653 78.2394 24.0653ZM107.377 23.7773L107.353 13.6973L102.409 22.0013H100.657L95.7375 13.9133V23.7773H92.0895V6.97734H95.3055L101.593 17.4173L107.785 6.97734H110.977L111.025 23.7773H107.377ZM117.411 6.97734H121.299V23.7773H117.411V6.97734Z" fill="#EDF4FF"/>
<path d="M8.28342 3.4788C8.43232 3.2875 8.7201 3.28337 8.87443 3.47031L12.1367 7.42179C12.2476 7.55619 12.2525 7.74896 12.1486 7.88885L7.93683 13.5574C7.86537 13.6536 7.75261 13.7103 7.63279 13.7103H1.09419C0.778919 13.7103 0.601631 13.3476 0.795285 13.0989L8.28342 3.4788Z" fill="#EDF4FF"/>
<path d="M16.3679 3.4788C16.219 3.2875 15.9313 3.28337 15.7769 3.47031L12.5147 7.42179C12.4038 7.55619 12.3988 7.74896 12.5028 7.88885L16.7145 13.5574C16.786 13.6536 16.8988 13.7103 17.0186 13.7103H23.5572C23.8724 13.7103 24.0497 13.3476 23.8561 13.0989L16.3679 3.4788Z" fill="#EDF4FF"/>
<path fill-rule="evenodd" clip-rule="evenodd" d="M0.319564 15.9827C0.319438 15.9827 0.319336 15.9828 0.319336 15.9829C0.319336 22.6761 5.69472 28.1021 12.3256 28.1021C18.9565 28.1021 24.3318 22.6761 24.3318 15.9829C24.3318 15.9828 24.3317 15.9827 24.3316 15.9827H16.8281C16.828 15.9827 16.8279 15.9827 16.8279 15.9828C16.8279 18.4928 14.8122 20.5275 12.3256 20.5275C9.83901 20.5275 7.82324 18.4928 7.82324 15.9828C7.82324 15.9827 7.82317 15.9827 7.82309 15.9827H0.319564Z" fill="#EDF4FF"/>
</svg>
