<svg width="157" height="50" viewBox="0 0 157 50" fill="none" xmlns="http://www.w3.org/2000/svg">
<g clip-path="url(#clip0_486:1464)">
<path d="M54.8102 33.9737C56.0624 33.4759 56.8138 32.5633 56.6635 31.0699C56.4131 29.0373 54.3594 28.3321 51.5545 28.1662V25.304H49.4007V28.0418C48.8497 28.0418 48.2487 28.0418 47.6977 28.0832V25.304H45.5439V28.1247C44.7425 28.1247 43.8409 28.1247 41.2363 28.1247V29.9499C42.9393 29.9084 43.8409 29.8255 44.0413 30.6966V38.4537C43.891 39.1589 43.2399 39.0345 41.6871 39.0345L41.2363 41.1086C45.1432 41.1086 45.5439 41.1086 45.5439 41.1086V43.5145H47.6977V41.1086C48.2988 41.1086 48.8497 41.1086 49.4007 41.1086V43.473H51.5545V41.0671C55.1609 40.9012 57.5651 40.196 57.9157 37.4582C58.1661 35.3426 56.8639 34.347 54.8102 33.9737ZM47.7478 30.1159C48.9499 30.1159 52.7566 29.8255 52.7566 31.8581C52.7566 33.8078 48.9499 33.5589 47.7478 33.5589V30.1159ZM47.7478 39.076V35.2596C49.2004 35.2596 53.6582 34.9278 53.6582 37.1678C53.6582 39.3248 49.2004 39.076 47.7478 39.076Z" fill="#EBE6F0"/>
<path d="M156.791 0H0.515625V3.31855H156.791V0Z" fill="#EBE6F0"/>
<path d="M58.1171 46.4597H0.515625V49.7783H58.1171V46.4597Z" fill="#EBE6F0"/>
<path d="M11.4843 20.9897H5.87437L4.87261 23.6446H0.464844L6.72587 9.49925H10.5827L16.9439 23.6446H12.486L11.4843 20.9897ZM6.82605 18.3764H10.4825L8.62922 13.4815L6.82605 18.3764ZM24.1566 23.6446V9.49925H29.6663C31.1689 9.49925 32.5213 9.78962 33.7234 10.3704C34.9255 10.9511 35.8772 11.7393 36.5284 12.7763C37.2296 13.8134 37.5301 14.9749 37.5802 16.2608V16.9245C37.5802 18.2105 37.2296 19.3719 36.5784 20.409C35.9273 21.446 34.9756 22.2342 33.7735 22.8149C32.5714 23.3957 31.219 23.6861 29.7664 23.6861H24.1566V23.6446ZM28.2638 12.1126V20.9897H29.7164C30.9185 20.9897 31.8201 20.6579 32.4211 19.9527C33.0723 19.2475 33.3728 18.2105 33.3728 16.8415V16.2193C33.3728 14.8504 33.0723 13.8134 32.4211 13.1082C31.77 12.403 30.8684 12.0711 29.6663 12.0711H28.2638V12.1126ZM55.4116 20.9897H49.7516L48.7499 23.6446H44.3421L50.6031 9.49925H54.4599L60.8211 23.6446H56.4134L55.4116 20.9897ZM50.7534 18.3764H54.4098L52.5566 13.44L50.7534 18.3764ZM72.1912 18.8327V23.6446H68.0839V9.49925H74.8959C76.1982 9.49925 77.3502 9.70666 78.352 10.1215C79.3538 10.5363 80.1552 11.0756 80.7062 11.8222C81.2571 12.5689 81.5576 13.3985 81.5576 14.3112C81.5576 15.6801 80.9566 16.8001 79.7545 17.6297C78.5524 18.4593 76.9495 18.8742 74.8458 18.8742H72.1912V18.8327ZM72.1912 16.2193H74.8959C75.6973 16.2193 76.2984 16.0534 76.6991 15.7215C77.0998 15.3897 77.3502 14.9334 77.3502 14.3112C77.3502 13.6474 77.1499 13.1082 76.6991 12.7348C76.2483 12.32 75.6973 12.1541 74.946 12.1126H72.1912V16.2193ZM102.444 12.1126H97.3354V23.6446H93.2282V12.1126H88.1693V9.45776H102.444V12.1126ZM113.865 23.6446H109.757V9.49925H113.865V23.6446ZM129.342 19.7868L132.748 9.49925H137.356L131.596 23.6446H127.088L121.378 9.49925H125.936L129.342 19.7868ZM155.187 17.6297H148.726V20.9897H156.389V23.6446H144.619V9.49925H156.44V12.1541H148.726V15.1408H155.187V17.6297Z" fill="#EBE6F0"/>
<path d="M5.92295 39.2834H13.0856V41.8968H1.76562V27.7515H5.87286V39.2834H5.92295ZM30.5163 39.242H24.8563L23.8545 41.8968H19.4968L25.7579 27.7515H29.6147L35.9258 41.8968H31.518L30.5163 39.242ZM25.8581 36.6286H29.5145L27.6612 31.7337L25.8581 36.6286Z" fill="#EBE6F0"/>
<path d="M79.8869 26.0742L96.3969 49.7782H63.377L71.6319 37.9262L79.8869 26.0742Z" fill="#C3C3D4"/>
<path d="M79.8867 26.0742L96.3967 49.7782L79.8867 41.8769L79.8867 26.0742Z" fill="url(#paint0_linear_486:1464)"/>
<path d="M91.7164 43.062L96.3971 49.7781L88.9902 46.2225L91.7164 43.062Z" fill="url(#paint1_linear_486:1464)"/>
<path d="M91.7164 43.062L96.3971 49.7781L88.9902 46.2225L91.7164 43.062Z" fill="#CFCDDF"/>
<path d="M79.8861 41.877L96.4473 49.7783H63.6816L79.8861 41.877Z" fill="#EBE6F0"/>
<path d="M79.8871 33.1853L79.8871 41.8768L70.8066 46.2225L79.8871 33.1853Z" fill="#EBE6F0"/>
<path d="M79.8871 33.1853L79.8871 41.8768L70.8066 46.2225L79.8871 33.1853Z" fill="#EBE6F0"/>
<path d="M88.9773 46.2227L79.8969 41.8769L79.8969 33.1855L88.9773 46.2227Z" fill="#EBE6F0"/>
<path d="M88.9773 46.2227L79.8969 41.8769L79.8969 33.1855L88.9773 46.2227Z" fill="#EBE6F0"/>
<path d="M70.8191 46.2226L79.8996 41.8769L88.9801 46.2226L79.8996 46.2226L70.8191 46.2226Z" fill="#CFCDDF"/>
<path d="M70.8191 46.2226L79.8996 41.8769L88.9801 46.2226L70.8191 46.2226Z" fill="#CFCDDF"/>
<path d="M70.8323 46.2227L75.7653 49.7782H63.3828L70.8323 46.2227Z" fill="#CFCDDF"/>
</g>
<defs>
<linearGradient id="paint0_linear_486:1464" x1="88.1417" y1="26.0742" x2="88.1417" y2="49.7782" gradientUnits="userSpaceOnUse">
<stop stop-color="white" stop-opacity="0.53"/>
<stop offset="1" stop-color="white" stop-opacity="0"/>
</linearGradient>
<linearGradient id="paint1_linear_486:1464" x1="80.3638" y1="26.0742" x2="87.4996" y2="49.8502" gradientUnits="userSpaceOnUse">
<stop stop-color="#E4DAFC"/>
<stop offset="1" stop-color="#D1BEFF" stop-opacity="0"/>
</linearGradient>
<clipPath id="clip0_486:1464">
<rect width="156.325" height="49.7783" fill="white" transform="translate(0.464844)"/>
</clipPath>
</defs>
</svg>
