<svg width="178" height="29" viewBox="0 0 178 29" fill="none" xmlns="http://www.w3.org/2000/svg">
<path d="M0.172326 18.0575C0.172326 14.902 0.136482 11.7363 0.18427 8.58086C0.244004 3.91404 4.42544 0.452213 9.87324 0.462425C14.9865 0.472637 20.0998 0.462425 25.2131 0.462425C26.1211 0.462425 26.1211 0.46243 26.1211 1.2079C26.1211 7.43714 26.1211 13.6664 26.1211 19.9058C26.1211 20.6513 26.0972 20.6717 25.2131 20.6717C22.6684 20.6717 20.1237 20.6717 17.579 20.6717C16.7308 20.6717 16.7308 20.6717 16.7308 21.4172C16.7308 23.623 16.7188 25.8287 16.7427 28.0345C16.7427 28.5144 16.5874 28.6778 16.002 28.6778C10.9724 28.6574 5.94269 28.6574 0.901085 28.6778C0.327633 28.6778 0.148438 28.5349 0.148438 28.0447C0.172331 24.7156 0.160379 21.3866 0.172326 18.0575Z" fill="#241E63"/>
<path d="M28.3545 14.5019C28.3545 10.0699 28.3545 5.63797 28.3545 1.19579C28.3545 0.450325 28.3545 0.440115 29.2027 0.450327C30.9709 0.480962 32.751 0.337998 34.5072 0.542236C38.7604 1.03241 42.1414 4.06534 42.5357 7.71099C42.5954 8.25222 42.6193 8.79346 42.6193 9.33469C42.6193 15.5027 42.6193 21.6707 42.6193 27.8387C42.6193 28.6556 42.6193 28.6556 41.6755 28.6556C37.5179 28.6556 33.3603 28.6556 29.2027 28.6556C28.3784 28.6556 28.3664 28.6556 28.3664 27.951C28.3545 23.4782 28.3545 18.9951 28.3545 14.5019ZM37.6732 8.53816C37.6732 7.48633 36.6577 6.62853 35.4272 6.63874C34.2324 6.64895 33.2289 7.50675 33.2169 8.52794C33.205 9.56956 34.2205 10.4478 35.4391 10.458C36.6577 10.458 37.6732 9.58998 37.6732 8.53816Z" fill="#241E63"/>
<path d="M173.367 9.94674C174.681 9.94674 175.996 9.95695 177.31 9.93653C177.764 9.92632 177.955 10.0693 177.943 10.4675C177.919 11.3355 177.955 12.2036 177.931 13.0614C177.883 14.7565 176.784 15.9003 174.861 16.3087C174.06 16.4721 173.248 16.5742 172.435 16.5742C169.986 16.5742 167.537 16.6764 165.1 16.513C164.682 16.4823 164.264 16.4313 163.869 16.3496C161.743 15.9309 160.763 15.0935 160.5 13.1941C160.238 11.2539 160.238 9.29318 160.488 7.34271C160.763 5.25949 161.982 4.25873 164.837 4.03407C167.728 3.80941 170.631 3.85026 173.535 4.02386C173.965 4.04428 174.395 4.13619 174.825 4.21789C177.358 4.71827 178.062 6.17856 177.943 8.06775C177.931 8.29241 177.812 8.41496 177.549 8.42517C177.465 8.42517 177.393 8.43538 177.31 8.43538C176.808 8.42517 176.258 8.52729 175.84 8.3639C175.315 8.16987 175.625 7.60822 175.506 7.20996C175.267 6.42365 174.908 6.06623 173.989 5.90284C173.523 5.82115 173.045 5.79051 172.567 5.79051C170.297 5.79051 168.027 5.79051 165.757 5.79051C165.458 5.79051 165.16 5.79051 164.861 5.82114C163.463 5.97432 162.997 6.3828 162.878 7.5878C162.711 9.33403 162.711 11.0803 162.878 12.8265C162.997 14.1132 163.356 14.5523 164.837 14.6442C167.716 14.8178 170.608 14.828 173.475 14.6442C175.1 14.5421 175.482 14.0519 175.566 12.6529C175.613 11.7951 175.613 11.7951 174.634 11.7951C172.925 11.7951 171.217 11.7849 169.496 11.8053C168.971 11.8155 168.744 11.6828 168.768 11.2028C168.815 9.7425 168.577 9.95695 170.213 9.93653C171.265 9.93653 172.316 9.94674 173.367 9.94674Z" fill="#241E63"/>
<path d="M87.875 3.93204C89.1175 3.97288 90.6109 3.87078 92.1042 4.01373C92.7374 4.075 93.3587 4.1669 93.968 4.34049C95.306 4.70809 96.1423 5.48415 96.4649 6.65844C96.6202 7.22006 96.7277 7.79189 96.7277 8.37393C96.7158 9.7116 96.7516 11.0595 96.7158 12.3972C96.6441 15.0112 95.2463 16.3183 92.1879 16.5021C89.1533 16.6859 86.1069 16.6552 83.0604 16.5021C82.4869 16.4714 81.9254 16.3489 81.3758 16.1957C79.8586 15.7771 78.9984 14.8581 78.7714 13.5408C78.4847 11.9377 78.4966 10.3243 78.5922 8.7109C78.628 8.13907 78.628 7.55703 78.7475 6.9852C79.0581 5.55563 79.978 4.62641 81.6387 4.24859C82.7258 4.00352 83.825 3.91162 84.948 3.91162C85.844 3.93204 86.74 3.93204 87.875 3.93204ZM87.6838 5.81091C86.286 5.82112 84.9002 5.79048 83.5143 5.82112C81.7103 5.86196 81.113 6.36232 81.0772 7.89401C81.0413 9.48696 81.0413 11.0901 81.0772 12.6831C81.113 14.1229 81.6626 14.6538 83.3232 14.7049C86.2263 14.7968 89.1294 14.7968 92.0326 14.7049C93.6454 14.6538 94.2189 14.1024 94.2666 12.7137C94.3144 11.4271 94.3144 10.1303 94.3025 8.84365C94.3025 8.27182 94.2905 7.68978 94.1591 7.11795C94.0038 6.43379 93.5379 6.03555 92.7374 5.92323C92.3432 5.86196 91.9489 5.82112 91.5547 5.81091C90.2644 5.8007 88.9741 5.81091 87.6838 5.81091Z" fill="#241E63"/>
<path d="M73.9801 13.7458C74.1235 13.5109 74.0638 13.327 74.0638 13.1432C74.0638 10.3755 74.0757 7.60781 74.0518 4.84012C74.0518 4.31927 74.2549 4.15586 74.8403 4.16608C76.8115 4.19672 76.5009 4.00267 76.5129 5.55503C76.5248 8.93549 76.5129 12.3159 76.5129 15.6964C76.5129 16.3602 76.4651 16.3909 75.7005 16.3602C75.5213 16.35 75.3421 16.3194 75.1629 16.3398C74.0518 16.5134 73.2872 16.0539 72.4987 15.4309C68.8191 12.4794 65.0917 9.55847 61.3881 6.63759C61.3404 6.60695 61.2926 6.58652 61.2089 6.53546C61.0656 6.70908 61.1253 6.89291 61.1253 7.06653C61.1253 9.93635 61.1253 12.8062 61.1253 15.676C61.1253 16.35 61.1253 16.3398 60.3368 16.3398C60.0142 16.3398 59.7036 16.35 59.3811 16.3705C58.9032 16.4011 58.6643 16.2785 58.6762 15.8088C58.712 14.2666 58.6882 12.7143 58.6882 11.1721C58.6882 9.04783 58.7001 6.92355 58.6762 4.79927C58.6762 4.33969 58.8554 4.13544 59.393 4.16608C59.6678 4.1865 59.9545 4.16608 60.2293 4.16608C62.2125 4.16608 62.2005 4.16608 63.658 5.35077C66.9673 8.04697 70.2766 10.7432 73.5859 13.4394C73.7053 13.5415 73.8248 13.6232 73.9801 13.7458Z" fill="#241E63"/>
<path d="M155.865 13.7255C155.865 12.98 155.865 12.2753 155.865 11.5605C155.865 9.3035 155.877 7.03633 155.853 4.77937C155.853 4.3096 156.032 4.14619 156.57 4.1564C158.577 4.19725 158.278 3.95216 158.278 5.60658C158.29 8.80309 158.278 11.9894 158.278 15.1859C158.278 15.2676 158.278 15.3595 158.278 15.4412C158.266 16.3399 158.254 16.248 157.215 16.3399C155.877 16.4624 154.981 15.9927 154.037 15.2267C150.489 12.3468 146.869 9.53838 143.273 6.69932C143.189 6.63804 143.129 6.53592 142.974 6.54613C142.855 6.70953 142.914 6.90356 142.914 7.08739C142.914 9.93667 142.902 12.7962 142.926 15.6454C142.926 16.1459 142.783 16.3705 142.162 16.3195C141.744 16.2786 141.326 16.3093 140.907 16.3093C140.609 16.3093 140.465 16.1867 140.477 15.9314C140.477 15.8088 140.477 15.6965 140.477 15.574C140.477 12.0098 140.477 8.43543 140.477 4.87128C140.477 4.1564 140.489 4.14619 141.302 4.14619C141.696 4.14619 142.102 4.18704 142.496 4.13598C143.595 3.993 144.348 4.40151 145.113 5.03468C148.518 7.87375 151.97 10.6618 155.399 13.4702C155.507 13.5927 155.59 13.7153 155.865 13.7255Z" fill="#241E63"/>
<path d="M116.273 10.2732C116.273 8.47575 116.273 6.66808 116.273 4.87062C116.273 4.20678 116.321 4.17615 117.061 4.16594C118.686 4.14551 118.686 4.14551 118.686 5.51403C118.686 6.58637 118.698 7.65872 118.674 8.72086C118.662 9.09873 118.818 9.22129 119.26 9.22129C122.736 9.21108 126.225 9.21108 129.701 9.22129C130.227 9.22129 130.334 9.03745 130.322 8.64937C130.299 7.36255 130.334 6.06552 130.311 4.77871C130.299 4.30892 130.502 4.14551 131.039 4.15572C133.166 4.18636 132.76 3.99232 132.772 5.58552C132.795 8.94554 132.772 12.3056 132.795 15.6758C132.795 16.1762 132.664 16.4009 132.031 16.3396C131.684 16.2988 131.314 16.309 130.956 16.3396C130.478 16.3805 130.322 16.2375 130.322 15.829C130.334 14.4707 130.311 13.1124 130.334 11.7541C130.346 11.2536 130.191 11.0698 129.57 11.0698C126.189 11.0902 122.808 11.0902 119.427 11.0698C118.865 11.0698 118.662 11.2026 118.674 11.703C118.71 13.0613 118.662 14.4196 118.698 15.7779C118.71 16.2273 118.507 16.3907 118.005 16.3703C117.635 16.3498 117.253 16.3294 116.87 16.3498C116.392 16.3805 116.249 16.2069 116.249 15.8188C116.285 13.9805 116.273 12.1217 116.273 10.2732Z" fill="#241E63"/>
<path d="M107.468 11.1922C107.468 12.7035 107.468 14.2149 107.468 15.7262C107.468 16.3287 107.396 16.3798 106.679 16.3798C106.464 16.3798 106.237 16.3491 106.022 16.3389C105.078 16.3287 105.019 16.4819 105.03 15.3994C105.03 12.4789 105.019 9.55833 105.042 6.63778C105.042 6.14762 104.875 5.99445 104.302 6.00466C102.534 6.03529 100.765 6.00465 98.9853 6.02508C98.4477 6.03529 98.2327 5.8719 98.2446 5.41237C98.2685 4.01337 98.1132 4.17676 99.6782 4.17676C104.194 4.16654 108.71 4.17676 113.226 4.17676C114.254 4.17676 114.254 4.17676 114.254 5.04475C114.254 6.02508 114.254 6.02508 113.083 6.02508C111.47 6.02508 109.857 6.0455 108.244 6.01487C107.659 6.00466 107.444 6.13741 107.456 6.66842C107.492 8.16954 107.468 9.68088 107.468 11.1922Z" fill="#241E63"/>
<path d="M135.448 10.2223C135.448 8.38409 135.46 6.55611 135.436 4.71793C135.436 4.29923 135.579 4.12563 136.081 4.15626C136.475 4.17669 136.882 4.17669 137.276 4.15626C137.742 4.13584 137.897 4.32987 137.897 4.70772C137.885 8.40451 137.885 12.1115 137.897 15.8083C137.897 16.2066 137.742 16.3598 137.264 16.3291C136.894 16.2985 136.511 16.3087 136.129 16.3495C135.615 16.4108 135.424 16.2883 135.436 15.8083C135.46 13.9599 135.448 12.0911 135.448 10.2223Z" fill="#241E63"/>
<path d="M58.7009 26.164C58.7009 25.5208 58.7128 24.8776 58.7009 24.2243C58.6889 23.8465 58.8323 23.6628 59.3102 23.6832C59.9433 23.7036 60.5885 23.6832 61.2217 23.6934C62.2252 23.7138 62.942 24.1528 63.1809 24.8572C63.4438 25.6433 63.157 26.3274 62.3208 26.797C62.046 26.9501 62.0221 27.0624 62.2132 27.2666C62.5119 27.6035 62.7986 27.9506 63.0734 28.3079C63.1451 28.41 63.3482 28.5223 63.157 28.655C62.9898 28.7673 62.7986 28.7061 62.6792 28.5836C62.4283 28.3181 62.1774 28.0527 61.9743 27.7566C61.6398 27.2666 61.2097 27.0624 60.5168 27.093C59.2026 27.1441 59.3102 27.0318 59.3102 28.114C59.3102 28.1956 59.3102 28.2875 59.2982 28.3692C59.2743 28.5325 59.2385 28.6857 58.9995 28.6755C58.7606 28.6755 58.7128 28.5223 58.7128 28.359C58.7009 27.6239 58.7009 26.8991 58.7009 26.164ZM59.3102 25.3268C59.346 26.8786 59.0354 26.6336 60.8991 26.654C61.2456 26.654 61.5681 26.6132 61.8907 26.4907C62.8464 26.113 62.9898 24.8981 62.1177 24.3774C61.7234 24.1426 61.2694 24.0813 60.8035 24.0813C59.0473 24.0711 59.3341 23.9078 59.2982 25.2758C59.3102 25.2962 59.3102 25.3166 59.3102 25.3268Z" fill="#241E63"/>
<path d="M140.502 26.2246C140.502 25.5302 140.502 24.8359 140.502 24.1416C140.502 23.8251 140.645 23.6719 141.04 23.6821C141.756 23.7025 142.473 23.6719 143.19 23.6923C144.074 23.723 144.779 24.2029 144.994 24.887C145.233 25.663 144.958 26.3675 144.158 26.7862C143.787 26.9802 143.871 27.1027 144.062 27.3273C144.325 27.6234 144.588 27.9297 144.827 28.2361C144.922 28.3586 145.185 28.5015 144.934 28.6547C144.719 28.7772 144.516 28.6343 144.385 28.4811C144.134 28.1952 143.871 27.9195 143.668 27.603C143.393 27.1946 143.023 27.0823 142.485 27.0925C141.099 27.1129 141.099 27.1027 141.04 28.2463C141.028 28.4096 141.123 28.6751 140.777 28.6547C140.466 28.6343 140.526 28.3892 140.526 28.2156C140.502 27.552 140.502 26.8883 140.502 26.2246ZM141.04 25.2546C141.04 25.663 141.04 25.9795 141.04 26.3063C141.04 26.5309 141.135 26.6636 141.422 26.6636C141.995 26.6534 142.569 26.6841 143.142 26.633C143.895 26.5615 144.301 26.2348 144.444 25.6936C144.588 25.1422 144.373 24.6419 143.883 24.356C143.489 24.1314 143.023 24.0905 142.569 24.0905C140.717 24.0803 141.075 23.8863 141.04 25.2546Z" fill="#241E63"/>
<path d="M177.931 26.2248C177.931 26.8885 177.943 27.5521 177.931 28.2055C177.931 28.3689 178.026 28.6446 177.704 28.6446C177.345 28.6548 177.429 28.3689 177.417 28.1749C177.405 27.7359 177.393 27.2969 177.417 26.8476C177.429 26.5005 177.25 26.3576 176.844 26.3678C175.983 26.378 175.135 26.378 174.275 26.3678C173.869 26.3576 173.702 26.5107 173.713 26.8578C173.725 27.3173 173.725 27.7767 173.713 28.2362C173.713 28.4097 173.749 28.6548 173.439 28.665C173.116 28.6752 173.128 28.4404 173.128 28.2668C173.116 26.8783 173.116 25.4795 173.128 24.091C173.128 23.9276 173.104 23.7234 173.391 23.703C173.713 23.6826 173.725 23.897 173.725 24.091C173.737 24.5708 173.737 25.0405 173.725 25.5204C173.713 25.8164 173.857 25.9492 174.215 25.9492C175.111 25.939 176.007 25.939 176.903 25.9492C177.297 25.9594 177.429 25.796 177.417 25.4795C177.405 25.0405 177.405 24.6015 177.417 24.1522C177.417 23.9787 177.345 23.7234 177.668 23.7132C178.014 23.703 177.931 23.9685 177.931 24.1318C177.931 24.8363 177.931 25.5306 177.931 26.2248Z" fill="#241E63"/>
<path d="M108.041 26.1841C108.041 25.5205 108.053 24.8568 108.041 24.2033C108.041 23.846 108.184 23.6826 108.638 23.6928C109.606 23.7133 110.586 23.6928 111.553 23.703C111.721 23.703 111.96 23.6418 111.983 23.8664C112.007 24.1319 111.733 24.0808 111.553 24.0808C110.753 24.091 109.964 24.091 109.164 24.0808C108.794 24.0706 108.614 24.1931 108.626 24.5199C108.65 26.2658 108.399 25.9085 110.156 25.9493C110.454 25.9595 110.753 25.9391 111.052 25.9595C111.267 25.9697 111.613 25.8778 111.601 26.1841C111.589 26.4598 111.243 26.3986 111.028 26.3986C110.466 26.4088 109.917 26.4292 109.355 26.3986C108.83 26.3781 108.603 26.5211 108.614 27.001C108.662 28.5529 108.411 28.2671 110.12 28.2977C110.681 28.3079 111.231 28.2977 111.792 28.3079C111.948 28.3079 112.127 28.3181 112.139 28.5121C112.139 28.6959 111.972 28.7367 111.804 28.7367C110.693 28.7469 109.582 28.7469 108.471 28.7367C108.089 28.7367 108.041 28.5019 108.041 28.2466C108.041 27.5421 108.041 26.858 108.041 26.1841Z" fill="#241E63"/>
<path d="M75.3073 26.1838C75.3073 25.5201 75.3193 24.8563 75.3073 24.2028C75.2954 23.8454 75.4387 23.6719 75.8927 23.6821C76.8485 23.7025 77.8043 23.6821 78.7482 23.6923C78.9274 23.6923 79.2261 23.631 79.2261 23.8659C79.238 24.1518 78.9154 24.0599 78.7243 24.0701C77.9716 24.0803 77.2189 24.0803 76.4543 24.0701C76.0839 24.0599 75.9047 24.1722 75.9047 24.5092C75.9286 26.2757 75.6538 25.8979 77.4937 25.9387C77.8521 25.9489 78.2105 25.9387 78.569 25.9387C78.7243 25.9387 78.9154 25.9285 78.9393 26.1123C78.9632 26.3267 78.7721 26.3676 78.5809 26.3676C77.9238 26.3778 77.2667 26.3982 76.6096 26.3778C76.1078 26.3574 75.8808 26.4901 75.9047 26.9496C75.9525 28.5426 75.6896 28.2464 77.4459 28.2771C77.9835 28.2873 78.5212 28.2771 79.0588 28.2873C79.2141 28.2873 79.3933 28.3077 79.3814 28.5017C79.3814 28.6549 79.2261 28.6957 79.0827 28.6957C77.9477 28.7059 76.8246 28.7059 75.6896 28.6957C75.3312 28.6957 75.3073 28.4507 75.3073 28.2158C75.3073 27.5419 75.3073 26.8679 75.3073 26.1838Z" fill="#241E63"/>
<path d="M129.308 28.4609C129.332 28.5834 129.296 28.6549 129.176 28.6753C129.009 28.7059 128.854 28.6753 128.77 28.5425C128.615 28.2873 128.46 28.032 128.34 27.7665C128.197 27.4602 127.982 27.3172 127.575 27.3274C126.823 27.3479 126.07 27.3479 125.318 27.3274C124.935 27.3172 124.732 27.4398 124.613 27.7461C124.505 28.0014 124.362 28.2464 124.218 28.4915C124.123 28.6651 123.944 28.7672 123.741 28.6855C123.478 28.5834 123.669 28.42 123.729 28.2975C124.493 26.8679 125.258 25.4282 126.022 23.9986C126.106 23.8455 126.202 23.6923 126.441 23.6821C126.727 23.6719 126.811 23.8353 126.906 24.0089C127.683 25.4384 128.448 26.8679 129.224 28.2975C129.26 28.3588 129.296 28.42 129.308 28.4609ZM126.476 24.2539C126.034 25.1014 125.64 25.8366 125.258 26.5718C125.138 26.8067 125.282 26.8782 125.533 26.8782C126.166 26.8782 126.799 26.8782 127.432 26.8782C127.671 26.8782 127.838 26.8169 127.707 26.5718C127.313 25.8366 126.918 25.1014 126.476 24.2539Z" fill="#241E63"/>
<path d="M93.753 28.7573C93.1317 28.7266 92.5344 28.6245 91.9967 28.3182C91.8295 28.2263 91.5547 28.114 91.71 27.8893C91.8892 27.6136 92.0804 27.8689 92.2476 27.9404C92.9884 28.308 93.7769 28.3999 94.6012 28.1854C95.0314 28.0731 95.3181 27.8382 95.342 27.4196C95.3659 27.0111 95.103 26.7762 94.6968 26.6537C94.1234 26.4801 93.514 26.3576 92.9406 26.184C92.0684 25.9287 91.7339 25.5508 91.7697 24.8973C91.8056 24.2846 92.3193 23.8455 93.1317 23.6617C93.8844 23.4983 94.5893 23.6106 95.2822 23.8659C95.4615 23.9272 95.6885 24.0089 95.5929 24.2233C95.4734 24.4684 95.2703 24.3459 95.0911 24.2744C94.5535 24.06 93.9919 23.9885 93.4065 24.06C92.8569 24.1314 92.4149 24.3459 92.3313 24.8667C92.2596 25.3977 92.6777 25.6325 93.1795 25.7653C93.7291 25.9185 94.2906 26.0308 94.8402 26.184C95.5809 26.3984 95.9155 26.7864 95.9035 27.3787C95.8916 27.9506 95.5093 28.3897 94.8163 28.5837C94.4698 28.696 94.1114 28.7573 93.753 28.7573Z" fill="#241E63"/>
<path d="M159.652 28.2871C160.201 28.2973 160.715 28.1748 161.157 27.889C161.3 27.7971 161.467 27.6848 161.623 27.8583C161.814 28.0625 161.587 28.1646 161.444 28.2667C160.619 28.8487 159.126 28.8997 158.063 28.3892C157.047 27.8992 156.438 26.8374 156.617 25.8369C156.808 24.7649 157.656 23.9379 158.803 23.7031C159.675 23.5295 160.5 23.5806 161.276 23.9787C161.467 24.0808 161.85 24.1727 161.659 24.4484C161.444 24.7547 161.205 24.4586 161.013 24.3565C160.094 23.8971 158.851 23.9685 158.051 24.5403C157.25 25.112 156.964 26.0308 157.31 26.8986C157.644 27.7358 158.588 28.2871 159.652 28.2871Z" fill="#241E63"/>
</svg>
