<svg width="211" height="16" viewBox="0 0 211 16" fill="none" xmlns="http://www.w3.org/2000/svg">
<path d="M112.473 6.53249C112.473 8.89164 112.473 11.2299 112.473 13.5891C112.473 15.3845 112.473 15.3845 110.246 15.3845C109.943 15.3845 109.664 15.3637 109.361 15.3845C108.627 15.4054 108.298 15.134 108.298 14.5077C108.298 10.4157 108.323 6.30284 108.298 2.21086C108.298 1.5219 108.677 1.27137 109.462 1.31313C109.513 1.31313 109.538 1.31313 109.588 1.31313C113.587 1.18786 113.587 1.18786 115.763 3.98544C116.876 5.42599 117.99 6.84565 119.103 8.2862C119.128 8.32795 119.255 8.32795 119.331 8.36971C119.66 8.07742 119.508 7.72251 119.508 7.38847C119.533 5.71827 119.533 4.04807 119.508 2.37788C119.508 1.66804 119.786 1.29225 120.748 1.31313C124.341 1.35488 123.81 1.02084 123.835 3.75579C123.861 7.20057 123.81 10.6245 123.861 14.0693C123.886 15.0296 123.532 15.3428 122.317 15.4472C120.217 15.5933 118.926 15.0505 117.914 13.4638C116.623 11.3969 115.004 9.47621 113.511 7.51373C113.258 7.17969 112.979 6.84565 112.701 6.51161C112.625 6.49074 112.549 6.51161 112.473 6.53249Z" fill="#241E63"/>
<path d="M162.679 8.32776C162.679 6.3444 162.704 4.36104 162.654 2.37769C162.628 1.58434 162.983 1.2503 163.969 1.27118C166.551 1.33381 169.106 1.29206 171.688 1.33381C174.168 1.37557 176.116 2.48207 176.698 4.08964C177.356 5.90597 176.571 7.70143 174.496 8.89145C173.737 9.309 173.813 9.62216 174.294 10.1232C175.686 11.5638 177.052 13.0252 178.419 14.4866C178.621 14.6954 179.001 14.9041 178.849 15.1964C178.672 15.5513 178.191 15.3635 177.837 15.4052C174.851 15.8645 172.649 15.0294 171.257 12.7538C170.827 12.0439 170.093 11.4802 169.537 10.833C169.081 10.332 168.474 10.2902 167.841 10.4364C167.183 10.5825 167.335 11.0836 167.335 11.4802C167.31 12.4615 167.31 13.4219 167.335 14.4031C167.36 15.092 167.057 15.4261 166.171 15.4261C162.046 15.3843 162.805 15.8228 162.73 12.7538C162.654 11.2506 162.679 9.78918 162.679 8.32776ZM167.284 5.80159C167.284 7.70143 167.335 7.74319 169.613 7.4509C169.942 7.40915 170.296 7.38827 170.599 7.30476C171.409 7.07511 171.966 6.65756 172.042 5.90597C172.168 4.65333 171.51 4.15227 169.714 4.08964C167.284 4.00613 167.284 4.00613 167.284 5.80159Z" fill="#241E63"/>
<path d="M143.498 6.42747C143.498 5.07044 143.523 3.71341 143.498 2.35638C143.472 1.64655 143.751 1.27075 144.738 1.27075C148.812 1.33338 148.103 0.874081 148.154 3.96394C148.179 5.96817 148.103 7.99328 148.179 10.0184C148.255 12.0853 149.191 12.8368 151.418 12.7951C153.189 12.7533 154.05 12.0853 154.1 10.603C154.151 8.03503 154.126 5.46711 154.126 2.89919C154.126 1.31251 154.126 1.29163 155.998 1.31251C159.161 1.33338 158.934 0.894959 158.908 3.69253C158.883 6.15607 159.086 8.6196 158.757 11.0831C158.478 13.2335 156.96 14.7576 154.455 15.363C152.481 15.8223 150.456 15.8641 148.457 15.4883C145.32 14.8828 143.599 13.1291 143.498 10.4151C143.472 9.07891 143.498 7.76363 143.498 6.42747Z" fill="#241E63"/>
<path d="M46.7306 3.54715C46.7306 3.71416 46.7306 3.77679 46.7306 3.83942C46.7306 5.48863 46.7306 5.48863 44.9339 4.71621C43.0613 3.90204 41.1128 3.42189 38.9871 3.92292C38.3039 4.06905 37.6966 4.31957 37.6459 5.00848C37.6206 5.69739 38.2533 5.96878 38.9112 6.11491C40.3789 6.42805 41.8719 6.65769 43.3143 7.01258C46.0473 7.70149 47.3379 8.95406 47.4138 10.8538C47.4897 12.6491 45.8702 14.4653 43.4915 15.1543C40.1259 16.1146 36.7856 15.8432 33.4706 14.8411C32.9138 14.6741 32.6861 14.361 32.7114 13.8808C32.7367 13.2963 32.6861 12.6909 32.7114 12.1063C32.7367 11.0834 32.9898 10.9582 34.0273 11.5218C35.9505 12.5239 38.0002 13.004 40.2777 12.837C40.4801 12.8161 40.7079 12.8161 40.9103 12.7953C41.6695 12.67 42.4793 12.5447 42.5552 11.7515C42.6311 10.9582 41.9225 10.645 41.1634 10.478C39.8728 10.1857 38.5316 10.0187 37.2411 9.7056C35.3685 9.24632 33.673 8.53653 33.0404 6.86645C32.2053 4.71621 33.42 2.67035 36.1276 1.68918C39.4173 0.499241 42.707 0.854135 45.9967 1.75181C47.186 2.06495 46.5534 2.9835 46.7306 3.54715Z" fill="#241E63"/>
<path d="M63.1777 3.67332C63.1777 3.84034 63.203 4.02823 63.1777 4.19525C63.1524 4.52928 63.3295 4.94682 62.9246 5.17646C62.4438 5.44786 62.0643 5.03032 61.6847 4.86331C59.9639 4.04911 58.142 3.56894 56.1429 3.84034C55.2572 3.9656 54.1437 4.02823 54.0931 5.0512C54.0678 6.03242 55.156 6.07417 55.991 6.26207C57.3575 6.57522 58.7746 6.78399 60.1411 7.1389C62.1655 7.66082 63.6585 8.68379 63.8609 10.5627C64.0634 12.5043 62.9753 13.9657 60.9255 14.8007C57.231 16.3039 53.4858 15.9281 49.7912 14.8007C49.1839 14.6128 49.1586 14.1953 49.1839 13.7569C49.2345 12.9636 48.7537 11.9197 49.4117 11.4396C50.2974 10.8132 51.0565 11.8988 51.8663 12.1702C53.6629 12.7757 55.5102 12.9844 57.4334 12.7966C58.2179 12.713 58.9517 12.4834 59.0276 11.711C59.1289 10.8967 58.395 10.6253 57.6359 10.4583C55.738 10.0199 53.7389 9.89466 51.9422 9.12221C49.7406 8.16187 48.7537 6.30382 49.4623 4.38314C49.8925 3.25578 50.8288 2.48334 52.0434 1.94054C55.4596 0.437394 58.977 0.834056 62.4438 1.75264C63.203 1.94054 63.1777 2.02404 63.1777 3.67332Z" fill="#241E63"/>
<path d="M195.803 12.9003C195.803 12.796 195.778 12.6916 195.803 12.5872C195.879 12.1279 195.525 11.5225 196.157 11.2511C196.714 11.0214 197.144 11.5225 197.6 11.7521C199.599 12.7333 201.775 13.0256 204.053 12.796C204.837 12.7125 205.546 12.4828 205.672 11.7104C205.773 10.8962 205.04 10.6248 204.306 10.4577C202.408 10.0193 200.409 9.89406 198.612 9.12162C195.246 7.66023 194.968 4.06939 198.081 2.27398C198.941 1.77293 199.903 1.41802 200.94 1.20925C203.648 0.687328 206.28 1.02136 208.911 1.66854C209.595 1.83556 209.873 2.16959 209.822 2.73327C209.746 3.52659 210.252 4.57044 209.62 5.05061C208.81 5.65604 208.076 4.59132 207.266 4.36167C205.571 3.90238 203.876 3.50572 202.079 3.94413C201.396 4.11115 200.763 4.34079 200.738 5.02973C200.712 5.73955 201.345 5.9692 202.028 6.11534C203.8 6.512 205.672 6.69989 207.393 7.28444C211.088 8.55794 211.695 12.1905 208.557 14.2573C207.469 14.9672 206.229 15.3638 204.888 15.5517C202.534 15.9066 200.206 15.7396 197.903 15.1759C195.803 14.6749 195.803 14.6749 195.803 12.9003Z" fill="#241E63"/>
<path d="M17.6292 8.34858C17.6292 6.407 17.6545 4.46542 17.6039 2.52384C17.5786 1.64699 17.9075 1.2712 19.0463 1.29208C22.2854 1.33384 25.5244 1.35471 28.7635 1.29208C30.13 1.2712 30.2565 1.83489 30.2312 2.71173C30.1806 4.06875 30.1553 4.15226 28.6876 4.15226C26.9668 4.15226 25.2461 4.19401 23.5 4.15226C22.4878 4.13138 22.1841 4.46542 22.1841 5.25875C22.1841 6.03121 22.4119 6.42788 23.4494 6.38612C24.993 6.34437 26.562 6.407 28.1309 6.36524C29.1431 6.34437 29.6745 6.61577 29.548 7.49261C29.5227 7.70139 29.5227 7.91016 29.548 8.11893C29.6998 9.12104 29.0925 9.37156 28.0044 9.35069C26.4607 9.30893 24.8918 9.35069 23.3229 9.32981C22.5131 9.30893 22.2347 9.58034 22.2094 10.2484C22.1082 12.4405 22.0829 12.4405 24.7147 12.4405C26.1065 12.4405 27.4983 12.4614 28.89 12.4405C29.8516 12.4196 30.3071 12.7537 30.2312 13.547C30.2059 13.9019 30.2312 14.236 30.2059 14.5909C30.2059 15.1546 29.877 15.4051 29.1937 15.4051C25.7016 15.4051 22.2094 15.3842 18.7173 15.4051C17.7557 15.4051 17.6292 14.9249 17.6292 14.3195C17.6292 12.3152 17.6292 10.3319 17.6292 8.34858Z" fill="#241E63"/>
<path d="M180.873 8.34865C180.873 6.36534 180.899 4.38202 180.848 2.39871C180.823 1.60538 181.177 1.29222 182.164 1.29222C185.453 1.33398 188.743 1.33398 192.033 1.29222C193.425 1.27135 193.374 1.93941 193.349 2.71186C193.349 3.46343 193.45 4.19413 192.058 4.15237C190.261 4.08974 188.439 4.17325 186.617 4.1315C185.58 4.11062 185.479 4.56991 185.479 5.25885C185.479 5.96867 185.656 6.38621 186.668 6.36534C188.262 6.32358 189.882 6.38621 191.476 6.34446C192.438 6.32358 192.918 6.61586 192.843 7.43006C192.817 7.70146 192.817 7.99374 192.843 8.26514C192.918 9.10022 192.412 9.35075 191.476 9.32987C189.958 9.28812 188.439 9.35075 186.921 9.30899C185.909 9.28812 185.504 9.55952 185.504 10.4364C185.504 12.4405 185.453 12.4405 187.908 12.4405C189.249 12.4405 190.616 12.4823 191.957 12.4405C193.07 12.3988 193.5 12.7955 193.399 13.6932C193.374 14.0063 193.374 14.3195 193.374 14.6326C193.374 15.1337 193.07 15.4051 192.438 15.4051C188.895 15.4051 185.352 15.4051 181.81 15.4051C180.974 15.4051 180.873 14.9458 180.873 14.4239C180.873 12.3779 180.873 10.3528 180.873 8.34865Z" fill="#241E63"/>
<path d="M92.38 8.3279C92.38 6.34447 92.4053 4.36103 92.3547 2.39847C92.3294 1.58422 92.709 1.29193 93.6706 1.3128C96.9602 1.35456 100.225 1.35456 103.514 1.3128C104.881 1.29193 104.855 1.96003 104.83 2.73253C104.805 3.48414 104.957 4.21488 103.54 4.17313C101.743 4.11049 99.9209 4.194 98.1243 4.15225C97.0867 4.13137 96.9602 4.59069 96.9602 5.2588C96.9602 5.94778 97.1374 6.38622 98.1496 6.36534C99.6679 6.32359 101.186 6.34446 102.704 6.36534C104.223 6.36534 104.324 6.49061 104.324 7.86858C104.324 9.22566 104.223 9.30918 102.654 9.33006C101.262 9.33006 99.8703 9.39269 98.4785 9.30918C97.2892 9.24654 96.859 9.66411 96.9855 10.5828C96.9855 10.6245 96.9855 10.6454 96.9855 10.6871C96.9602 12.42 96.9602 12.4409 99.0352 12.4409C100.554 12.4409 102.072 12.4618 103.59 12.4409C104.501 12.4409 104.83 12.7541 104.881 13.5057C104.957 15.343 104.931 15.3848 102.755 15.4056C99.8197 15.4056 96.859 15.3848 93.9236 15.4265C92.8102 15.4474 92.3547 15.1551 92.38 14.1947C92.4306 12.2113 92.38 10.2696 92.38 8.3279Z" fill="#241E63"/>
<path d="M81.6008 10.4353C82.6383 7.95097 83.7012 5.46664 84.7387 2.98232C85.4472 1.31219 85.4472 1.31219 87.5222 1.31219C90.1793 1.31219 90.1793 1.31219 89.2936 3.33722C87.6741 6.96976 86.0292 10.6232 84.435 14.2766C84.0807 15.0908 83.5493 15.4248 82.5118 15.3831C77.9822 15.2578 79.2222 15.9676 77.6279 12.5647C76.0843 9.22444 74.6419 5.8633 73.1489 2.50216C72.6681 1.39569 72.7187 1.27043 74.1105 1.29131C78.2099 1.33306 77.1977 0.790268 78.5389 3.83826C79.5005 6.00944 80.3862 8.22236 81.2972 10.4144C81.3984 10.4353 81.4996 10.4353 81.6008 10.4353Z" fill="#241E63"/>
<path d="M133.906 1.31194C135.93 1.31194 137.955 1.33282 139.979 1.29107C140.915 1.27019 141.345 1.52071 141.345 2.35578C141.345 4.13032 141.396 4.10944 139.22 4.13032C135.778 4.15119 136.208 3.73366 136.183 6.59379C136.158 9.09901 136.158 11.6042 136.183 14.0886C136.208 15.0072 135.829 15.4038 134.64 15.3621C130.97 15.2786 131.426 15.7796 131.4 12.7107C131.375 10.289 131.35 7.8464 131.426 5.42468C131.451 4.33909 130.996 3.98418 129.756 4.08856C128.996 4.15119 128.237 4.06769 127.478 4.10944C126.542 4.15119 126.162 3.79629 126.263 3.04472C126.289 2.87771 126.289 2.68981 126.263 2.5228C126.137 1.60422 126.567 1.20756 127.756 1.24931C129.781 1.3537 131.831 1.31194 133.906 1.31194Z" fill="#241E63"/>
<path d="M7.75971 1.31311C9.73352 1.31311 11.7073 1.31311 13.6811 1.31311C15.2754 1.31311 15.3513 1.37574 15.326 2.75363C15.326 4.08975 15.2754 4.13151 13.6052 4.15238C12.8461 4.15238 12.0869 4.19414 11.3278 4.15238C10.3408 4.08975 9.98657 4.42378 10.0119 5.23799C10.0625 8.07726 10.0372 10.9374 10.0372 13.7767C10.0372 15.4051 10.0372 15.4051 8.11398 15.4051C5.07734 15.3633 5.43162 15.6347 5.43162 13.1504C5.40631 10.6869 5.43162 8.2234 5.43162 5.75991C5.43162 4.15238 5.43162 4.15238 3.40719 4.15238C2.69864 4.15238 1.96479 4.13151 1.25624 4.15238C0.446472 4.17326 0.0921978 3.88098 0.117503 3.21292C0.142808 2.89976 0.142808 2.58661 0.117503 2.27345C0.0668925 1.56364 0.471777 1.29224 1.30685 1.29224C3.4578 1.33399 5.60876 1.31311 7.75971 1.31311Z" fill="#241E63"/>
</svg>
