<svg width="147" height="36" viewBox="0 0 147 36" fill="none" xmlns="http://www.w3.org/2000/svg">
<path d="M6.18303 27.9501H0.826172V20.2648H6.18303V15.6851H0.826172V7.9998H6.18303V0H15.4254V7.9998H19.7936V0H29.036V7.9998H34.3928V15.6851H29.036V20.2648H34.3928V27.9501H29.036V34.9868H19.7936V27.9501H15.4254V34.9868H6.18303V27.9501ZM19.7936 20.2648V15.6851H15.4254V20.2648H19.7936Z" fill="#EBE6F0"/>
<path d="M44.9461 16.6484V11.1449H46.8543C49.5902 11.1449 51.0386 10.8501 52.1422 10.0245C53.3607 9.12038 53.8895 7.80346 53.8895 5.73963C53.8895 3.63649 53.4757 2.49647 52.3951 1.55301C51.2915 0.589889 49.7741 0.216434 46.8313 0.216434H40.095V16.6681H44.9461V16.6484ZM46.9003 7.86243H44.8771V3.43994H46.9003C48.6016 3.43994 49.1764 3.99029 49.1764 5.66101C49.1764 7.31207 48.6016 7.86243 46.9003 7.86243ZM60.4879 16.9236C62.3501 16.9236 63.3158 16.6091 64.0285 15.7443L64.6492 16.6484H67.638V4.5603H63.1089V10.8697C63.1089 12.8942 62.741 13.5822 61.5914 13.5822C60.4879 13.5822 60.074 12.8746 60.074 10.968V4.54065H55.5449V11.4397C55.5449 12.9925 55.6598 13.936 55.9587 14.5846C56.6024 16.1374 58.1428 16.9236 60.4879 16.9236ZM80.9037 16.6484V13.5625H75.202L80.5129 6.99759V4.57996H70.0521V7.66587H74.9031L69.5463 14.2308V16.6484H80.9037ZM93.6407 16.6484V13.5625H87.939L93.2498 6.99759V4.57996H82.789V7.66587H87.6401L82.2832 14.2308V16.6484H93.6407ZM103.228 16.6484V13.5429H102.929C100.975 13.5625 100.423 12.9925 100.446 11.027V0.196777H95.9168V10.6339C95.8938 15.587 97.1123 16.6484 102.745 16.6484H103.228ZM110.01 16.9236C113.436 16.9236 115.252 16.1571 116.494 14.2308L113.137 12.6584C112.493 13.6018 111.78 13.9753 110.539 13.9753C109.045 13.9753 108.332 13.2874 108.332 11.8525V11.6166H116.471V10.339C116.471 5.95584 114.723 4.28513 110.125 4.28513C105.527 4.28513 103.78 5.9755 103.78 10.339V11.0466C103.78 15.2922 105.527 16.9236 110.01 16.9236ZM112.217 9.04176H108.332V8.74693C108.332 7.70518 109.068 7.05655 110.286 7.05655C111.505 7.05655 112.24 7.68553 112.24 8.70762V9.04176H112.217ZM48.8085 34.9084L55.3149 18.4568H50.5328L46.6934 29.5621L42.8539 18.4568H38.0488L44.5552 34.9084H48.8085ZM61.4535 35.1836C64.8791 35.1836 66.6954 34.417 67.9369 32.4908L64.5802 30.9183C63.9365 31.8618 63.2238 32.2353 61.9823 32.2353C60.4879 32.2353 59.7752 31.5473 59.7752 30.1125V29.8766H67.9139V28.599C67.9139 24.2158 66.1666 22.5451 61.5684 22.5451C56.9703 22.5451 55.223 24.2355 55.223 28.599V29.3066C55.2 33.5325 56.9473 35.1836 61.4535 35.1836ZM63.6376 27.3017H59.7522V27.0069C59.7522 25.9652 60.4879 25.3165 61.7064 25.3165C62.9249 25.3165 63.6606 25.9455 63.6606 26.9676V27.3017H63.6376ZM74.6273 34.9084V28.599C74.6273 26.5745 75.0641 25.8865 76.3286 25.8865C77.5011 25.8865 77.9149 26.5941 77.9149 28.5007V34.9084H82.4441V28.0093C82.4441 26.4172 82.3292 25.5524 82.0303 24.8645C81.3636 23.351 79.7542 22.5451 77.4321 22.5451C75.7308 22.5451 74.7422 22.8399 73.8226 23.6065L73.4547 22.8203H70.0751V34.9084H74.6273ZM92.767 34.9084V31.8028H92.4911C90.5829 31.8225 89.9852 31.2525 90.0081 29.2869V25.8669H92.836V22.8203H90.0081V19.5968H85.7318L85.4559 22.8203H83.9615V25.8669H85.4559V28.8938C85.4559 33.9256 86.5595 34.9084 92.3072 34.9084H92.767ZM99.5033 35.1836C101.366 35.1836 102.331 34.8691 103.044 34.0043L103.665 34.9084H106.653V22.8203H102.124V29.1297C102.124 31.1542 101.756 31.8422 100.607 31.8422C99.5034 31.8422 99.0895 31.1346 99.0895 29.228V22.8006H94.5603V29.6997C94.5603 31.2525 94.6753 32.196 94.9742 32.8446C95.6179 34.3974 97.1583 35.1836 99.5033 35.1836ZM113.988 34.9084V29.1297C113.988 26.83 114.424 25.8865 115.505 25.8865C116.08 25.8865 116.609 26.1027 117.321 26.5941L119.298 23.4099C118.011 22.8203 117.045 22.5648 115.965 22.5648C115.022 22.5648 114.447 22.8006 113.482 23.4886L112.907 22.8399H109.458V34.9084H113.988ZM125.874 35.1836C129.3 35.1836 131.116 34.417 132.357 32.4908L129.001 30.9183C128.357 31.8618 127.644 32.2353 126.403 32.2353C124.908 32.2353 124.196 31.5473 124.196 30.1125V29.8766H132.334V28.599C132.334 24.2158 130.587 22.5451 125.989 22.5451C121.391 22.5451 119.643 24.2355 119.643 28.599V29.3066C119.643 33.5325 121.391 35.1836 125.874 35.1836ZM128.081 27.3017H124.196V27.0069C124.196 25.9652 124.931 25.3165 126.15 25.3165C127.368 25.3165 128.104 25.9455 128.104 26.9676V27.3017H128.081ZM139.921 35.1836C144.221 35.1836 146.129 33.9453 146.129 31.1739C146.129 28.4614 144.864 27.5769 140.565 27.2821C139.071 27.1838 138.726 27.0266 138.726 26.4959C138.726 25.9062 139.301 25.5524 140.266 25.5524C141.393 25.5524 141.967 25.8472 142.565 26.83L145.899 25.2379C144.772 23.4099 142.864 22.5648 139.99 22.5648C136.427 22.5648 134.472 24.0193 134.472 26.6531C134.472 29.2083 135.921 30.1321 140.404 30.3876C141.485 30.4663 141.853 30.6628 141.853 31.1739C141.853 31.8815 141.186 32.2353 139.737 32.2353C138.243 32.2353 137.737 31.9797 137.093 30.938L133.737 32.5104C134.725 34.3188 136.68 35.1836 139.921 35.1836Z" fill="#EBE6F0"/>
</svg>
