<svg width="257" height="89" viewBox="0 0 257 89" fill="none" xmlns="http://www.w3.org/2000/svg">
<g clip-path="url(#clip0_5367_17807)">
<path d="M112.785 64.5856H102.753V39.4741H112.785V64.5856Z" fill="#1D0928"/>
<path d="M107.773 37.543C106.375 37.543 105.036 36.9879 104.048 36C103.06 35.0121 102.505 33.6722 102.505 32.275V32.275C102.505 30.8779 103.06 29.5379 104.048 28.55C105.036 27.5621 106.375 27.0071 107.773 27.0071V27.0071C109.17 27.0071 110.51 27.5621 111.498 28.55C112.486 29.5379 113.041 30.8779 113.041 32.275V32.275C113.041 33.6722 112.486 35.0121 111.498 36C110.51 36.9879 109.17 37.543 107.773 37.543V37.543Z" fill="#1D0928"/>
<path d="M151.726 64.5856H117.975L135.191 39.2612H119.395V31.3096H151.755L134.588 56.6127H151.755L151.726 64.5856Z" fill="#1D0928"/>
<path d="M191.69 49.6764C191.764 52.1987 191.215 54.7003 190.093 56.9606C189.109 58.8795 187.656 60.5183 185.869 61.7244C184.135 62.8855 182.213 63.7382 180.189 64.2448C178.21 64.7528 176.176 65.0128 174.133 65.0187C171.331 65.027 168.549 64.5465 165.912 63.5988C163.255 62.6469 160.932 60.9452 159.224 58.7C157.425 56.395 156.528 53.3942 156.533 49.6976V31.3096H166.543V47.085C166.483 48.9439 166.807 50.7952 167.495 52.5233C168.019 53.8253 168.944 54.9267 170.136 55.6685C171.355 56.3534 172.735 56.6968 174.133 56.6624C175.502 56.6896 176.853 56.3488 178.045 55.6755C179.241 54.9496 180.17 53.8563 180.693 52.5588C181.38 50.8354 181.704 48.9889 181.644 47.1347V31.3096H191.676L191.69 49.6764Z" fill="#1D0928"/>
<path d="M238.264 64.5856H228.225V45.303L219.18 56.4636H218.385L209.312 45.303V64.5785H199.564V31.3096H208.666L218.889 43.7978L229.162 31.3096H238.264V64.5856Z" fill="#1D0928"/>
<path d="M256.744 64.5856H246.713V39.4741H256.744V64.5856Z" fill="#1D0928"/>
<path d="M251.725 37.543C251.033 37.543 250.348 37.4067 249.709 37.142C249.07 36.8772 248.489 36.4892 248 36C247.511 35.5108 247.123 34.9301 246.858 34.291C246.593 33.6518 246.457 32.9668 246.457 32.275V32.275C246.457 31.5832 246.593 30.8982 246.858 30.2591C247.123 29.6199 247.511 29.0392 248 28.55C248.489 28.0608 249.07 27.6728 249.709 27.4081C250.348 27.1433 251.033 27.0071 251.725 27.0071V27.0071C253.122 27.0071 254.462 27.5621 255.45 28.55C256.438 29.5379 256.993 30.8779 256.993 32.275V32.275C256.993 33.6722 256.438 35.0121 255.45 36C254.462 36.9879 253.122 37.543 251.725 37.543V37.543Z" fill="#1D0928"/>
<path d="M0.482788 40.2053L28.3986 0L42.4488 20.3689L28.1998 40.7449H0.766775C0.704476 40.7437 0.643622 40.7259 0.590573 40.6932C0.537525 40.6605 0.494226 40.6142 0.465206 40.5591C0.436186 40.5039 0.422507 40.442 0.4256 40.3798C0.428692 40.3175 0.448444 40.2573 0.482788 40.2053V40.2053Z" fill="#7E49FC"/>
<path d="M84.4077 40.2053L56.4919 0L42.4488 20.3689L56.6906 40.7449H84.1237C84.186 40.7437 84.2468 40.7259 84.2999 40.6932C84.3529 40.6605 84.3962 40.6142 84.4252 40.5591C84.4543 40.5039 84.4679 40.442 84.4648 40.3798C84.4618 40.3175 84.442 40.2573 84.4077 40.2053V40.2053Z" fill="#7E49FC"/>
<path d="M84.8904 46.0129C84.9631 51.6331 83.919 57.2118 81.8185 62.4252C79.718 67.6386 76.6031 72.383 72.6545 76.383C68.7059 80.383 64.0022 83.559 58.8164 85.7267C53.6306 87.8944 48.0659 89.0107 42.4452 89.0107C36.8246 89.0107 31.2599 87.8944 26.0741 85.7267C20.8883 83.559 16.1846 80.383 12.236 76.383C8.28734 72.383 5.17242 67.6386 3.07196 62.4252C0.971503 57.2118 -0.072678 51.6331 1.00638e-05 46.0129H26.9787C26.9346 48.07 27.3016 50.1152 28.0584 52.0286C28.8151 53.942 29.9463 55.685 31.3855 57.1554C32.8248 58.6259 34.5432 59.7941 36.4399 60.5917C38.3366 61.3893 40.3735 61.8001 42.431 61.8001C44.4886 61.8001 46.5255 61.3893 48.4222 60.5917C50.3189 59.7941 52.0373 58.6259 53.4765 57.1554C54.9158 55.685 56.0469 53.942 56.8037 52.0286C57.5604 50.1152 57.9275 48.07 57.8834 46.0129H84.8904Z" fill="#0066FF"/>
</g>
<defs>
<clipPath id="clip0_5367_17807">
<rect width="257" height="88.4687" fill="white"/>
</clipPath>
</defs>
</svg>
