<svg width="15" height="16" viewBox="0 0 15 16" fill="none" xmlns="http://www.w3.org/2000/svg">
<path d="M5.314 2.15232C5.38545 2.06139 5.52252 2.05942 5.59655 2.14825L7.17835 4.04641C7.23228 4.11113 7.23467 4.20443 7.18412 4.27182L5.14377 6.99233C5.10945 7.0381 5.05557 7.06504 4.99836 7.06504H1.828C1.67634 7.06504 1.59138 6.89024 1.68508 6.77098L5.314 2.15232Z" fill="white"/>
<path d="M9.22662 2.15232C9.15517 2.06139 9.0181 2.05942 8.94407 2.14825L7.36227 4.04641C7.30834 4.11113 7.30595 4.20443 7.35649 4.27182L9.39685 6.99233C9.43117 7.0381 9.48504 7.06504 9.54226 7.06504H12.7126C12.8643 7.06504 12.9492 6.89024 12.8555 6.77098L9.22662 2.15232Z" fill="white"/>
<path fill-rule="evenodd" clip-rule="evenodd" d="M1.63574 8.15552C1.53536 8.15552 1.45369 8.23733 1.45678 8.33767C1.55301 11.4656 4.11899 13.9718 7.27031 13.9718C10.4216 13.9718 12.9876 11.4656 13.0838 8.33767C13.0869 8.23733 13.0053 8.15552 12.9049 8.15552H9.63325C9.53287 8.15552 9.45228 8.23718 9.44403 8.33722C9.35169 9.4568 8.41378 10.3366 7.27037 10.3366C6.12697 10.3366 5.18906 9.4568 5.09671 8.33722C5.08846 8.23718 5.00787 8.15552 4.90749 8.15552H1.63574Z" fill="white"/>
</svg>
