<svg width="24" height="24" viewBox="0 0 24 24" fill="none" xmlns="http://www.w3.org/2000/svg">
<path d="M17 11.5C17 10.0166 16.5601 8.56659 15.736 7.33323C14.9119 6.09986 13.7406 5.13856 12.3701 4.57091C10.9997 4.00325 9.49168 3.85472 8.03682 4.14411C6.58197 4.4335 5.2456 5.14781 4.1967 6.1967C3.14781 7.2456 2.4335 8.58197 2.14411 10.0368C1.85472 11.4917 2.00325 12.9997 2.57091 14.3701C3.13856 15.7406 4.09986 16.9119 5.33323 17.736C6.56659 18.5601 8.01664 19 9.5 19" stroke="#F5F5F5" stroke-width="1.4"/>
<path d="M17.371 13.175L14.4167 20H12.8567L9.91223 13.175H11.6185L13.6952 18.05L15.8012 13.175H17.371Z" fill="#F5F5F5"/>
<path d="M19.8178 18.7832C20.109 18.7832 20.3656 18.7416 20.5874 18.6584C20.8162 18.5683 21.0277 18.4296 21.2218 18.2424L22.085 19.1784C21.5581 19.7816 20.7885 20.0832 19.7762 20.0832C19.1453 20.0832 18.5872 19.9619 18.1018 19.7192C17.6165 19.4696 17.2421 19.1264 16.9786 18.6896C16.7152 18.2528 16.5834 17.7571 16.5834 17.2024C16.5834 16.6547 16.7117 16.1624 16.9682 15.7256C17.2317 15.2819 17.5888 14.9387 18.0394 14.696C18.497 14.4464 19.0101 14.3216 19.5786 14.3216C20.1125 14.3216 20.5978 14.436 21.0346 14.6648C21.4714 14.8867 21.8181 15.2125 22.0746 15.6424C22.3381 16.0653 22.4698 16.568 22.4698 17.1504L18.3306 17.9512C18.4485 18.2285 18.6322 18.4365 18.8818 18.5752C19.1384 18.7139 19.4504 18.7832 19.8178 18.7832ZM19.5786 15.5488C19.1696 15.5488 18.8368 15.6805 18.5802 15.944C18.3237 16.2075 18.1885 16.5715 18.1746 17.036L20.8994 16.5056C20.8232 16.2144 20.6672 15.9821 20.4314 15.8088C20.1957 15.6355 19.9114 15.5488 19.5786 15.5488Z" fill="#F5F5F5"/>
</svg>
