<svg width="24" height="24" viewBox="0 0 24 24" fill="none" xmlns="http://www.w3.org/2000/svg">
<path d="M12.3841 3.34406L11.8891 3.83903L11.8891 3.83903L12.3841 3.34406ZM16.1973 8.14728C16.4707 8.42065 16.9139 8.42065 17.1873 8.14728C17.4607 7.87392 17.4607 7.4307 17.1873 7.15733L16.1973 8.14728ZM5.1562 9.51878L4.67489 9.01052L4.67489 9.01052L5.1562 9.51878ZM11.6867 3.33456L12.168 3.84283L12.168 3.84283L11.6867 3.33456ZM18.6231 17.1538C18.6231 16.7672 18.3097 16.4538 17.9231 16.4538C17.5365 16.4538 17.2231 16.7672 17.2231 17.1538H18.6231ZM11.8891 3.83903L16.1973 8.14728L17.1873 7.15733L12.879 2.84908L11.8891 3.83903ZM5.63752 10.0271L12.168 3.84283L11.2054 2.82629L4.67489 9.01052L5.63752 10.0271ZM5.7 18.5V9.88183H4.3V18.5H5.7ZM17.2231 17.1538V18.5H18.6231V17.1538H17.2231ZM17.4231 18.3H5.5V19.7H17.4231V18.3ZM17.2231 18.5C17.2231 18.3895 17.3126 18.3 17.4231 18.3V19.7C18.0858 19.7 18.6231 19.1627 18.6231 18.5H17.2231ZM4.3 18.5C4.3 19.1627 4.83726 19.7 5.5 19.7V18.3C5.61046 18.3 5.7 18.3895 5.7 18.5H4.3ZM4.67489 9.01052C4.43557 9.23715 4.3 9.55224 4.3 9.88183H5.7C5.7 9.93677 5.67741 9.98928 5.63752 10.0271L4.67489 9.01052ZM12.879 2.84908C12.4194 2.38945 11.6774 2.37935 11.2054 2.8263L12.168 3.84283C12.0894 3.91732 11.9657 3.91564 11.8891 3.83903L12.879 2.84908Z" fill="#2B1166"/>
<line x1="15.5461" y1="12.1461" x2="20.2999" y2="12.1461" stroke="#2B1166" stroke-width="1.4" stroke-linecap="round"/>
<line x1="17.8386" y1="14.6078" x2="17.8386" y2="9.85395" stroke="#2B1166" stroke-width="1.4" stroke-linecap="round"/>
</svg>
