<svg width="24" height="24" viewBox="0 0 24 24" fill="none" xmlns="http://www.w3.org/2000/svg">
<path d="M15.1999 8.71721L15.3802 8.84284H15.6H19.2C20.1869 8.84284 20.9 9.57677 20.9 10.3714V18.1714C20.9 18.9661 20.1869 19.7 19.2 19.7H4.80002C3.81312 19.7 3.10002 18.9661 3.10002 18.1714V7.02856C3.10002 6.23391 3.81312 5.49999 4.80002 5.49999H10.0013C10.3791 5.49999 10.7453 5.61478 11.0416 5.82039C11.0417 5.82049 11.0419 5.82059 11.042 5.82069L15.1999 8.71721Z" stroke="#2B1166" stroke-width="1.4"/>
<path d="M9.59998 12.823C9.59991 12.464 9.76377 12.1201 10.0547 11.8686C10.3456 11.6172 10.7392 11.4792 11.1469 11.4859C11.6298 11.4836 12.0907 11.664 12.4125 11.9811C12.7342 11.664 13.1951 11.4836 13.6781 11.4859C14.0857 11.4792 14.4793 11.6172 14.7702 11.8686C15.0612 12.1201 15.225 12.464 15.225 12.823C15.225 14.1491 13.4309 15.1505 12.4125 15.9428C11.3963 15.1438 9.59998 14.1501 9.59998 12.823Z" fill="#2B1166"/>
</svg>
