<svg width="12" height="11" viewBox="0 0 12 11" fill="none" xmlns="http://www.w3.org/2000/svg">
<path d="M2.5 0C2.01377 0 1.54745 0.167739 1.20364 0.466317C0.859821 0.764894 0.666667 1.16985 0.666667 1.59211V10.1316H0.5C0.367392 10.1316 0.240215 10.1773 0.146447 10.2588C0.0526784 10.3402 0 10.4506 0 10.5658C0 10.6809 0.0526784 10.7914 0.146447 10.8728C0.240215 10.9543 0.367392 11 0.5 11H9.5C9.63261 11 9.75979 10.9543 9.85355 10.8728C9.94732 10.7914 10 10.6809 10 10.5658C10 10.4506 9.94732 10.3402 9.85355 10.2588C9.75979 10.1773 9.63261 10.1316 9.5 10.1316H9.33333V9.08774C9.61234 9.21229 9.92353 9.27247 10.237 9.26249C10.5505 9.25251 10.8558 9.17272 11.1236 9.03076C11.3913 8.8888 11.6126 8.68946 11.766 8.45185C11.9195 8.21425 12.0001 7.94638 12 7.67395V4.29405C12 3.94957 11.8713 3.61438 11.6333 3.33879L10.9 2.48947C10.8204 2.39735 10.702 2.33644 10.5707 2.32015C10.4394 2.30387 10.3061 2.33354 10.2 2.40263C10.0939 2.47173 10.0238 2.57459 10.005 2.68859C9.98627 2.8026 10.0204 2.9184 10.1 3.01053L10.8333 3.85984C10.9413 3.98489 11 4.13774 11 4.29405V7.67395C11 7.7686 10.9785 7.86233 10.9368 7.94978C10.8951 8.03723 10.834 8.11669 10.7569 8.18362C10.6798 8.25055 10.5883 8.30365 10.4876 8.33987C10.3869 8.37609 10.279 8.39474 10.17 8.39474C10.061 8.39474 9.95307 8.37609 9.85237 8.33987C9.75167 8.30365 9.66017 8.25055 9.5831 8.18362C9.50603 8.11669 9.44489 8.03723 9.40318 7.94978C9.36147 7.86233 9.34 7.7686 9.34 7.67395V6.65789C9.33994 6.63443 9.33771 6.611 9.33333 6.58784V1.59211C9.33333 1.38303 9.28591 1.176 9.19378 0.982833C9.10165 0.78967 8.9666 0.614157 8.79636 0.466317C8.62612 0.318476 8.42402 0.201203 8.20159 0.121192C7.97916 0.041181 7.74076 0 7.5 0H2.5ZM2.66667 2.17105C2.66667 2.05589 2.71935 1.94545 2.81311 1.86402C2.90688 1.78259 3.03406 1.73684 3.16667 1.73684H6.83333C6.96594 1.73684 7.09312 1.78259 7.18689 1.86402C7.28065 1.94545 7.33333 2.05589 7.33333 2.17105V4.19737C7.33333 4.31253 7.28065 4.42297 7.18689 4.5044C7.09312 4.58583 6.96594 4.63158 6.83333 4.63158H3.16667C3.03406 4.63158 2.90688 4.58583 2.81311 4.5044C2.71935 4.42297 2.66667 4.31253 2.66667 4.19737V2.17105Z" fill="#2FC562"/>
</svg>
