<svg width="17" height="16" viewBox="0 0 17 16" fill="none" xmlns="http://www.w3.org/2000/svg">
<path d="M16.9927 3.93268L9.10714 7.21454V16C9.34651 15.9608 9.58123 15.8984 9.80778 15.8137L15.8331 13.5625C16.1766 13.434 16.4719 13.2075 16.6802 12.9128C16.8886 12.6181 17 12.269 17 11.9115V4.09777C17.0002 4.04263 16.9974 3.98752 16.9915 3.93268H16.9927ZM7.89285 16V7.21454L0.00849996 3.93268C0.00302778 3.98755 0.000191412 4.04264 0 4.09777V11.9115C4.87444e-05 12.2691 0.111705 12.6183 0.320245 12.9131C0.528784 13.2078 0.824412 13.4342 1.16814 13.5625L7.19221 15.8137C7.42049 15.8986 7.65485 15.9611 7.89285 16Z" fill="#0166FF"/>
<path d="M8.59658 6.42335L0 3.11339L6.26044 0.40753C7.48833 -0.123186 8.88778 -0.136072 10.1258 0.371939L16.8068 3.11339L8.59658 6.42335Z" fill="#7F4AFE"/>
</svg>
