<svg width="16" height="14" viewBox="0 0 16 14" fill="none" xmlns="http://www.w3.org/2000/svg">
<path d="M6.68775 0.211206C7.06094 0.0045657 7.49855 -0.0530674 7.91252 0.0499034C8.32649 0.152874 8.6861 0.408807 8.919 0.766206L8.98125 0.869706L14.8005 11.3765C14.9379 11.6248 15.0104 11.9037 15.0114 12.1875C15.0125 12.4712 14.9419 12.7507 14.8063 13C14.6706 13.2492 14.4743 13.4603 14.2355 13.6136C13.9967 13.7668 13.7231 13.8574 13.44 13.877L13.3245 13.8815H1.6875C1.40403 13.8815 1.12513 13.81 0.876536 13.6738C0.627946 13.5376 0.417678 13.3409 0.265142 13.102C0.112606 12.8631 0.0227174 12.5896 0.00377302 12.3067C-0.0151713 12.0239 0.0374391 11.7408 0.156748 11.4837L0.210748 11.3765L6.0285 0.869706C6.18189 0.592786 6.41008 0.364596 6.687 0.211206H6.68775ZM13.8165 11.921L7.9965 1.41496C7.95103 1.33309 7.88584 1.26388 7.80685 1.21359C7.72785 1.1633 7.63755 1.13353 7.54414 1.12697C7.45073 1.12042 7.35716 1.13729 7.27192 1.17605C7.18667 1.21482 7.11246 1.27425 7.056 1.34896L7.01325 1.41496L1.1955 11.921C1.15089 12.0013 1.12666 12.0914 1.12491 12.1833C1.12316 12.2751 1.14395 12.3661 1.18546 12.4481C1.22698 12.53 1.28795 12.6006 1.36305 12.6536C1.43815 12.7066 1.52508 12.7403 1.61625 12.752L1.6875 12.7565H13.3245C13.4163 12.7564 13.5068 12.7338 13.5879 12.6907C13.669 12.6477 13.7384 12.5854 13.7899 12.5093C13.8413 12.4333 13.8734 12.3457 13.8833 12.2544C13.8932 12.1631 13.8805 12.0708 13.8465 11.9855L13.8165 11.921L7.9965 1.41496L13.8165 11.921ZM7.50525 10.1262C7.60559 10.123 7.70554 10.1401 7.79917 10.1763C7.8928 10.2125 7.9782 10.2671 8.0503 10.337C8.1224 10.4068 8.17973 10.4904 8.21888 10.5829C8.25803 10.6753 8.2782 10.7747 8.2782 10.8751C8.2782 10.9755 8.25803 11.0748 8.21888 11.1673C8.17973 11.2597 8.1224 11.3433 8.0503 11.4132C7.9782 11.483 7.8928 11.5377 7.79917 11.5739C7.70554 11.6101 7.60559 11.6271 7.50525 11.624C7.31074 11.6178 7.12625 11.5362 6.99084 11.3964C6.85542 11.2567 6.7797 11.0697 6.7797 10.8751C6.7797 10.6805 6.85542 10.4935 6.99084 10.3537C7.12625 10.214 7.31074 10.1324 7.50525 10.1262ZM7.5015 4.49971C7.63744 4.49951 7.76886 4.54854 7.87144 4.63775C7.97402 4.72696 8.04083 4.8503 8.0595 4.98496L8.06475 5.06146L8.06775 8.43796C8.06942 8.58156 8.0161 8.72037 7.91871 8.82593C7.82132 8.93148 7.68725 8.99579 7.54397 9.00566C7.4007 9.01554 7.25907 8.97024 7.14812 8.87905C7.03717 8.78786 6.9653 8.65768 6.94725 8.51521L6.94275 8.43871L6.93975 5.06221C6.93975 4.91302 6.99901 4.76995 7.1045 4.66446C7.20999 4.55897 7.35306 4.49971 7.50225 4.49971H7.5015Z" fill="#DDBB25"/>
</svg>
