<?xml version="1.0" encoding="UTF-8"?>
<svg width="37px" height="36px" viewBox="0 0 37 36" version="1.1" xmlns="http://www.w3.org/2000/svg" xmlns:xlink="http://www.w3.org/1999/xlink">
    <title>home4/icon/BNB</title>
    <g id="light" stroke="none" stroke-width="1" fill="none" fill-rule="evenodd">
        <g id="home4/整体-light" transform="translate(-621.000000, -687.000000)">
            <g id="编组-15" transform="translate(440.000000, 161.000000)">
                <g id="编组-3" transform="translate(0.000000, 374.000000)">
                    <g id="编组-2" transform="translate(2.489106, 152.000000)">
                        <g id="home4/icon/BNB" transform="translate(179.000000, 0.000000)">
                            <path d="M36,18 C36,27.9412129 27.9412129,36 18,36 C8.05767327,36 0,27.9412129 0,18 C0,8.05878713 8.05767327,0 18,0 C27.9412129,0 36,8.05878713 36,18" id="Fill-1" fill="#F3BA30"></path>
                            <path d="M18.0317203,6.86559406 L17.849047,7.0549505 C16.338651,8.53081683 14.8304827,10.0066832 13.3212005,11.4825495 C12.7197153,12.1096535 12.1193441,12.7356436 11.5189728,13.3627475 C11.4187252,13.4329208 11.2416213,13.5788366 11.2416213,13.7681931 C11.2416213,13.9586634 11.4265223,14.0845297 11.5200866,14.1780941 C12.1928589,14.8430693 12.8778837,15.4946782 13.5372896,16.1719059 C13.783453,16.4258663 13.9627847,16.3868812 14.1833292,16.1652228 C15.1612995,15.1839109 16.1437252,14.2070545 17.1239233,13.2279703 C17.4536262,12.8993812 17.7866708,12.5730198 18.1119183,12.2388614 C18.3046163,12.0405941 18.4650124,12.0383663 18.6666213,12.2433168 C19.9408787,13.5320545 21.2229332,14.8107673 22.501646,16.0950495 C22.8491708,16.4459158 22.9505322,16.4693069 23.2902599,16.1106436 C23.948552,15.4155941 24.695953,14.812995 25.330854,14.0934406 C25.3854332,14.0310644 25.5023886,13.9074257 25.4945916,13.7459158 C25.4879084,13.5966584 25.3809777,13.4863861 25.3219431,13.4340347 C23.8371658,11.8902228 22.2978094,10.3363861 20.7038738,8.77809406 C20.0957054,8.18329208 19.488651,7.59740099 18.8827104,7.01930693 C18.8281312,6.96918317 18.7746658,6.91905941 18.7212005,6.86893564 C18.701151,6.84777228 18.5730569,6.71633663 18.3692203,6.71961561 C18.1754084,6.72190594 18.0551114,6.84220297 18.0317203,6.86559406" id="Fill-3" fill="#000000"></path>
                            <path d="M11.9228589,18.2500371 C11.9328837,18.4126609 11.8181559,18.5173639 11.8047896,18.5307302 C11.6599876,18.6900124 11.5140718,18.8492946 11.3692698,19.0074629 C11.3692698,19.0074629 10.4625866,19.9275124 9.63053218,20.7573391 C9.58486386,20.8030074 9.48238861,20.903255 9.35206683,20.8954579 C9.28746287,20.8921163 9.22063119,20.8598144 9.15602723,20.7963243 C8.37186881,20.0233045 7.59216584,19.2458292 6.81357673,18.468354 C6.68102723,18.3358045 6.7367203,18.211052 6.84810644,18.0974381 C7.61444307,17.3255322 8.37966584,16.5536262 9.14711634,15.7828342 C9.33758663,15.5923639 9.48795792,15.7004084 9.64167079,15.8530074 C10.0047896,16.2138985 10.3768193,16.5669926 10.7421658,16.9267698 C10.925953,17.1072153 10.893651,17.0737995 11.246745,17.4324629 C11.4706312,17.6608045 11.6633292,17.8601856 11.8181559,18.0228094 C11.8382054,18.041745 11.9150619,18.1230569 11.9228589,18.2500371" id="Fill-5" fill="#000000"></path>
                            <path d="M20.9686386,18.222302 C20.9775495,18.3849257 20.8639356,18.4896287 20.8494554,18.502995 L20.4150495,18.9797277 C20.4150495,18.9797277 19.5083663,19.8997772 18.675198,20.729604 C18.6306436,20.7752723 18.5270545,20.8755198 18.3978465,20.8677228 C18.3321287,20.8643812 18.265297,20.8320792 18.2006931,20.7685891 C17.4165347,19.9955693 16.6379455,19.2180941 15.8593564,18.4406188 C15.7256931,18.3080693 15.7813861,18.1833168 15.8938861,18.069703 C16.6602228,17.297797 17.4243317,16.5258911 18.192896,15.755099 C18.3833663,15.5646287 18.5337376,15.6726733 18.6863366,15.8252723 C19.0494554,16.1861634 19.422599,16.5392574 19.7879455,16.8990347 C19.9717327,17.0794802 19.9394307,17.0460644 20.2914109,17.4047277 C20.515297,17.6330693 20.7091089,17.8324505 20.8639356,17.9950743 C20.8839851,18.0140099 20.9608416,18.0953218 20.9686386,18.222302" id="Fill-7" fill="#000000"></path>
                            <path d="M18.0317203,29.6942946 L17.849047,29.5049381 C16.338651,28.0290718 14.8304827,26.5532054 13.3212005,25.0773391 C12.7197153,24.4502351 12.1193441,23.824245 11.5189728,23.1971411 C11.4187252,23.1269678 11.2416213,22.981052 11.2416213,22.7916955 C11.2416213,22.6012252 11.4265223,22.4753589 11.5200866,22.3817946 C12.1928589,21.7168193 12.8778837,21.0652104 13.5372896,20.3879827 C13.783453,20.1340223 13.9627847,20.1730074 14.1833292,20.3946658 C15.1612995,21.3759777 16.1437252,22.3528342 17.1239233,23.3319183 C17.4536262,23.6605074 17.7866708,23.9868688 18.1119183,24.3210272 C18.3046163,24.5192946 18.4650124,24.5215223 18.6666213,24.3165718 C19.9408787,23.0278342 21.2229332,21.7491213 22.501646,20.4648391 C22.8491708,20.1139728 22.9505322,20.0905817 23.2902599,20.449245 C23.948552,21.1442946 24.695953,21.7468936 25.330854,22.466448 C25.3854332,22.5288243 25.5023886,22.6524629 25.4945916,22.8139728 C25.4879084,22.9632302 25.3809777,23.0735025 25.3219431,23.125854 C23.8371658,24.6696658 22.2978094,26.2235025 20.7038738,27.7817946 C20.0957054,28.3765965 19.488651,28.9624876 18.8827104,29.5405817 C18.8281312,29.5907054 18.7746658,29.6408292 18.7212005,29.690953 C18.701151,29.7121163 18.5730569,29.843552 18.3692203,29.840273 C18.1754084,29.8379827 18.0551114,29.7176856 18.0317203,29.6942946" id="Fill-9" fill="#000000"></path>
                            <path d="M29.9763243,18.2517079 C29.986349,18.4143317 29.8716213,18.5190347 29.8571411,18.532401 C29.7123391,18.6916832 29.5675371,18.8509653 29.4227351,19.0091337 C29.4227351,19.0091337 28.516052,19.9291832 27.6839975,20.7590099 C27.6383292,20.8046782 27.5347401,20.9049257 27.4055322,20.8971287 C27.3398144,20.8937871 27.2740965,20.8614851 27.2094926,20.797995 C26.4253342,20.0249752 25.6456312,19.2475 24.8670421,18.4700248 C24.7344926,18.3363614 24.7890718,18.2127228 24.9015718,18.097995 C25.6679084,17.327203 26.4320173,16.5541832 27.2005817,15.784505 C27.391052,15.5940347 27.5414233,15.7020792 27.6951361,15.8546782 C28.058255,16.2155693 28.4302847,16.5686634 28.7956312,16.9284406 C28.9794183,17.1088861 28.9471163,17.0754703 29.3002104,17.4341337 C29.5229827,17.6613614 29.7167946,17.8618564 29.8716213,18.0244802 C29.8916708,18.0434158 29.9685272,18.1247277 29.9763243,18.2517079" id="Fill-11" fill="#000000"></path>
                        </g>
                    </g>
                </g>
            </g>
        </g>
    </g>
</svg>