<?xml version="1.0" encoding="UTF-8"?>
<svg width="37px" height="36px" viewBox="0 0 37 36" version="1.1" xmlns="http://www.w3.org/2000/svg" xmlns:xlink="http://www.w3.org/1999/xlink">
    <title>home4/icon/BSC</title>
    <g id="light" stroke="none" stroke-width="1" fill="none" fill-rule="evenodd">
        <g id="home4/整体-light" transform="translate(-442.000000, -569.000000)">
            <g id="编组-15" transform="translate(440.000000, 161.000000)">
                <g id="编组-3" transform="translate(0.000000, 374.000000)">
                    <g id="home4/icon/BSC" transform="translate(2.489106, 34.000000)">
                        <g id="heco" fill="#F3BA30">
                            <path d="M36,18.0005569 C36,27.9414622 27.9414622,36 18.0005569,36 C8.05965162,36 0,27.9414622 0,18.0005569 C0,8.05965162 8.05965162,0 18.0005569,0 C27.9414622,0 36,8.05965162 36,18.0005569" id="Fill-11"></path>
                        </g>
                        <path d="M18.0328641,6.86641502 C17.9716036,6.92990316 17.9103431,6.99227747 17.8490826,7.0557656 C16.3398472,8.53158628 14.8306117,10.0062931 13.32249,11.4832276 L11.5203181,13.3622536 C11.4200736,13.4335386 11.2429752,13.5794499 11.2429752,13.7688005 C11.2429752,13.958151 11.4278704,14.0851273 11.5214319,14.177575 C12.1930695,14.8436435 12.8791869,15.4952322 13.5374586,16.172439 C13.7847282,16.4263915 13.9640543,16.3862937 14.1834782,16.165756 C15.1614183,15.1844745 16.1438136,14.2076483 17.1250951,13.2285944 C17.4547879,12.9000155 17.7878222,12.5736642 18.1130596,12.2395161 C18.3057517,12.0412549 18.4650289,12.0379134 18.6677454,12.2428576 C19.9408496,13.5315553 21.2239782,14.8113425 22.5015377,16.0955849 C22.8501655,16.4453266 22.9515238,16.4698308 23.291241,16.1111785 C23.9495127,15.4161505 24.6968906,14.8135701 25.3306581,14.0929241 C25.3863494,14.0316636 25.5033013,13.9080288 25.4955045,13.7454101 C25.4888215,13.5961573 25.3818941,13.4858884 25.3217475,13.4346524 C23.8370162,11.8897745 22.2988212,10.3370997 20.7049349,8.77885585 C20.0967854,8.18407227 19.4886359,7.59708549 18.882714,7.01900931 C18.8292503,6.9688871 18.7757866,6.91987872 18.7223229,6.86975651 C18.7011602,6.84747997 18.5730701,6.71716222 18.3692398,6.72044056 C18.1754339,6.72273135 18.0551406,6.84302466 18.0328641,6.86641502" id="Fill-13" fill="#FFFFFF"></path>
                        <path d="M11.9241917,18.2499489 C11.9331023,18.4125677 11.819492,18.5183812 11.8050122,18.5306333 C11.6602147,18.6899106 11.5154172,18.8491878 11.3706197,19.0084651 C11.3706197,19.0084651 10.4639646,19.9273723 9.63193589,20.7571734 C9.58626899,20.8028403 9.48268309,20.9041985 9.35347916,20.8952879 C9.28776337,20.8919464 9.22204759,20.8607593 9.1563318,20.7961573 C8.37219764,20.0231614 7.59363262,19.2457102 6.8150676,18.468259 C6.68140837,18.3357136 6.73709972,18.210965 6.84959624,18.0973547 C7.61590916,17.3254726 8.37999443,16.5535905 9.14853501,15.7839361 C9.33899941,15.5923579 9.48936605,15.7003991 9.64307416,15.8529934 C10.0061817,16.2149872 10.3781999,16.5669565 10.7435352,16.9267226 C10.9273166,17.1071625 10.8950156,17.0748615 11.2469849,17.4324 C11.4708641,17.6607345 11.66467,17.8601095 11.819492,18.0227283 C11.8395409,18.0427771 11.9163949,18.1229727 11.9241917,18.2499489" id="Fill-15" fill="#FFFFFF"></path>
                        <path d="M20.9691346,18.2222147 C20.9780452,18.3848334 20.8644349,18.4906469 20.8499551,18.502899 C20.7051576,18.6621763 20.5603601,18.8214535 20.4155626,18.9807308 C20.4155626,18.9807308 19.5089075,19.899638 18.6768788,20.7294391 C18.6312119,20.775106 18.527626,20.8764642 18.3984221,20.8675536 C18.3327063,20.8642121 18.2669905,20.833025 18.2012747,20.768423 C17.4171406,19.9954271 16.6385755,19.2179759 15.8600105,18.4405247 C15.7263513,18.3079793 15.7820426,18.1832307 15.8945392,18.0696204 C16.6608521,17.2977383 17.4249373,16.5258563 18.1934779,15.7562019 C18.3839423,15.5646236 18.534309,15.6726648 18.6880171,15.8252591 C19.0511247,16.1872529 19.4231428,16.5392222 19.7884781,16.8989883 C19.9722595,17.0794282 19.9399585,17.0471273 20.2919278,17.4046657 C20.5158071,17.6330002 20.7096129,17.8323752 20.8644349,17.994994 C20.8844838,18.0150429 20.9613378,18.0952384 20.9691346,18.2222147" id="Fill-17" fill="#FFFFFF"></path>
                        <path d="M18.0328641,29.6939637 C17.9716036,29.6304755 17.9103431,29.5681012 17.8490826,29.5046131 C16.3398472,28.0287924 14.8306117,26.5529718 13.32249,25.0771511 C12.7210235,24.4511803 12.1206708,23.8240958 11.5203181,23.1970112 C11.4200736,23.1268401 11.2429752,22.9809288 11.2429752,22.7915782 C11.2429752,22.6022277 11.4278704,22.4752514 11.5214319,22.3816899 C12.1930695,21.7167352 12.8791869,21.0651465 13.5374586,20.3879397 C13.7847282,20.1339872 13.9640543,20.174085 14.1834782,20.3946227 C15.1614183,21.3759042 16.1438136,22.3527304 17.1250951,23.3317843 C17.4547879,23.6603632 17.7878222,23.9867145 18.1130596,24.3208626 C18.3057517,24.5191238 18.4650289,24.5224653 18.6677454,24.3164073 C19.9408496,23.0288234 21.2239782,21.7490362 22.5015377,20.4647938 C22.8501655,20.1139383 22.9515238,20.0905479 23.291241,20.4492002 C23.9495127,21.1442282 24.6968906,21.7468086 25.3306581,22.4663408 C25.3863494,22.5287151 25.5033013,22.6523499 25.4955045,22.8149686 C25.4888215,22.9642214 25.3818941,23.0733764 25.3217475,23.1257263 C23.8370162,24.6694904 22.2988212,26.223279 20.7049349,27.7815228 C20.0967854,28.3763064 19.4886359,28.9621794 18.882714,29.5413694 C18.8292503,29.5903778 18.7757866,29.6405 18.7223229,29.6906222 C18.7011602,29.7128987 18.5730701,29.8432165 18.3692398,29.8399381 C18.1754339,29.8376474 18.0551406,29.717354 18.0328641,29.6939637" id="Fill-19" fill="#FFFFFF"></path>
                        <path d="M29.9765416,18.2516197 C29.986566,18.4142384 29.8729557,18.5189382 29.8573621,18.5323041 C29.7125646,18.6915813 29.5677671,18.8508586 29.4229696,19.0101358 C29.4229696,19.0101358 28.5163145,19.929043 27.6842858,20.7588441 C27.6386189,20.804511 27.535033,20.9058692 27.405829,20.8969586 C27.3401132,20.8936172 27.2743975,20.8613162 27.2086817,20.797828 C26.4256613,20.0248322 25.6470963,19.247381 24.8685313,18.4699298 C24.7348721,18.3373844 24.7894496,18.2126357 24.9030599,18.0990254 C25.668259,17.3271433 26.4334581,16.5552613 27.2008849,15.7856069 C27.3913493,15.5940287 27.5428297,15.7020699 27.695424,15.8546642 C28.0585316,16.2166579 28.4305498,16.5686272 28.7969989,16.9283933 C28.9807803,17.1088333 28.9484793,17.0765323 29.2993348,17.4340707 C29.523214,17.6624052 29.7170199,17.8617803 29.8718418,18.024399 C29.8918907,18.0433341 29.9698586,18.1246434 29.9765416,18.2516197" id="Fill-21" fill="#FFFFFF"></path>
                    </g>
                </g>
            </g>
        </g>
    </g>
</svg>