<svg width="16" height="16" viewBox="0 0 16 16" fill="none" xmlns="http://www.w3.org/2000/svg">
<path fill-rule="evenodd" clip-rule="evenodd" d="M0 7.9476C0 5.83977 0.837334 3.81826 2.3278 2.3278C3.81826 0.837334 5.83977 0 7.9476 0C10.0554 0 12.0769 0.837334 13.5674 2.3278C15.0579 3.81826 15.8952 5.83977 15.8952 7.9476C15.8952 10.0554 15.0579 12.0769 13.5674 13.5674C12.0769 15.0579 10.0554 15.8952 7.9476 15.8952C5.83977 15.8952 3.81826 15.0579 2.3278 13.5674C0.837334 12.0769 0 10.0554 0 7.9476ZM7.9476 1.14C6.14211 1.14 4.41057 1.85723 3.1339 3.1339C1.85723 4.41057 1.14 6.14211 1.14 7.9476C1.14 9.75309 1.85723 11.4846 3.1339 12.7613C4.41057 14.038 6.14211 14.7552 7.9476 14.7552C9.75309 14.7552 11.4846 14.038 12.7613 12.7613C14.038 11.4846 14.7552 9.75309 14.7552 7.9476C14.7552 6.14211 14.038 4.41057 12.7613 3.1339C11.4846 1.85723 9.75309 1.14 7.9476 1.14ZM10.7724 5.124C10.8849 5.23652 10.9481 5.3891 10.9481 5.5482C10.9481 5.7073 10.8849 5.85988 10.7724 5.9724L8.796 7.9476L10.7724 9.9228C10.8851 10.0355 10.9484 10.1883 10.9484 10.3476C10.9484 10.5069 10.8851 10.6597 10.7724 10.7724C10.6597 10.8851 10.5069 10.9484 10.3476 10.9484C10.1883 10.9484 10.0355 10.8851 9.9228 10.7724L7.9476 8.796L5.9724 10.7724C5.91662 10.8282 5.85039 10.8724 5.7775 10.9026C5.70461 10.9328 5.62649 10.9484 5.5476 10.9484C5.46871 10.9484 5.39059 10.9328 5.3177 10.9026C5.24481 10.8724 5.17859 10.8282 5.1228 10.7724C5.06701 10.7166 5.02276 10.6504 4.99257 10.5775C4.96238 10.5046 4.94684 10.4265 4.94684 10.3476C4.94684 10.2687 4.96238 10.1906 4.99257 10.1177C5.02276 10.0448 5.06701 9.97859 5.1228 9.9228L7.0992 7.9476L5.1228 5.9724C5.01014 5.85974 4.94684 5.70693 4.94684 5.5476C4.94684 5.38827 5.01014 5.23546 5.1228 5.1228C5.23546 5.01014 5.38827 4.94684 5.5476 4.94684C5.70693 4.94684 5.85974 5.01014 5.9724 5.1228L7.9476 7.0992L9.9228 5.1228C9.97854 5.06692 10.0447 5.02259 10.1176 4.99234C10.1905 4.9621 10.2687 4.94653 10.3476 4.94653C10.4265 4.94653 10.5047 4.9621 10.5776 4.99234C10.6505 5.02259 10.7167 5.06692 10.7724 5.1228V5.124Z" fill="#E15A5A"/>
</svg>
