<?xml version="1.0" encoding="UTF-8"?>
<svg width="37px" height="36px" viewBox="0 0 37 36" version="1.1" xmlns="http://www.w3.org/2000/svg" xmlns:xlink="http://www.w3.org/1999/xlink">
    <title>home4/icon/ETH</title>
    <g id="light" stroke="none" stroke-width="1" fill="none" fill-rule="evenodd">
        <g id="home4/整体-light" transform="translate(-531.000000, -687.000000)">
            <g id="编组-15" transform="translate(440.000000, 161.000000)">
                <g id="编组-3" transform="translate(0.000000, 374.000000)">
                    <g id="编组-2" transform="translate(2.489106, 152.000000)">
                        <g id="home4/icon/ETH" transform="translate(89.000000, 0.000000)">
                            <path d="M18,36 C8.05878713,36 0,27.9414622 0,18.0005569 C0,8.05965162 8.05878713,0 18,0 C27.9412129,0 36,8.05965162 36,18.0005569 C36,27.9414622 27.9412129,36 18,36 Z" id="Fill-13" fill="#FFFFFF"></path>
                            <path d="M18.2674381,6.01298846 C18.4512252,5.82586554 18.4478837,6.07424894 18.4801856,6.12659881 C19.0649629,7.077807 19.6441708,8.03124285 20.2100124,8.99358931 C20.671151,9.77772346 21.1111262,10.5796788 21.5945421,11.3437641 C22.7384777,13.1470499 23.8189233,14.987092 24.9038243,16.8237926 C25.1611262,17.2604127 25.4963985,17.6524798 25.6890965,18.1258563 C25.5342698,18.2984994 25.3593936,18.2216454 25.1945421,18.1570434 C24.4148391,17.8529687 23.6640965,17.4798366 22.9011015,17.1345503 C21.5722649,16.5330838 20.2478837,15.9204789 18.9157054,15.3234677 C18.6650866,15.212085 18.4189233,15.0917917 18.2529579,14.8567742 C18.2451609,14.813335 18.2418193,14.7721234 18.2407054,14.7286841 C18.2351361,12.2359395 18.23625,9.74542248 18.2418193,7.25490548 C18.2418193,6.84056186 18.1293193,6.42399059 18.2674381,6.01298846" id="Fill-15" fill="#515151"></path>
                            <path d="M18.2674381,6.01298846 C18.3687995,6.16446892 18.3364975,6.33711209 18.3364975,6.50195848 C18.3398391,9.26870456 18.340953,12.0354506 18.3431807,14.8010829 C18.2952847,14.8311562 18.2629827,14.8200179 18.244047,14.7665543 C18.2295668,12.2381671 18.244047,9.70866619 18.2384777,7.67259058 L18.2384777,14.6986108 C18.2774629,14.9024411 18.2072896,15.0338727 18.0079084,15.1240927 C15.8303094,16.1042604 13.6660767,17.1178429 11.4806807,18.0801894 C11.3247401,18.1492466 11.1520916,18.2762229 11.0028342,18.0590266 C11.2957797,17.3851614 11.7223886,16.7870363 12.0977599,16.1599517 C14.0592698,12.8853006 16.034146,9.61956004 18.0056807,6.35047802 C18.0791955,6.22907088 18.1360025,6.09095634 18.2674381,6.01298846" id="Fill-17" fill="#A4A4A4"></path>
                            <path d="M18.2740099,14.8076545 C18.297401,14.8076545 18.3196782,14.8054268 18.3430693,14.8009715 C18.3441832,14.829931 18.3464109,14.8566629 18.3475248,14.8845085 C18.497896,15.0326475 18.5201733,15.2219981 18.5201733,15.415804 C18.5290842,17.6234089 18.5279703,19.8299001 18.522401,22.037505 C18.5212871,22.2079205 18.482302,22.3694255 18.4299505,22.5298165 C18.3029703,22.6567928 18.1882426,22.5765973 18.0746287,22.5086538 C15.7321782,21.1230531 13.3897277,19.7363386 11.0461634,18.3529656 C10.8935644,18.2638594 10.8,18.189233 11.0027228,18.0589153 C11.5095297,17.9419634 11.9539604,17.6735311 12.4217822,17.4630179 C14.312005,16.6142817 16.1966584,15.7521797 18.0813119,14.8934191 C18.1247525,14.8744841 18.1637376,14.8444108 18.2049505,14.8199066 C18.217203,14.7564184 18.2405941,14.7519631 18.2740099,14.8076545" id="Fill-19" fill="#575757"></path>
                            <path d="M18.429505,22.5294824 C18.340396,22.4180997 18.3448147,22.2844405 18.3448147,22.1518951 L18.3481931,14.8852882 C19.0276485,15.1815662 19.7093317,15.4711612 20.3854455,15.7763497 C21.507104,16.2842548 22.6220792,16.8055258 23.7437376,17.3134309 C24.3830941,17.6041397 25.0012871,17.9494261 25.6896535,18.1265246 C25.5827228,18.2568423 25.4067327,18.4383961 25.1416337,18.5809659 C25.0046287,18.6555923 24.3842079,19.0387488 24.2137871,19.1423347 C23.5298762,19.5399709 22.760198,19.9298103 22.0885396,20.3430401 C21.402401,20.7640667 20.7162624,21.1906624 20.0156436,21.586071 C19.4787624,21.8901457 18.9942327,22.2755298 18.429505,22.5294824" id="Fill-21" fill="#313131"></path>
                            <path d="M18.2751238,29.9574828 C18.1102723,30.0231985 18.0668317,29.878401 18.0022277,29.7892949 C15.6865099,26.5291235 13.3730198,23.2678382 11.0595297,20.006553 C11.0216584,19.9519755 10.9615099,19.8996256 10.9904703,19.8172024 C11.0673267,19.7670802 11.1308168,19.8149748 11.1909653,19.8495034 C13.5044554,21.2217382 15.8168317,22.5950868 18.1292079,23.9673216 C18.2016089,24.0909563 18.1637376,24.2257294 18.1637376,24.3549333 C18.1670792,26.0334705 18.1648515,27.7108938 18.1659653,29.3348535 C18.1748762,29.4373256 18.2417079,29.3782928 18.1960396,29.3927725 C18.1748762,29.3994555 18.1637376,29.3938863 18.1637376,29.3771789 C18.1681931,27.6719099 18.1637376,25.9666409 18.1693069,24.2613719 C18.1693069,24.1778348 18.1024752,24.028582 18.2929455,24.0363788 C18.4522277,24.1355094 18.4433168,24.3025835 18.4444307,24.4551777 C18.457797,26.0267875 18.457797,27.5995112 18.4455446,29.1711209 C18.4433168,29.3727236 18.385396,29.5665295 18.3608911,29.7647907 C18.3441832,29.833848 18.3196782,29.9006776 18.2751238,29.9574828" id="Fill-23" fill="#A4A4A4"></path>
                            <path d="M18.278354,29.802438 C18.2761262,27.8810866 18.2727847,25.9586213 18.2694431,24.0372699 C18.2304579,24.0027413 18.2371411,23.98492 18.2894926,23.9838062 C20.6453094,22.5937502 23.0011262,21.2036942 25.3558292,19.8136382 C25.4883787,19.9539804 25.3925866,20.0497695 25.3279827,20.1399895 C23.9902351,22.0279261 22.6536015,23.9136351 21.3125124,25.7982303 C20.4459282,27.0156431 19.5748886,28.2274868 18.7071906,29.4426719 C18.511151,29.4994771 18.503354,29.7790477 18.278354,29.802438" id="Fill-25" fill="#515151"></path>
                            <path d="M18.278354,29.802438 C18.4164728,29.6776894 18.4732797,29.454924 18.7071906,29.4426719 C18.5802104,29.628681 18.5022401,29.8559017 18.2750124,29.95726 L18.278354,29.802438 Z" id="Fill-29" fill="#3C3C3C"></path>
                            <path d="M18.2740099,14.8076545 C18.2506188,14.8143374 18.2283416,14.8187927 18.2049505,14.8199066 L18.2049505,6.65332756 C18.2272277,6.65332756 18.2506188,6.65332756 18.2740099,6.65332756 L18.2740099,14.8076545 Z" id="Fill-31" fill="#B1B1B1"></path>
                        </g>
                    </g>
                </g>
            </g>
        </g>
    </g>
</svg>