<?xml version="1.0" encoding="UTF-8"?>
<svg width="37px" height="36px" viewBox="0 0 37 36" version="1.1" xmlns="http://www.w3.org/2000/svg" xmlns:xlink="http://www.w3.org/1999/xlink">
    <title>home4/icon/fantom</title>
    <g id="light" stroke="none" stroke-width="1" fill="none" fill-rule="evenodd">
        <g id="home4/整体-light" transform="translate(-621.000000, -569.000000)">
            <g id="编组-15" transform="translate(440.000000, 161.000000)">
                <g id="编组-3" transform="translate(0.000000, 374.000000)">
                    <g id="编组" transform="translate(2.489106, 34.000000)">
                        <g id="home4/icon/fantom" transform="translate(179.000000, 0.000000)">
                            <path d="M36,18 C36,27.9412129 27.9414622,36 17.9994431,36 C8.05853779,36 0,27.9412129 0,18 C0,8.05878713 8.05853779,0 17.9994431,0 C27.9414622,0 36,8.05878713 36,18" id="Fill-27" fill="#1868FF"></path>
                            <path d="M11.1456205,14.4648267 L11.142279,14.4648267 C11.142279,15.2077723 11.1445067,15.949604 11.1411652,16.6925495 C11.1389375,16.9955198 11.2013118,17.1659406 11.5521673,16.9799257 C13.0157359,16.2046782 14.482646,15.4383416 15.949556,14.6708911 C16.2380372,14.5205198 16.2480616,14.3835149 15.9528975,14.229802 C14.508264,13.4768317 13.0614028,12.7249752 11.6201108,11.9630941 C11.206881,11.7447772 11.1367099,11.9352475 11.142279,12.3039356 C11.1545311,13.0234901 11.1456205,13.7441584 11.1456205,14.4648267 L11.1456205,14.4648267 Z M24.3433557,14.4514604 L24.3489248,14.4514604 C24.3489248,13.7096287 24.3422419,12.9655693 24.3511525,12.2237376 C24.3556078,11.8583911 24.2531357,11.7369802 23.8933696,11.9285644 C22.4465085,12.6960149 20.995192,13.4556683 19.540534,14.2108663 C19.2375731,14.3690347 19.1685158,14.5004703 19.5193713,14.6842574 C20.9706878,15.4416832 22.4220043,16.2035644 23.8710931,16.9676733 C24.2052412,17.1447772 24.3500387,17.0656931 24.3466972,16.680297 C24.3377866,15.9373515 24.3433557,15.1944059 24.3433557,14.4514604 L24.3433557,14.4514604 Z M17.2293432,18.3755941 C17.2293432,17.5435396 17.2382538,16.7114851 17.2248878,15.8794307 C17.2193187,15.4918069 17.0979116,15.1966337 16.6234213,15.4439109 C14.971616,16.3071535 13.3231521,17.1793069 11.6713468,18.0414356 C11.2659138,18.2530693 11.3973454,18.3822772 11.7092169,18.5426733 C13.3599084,19.3992327 15.0150552,20.2535644 16.6534946,21.1346287 C17.1736518,21.4142079 17.2427091,21.1947772 17.2349123,20.7403218 C17.2215464,19.9528218 17.2315708,19.1642079 17.2293432,18.3755941 L17.2293432,18.3755941 Z M18.2384703,18.3533168 L18.2351289,18.3533168 C18.2351289,19.1408168 18.247381,19.927203 18.2295597,20.714703 C18.2195353,21.2103713 18.2997308,21.4097525 18.8443922,21.1168069 C20.4583274,20.2435396 22.095653,19.412599 23.7218403,18.560495 C23.8499304,18.4925495 24.0526469,18.4713861 24.0593298,18.2909406 C24.0660128,18.1038119 23.8566133,18.0826485 23.7329786,18.0169307 C22.1368646,17.1770792 20.5418644,16.3394554 18.9390675,15.5129703 C18.4411868,15.2567822 18.2574054,15.3648267 18.2440395,15.9273267 C18.2239906,16.7359901 18.2384703,17.5446535 18.2384703,18.3533168 L18.2384703,18.3533168 Z M24.2509081,10.6320297 C22.2928003,9.60282178 20.4850592,8.68054455 18.7085053,7.70368812 C17.9889731,7.30715347 17.36523,7.35839109 16.6713159,7.73933168 C15.3681384,8.45665842 14.0337737,9.11606436 12.7216856,9.81668317 C12.2716995,10.0572772 11.7816157,10.252203 11.4185081,10.6899505 C11.5232078,10.7645792 11.6034034,10.8369802 11.6947372,10.8848762 C13.4790879,11.8182921 15.2645525,12.7450248 17.0466755,13.6817822 C17.5679465,13.9546782 18.0558027,13.8755941 18.5481142,13.6138366 C19.605136,13.0513366 20.6632716,12.4932921 21.7236348,11.9385891 C22.5133381,11.5253465 23.3063828,11.119901 24.2509081,10.6320297 L24.2509081,10.6320297 Z M11.1122057,22.8555446 C11.1122057,23.7533168 11.1355961,24.652203 11.1021812,25.5499752 C11.0832462,26.0389604 11.2792797,26.3096287 11.7003063,26.524604 C13.4155998,27.4023267 15.1219826,28.300099 16.8272516,29.2012129 C17.3429535,29.4741089 17.8374927,29.545396 18.3810402,29.2613614 C20.1999196,28.3101238 22.0277095,27.3722525 23.8577272,26.4410644 C24.1874199,26.2739851 24.3522663,26.0590099 24.350061,25.6758416 C24.3389004,23.7700248 24.3400142,21.8630941 24.347811,19.9572772 C24.3489248,19.5161881 24.2052412,19.4014604 23.800922,19.6164356 C22.1001083,20.5186634 20.4004084,21.4208911 18.6884564,22.3030693 C18.0635995,22.6260891 17.3707992,22.6238614 16.7637635,22.3186634 C15.0841125,21.4765842 13.4389901,20.5676733 11.7738189,19.6910644 C11.1879459,19.3825248 11.1188886,19.4270792 11.1133195,20.0942822 C11.1055227,21.0143317 11.1110919,21.935495 11.1122057,22.8555446 L11.1122057,22.8555446 Z M25.3591659,18.4268317 C25.3591659,20.8160644 25.3380032,23.205297 25.3691903,25.5945297 C25.3792148,26.4499752 25.0394975,26.9779455 24.2798676,27.3566584 C22.5189072,28.2343812 20.7768819,29.152203 19.0415396,30.0789356 C18.1549333,30.5512129 17.3307014,30.5634653 16.4273878,30.0767079 C14.6151914,29.1009653 12.7606695,28.2020792 10.936221,27.2497277 C10.3358683,26.9378465 10.1053061,26.3864851 10.1075338,25.720396 C10.1153306,23.792302 10.1175582,21.8630941 10.1175582,19.9338861 C10.1164444,17.0411881 10.1298103,14.1473762 10.0975094,11.2546782 C10.0885987,10.4270792 10.396015,9.89799505 11.1322546,9.53042079 C12.5880264,8.80529703 14.0727576,8.11915842 15.4416509,7.25480198 C16.3572167,6.67782178 17.2360261,6.35814356 18.3086414,6.45839109 C18.652814,6.48957921 18.852189,6.6889604 19.1128245,6.81928218 C20.9528666,7.73933168 22.7271928,8.7830198 24.5961944,9.6484901 C25.1898642,9.9225 25.3625073,10.4916832 25.3591659,11.127698 C25.3502553,13.5614851 25.3558244,15.9941584 25.3558244,18.4268317 L25.3591659,18.4268317 Z" id="Fill-29" fill="#FFFFFF"></path>
                            <path d="M27.2591318,10.2540965 C27.2557904,10.2919678 27.2658148,10.5036015 27.2279447,10.6484035 C27.1900746,10.7920916 27.0976269,11.0516213 26.8225117,11.0627599 C26.5440549,11.0738985 26.3235172,10.9513738 26.2878748,10.6873886 C26.1720368,9.84976485 25.7788559,9.22043317 25.0169982,8.83503713 C24.9846973,8.81832921 24.9045017,8.76820545 24.8532657,8.67241337 C24.7686148,8.51090347 24.8075988,8.28924505 24.9178676,8.13998762 C25.0092014,8.01746287 25.1317224,7.96845297 25.1829584,7.95063119 C25.1829584,7.95063119 25.2921135,7.90384901 25.4179759,7.92501238 C26.0873859,8.03862624 27.3081402,9.5857797 27.2591318,10.2540965" id="Fill-31" fill="#FFFFFF"></path>
                            <path d="M8.23385415,26.4562129 C8.26392748,26.2445792 8.13695121,25.9271287 8.55686396,25.8981683 C8.92108536,25.8725495 9.15053371,26.0229208 9.20845271,26.382698 C9.32540454,27.1133911 9.64061756,27.6859158 10.3534668,28.0044802 C10.7020946,28.1581931 10.6575415,28.4333168 10.4659633,28.7073267 C10.2743851,28.9824505 10.088376,29.0359158 9.77204913,28.8298515 C8.7985644,28.1916089 8.22939884,27.3606683 8.23385415,26.4562129" id="Fill-33" fill="#FFFFFF"></path>
                        </g>
                    </g>
                </g>
            </g>
        </g>
    </g>
</svg>