<?xml version="1.0" encoding="UTF-8"?>
<svg width="47px" height="46px" viewBox="0 0 47 46" version="1.1" xmlns="http://www.w3.org/2000/svg" xmlns:xlink="http://www.w3.org/1999/xlink">
    <title>home2/icon/for1-ligth</title>
    <g id="light" stroke="none" stroke-width="1" fill="none" fill-rule="evenodd">
        <g id="1.home2-light" transform="translate(-943.000000, -442.000000)">
            <g id="编组-5" transform="translate(459.000000, 187.000000)">
                <g id="编组-2" transform="translate(75.000000, 78.000000)">
                    <g id="home2/icon/for1-ligth" transform="translate(409.843230, 177.000000)">
                        <circle id="椭圆形" fill="#D8D8D8" cx="23" cy="23" r="23"></circle>
                        <path d="M23.1568367,6 C24.8663156,6 26.4245819,7.01713897 27.1649645,8.61647655 C27.905347,10.215765 27.6968139,12.1140933 26.6283304,13.499255 L34.0389777,26.8214794 C36.4223757,26.4443114 38.6610985,28.1069774 39.0863601,30.5700006 C39.5115744,33.0330237 37.9682778,35.3990383 35.60705,35.9041415 C33.2458697,36.4092446 30.9268507,34.8694987 30.3790841,32.4327804 L15.9345893,32.4327804 C15.3866807,34.8694987 13.0678038,36.4092446 10.7066234,35.9041415 C8.34539569,35.3990383 6.80209905,33.0330237 7.22712383,30.5700006 C7.65238548,28.1069774 9.8912978,26.4443114 12.2745063,26.8214794 L19.6851536,13.499255 C18.6168596,12.1140933 18.4083264,10.215765 19.148709,8.61647655 C19.8890916,7.01713897 21.4471684,6 23.1568367,6 Z M13.3546434,30.3349282 C12.9962242,29.680551 12.3272791,29.2757014 11.6020557,29.2739259 C10.8766428,29.2722105 10.2062292,29.6740116 9.84482552,30.3268155 C9.4836113,30.9796686 9.48711686,31.7832708 9.85392101,32.4327804 C10.4158993,33.4274988 11.646112,33.7651356 12.6081498,33.1885913 C13.5704245,32.6119979 13.9038785,31.3372676 13.3546434,30.3349282 Z M35.7199384,29.567022 C35.0941022,29.1863631 34.3198957,29.1827247 33.6908856,29.5578276 C33.0621123,29.9327338 32.6747959,30.6287564 32.6764486,31.3814697 C32.678112,32.1343305 33.0682233,32.8284355 33.6986546,33.20049 C34.6644349,33.7705441 35.8926106,33.4244012 36.4480989,32.4258969 C37.0036345,31.4271468 36.6783285,30.1503515 35.7199384,29.567022 Z M24.6435234,14.9660355 C24.1661048,15.1416146 23.6632946,15.2311004 23.1568367,15.2305104 C22.6353618,15.2305104 22.1348255,15.1381236 21.6707185,14.9660355 L14.4913905,27.8721018 C15.1050046,28.415261 15.5644691,29.121658 15.8206115,29.91523 L30.493062,29.91523 C30.7502939,29.1221988 31.2095689,28.4161951 31.8220935,27.8721018 L24.6427654,14.9660355 L24.6435234,14.9660355 Z M23.1568367,8.51735381 C22.4345978,8.51735381 21.7675003,8.91723737 21.406286,9.56640283 C21.0452613,10.2153716 21.0452613,11.0151387 21.406286,11.6641075 C21.7675003,12.313273 22.4345978,12.7131566 23.1568367,12.7131566 C24.2730242,12.7131566 25.177931,11.7738014 25.177931,10.6152552 C25.177931,9.45656146 24.2730242,8.51735381 23.1568367,8.51735381 Z" id="Fill-1" fill="#FFFFFF"></path>
                    </g>
                </g>
            </g>
        </g>
    </g>
</svg>