<?xml version="1.0" encoding="UTF-8"?>
<svg width="47px" height="46px" viewBox="0 0 47 46" version="1.1" xmlns="http://www.w3.org/2000/svg" xmlns:xlink="http://www.w3.org/1999/xlink">
    <title>home2/icon/for2-light</title>
    <g id="light" stroke="none" stroke-width="1" fill="none" fill-rule="evenodd">
        <g id="1.home2-light" transform="translate(-943.000000, -524.000000)">
            <g id="编组-5" transform="translate(459.000000, 187.000000)">
                <g id="编组-2" transform="translate(75.000000, 78.000000)">
                    <g id="home2/icon/for2-light" transform="translate(409.843230, 259.000000)">
                        <circle id="椭圆形" fill="#D8D8D8" cx="23" cy="23" r="23"></circle>
                        <path d="M37.1567703,19.2683194 L32.8295824,11.2584446 C32.7021946,11.1291703 32.5749434,11 32.4477265,11 L13.8658141,11 C13.7385972,11 13.6113461,11.1291703 13.4840949,11.2584446 L9.15677031,19.1391491 C9.15677031,19.397455 9.15677031,19.526764 9.28402144,19.6559343 L22.5203608,36.7092888 C22.7749998,37.0969037 23.4113238,37.0969037 23.7931798,36.7092888 L37.0295534,19.6559343 C37.1567703,19.526764 37.1567703,19.397455 37.1567703,19.2683194 Z M25.5749349,12.8087653 L27.6112948,18.4932284 L18.5750289,18.4932284 L20.6113888,12.8087653 L25.5749349,12.8087653 Z M14.629526,12.8087653 L18.7022458,12.8087653 L16.6658859,18.4932284 L11.5749862,18.4932284 L14.629526,12.8087653 Z M11.9568421,20.301855 L16.7931371,20.301855 L20.6113888,31.6707465 L11.9568421,20.301855 Z M23.1568558,33.2210672 L18.7022458,20.301855 L27.6112948,20.301855 L23.1568558,33.2210672 Z M25.5749349,31.6707465 L29.5204036,20.1726847 L34.3568352,20.1726847 L25.5749349,31.6707465 Z M29.5204036,18.4932284 L27.4840437,12.8087653 L31.6840146,12.8087653 L34.6113375,18.4932284 L29.5204036,18.4932284 Z" id="Fill-1" fill="#FFFFFF"></path>
                    </g>
                </g>
            </g>
        </g>
    </g>
</svg>