<?xml version="1.0" encoding="UTF-8"?>
<svg width="37px" height="36px" viewBox="0 0 37 36" version="1.1" xmlns="http://www.w3.org/2000/svg" xmlns:xlink="http://www.w3.org/1999/xlink">
    <title>home4/icon/Harmony</title>
    <defs>
        <path d="M23.0903999,7.76550743 C22.9389147,7.80449257 21.7248058,8.12751238 20.839286,9.14669554 L20.839286,9.14669554 C20.1576028,9.92639851 19.7577266,10.9422401 19.7554989,12.043849 L19.7554989,12.043849 C19.7510434,13.5219431 19.754385,15.001151 19.7521573,16.4781312 L19.7521573,16.4781312 C19.7521573,16.8690965 19.7298801,16.8858045 19.3333454,16.8969431 L19.3333454,16.8969431 C18.693989,16.913651 18.0546325,16.9348144 17.4152761,16.9470668 L17.4152761,16.9470668 C17.0176276,16.9548639 16.9931226,16.9303589 16.9931226,16.5405074 L16.9931226,16.5405074 C16.9908949,15.1091955 16.9908949,13.6778837 16.9908949,12.2476856 L16.9908949,12.2476856 C16.9897811,9.8807302 15.6765385,7.8902599 12.9854494,7.66303218 L12.9854494,7.66303218 C12.9141622,7.65634901 12.5432464,7.66303218 12.4352018,7.6652599 L12.4352018,7.6652599 C12.3460929,7.66748762 12.2714642,7.68196782 12.216885,7.68308168 L12.216885,7.68308168 C12.0576028,7.6997896 11.9283949,7.72095297 11.6855731,7.77107673 L11.6855731,7.77107673 C11.1821078,7.87355198 10.5071078,8.13419554 10.1829741,8.3402599 L10.1829741,8.3402599 C9.51242957,8.73790842 9.36651372,8.89050743 8.99559788,9.32714109 L8.99559788,9.32714109 C8.9777761,9.34830446 8.82294937,9.57998762 8.73718204,9.70808168 L8.73718204,9.70808168 C8.51775135,10.0344431 8.30945927,10.5345668 8.19695927,11.3142698 L8.19695927,11.3142698 C8.18693452,11.3833292 8.17690976,11.4958292 8.18025135,11.6372896 L8.18025135,11.6372896 C8.20921174,15.9145173 8.239286,20.191745 8.2682464,24.4678589 L8.2682464,24.4678589 C8.30166224,24.7262748 8.36292461,24.9256559 8.41082065,25.0559777 L8.41082065,25.0559777 C8.50438501,25.3166213 8.63693452,25.5471906 8.90314739,26.0083292 L8.90314739,26.0083292 C8.93656323,26.0651361 8.99337016,26.1776361 9.02789986,26.2199629 L9.02789986,26.2199629 C9.92233056,27.3471906 11.0651523,27.938651 12.5231969,27.9921163 L12.5231969,27.9921163 C14.8088405,28.0745421 17.0120583,26.1152599 16.9953504,23.5411262 L16.9953504,23.5411262 C16.9853256,22.1009035 16.9920088,20.6606807 16.9942365,19.2204579 L16.9942365,19.2204579 C16.9942365,18.8172401 17.0287662,18.7849381 17.4253009,18.7760272 L17.4253009,18.7760272 C18.0457216,18.761547 18.6661424,18.7648886 19.2865632,18.7247896 L19.2865632,18.7247896 C19.7399048,18.6947153 19.7521573,18.7192203 19.7521573,19.1658787 L19.7521573,19.1658787 C19.7521573,20.5960767 19.7477018,22.0273886 19.7510434,23.4587005 L19.7510434,23.4587005 C19.7532711,25.7443441 21.2102018,27.5699629 23.4646573,27.9375371 L23.4646573,27.9375371 C24.4882959,28.1035025 25.2880484,27.8818441 25.5264147,27.8072153 L25.5264147,27.8072153 C25.8394098,27.7103094 26.954385,27.3193441 27.7374296,26.2077104 L27.7374296,26.2077104 C27.846588,26.0551114 28.1974543,25.5906312 28.3545088,24.8944678 L28.3545088,24.8944678 C28.5104494,24.1983045 28.5160187,23.70375 28.5093355,23.5255322 L28.5093355,23.5255322 C28.4748058,22.4450866 28.4859444,17.8660025 28.5004246,11.5225619 L28.5004246,11.5225619 C28.4614395,11.1594431 28.3734444,10.6971906 28.1729494,10.1926114 L28.1729494,10.1926114 C28.0682464,9.92862624 27.9501771,9.69694307 27.8354494,9.49867574 L27.8354494,9.49867574 C27.6795088,9.4017698 27.589286,9.24248762 27.4712167,9.10882426 L27.4712167,9.10882426 C27.1515385,8.74459158 26.4475781,8.11637376 25.4027761,7.8067203 L25.4027761,7.8067203 C25.17889,7.74100248 24.8358207,7.66080446 24.399187,7.64186881 L24.399187,7.64186881 C24.2577266,7.63964109 24.1151523,7.6362995 23.9714642,7.63407178 L23.9714642,7.63407178 C23.7475781,7.64409653 23.4423801,7.67528465 23.0903999,7.76550743 M21.5811177,16.3455817 C21.5989395,15.6304827 21.5878009,14.9153837 21.5878009,14.1991708 L21.5878009,14.1991708 C21.6033949,13.3726856 21.5187414,12.5428589 21.6178751,11.7174876 L21.6178751,11.7174876 C21.7593355,10.5289975 22.7317365,9.56105198 23.868989,9.45300743 L23.868989,9.45300743 C25.1131721,9.33493812 26.279385,10.0478094 26.6057464,11.2463243 L26.6057464,11.2463243 C26.8708454,12.2231807 26.9343355,13.2390223 26.4765385,14.1947153 L26.4765385,14.1947153 C26.1869345,14.7995421 25.668989,15.2094431 25.0920088,15.523552 L25.0920088,15.523552 C24.0928751,16.0715718 23.0079741,16.3801114 21.8974543,16.6073391 L21.8974543,16.6073391 C21.8484444,16.6173639 21.8050038,16.6229332 21.7682464,16.6229332 L21.7682464,16.6229332 C21.634583,16.6229332 21.5766622,16.551646 21.5811177,16.3455817 M9.99584541,12.0338243 C10.0103256,10.5468193 11.2155236,9.40288366 12.7014147,9.45300743 L12.7014147,9.45300743 C13.9144098,9.49310644 14.9859444,10.4866708 15.1251771,11.6929827 L15.1251771,11.6929827 C15.1563652,11.9736757 15.1708454,12.2543688 15.1708454,12.5372896 L15.1708454,12.5372896 C15.1686177,13.9117946 15.1697315,15.2851856 15.1686177,16.6596906 L15.1686177,16.6596906 C15.1675038,17.1475619 15.1652761,17.1497896 14.6963405,17.2366708 L14.6963405,17.2366708 C13.4321078,17.4672401 12.2079741,17.8247896 11.0528999,18.3984282 L11.0528999,18.3984282 C10.7755484,18.536547 10.5160187,18.7114233 10.2509197,18.8695916 L10.2509197,18.8695916 C10.1885434,18.906349 10.1328504,18.9921163 10.0548801,18.954245 L10.0548801,18.954245 C9.96242957,18.9096906 9.99695927,18.8027599 9.99695927,18.7236757 L9.99695927,18.7236757 C9.99473155,17.5853094 9.99584541,16.4469431 9.99584541,15.3085767 L9.99584541,15.3085767 L9.99473155,15.3085767 C9.99473155,14.2169926 9.98582065,13.1254084 9.99584541,12.0338243 M21.9598306,24.965755 C21.7080979,24.5669926 21.586687,24.1192203 21.5833454,23.6502847 L21.5833454,23.6502847 C21.5744345,22.0596906 21.5855731,20.4690965 21.5733141,18.8785025 L21.5733141,18.8785025 C21.5722068,18.5777599 21.7136672,18.4942203 21.972083,18.448552 L21.972083,18.448552 C23.2184939,18.2302351 24.4248058,17.8726856 25.5743108,17.3346906 L25.5743108,17.3346906 C25.8817365,17.1898886 26.1735682,17.0194678 26.4531474,16.8245421 L26.4531474,16.8245421 C26.5199791,16.776646 26.5856969,16.6942203 26.6748058,16.7343193 L26.6748058,16.7343193 C26.7817365,16.7833292 26.7527761,16.8969431 26.7527761,16.9871658 L26.7527761,16.9871658 C26.7550038,18.1177351 26.75389,19.2471906 26.75389,20.3755322 L26.75389,20.3755322 L26.7527761,20.3755322 C26.7527761,21.4403837 26.7550038,22.5041213 26.7516622,23.5678589 L26.7516622,23.5678589 C26.7472068,24.8031312 26.014286,25.7911262 24.8670088,26.1208292 L24.8670088,26.1208292 C24.631984,26.1876609 24.3958454,26.2210767 24.1630484,26.2210767 L24.1630484,26.2210767 C23.2942365,26.2210767 22.4710929,25.7699629 21.9598306,24.965755 M10.079385,24.2562252 C9.92455828,23.5221906 9.93458303,22.7736757 10.063791,22.0385272 L10.063791,22.0385272 C10.184088,21.3523886 10.6541375,20.8767698 11.1821078,20.4635272 L11.1821078,20.4635272 C11.646588,20.0992946 12.1790137,19.8620421 12.7292612,19.6604332 L12.7292612,19.6604332 C13.4109444,19.4109282 14.1048801,19.2059777 14.8177513,19.0656312 L14.8177513,19.0656312 C15.1296325,19.0043688 15.1652761,19.0344431 15.16639,19.3474381 L15.16639,19.3474381 C15.1686177,20.0525124 15.1675038,20.7575866 15.1675038,21.6052351 L15.1675038,21.6052351 C15.1396573,22.3002847 15.2153999,23.1390223 15.1229494,23.9744183 L15.1229494,23.9744183 C14.9915137,25.1462005 13.9667612,26.1419926 12.8183702,26.2099381 L12.8183702,26.2099381 C12.7582216,26.2132797 12.699187,26.2155074 12.6412662,26.2155074 L12.6412662,26.2155074 C11.3881721,26.2155074 10.3266622,25.4268936 10.079385,24.2562252" id="path-1"></path>
        <linearGradient x1="6.42076809%" y1="93.6300427%" x2="93.7335715%" y2="6.17873361%" id="linearGradient-3">
            <stop stop-color="#5EF4BF" offset="0%"></stop>
            <stop stop-color="#08B1D8" offset="100%"></stop>
        </linearGradient>
    </defs>
    <g id="light" stroke="none" stroke-width="1" fill="none" fill-rule="evenodd">
        <g id="home4/整体-light" transform="translate(-801.000000, -569.000000)">
            <g id="编组-15" transform="translate(440.000000, 161.000000)">
                <g id="编组-3" transform="translate(0.000000, 374.000000)">
                    <g id="编组" transform="translate(2.489106, 34.000000)">
                        <g id="home4/icon/Harmony" transform="translate(359.000000, 0.000000)">
                            <path d="M36,18 C36,27.9412129 27.9423267,36 18,36 C8.05878713,36 0,27.9412129 0,18 C0,8.05878713 8.05878713,0 18,0 C27.9423267,0 36,8.05878713 36,18" id="Fill-35" fill="#FFFFFF"></path>
                            <mask id="mask-2" fill="white">
                                <use xlink:href="#path-1"></use>
                            </mask>
                            <g id="Clip-38"></g>
                            <path d="M23.0903999,7.76550743 C22.9389147,7.80449257 21.7248058,8.12751238 20.839286,9.14669554 L20.839286,9.14669554 C20.1576028,9.92639851 19.7577266,10.9422401 19.7554989,12.043849 L19.7554989,12.043849 C19.7510434,13.5219431 19.754385,15.001151 19.7521573,16.4781312 L19.7521573,16.4781312 C19.7521573,16.8690965 19.7298801,16.8858045 19.3333454,16.8969431 L19.3333454,16.8969431 C18.693989,16.913651 18.0546325,16.9348144 17.4152761,16.9470668 L17.4152761,16.9470668 C17.0176276,16.9548639 16.9931226,16.9303589 16.9931226,16.5405074 L16.9931226,16.5405074 C16.9908949,15.1091955 16.9908949,13.6778837 16.9908949,12.2476856 L16.9908949,12.2476856 C16.9897811,9.8807302 15.6765385,7.8902599 12.9854494,7.66303218 L12.9854494,7.66303218 C12.9141622,7.65634901 12.5432464,7.66303218 12.4352018,7.6652599 L12.4352018,7.6652599 C12.3460929,7.66748762 12.2714642,7.68196782 12.216885,7.68308168 L12.216885,7.68308168 C12.0576028,7.6997896 11.9283949,7.72095297 11.6855731,7.77107673 L11.6855731,7.77107673 C11.1821078,7.87355198 10.5071078,8.13419554 10.1829741,8.3402599 L10.1829741,8.3402599 C9.51242957,8.73790842 9.36651372,8.89050743 8.99559788,9.32714109 L8.99559788,9.32714109 C8.9777761,9.34830446 8.82294937,9.57998762 8.73718204,9.70808168 L8.73718204,9.70808168 C8.51775135,10.0344431 8.30945927,10.5345668 8.19695927,11.3142698 L8.19695927,11.3142698 C8.18693452,11.3833292 8.17690976,11.4958292 8.18025135,11.6372896 L8.18025135,11.6372896 C8.20921174,15.9145173 8.239286,20.191745 8.2682464,24.4678589 L8.2682464,24.4678589 C8.30166224,24.7262748 8.36292461,24.9256559 8.41082065,25.0559777 L8.41082065,25.0559777 C8.50438501,25.3166213 8.63693452,25.5471906 8.90314739,26.0083292 L8.90314739,26.0083292 C8.93656323,26.0651361 8.99337016,26.1776361 9.02789986,26.2199629 L9.02789986,26.2199629 C9.92233056,27.3471906 11.0651523,27.938651 12.5231969,27.9921163 L12.5231969,27.9921163 C14.8088405,28.0745421 17.0120583,26.1152599 16.9953504,23.5411262 L16.9953504,23.5411262 C16.9853256,22.1009035 16.9920088,20.6606807 16.9942365,19.2204579 L16.9942365,19.2204579 C16.9942365,18.8172401 17.0287662,18.7849381 17.4253009,18.7760272 L17.4253009,18.7760272 C18.0457216,18.761547 18.6661424,18.7648886 19.2865632,18.7247896 L19.2865632,18.7247896 C19.7399048,18.6947153 19.7521573,18.7192203 19.7521573,19.1658787 L19.7521573,19.1658787 C19.7521573,20.5960767 19.7477018,22.0273886 19.7510434,23.4587005 L19.7510434,23.4587005 C19.7532711,25.7443441 21.2102018,27.5699629 23.4646573,27.9375371 L23.4646573,27.9375371 C24.4882959,28.1035025 25.2880484,27.8818441 25.5264147,27.8072153 L25.5264147,27.8072153 C25.8394098,27.7103094 26.954385,27.3193441 27.7374296,26.2077104 L27.7374296,26.2077104 C27.846588,26.0551114 28.1974543,25.5906312 28.3545088,24.8944678 L28.3545088,24.8944678 C28.5104494,24.1983045 28.5160187,23.70375 28.5093355,23.5255322 L28.5093355,23.5255322 C28.4748058,22.4450866 28.4859444,17.8660025 28.5004246,11.5225619 L28.5004246,11.5225619 C28.4614395,11.1594431 28.3734444,10.6971906 28.1729494,10.1926114 L28.1729494,10.1926114 C28.0682464,9.92862624 27.9501771,9.69694307 27.8354494,9.49867574 L27.8354494,9.49867574 C27.6795088,9.4017698 27.589286,9.24248762 27.4712167,9.10882426 L27.4712167,9.10882426 C27.1515385,8.74459158 26.4475781,8.11637376 25.4027761,7.8067203 L25.4027761,7.8067203 C25.17889,7.74100248 24.8358207,7.66080446 24.399187,7.64186881 L24.399187,7.64186881 C24.2577266,7.63964109 24.1151523,7.6362995 23.9714642,7.63407178 L23.9714642,7.63407178 C23.7475781,7.64409653 23.4423801,7.67528465 23.0903999,7.76550743 M21.5811177,16.3455817 C21.5989395,15.6304827 21.5878009,14.9153837 21.5878009,14.1991708 L21.5878009,14.1991708 C21.6033949,13.3726856 21.5187414,12.5428589 21.6178751,11.7174876 L21.6178751,11.7174876 C21.7593355,10.5289975 22.7317365,9.56105198 23.868989,9.45300743 L23.868989,9.45300743 C25.1131721,9.33493812 26.279385,10.0478094 26.6057464,11.2463243 L26.6057464,11.2463243 C26.8708454,12.2231807 26.9343355,13.2390223 26.4765385,14.1947153 L26.4765385,14.1947153 C26.1869345,14.7995421 25.668989,15.2094431 25.0920088,15.523552 L25.0920088,15.523552 C24.0928751,16.0715718 23.0079741,16.3801114 21.8974543,16.6073391 L21.8974543,16.6073391 C21.8484444,16.6173639 21.8050038,16.6229332 21.7682464,16.6229332 L21.7682464,16.6229332 C21.634583,16.6229332 21.5766622,16.551646 21.5811177,16.3455817 M9.99584541,12.0338243 C10.0103256,10.5468193 11.2155236,9.40288366 12.7014147,9.45300743 L12.7014147,9.45300743 C13.9144098,9.49310644 14.9859444,10.4866708 15.1251771,11.6929827 L15.1251771,11.6929827 C15.1563652,11.9736757 15.1708454,12.2543688 15.1708454,12.5372896 L15.1708454,12.5372896 C15.1686177,13.9117946 15.1697315,15.2851856 15.1686177,16.6596906 L15.1686177,16.6596906 C15.1675038,17.1475619 15.1652761,17.1497896 14.6963405,17.2366708 L14.6963405,17.2366708 C13.4321078,17.4672401 12.2079741,17.8247896 11.0528999,18.3984282 L11.0528999,18.3984282 C10.7755484,18.536547 10.5160187,18.7114233 10.2509197,18.8695916 L10.2509197,18.8695916 C10.1885434,18.906349 10.1328504,18.9921163 10.0548801,18.954245 L10.0548801,18.954245 C9.96242957,18.9096906 9.99695927,18.8027599 9.99695927,18.7236757 L9.99695927,18.7236757 C9.99473155,17.5853094 9.99584541,16.4469431 9.99584541,15.3085767 L9.99584541,15.3085767 L9.99473155,15.3085767 C9.99473155,14.2169926 9.98582065,13.1254084 9.99584541,12.0338243 M21.9598306,24.965755 C21.7080979,24.5669926 21.586687,24.1192203 21.5833454,23.6502847 L21.5833454,23.6502847 C21.5744345,22.0596906 21.5855731,20.4690965 21.5733141,18.8785025 L21.5733141,18.8785025 C21.5722068,18.5777599 21.7136672,18.4942203 21.972083,18.448552 L21.972083,18.448552 C23.2184939,18.2302351 24.4248058,17.8726856 25.5743108,17.3346906 L25.5743108,17.3346906 C25.8817365,17.1898886 26.1735682,17.0194678 26.4531474,16.8245421 L26.4531474,16.8245421 C26.5199791,16.776646 26.5856969,16.6942203 26.6748058,16.7343193 L26.6748058,16.7343193 C26.7817365,16.7833292 26.7527761,16.8969431 26.7527761,16.9871658 L26.7527761,16.9871658 C26.7550038,18.1177351 26.75389,19.2471906 26.75389,20.3755322 L26.75389,20.3755322 L26.7527761,20.3755322 C26.7527761,21.4403837 26.7550038,22.5041213 26.7516622,23.5678589 L26.7516622,23.5678589 C26.7472068,24.8031312 26.014286,25.7911262 24.8670088,26.1208292 L24.8670088,26.1208292 C24.631984,26.1876609 24.3958454,26.2210767 24.1630484,26.2210767 L24.1630484,26.2210767 C23.2942365,26.2210767 22.4710929,25.7699629 21.9598306,24.965755 M10.079385,24.2562252 C9.92455828,23.5221906 9.93458303,22.7736757 10.063791,22.0385272 L10.063791,22.0385272 C10.184088,21.3523886 10.6541375,20.8767698 11.1821078,20.4635272 L11.1821078,20.4635272 C11.646588,20.0992946 12.1790137,19.8620421 12.7292612,19.6604332 L12.7292612,19.6604332 C13.4109444,19.4109282 14.1048801,19.2059777 14.8177513,19.0656312 L14.8177513,19.0656312 C15.1296325,19.0043688 15.1652761,19.0344431 15.16639,19.3474381 L15.16639,19.3474381 C15.1686177,20.0525124 15.1675038,20.7575866 15.1675038,21.6052351 L15.1675038,21.6052351 C15.1396573,22.3002847 15.2153999,23.1390223 15.1229494,23.9744183 L15.1229494,23.9744183 C14.9915137,25.1462005 13.9667612,26.1419926 12.8183702,26.2099381 L12.8183702,26.2099381 C12.7582216,26.2132797 12.699187,26.2155074 12.6412662,26.2155074 L12.6412662,26.2155074 C11.3881721,26.2155074 10.3266622,25.4268936 10.079385,24.2562252" id="Fill-37" fill="url(#linearGradient-3)" mask="url(#mask-2)"></path>
                        </g>
                    </g>
                </g>
            </g>
        </g>
    </g>
</svg>