<?xml version="1.0" encoding="UTF-8"?>
<svg width="37px" height="36px" viewBox="0 0 37 36" version="1.1" xmlns="http://www.w3.org/2000/svg" xmlns:xlink="http://www.w3.org/1999/xlink">
    <title>home4/icon/HECO</title>
    <g id="light" stroke="none" stroke-width="1" fill="none" fill-rule="evenodd">
        <g id="home4/整体-light" transform="translate(-712.000000, -569.000000)">
            <g id="编组-15" transform="translate(440.000000, 161.000000)">
                <g id="编组-3" transform="translate(0.000000, 374.000000)">
                    <g id="编组" transform="translate(2.489106, 34.000000)">
                        <g id="home4/icon/HECO" transform="translate(270.000000, 0.000000)">
                            <path d="M36,18 C36,27.9412129 27.9412129,36 18,36 C8.05878713,36 0,27.9412129 0,18 C0,8.05878713 8.05878713,0 18,0 C27.9412129,0 36,8.05878713 36,18" id="Fill-1" fill="#00993B"></path>
                            <path d="M14.6517327,27.732698 C13.2293317,27.732698 11.9383663,27.7393812 10.6496287,27.7304703 C9.98465347,27.724901 9.64492574,27.315 9.64826733,26.7023762 C9.66386139,24.2830693 9.5480198,21.8448267 9.79975248,19.4489109 C10.1918317,15.7041089 13.8664604,12.5541089 17.6457921,12.4661139 C18.5613861,12.4449505 19.4090347,12.4460644 20.3925743,12.4716832 C21.0642327,12.489505 21.2792079,12.7078218 21.3181931,13.4006436 C21.3438119,13.8450743 21.3181931,14.562401 21.2992574,15.0190842 C21.2201733,16.7979208 20.3469059,17.4751485 18.5402228,17.5052228 C18.0356436,17.5130198 17.5076733,17.5263861 17.0309406,17.6678465 C15.5584158,18.1055941 14.6740099,19.3163614 14.6606436,20.854604 C14.6428218,22.8205693 14.6539604,24.7854208 14.6517327,26.7513861 L14.6517327,27.732698 Z" id="Fill-3" fill="#FFFFFF"></path>
                            <path d="M27.2402599,16.9775866 C26.4906312,20.7981312 22.980854,23.6028342 19.0957054,23.6185356 C18.2101856,23.6217698 17.323552,23.5460272 16.4369183,23.5404579 C15.9434777,23.5382302 15.8120421,23.3165718 15.7897649,22.8509777 C15.756349,22.2049381 15.7719431,21.6134777 15.7986757,20.9963985 C15.8588243,19.5327847 16.8145173,18.621646 18.279245,18.5837748 C18.7882797,18.5715223 19.3129084,18.6004827 19.8007797,18.485755 C21.4626609,18.0981312 22.4439728,16.8027104 22.4606807,15.0105074 C22.4796163,13.0200371 22.4840718,11.0295668 22.4551114,9.0402104 C22.4473144,8.44429455 22.6288738,8.22931931 23.2381559,8.25605198 C24.2317203,8.29837871 25.2275124,8.24714109 26.2233045,8.26496287 C27.0999134,8.28055693 27.4296163,8.62028465 27.440755,9.50357673 C27.4541213,10.6062995 27.5064728,15.6231312 27.2402599,16.9775866" id="Fill-5" fill="#FFFFFF"></path>
                            <path d="M9.61540842,16.3314356 C9.60538366,16.240099 9.61875,16.0318069 9.61875,15.854703 C9.61652228,13.5980198 9.63100248,11.3424505 9.61318069,9.08576733 C9.60872525,8.48762376 9.76800743,8.20693069 10.4352104,8.24257426 C11.426547,8.29715347 12.423453,8.24480198 13.4159035,8.26373762 C14.2657797,8.28044554 14.5921411,8.65804455 14.6578589,9.50457921 C14.7837252,11.0907178 14.5631807,12.2792079 12.8957302,13.2471535 C11.683849,13.9511139 10.6880569,15.275495 9.61540842,16.3314356" id="Fill-7" fill="#FFFFFF"></path>
                            <path d="M27.4360767,19.6773639 L27.4360767,27.913255 C26.1116955,27.913255 24.8051361,27.936646 23.4996906,27.9032302 C22.8770421,27.8876361 22.5918936,27.6659777 22.4961015,27.021052 C22.4793936,26.8974134 22.4660272,26.6824381 22.4649134,26.6557054 C22.4136757,25.5975371 22.3112005,24.6485272 22.9104579,23.9022401 C23.2357054,23.4967946 23.5086015,23.4444431 24.2972153,23.0100371 C24.8730817,22.6925866 24.9978342,22.5912252 25.25625,22.3873886 C25.6951114,22.0420916 25.9668936,21.7201856 26.2620668,21.3648639 C26.5928837,20.9683292 27.0150371,20.4080569 27.4360767,19.6773639" id="Fill-9" fill="#FFFFFF"></path>
                        </g>
                    </g>
                </g>
            </g>
        </g>
    </g>
</svg>