<svg width="16" height="14" viewBox="0 0 16 14" fill="none" xmlns="http://www.w3.org/2000/svg">
<path d="M1 13L2.01033 10.0788C1.13713 8.83419 0.821245 7.36024 1.12141 5.93104C1.42157 4.50184 2.31736 3.21464 3.64221 2.30879C4.96706 1.40293 6.63082 0.940059 8.32415 1.00623C10.0175 1.0724 11.6251 1.66311 12.8482 2.66853C14.0713 3.67395 14.8266 5.02566 14.9736 6.47234C15.1207 7.91901 14.6495 9.36221 13.6476 10.5336C12.6458 11.705 11.1815 12.5248 9.52698 12.8407C7.87249 13.1566 6.14038 12.947 4.65271 12.251L1 13Z" stroke="#26A17B" stroke-width="1.5" stroke-linecap="round" stroke-linejoin="round"/>
<path d="M7.99456 7.00781V7.01531" stroke="#26A17B" stroke-width="1.5" stroke-linecap="round" stroke-linejoin="round"/>
<path d="M4.88586 7.00781V7.01531" stroke="#26A17B" stroke-width="1.5" stroke-linecap="round" stroke-linejoin="round"/>
<path d="M11.1032 7.00781V7.01531" stroke="#26A17B" stroke-width="1.5" stroke-linecap="round" stroke-linejoin="round"/>
</svg>
