<?xml version="1.0" encoding="UTF-8"?>
<svg width="37px" height="36px" viewBox="0 0 37 36" version="1.1" xmlns="http://www.w3.org/2000/svg" xmlns:xlink="http://www.w3.org/1999/xlink">
    <title>home4/icon/polygon</title>
    <g id="light" stroke="none" stroke-width="1" fill="none" fill-rule="evenodd">
        <g id="home4/整体-light" transform="translate(-531.000000, -569.000000)">
            <g id="编组-15" transform="translate(440.000000, 161.000000)">
                <g id="编组-3" transform="translate(0.000000, 374.000000)">
                    <g id="编组" transform="translate(2.489106, 34.000000)">
                        <g id="home4/icon/polygon" transform="translate(89.000000, 0.000000)">
                            <path d="M36,18 C36,27.9412129 27.9414622,36 18.0005569,36 C8.05965162,36 0,27.9412129 0,18 C0,8.05878713 8.05965162,0 18.0005569,0 C27.9414622,0 36,8.05878713 36,18" id="Fill-23" fill="#FFFFFF"></path>
                            <path d="M30.5261816,21.4765617 C30.5261816,22.4122052 30.5228094,23.3478488 30.5261816,24.2834924 C30.5294924,25.0141854 30.2599463,25.5889379 29.6083575,25.9654231 C27.9298204,26.9355963 26.2601938,27.9213636 24.5772013,28.882626 C23.9957837,29.2156706 23.3909756,29.1911656 22.8073303,28.8525518 C21.1410453,27.8868339 19.4769878,26.9200023 17.8107027,25.9553983 C17.1880735,25.5956211 16.9318933,25.0275518 16.9062753,24.342527 C16.8862264,23.7922795 16.9062753,23.2409181 16.8984785,22.6906706 C16.895137,22.4578735 16.9898123,22.30973 17.191415,22.1950023 C17.8374346,21.8285419 18.4801127,21.4542844 19.1172217,21.0733438 C19.3889955,20.9107201 19.4803293,20.9853488 19.475874,21.2860914 C19.4680772,21.8084924 19.4747602,22.3320072 19.4769878,22.8544082 C19.4792155,23.5450023 19.7665828,24.0685171 20.3747323,24.4160419 C21.2112163,24.8927745 22.0410174,25.379532 22.8741599,25.8618339 C23.4177075,26.1759429 23.9723933,26.2104726 24.5203961,25.8885666 C25.3880673,25.3817597 26.245714,24.8627003 27.1067023,24.3447547 C27.6346562,24.0273042 27.8874949,23.5650518 27.8785843,22.9390617 C27.8641046,21.9354726 27.8551939,20.9296557 27.880812,19.9260666 C27.899747,19.239928 27.5856478,18.7643092 27.0331897,18.4301508 C26.1989333,17.9255716 25.351311,17.439928 24.5048026,16.9553983 C23.9133605,16.6178983 23.3230322,16.6546557 22.7416145,16.9954973 C20.319041,18.4101013 17.8964674,19.8247052 15.47278,21.2370815 C14.8312157,21.6113389 14.1918791,21.9889379 13.542518,22.3487151 C12.905409,22.6995815 12.2760968,22.7062646 11.6278495,22.3197547 C10.0328493,21.3718587 8.42225561,20.4473537 6.81500336,19.5206211 C6.12888597,19.1263141 5.81255913,18.5515617 5.81909397,17.7562646 C5.83594949,15.9261904 5.83706332,14.0961161 5.81909397,12.2660419 C5.8114453,11.4729726 6.11106474,10.9082448 6.81054805,10.5083686 C8.37436105,9.61616563 9.92926344,8.70502701 11.4696861,7.77049731 C12.2794382,7.2803983 13.0312714,7.23027454 13.8610725,7.74376464 C15.3580559,8.66938345 16.8828849,9.54933394 18.4054863,10.4337399 C19.102742,10.8391854 19.4569389,11.4016854 19.4045891,12.2259429 C19.3700604,12.7750765 19.3912232,13.3275518 19.4045891,13.8766854 C19.4101582,14.0938884 19.3500116,14.2342349 19.1517504,14.3445072 C18.491251,14.7131953 17.8363208,15.0919082 17.1869597,15.4784181 C16.9185274,15.6388141 16.8639499,15.55973 16.8717467,15.2790369 C16.8873402,14.7143092 16.8795434,14.1495815 16.876202,13.5859676 C16.8717467,12.9633191 16.6322739,12.4620815 16.0920678,12.1312646 C15.2355349,11.6055221 14.3812297,11.0808933 13.5180138,10.5674033 C12.9109781,10.2053983 12.300601,10.2087399 11.6846547,10.5785419 C10.9060896,11.0452498 10.1197278,11.4985914 9.33002455,11.9452498 C8.69737086,12.3027993 8.37324722,12.8118339 8.39329611,13.5581211 C8.4178003,14.5338636 8.40554821,15.5118339 8.39886524,16.4875765 C8.39440994,17.0846062 8.60269557,17.5657943 9.11951126,17.8832448 C10.0217111,18.4368339 10.9205694,18.9971062 11.8383628,19.5250765 C12.3941624,19.8447547 12.9722386,19.8146805 13.5224691,19.4716112 C16.4774519,17.6303983 19.5649802,16.0197547 22.5311013,14.2008191 C23.3363981,13.7062646 24.0759792,13.6817597 24.8868452,14.1685171 C26.4406338,15.1041607 28.0133574,16.0108438 29.5849672,16.9186409 C30.2354421,17.295126 30.5272647,17.8531706 30.5261816,18.5872052 C30.5250371,19.5506953 30.5261816,20.5130716 30.5261816,21.4765617" id="Fill-25" fill="#8147E1"></path>
                        </g>
                    </g>
                </g>
            </g>
        </g>
    </g>
</svg>