<?xml version="1.0" encoding="UTF-8"?>
<svg width="37px" height="36px" viewBox="0 0 37 36" version="1.1" xmlns="http://www.w3.org/2000/svg" xmlns:xlink="http://www.w3.org/1999/xlink">
    <title>home4/icon/USDC</title>
    <g id="light" stroke="none" stroke-width="1" fill="none" fill-rule="evenodd">
        <g id="home4/整体-light" transform="translate(-442.000000, -687.000000)">
            <g id="编组-15" transform="translate(440.000000, 161.000000)">
                <g id="编组-3" transform="translate(0.000000, 374.000000)">
                    <g id="home4/icon/USDC" transform="translate(2.489106, 152.000000)">
                        <path d="M36,18 C36,27.9410727 27.9410727,36 18,36 C8.05892727,36 0,27.9410727 0,18 C0,8.05892727 8.05892727,0 18,0 C27.9410727,0 36,8.05892727 36,18" id="Fill-1" fill="#3C75C4"></path>
                        <path d="M6.51089432,18.3143232 C6.54870189,20.3395283 7.14720799,22.5357624 8.46938099,24.4972644 C9.8842303,26.596559 11.7675113,28.104107 14.1345108,28.9657609 C14.8053563,29.0494058 15.0405276,28.5490594 15.0783351,28.3569807 C15.2148245,27.6645555 14.8497153,27.2290201 14.2094435,26.9341855 C9.3992834,24.7203638 7.19661716,19.3183397 9.09450253,14.4598694 C10.0814575,11.932933 11.8218341,10.1383055 14.2666326,9.0385959 C14.9908454,8.71274062 15.3156902,8.23275151 14.9418457,7.58422611 C14.5400209,6.88723095 14.041152,7.09080395 13.6232214,7.26183296 C9.3450971,9.01228374 6.5125322,13.3049042 6.51089432,18.3143232 M29.5108786,18.0566026 C29.5150939,15.545592 28.6722717,13.0085463 27.1475485,10.9703236 C25.7773312,9.13885906 24.0522414,7.74445329 21.8886112,7.06006027 C21.3568484,6.89180096 21.0751342,7.09509698 20.9473801,7.44574108 C20.6813622,8.17611113 21.1855542,8.85385687 21.903625,9.18857519 C28.5950187,12.307535 29.6085892,21.3533772 23.7918196,25.8404307 C23.0813922,26.388416 22.30272,26.8088565 21.4855579,27.169887 C20.9984272,27.3852312 20.6956936,27.9847329 20.9473801,28.4954657 C21.220359,29.0494058 21.7618125,29.061454 22.1117714,28.9329399 C26.4645554,27.3338533 29.5029463,22.8571862 29.5108786,18.0566026 M14.8261027,20.2121221 C13.8168999,20.20409 13.6518842,20.4255275 13.9416512,21.3277575 C14.2924291,22.419712 15.028653,23.1812411 16.099549,23.4543336 C16.9455104,23.6699548 17.2886448,24.0554971 17.1689435,24.9290607 C17.0867769,25.528147 17.395243,25.818827 18.001256,25.8296289 C18.8191006,25.8440313 19.0567287,25.6818653 19.0119602,24.8462467 C18.9704674,24.0741926 19.2070035,23.6291017 19.9802161,23.4672127 C20.2802198,23.4043405 20.5708058,23.2196015 20.8280884,23.0361088 C21.8614498,22.2988145 22.335341,21.2744408 22.2397984,19.9974703 C22.1506708,18.807053 21.5763234,17.9636791 20.4564277,17.5274513 C19.7713873,17.2607291 19.0586395,17.1257062 18.3362011,17.0276588 C17.7483411,16.9478914 17.1615731,16.8505365 16.634451,16.5579176 C15.8093725,16.0998091 15.6642842,14.9159006 16.3397703,14.2495106 C17.1971969,13.4033671 19.285212,13.6411459 19.8214789,14.7214676 C20.1624295,15.4083534 20.646148,15.4962913 21.2712695,15.4328652 C21.7342416,15.3859188 21.9144077,15.1410772 21.7871995,14.6757675 C21.5128558,13.6721665 20.9091631,12.9030207 19.9441829,12.6065242 C19.1459928,12.3611287 18.94276,11.932933 18.9850718,11.1612944 C19.0249267,10.4384026 18.7673711,10.2701433 18.0217294,10.2475702 C17.3725858,10.2277669 17.0709441,10.5360345 17.1357766,11.1635102 C17.21535,11.9336255 16.9381399,12.2953484 16.1707964,12.5181708 C14.6938444,12.9469204 13.9537988,14.1115795 14.0002052,15.6446088 C14.0431994,17.0653267 14.7495321,17.9189485 16.2821718,18.3544839 C16.7399573,18.4845213 17.2146675,18.5583339 17.68501,18.6375473 C18.2700037,18.7360102 18.853496,18.8419512 19.3927656,19.0999488 C20.34942,19.5576418 20.5815885,20.7127455 19.9015982,21.5367314 C18.9535427,22.6854647 16.183217,22.5296691 15.7676067,20.8965151 C15.6275685,20.3458986 15.2875734,20.1456493 14.8261027,20.2121221" id="Fill-3" fill="#FFFFFF"></path>
                    </g>
                </g>
            </g>
        </g>
    </g>
</svg>