<svg width="12" height="10" viewBox="0 0 12 10" fill="none" xmlns="http://www.w3.org/2000/svg">
<g clip-path="url(#clip0_7310_18005)">
<path d="M11.0004 4.99084C11.0058 7.65959 8.61823 9.84186 5.69057 9.84373C4.42611 9.84455 3.26465 9.44275 2.35192 8.77125C2.11458 8.59664 2.09684 8.2724 2.31251 8.0758L2.55392 7.85574C2.73838 7.6876 3.03286 7.6692 3.23722 7.81699C3.90968 8.30342 4.7607 8.59375 5.68671 8.59375C7.86585 8.59375 9.62911 6.98611 9.62911 5C9.62911 3.01357 7.86551 1.40625 5.68671 1.40625C4.64082 1.40625 3.6909 1.77674 2.98557 2.38148L4.07303 3.37277C4.289 3.56965 4.13604 3.90625 3.83064 3.90625H0.715864C0.526522 3.90625 0.373047 3.76635 0.373047 3.59375V0.754434C0.373047 0.476035 0.742304 0.336602 0.958279 0.533457L2.01613 1.49775C2.97008 0.666719 4.26299 0.15625 5.68671 0.15625C8.61801 0.15625 10.995 2.31992 11.0004 4.99084ZM7.12415 6.52959L7.33461 6.28291C7.50898 6.07855 7.46859 5.78404 7.24441 5.62512L6.37235 5.00682V2.96875C6.37235 2.70986 6.14212 2.5 5.85812 2.5H5.5153C5.2313 2.5 5.00108 2.70986 5.00108 2.96875V5.61818L6.40254 6.61182C6.62672 6.77074 6.94978 6.73395 7.12415 6.52959Z" fill="#6A20B3"/>
</g>
<defs>
<clipPath id="clip0_7310_18005">
<rect width="10.9701" height="10" fill="white" transform="translate(0.20166)"/>
</clipPath>
</defs>
</svg>
