<svg width="30" height="30" viewBox="0 0 30 30" fill="none" xmlns="http://www.w3.org/2000/svg">
<circle cx="14.5714" cy="14.5714" r="14.5714" fill="#7F4AFE"/>
<path d="M11.7707 6.34232C11.873 6.21495 12.0693 6.21219 12.1753 6.33662L14.4409 8.99538C14.5181 9.08604 14.5215 9.21672 14.4491 9.31113L11.5268 13.1218C11.4777 13.1859 11.4005 13.2236 11.3186 13.2236H6.77785C6.56062 13.2236 6.43894 12.9788 6.57315 12.8117L11.7707 6.34232Z" fill="white"/>
<path d="M17.3747 6.3423C17.2723 6.21493 17.076 6.21216 16.97 6.3366L14.7045 8.99536C14.6272 9.08602 14.6238 9.2167 14.6962 9.3111L17.6185 13.1217C17.6676 13.1859 17.7448 13.2236 17.8267 13.2236H22.3675C22.5847 13.2236 22.7064 12.9787 22.5722 12.8117L17.3747 6.3423Z" fill="white"/>
<path d="M6.24622 15.0062C6.24179 14.8657 6.35876 14.7511 6.50253 14.7511H11.1884C11.3322 14.7511 11.4476 14.8655 11.4594 15.0056C11.5917 16.5738 12.935 17.8062 14.5726 17.8062C16.2103 17.8062 17.5536 16.5738 17.6859 15.0056C17.6977 14.8655 17.8131 14.7511 17.9569 14.7511H22.6427C22.7865 14.7511 22.9035 14.8657 22.8991 15.0062C22.7612 19.3876 19.0861 22.8981 14.5726 22.8981C10.0591 22.8981 6.38403 19.3876 6.24622 15.0062Z" fill="white"/>
</svg>
