<svg width="37" height="37" viewBox="0 0 37 37" fill="none" xmlns="http://www.w3.org/2000/svg">
<path d="M11.9479 17.7291C11.6412 17.7291 11.3471 17.851 11.1303 18.0678C10.9134 18.2846 10.7916 18.5787 10.7916 18.8854C10.7916 19.1921 10.9134 19.4862 11.1303 19.703C11.3471 19.9198 11.6412 20.0416 11.9479 20.0416C12.2545 20.0416 12.5486 19.9198 12.7655 19.703C12.9823 19.4862 13.1041 19.1921 13.1041 18.8854C13.1041 18.5787 12.9823 18.2846 12.7655 18.0678C12.5486 17.851 12.2545 17.7291 11.9479 17.7291ZM10.7916 23.5104C10.7916 23.2037 10.9134 22.9096 11.1303 22.6928C11.3471 22.476 11.6412 22.3541 11.9479 22.3541C12.2545 22.3541 12.5486 22.476 12.7655 22.6928C12.9823 22.9096 13.1041 23.2037 13.1041 23.5104C13.1041 23.8171 12.9823 24.1112 12.7655 24.328C12.5486 24.5448 12.2545 24.6666 11.9479 24.6666C11.6412 24.6666 11.3471 24.5448 11.1303 24.328C10.9134 24.1112 10.7916 23.8171 10.7916 23.5104ZM15.4166 18.8854C15.4166 18.5787 15.5384 18.2846 15.7553 18.0678C15.9721 17.851 16.2662 17.7291 16.5729 17.7291H21.2811C21.5878 17.7291 21.8819 17.851 22.0987 18.0678C22.3156 18.2846 22.4374 18.5787 22.4374 18.8854C22.4374 19.1921 22.3156 19.4862 22.0987 19.703C21.8819 19.9198 21.5878 20.0416 21.2811 20.0416H16.5729C16.2662 20.0416 15.9721 19.9198 15.7553 19.703C15.5384 19.4862 15.4166 19.1921 15.4166 18.8854ZM16.5729 22.3541C16.2662 22.3541 15.9721 22.476 15.7553 22.6928C15.5384 22.9096 15.4166 23.2037 15.4166 23.5104C15.4166 23.8171 15.5384 24.1112 15.7553 24.328C15.9721 24.5448 16.2662 24.6666 16.5729 24.6666H21.2811C21.5878 24.6666 21.8819 24.5448 22.0987 24.328C22.3156 24.1112 22.4374 23.8171 22.4374 23.5104C22.4374 23.2037 22.3156 22.9096 22.0987 22.6928C21.8819 22.476 21.5878 22.3541 21.2811 22.3541H16.5729ZM9.63538 3.08331C8.71541 3.08331 7.83312 3.44877 7.1826 4.09929C6.53208 4.7498 6.16663 5.63209 6.16663 6.55206V26.5937C6.16663 27.5137 6.53208 28.396 7.1826 29.0465C7.83312 29.697 8.71541 30.0625 9.63538 30.0625H23.5104C24.4303 30.0625 25.3126 29.697 25.9632 29.0465C26.6137 28.396 26.9791 27.5137 26.9791 26.5937V13.673C26.9791 13.2175 26.8894 12.7664 26.7151 12.3456C26.5408 11.9247 26.2853 11.5423 25.9632 11.2202L18.8422 4.09927C18.1921 3.44913 17.3104 3.08371 16.391 3.08331H9.63538ZM8.47913 6.55206C8.47913 6.24541 8.60094 5.95131 8.81778 5.73447C9.03462 5.51763 9.32872 5.39581 9.63538 5.39581H16.1936V10.4031C16.1936 10.8587 16.2833 11.3097 16.4577 11.7306C16.632 12.1514 16.8875 12.5338 17.2096 12.8559C17.8601 13.5064 18.7424 13.8719 19.6624 13.8719H24.6666V26.5937C24.6666 26.9004 24.5448 27.1945 24.328 27.4113C24.1111 27.6282 23.817 27.75 23.5104 27.75H9.63538C9.32872 27.75 9.03462 27.6282 8.81778 27.4113C8.60094 27.1945 8.47913 26.9004 8.47913 26.5937V6.55206ZM18.5061 10.4031V7.03306L23.0309 11.5594H19.6624C19.3557 11.5594 19.0616 11.4376 18.8448 11.2207C18.6279 11.0039 18.5061 10.7098 18.5061 10.4031ZM13.4895 33.9166C12.772 33.9169 12.0721 33.6946 11.4862 33.2804C10.9003 32.8663 10.4573 32.2806 10.2181 31.6041H23.5104C24.8392 31.6041 26.1136 31.0763 27.0533 30.1366C27.9929 29.197 28.5208 27.9226 28.5208 26.5937V13.7779L29.8158 15.0729C30.4679 15.725 30.8333 16.6068 30.8333 17.5272V26.5937C30.8333 27.5554 30.6439 28.5076 30.2759 29.3961C29.9079 30.2845 29.3685 31.0918 28.6885 31.7718C28.0085 32.4518 27.2012 32.9912 26.3127 33.3592C25.4243 33.7272 24.472 33.9166 23.5104 33.9166H13.4895Z" fill="#7F4AFE"/>
</svg>
