<svg width="60" height="21" viewBox="0 0 60 21" fill="none" xmlns="http://www.w3.org/2000/svg">
<path d="M19.4089 1.59326L24.4823 6.05726L29.0023 0.491926C29.1288 0.336339 29.2889 0.211311 29.4705 0.126153C29.6521 0.0409947 29.8505 -0.00209987 30.0511 7.86682e-05C30.2516 0.00225721 30.4491 0.0496527 30.6288 0.138736C30.8085 0.227819 30.9658 0.356293 31.0889 0.514592L35.4023 6.05593L40.6396 1.52793C40.8453 1.35047 41.1002 1.24007 41.3704 1.2115C41.6405 1.18293 41.9129 1.23755 42.1512 1.36806C42.3894 1.49856 42.5821 1.69872 42.7035 1.94175C42.8248 2.18477 42.8691 2.45907 42.8303 2.72793L40.8303 16.5239H19.2396L17.2089 2.79059C17.1686 2.52024 17.2123 2.24402 17.3342 1.99935C17.4561 1.75468 17.6502 1.55338 17.8903 1.42271C18.1304 1.29204 18.4048 1.23832 18.6765 1.26883C18.9481 1.29934 19.2038 1.41259 19.4089 1.59326Z" fill="#E9CB30"/>
<path d="M19.3433 17.8573H40.6766V19.1906C40.6766 19.5443 40.5361 19.8834 40.2861 20.1334C40.036 20.3835 39.6969 20.524 39.3433 20.524H20.6766C20.323 20.524 19.9838 20.3835 19.7338 20.1334C19.4837 19.8834 19.3433 19.5443 19.3433 19.1906V17.8573Z" fill="#E9CB30"/>
<path d="M1.38412 8.69232L4.55496 11.4823L7.37996 8.00399C7.45906 7.90675 7.55909 7.8286 7.67258 7.77538C7.78607 7.72215 7.91011 7.69522 8.03546 7.69658C8.1608 7.69794 8.28423 7.72757 8.39654 7.78324C8.50885 7.83892 8.60715 7.91922 8.68412 8.01815L11.38 11.4815L14.6533 8.65149C14.7818 8.54058 14.9412 8.47158 15.11 8.45372C15.2789 8.43587 15.4491 8.47 15.598 8.55157C15.7469 8.63313 15.8674 8.75823 15.9432 8.91012C16.0191 9.06201 16.0467 9.23345 16.0225 9.40149L14.7725 18.024H1.27829L0.00912421 9.44065C-0.0160865 9.27168 0.0112448 9.09905 0.0874161 8.94613C0.163587 8.79321 0.284918 8.66739 0.434975 8.58573C0.585031 8.50406 0.756562 8.47049 0.926336 8.48955C1.09611 8.50862 1.25592 8.5794 1.38412 8.69232Z" fill="#B6B6B6"/>
<path d="M1.34326 18.8573H14.6766V19.6906C14.6766 19.9116 14.5888 20.1236 14.4325 20.2799C14.2762 20.4362 14.0643 20.524 13.8433 20.524H2.1766C1.95558 20.524 1.74362 20.4362 1.58734 20.2799C1.43106 20.1236 1.34326 19.9116 1.34326 19.6906V18.8573Z" fill="#B6B6B6"/>
<path d="M45.5299 8.83114L48.6308 11.5596L51.3936 8.15798C51.4709 8.06288 51.5687 7.98646 51.6797 7.93441C51.7907 7.88236 51.912 7.85602 52.0346 7.85735C52.1572 7.85868 52.2779 7.88765 52.3877 7.9421C52.4976 7.99655 52.5937 8.07507 52.669 8.17183L55.3054 11.5588L58.5066 8.7912C58.6323 8.68274 58.7881 8.61526 58.9532 8.5978C59.1183 8.58033 59.2849 8.61372 59.4305 8.69349C59.5761 8.77325 59.6939 8.8956 59.7681 9.04414C59.8422 9.19268 59.8693 9.36034 59.8455 9.52467L58.6231 17.9571H45.4264L44.1852 9.56297C44.1605 9.39773 44.1873 9.2289 44.2618 9.07935C44.3363 8.9298 44.4549 8.80676 44.6017 8.72689C44.7484 8.64703 44.9162 8.61419 45.0822 8.63284C45.2482 8.65148 45.4045 8.72071 45.5299 8.83114Z" fill="#AF7D59"/>
<path d="M45.49 18.7722H58.5294V19.5871C58.5294 19.8033 58.4436 20.0106 58.2907 20.1634C58.1379 20.3162 57.9306 20.4021 57.7145 20.4021H46.305C46.0888 20.4021 45.8815 20.3162 45.7287 20.1634C45.5759 20.0106 45.49 19.8033 45.49 19.5871V18.7722Z" fill="#AF7D59"/>
</svg>
