<svg width="25" height="25" viewBox="0 0 25 25" fill="none" xmlns="http://www.w3.org/2000/svg">
<path d="M12.5 25C19.4036 25 25 19.4036 25 12.5C25 5.59644 19.4036 0 12.5 0C5.59644 0 0 5.59644 0 12.5C0 19.4036 5.59644 25 12.5 25Z" fill="#9388AD"/>
<path d="M14.6419 12.9582C14.6289 13.1067 14.573 13.2481 14.4809 13.3653C14.3888 13.4825 14.2646 13.5702 14.1234 13.6179C13.9822 13.6656 13.8302 13.6711 13.6859 13.6337C13.5416 13.5963 13.4114 13.5177 13.3111 13.4075C13.2108 13.2973 13.1448 13.1602 13.1212 13.0131C13.0975 12.866 13.1173 12.7151 13.178 12.5791C13.2388 12.443 13.3378 12.3275 13.4631 12.2469C13.5884 12.1662 13.7345 12.1238 13.8836 12.1249C14.0913 12.1437 14.2845 12.2397 14.4249 12.394C14.5653 12.5483 14.6427 12.7496 14.6419 12.9582ZM11.1419 12.1249C10.9749 12.1115 10.8077 12.1487 10.6622 12.2318C10.5167 12.3148 10.3996 12.4398 10.3261 12.5904C10.2527 12.741 10.2264 12.9102 10.2506 13.076C10.2749 13.2418 10.3485 13.3965 10.462 13.5198C10.5754 13.6431 10.7234 13.7293 10.8866 13.7672C11.0498 13.8052 11.2206 13.793 11.3768 13.7324C11.533 13.6718 11.6673 13.5655 11.7621 13.4274C11.857 13.2892 11.908 13.1258 11.9086 12.9582C11.9092 12.7483 11.8306 12.5458 11.6885 12.3913C11.5464 12.2368 11.3512 12.1417 11.1419 12.1249ZM19.0669 7.37488V20.8332C17.1752 19.1665 17.7752 19.7165 15.5836 17.6749L15.9836 19.0665H7.50022C7.29355 19.0699 7.08831 19.0317 6.89671 18.9542C6.70511 18.8766 6.53105 18.7614 6.38489 18.6152C6.23874 18.469 6.12346 18.295 6.04593 18.1034C5.96839 17.9118 5.93018 17.7065 5.93356 17.4999V7.37488C5.93353 7.1703 5.97422 6.96777 6.05325 6.77908C6.13229 6.59038 6.24809 6.41931 6.3939 6.27582C6.53972 6.13233 6.71263 6.0193 6.90257 5.94331C7.09251 5.86732 7.29567 5.82989 7.50022 5.83321H17.5002C17.7048 5.82989 17.9079 5.86732 18.0979 5.94331C18.2878 6.0193 18.4607 6.13233 18.6065 6.27582C18.7524 6.41931 18.8682 6.59038 18.9472 6.77908C19.0262 6.96777 19.0669 7.1703 19.0669 7.37488ZM16.9252 14.4915C16.8992 12.9691 16.5258 11.4727 15.8336 10.1165C15.2367 9.62806 14.5029 9.33689 13.7336 9.28321L13.6252 9.40821C14.3075 9.58954 14.9437 9.91331 15.4919 10.3582C14.6366 9.89789 13.6875 9.63907 12.717 9.60152C11.7464 9.56397 10.7802 9.74868 9.89189 10.1415C9.60856 10.2665 9.45022 10.3582 9.45022 10.3582C10.0247 9.88856 10.6965 9.55267 11.4169 9.37488L11.3419 9.28321C10.5701 9.33735 9.8338 9.62838 9.23356 10.1165C8.55301 11.4759 8.18838 12.9715 8.16689 14.4915C8.42472 14.8539 8.76805 15.1469 9.16639 15.3446C9.56472 15.5424 10.0057 15.6386 10.4502 15.6249C10.4502 15.6249 10.7336 15.2915 10.9586 15.0082C10.4354 14.8886 9.97005 14.5911 9.64189 14.1665C9.75022 14.2415 9.93356 14.3415 9.95022 14.3499C10.6626 14.7383 11.4526 14.9631 12.2627 15.0077C13.0729 15.0524 13.8828 14.9159 14.6336 14.6082C14.9285 14.4959 15.2083 14.3475 15.4669 14.1665C15.1393 14.5823 14.6815 14.8759 14.1669 14.9999C14.3919 15.2915 14.6669 15.6082 14.6669 15.6082C15.1052 15.6162 15.539 15.5189 15.9319 15.3246C16.3249 15.1303 16.6655 14.8447 16.9252 14.4915Z" fill="#292343"/>
</svg>
