<svg width="25" height="25" viewBox="0 0 25 25" fill="none" xmlns="http://www.w3.org/2000/svg">
<path d="M12.5 25C19.4036 25 25 19.4036 25 12.5C25 5.59644 19.4036 0 12.5 0C5.59644 0 0 5.59644 0 12.5C0 19.4036 5.59644 25 12.5 25Z" fill="#9388AD"/>
<path d="M19.3999 7.64999L17.1249 18.3333C16.9666 19.0833 16.5166 19.2667 15.8833 18.9167L12.4416 16.4167L10.7749 18.0167C10.6931 18.1233 10.5867 18.2085 10.4648 18.2651C10.3429 18.3217 10.2092 18.3479 10.0749 18.3417L10.3333 14.825L16.7333 9.05832C17.0083 8.79999 16.6583 8.68332 16.3083 8.91665L8.38327 13.9167L4.99994 12.8083C4.24994 12.575 4.24994 12.0583 5.15827 11.7083L18.4916 6.57499C19.0749 6.36665 19.6166 6.71665 19.3999 7.64999Z" fill="#292343"/>
</svg>
