<svg width="25" height="25" viewBox="0 0 25 25" fill="none" xmlns="http://www.w3.org/2000/svg">
<path d="M12.5 25C19.4036 25 25 19.4036 25 12.5C25 5.59644 19.4036 0 12.5 0C5.59644 0 0 5.59644 0 12.5C0 19.4036 5.59644 25 12.5 25Z" fill="#9388AD"/>
<path d="M18.8752 10.3416C18.8752 10.2083 18.8752 10.0666 18.8752 9.92496C19.4829 9.46672 20.0025 8.90202 20.4086 8.25829C19.8483 8.51013 19.2523 8.67319 18.6419 8.74163C19.2921 8.34257 19.775 7.72054 20.0002 6.99163C19.4001 7.3558 18.7397 7.60979 18.0502 7.74163C17.7692 7.41319 17.4221 7.1477 17.0315 6.96247C16.6409 6.77723 16.2157 6.67643 15.7836 6.66663C15.3696 6.67085 14.9607 6.75771 14.5808 6.92211C14.2009 7.08652 13.8577 7.32514 13.5712 7.624C13.2848 7.92285 13.0609 8.27591 12.9128 8.66245C12.7647 9.04899 12.6952 9.46122 12.7086 9.87496C12.706 10.1247 12.734 10.3737 12.7919 10.6166C11.5432 10.5275 10.3288 10.1684 9.23247 9.56408C8.13614 8.9598 7.18403 8.12476 6.44189 7.11663C6.16469 7.62816 6.02136 8.20149 6.02523 8.78329C6.02094 9.31769 6.14331 9.84551 6.38231 10.3235C6.6213 10.8015 6.97014 11.2161 7.40023 11.5333C6.90491 11.5136 6.4229 11.3673 6.00023 11.1083C5.98821 11.8519 6.229 12.5775 6.68317 13.1664C7.13734 13.7554 7.77798 14.1726 8.50023 14.35C8.22911 14.426 7.94844 14.4625 7.66689 14.4583C7.4734 14.4567 7.28063 14.4343 7.09189 14.3916C7.2619 15.0405 7.63673 15.6173 8.1607 16.0362C8.68467 16.455 9.3298 16.6937 10.0002 16.7166C8.92957 17.6176 7.57456 18.1106 6.17523 18.1083C5.93023 18.1069 5.68547 18.093 5.44189 18.0666C6.82881 19.0239 8.47336 19.5382 10.1586 19.5416C15.7752 19.5416 18.8752 14.6166 18.8752 10.3416Z" fill="#292343"/>
</svg>
