<svg width="13" height="11" viewBox="0 0 13 11" fill="none" xmlns="http://www.w3.org/2000/svg">
<path d="M11.9456 2.95063L11.1448 4.15509C11.531 4.92535 11.7201 5.77938 11.6951 6.64066C11.6701 7.50195 11.4318 8.34358 11.0016 9.09013H1.97789C1.41874 8.12012 1.18704 6.99575 1.31715 5.8837C1.44726 4.77166 1.93225 3.73114 2.70023 2.9164C3.4682 2.10167 4.47827 1.55609 5.58069 1.36054C6.68311 1.165 7.8192 1.3299 8.82054 1.83081L10.025 1.03C8.79872 0.24366 7.34414 -0.108701 5.89395 0.0292793C4.44375 0.16726 3.08173 0.787609 2.02574 1.7911C0.969746 2.79459 0.280807 4.12324 0.0691186 5.56452C-0.14257 7.0058 0.135223 8.47644 0.858063 9.74119C0.97168 9.93799 1.13482 10.1016 1.33127 10.2159C1.52773 10.3301 1.75065 10.3909 1.97789 10.3923H10.9951C11.2245 10.3932 11.4501 10.3334 11.6491 10.2191C11.848 10.1048 12.0132 9.9399 12.1279 9.74119C12.7278 8.70205 13.0288 7.51735 12.9978 6.31789C12.9668 5.11843 12.6049 3.95087 11.9521 2.94412L11.9456 2.95063ZM5.57174 7.40389C5.69268 7.52495 5.83629 7.621 5.99436 7.68652C6.15244 7.75205 6.32188 7.78578 6.493 7.78578C6.66411 7.78578 6.83355 7.75205 6.99163 7.68652C7.1497 7.621 7.29331 7.52495 7.41425 7.40389L11.0992 1.87638L5.57174 5.56138C5.45068 5.68232 5.35463 5.82593 5.28911 5.984C5.22358 6.14208 5.18985 6.31152 5.18985 6.48264C5.18985 6.65375 5.22358 6.82319 5.28911 6.98127C5.35463 7.13935 5.45068 7.28295 5.57174 7.40389Z" fill="#7F4AFE"/>
</svg>
