<svg width="16" height="12" viewBox="0 0 16 12" fill="none" xmlns="http://www.w3.org/2000/svg">
<path d="M12.4947 3.83926L11.7242 4.99826C12.0958 5.73943 12.2777 6.56123 12.2536 7.39C12.2296 8.21878 12.0003 9.02864 11.5863 9.74702H2.90323C2.36518 8.81362 2.14223 7.73169 2.26743 6.66162C2.39263 5.59155 2.85932 4.5903 3.5983 3.80632C4.33729 3.02234 5.30923 2.49735 6.37004 2.30919C7.43085 2.12102 8.52406 2.2797 9.4876 2.7617L10.6466 1.99112C9.4666 1.23446 8.06693 0.895402 6.67147 1.02817C5.27602 1.16095 3.9654 1.75788 2.94927 2.72349C1.93314 3.6891 1.27021 4.9676 1.06651 6.35448C0.862811 7.74136 1.13012 9.15649 1.82567 10.3735C1.935 10.5629 2.09199 10.7203 2.28102 10.8302C2.47006 10.9401 2.68457 10.9987 2.90323 11H11.5801C11.8008 11.0009 12.0179 10.9434 12.2094 10.8334C12.4008 10.7234 12.5598 10.5647 12.6701 10.3735C13.2474 9.37358 13.5371 8.2336 13.5072 7.07941C13.4774 5.92523 13.1291 4.80174 12.501 3.83299L12.4947 3.83926ZM6.36143 8.12442C6.4778 8.24092 6.61599 8.33333 6.7681 8.39639C6.92021 8.45944 7.08325 8.4919 7.24791 8.4919C7.41257 8.4919 7.57561 8.45944 7.72772 8.39639C7.87983 8.33333 8.01802 8.24092 8.13439 8.12442L11.6803 2.80555L6.36143 6.35146C6.24494 6.46783 6.15252 6.60602 6.08946 6.75813C6.02641 6.91024 5.99395 7.07328 5.99395 7.23794C5.99395 7.4026 6.02641 7.56565 6.08946 7.71776C6.15252 7.86986 6.24494 8.00805 6.36143 8.12442Z" fill="white"/>
</svg>
