<svg width="12" height="13" viewBox="0 0 12 13" fill="none" xmlns="http://www.w3.org/2000/svg">
<path fill-rule="evenodd" clip-rule="evenodd" d="M9.55013 9.90386C9.12792 10.5646 8.38104 11.0061 7.42208 11.1339V12.2725C7.42208 12.7339 7.06684 12.9754 6.71579 12.9754C6.36473 12.9754 6.00987 12.7339 6.00987 12.2725V11.1136C4.08976 10.8199 3.70478 9.5031 3.5304 8.90018L3.5182 8.84482C3.50829 8.79648 3.49609 8.73664 3.49609 8.66627C3.49609 8.29609 3.75624 7.98381 4.14388 7.88966L4.1677 7.88499C4.2468 7.87115 4.31236 7.86003 4.39412 7.86003C4.76899 7.86003 5.07297 8.08167 5.16883 8.42572C5.33273 9.04735 5.57782 9.60115 6.7802 9.60115C7.4626 9.60115 7.94214 9.38488 8.14732 9.00371L9.55013 9.90386ZM9.87961 7.90639C9.62223 6.53933 8.48442 6.09528 7.26561 5.83139L6.53073 5.67915C6.46544 5.66602 6.40377 5.65252 6.34553 5.63864L9.87961 7.90639ZM5.3956 5.02909C5.36615 4.92933 5.36018 4.82188 5.36018 4.70665C5.36018 4.14661 5.85359 3.81192 6.68015 3.81192C7.65898 3.81192 7.90978 4.31484 8.01384 4.69261L8.02375 4.72399C8.14687 5.05343 8.43293 5.24992 8.78989 5.24992C8.88232 5.24992 8.96541 5.23549 9.02754 5.22263C9.41061 5.14465 9.67743 4.83277 9.67743 4.46337C9.67743 4.37176 9.66123 4.28092 9.62864 4.19261C9.43234 3.547 8.8808 2.53083 7.35252 2.29887V1.19166C7.35252 0.269446 5.94031 0.269446 5.94031 1.19166V2.30549C4.67905 2.50737 4.02997 3.22838 3.79687 4.00322L5.3956 5.02909Z" fill="#5EF59A"/>
<rect x="1.4082" y="2.90527" width="12.5394" height="0.970035" rx="0.485018" transform="rotate(33.3473 1.4082 2.90527)" fill="#5EF59A"/>
</svg>
