<svg width="11" height="12" viewBox="0 0 11 12" fill="none" xmlns="http://www.w3.org/2000/svg">
<path d="M3.78357 0.885C4.55857 0.682188 5.38214 0.5 5.875 0.5C6.36786 0.5 7.19143 0.682188 7.96643 0.885C8.75928 1.09125 9.55857 1.33531 10.0286 1.48313C10.2251 1.54559 10.3993 1.66013 10.5312 1.81361C10.6631 1.96708 10.7474 2.15326 10.7743 2.35075C11.2 5.42869 10.2121 7.70981 9.01357 9.21888C8.50531 9.86442 7.89928 10.4329 7.21571 10.9053C6.97935 11.0688 6.72892 11.2125 6.46714 11.335C6.26714 11.4257 6.05214 11.5 5.875 11.5C5.69786 11.5 5.48357 11.4257 5.28286 11.335C5.02108 11.2125 4.77065 11.0688 4.53429 10.9053C3.85074 10.4329 3.2447 9.86441 2.73643 9.21888C1.53786 7.70981 0.550004 5.42869 0.975718 2.35075C1.00264 2.15326 1.08689 1.96708 1.2188 1.81361C1.35071 1.66013 1.52493 1.54559 1.72143 1.48313C2.40371 1.26781 3.09129 1.06837 3.78357 0.885Z" fill="white"/>
</svg>
