<svg width="15" height="14" viewBox="0 0 15 14" fill="none" xmlns="http://www.w3.org/2000/svg">
<path d="M2.28484 11.9767C2.22263 12.331 2.57198 12.6085 2.87985 12.4502L6.37971 10.6461L8.08761 11.5258L8.21213 11.3591L6.48301 8.88158H8.41915L9.3833 10.0056L9.97689 9.11945L9.81496 8.19421L12.6241 5.51045C12.8873 5.25935 12.7509 4.80033 12.3992 4.75075L8.49254 4.19416L6.75059 0.733909C6.59346 0.42203 6.16834 0.42203 6.01122 0.733909L4.26926 4.19416L0.36263 4.75075C0.0108899 4.80033 -0.125499 5.25935 0.13691 5.51045L2.94685 8.19421L2.28484 11.9767Z" fill="#FFC700"/>
<path d="M10.3334 13.5L9.31169 12.027L8.30808 13.5H7.18356L8.74942 11.342L7.26215 9.25683H8.37458L9.34796 10.6328L10.3032 9.25683H11.3612L9.88604 11.3057L11.464 13.5H10.3334Z" fill="#FFC700"/>
<path d="M15 12.6999V13.5H11.8018V12.8635L13.4341 11.3178C13.6074 11.1521 13.7243 11.0107 13.7848 10.8935C13.8452 10.7722 13.8755 10.653 13.8755 10.5358C13.8755 10.3661 13.817 10.2368 13.7001 10.1479C13.5873 10.0549 13.42 10.0085 13.1983 10.0085C13.0129 10.0085 12.8457 10.0448 12.6965 10.1176C12.5474 10.1863 12.4225 10.2914 12.3217 10.4328L11.6083 9.9721C11.7735 9.72559 12.0013 9.53364 12.2915 9.39624C12.5817 9.2548 12.9142 9.18409 13.289 9.18409C13.6034 9.18409 13.8775 9.23662 14.1113 9.34169C14.3491 9.44272 14.5325 9.5882 14.6614 9.77813C14.7944 9.96402 14.8609 10.1843 14.8609 10.4389C14.8609 10.6692 14.8126 10.8854 14.7158 11.0875C14.6191 11.2895 14.4317 11.5199 14.1536 11.7785L13.1802 12.6999H15Z" fill="#FFC700"/>
</svg>
