<?xml version="1.0" encoding="UTF-8"?>
<svg width="16px" height="16px" viewBox="0 0 16 16" version="1.1" xmlns="http://www.w3.org/2000/svg" xmlns:xlink="http://www.w3.org/1999/xlink">
    <title>shouyiqingkuang</title>
    <defs>
        <filter color-interpolation-filters="auto" id="filter-1">
            <feColorMatrix in="SourceGraphic" type="matrix" values="0 0 0 0 0.756863 0 0 0 0 0.756863 0 0 0 0 0.756863 0 0 0 1.000000 0"></feColorMatrix>
        </filter>
    </defs>
    <g id="light" stroke="none" stroke-width="1" fill="none" fill-rule="evenodd">
        <g id="2.farm" transform="translate(-1132.000000, -446.000000)">
            <g id="第一条备份" transform="translate(355.000000, 414.000000)">
                <g id="shouyiqingkuang" transform="translate(757.000000, 26.000000)" filter="url(#filter-1)">
                    <g transform="translate(20.000000, 6.000000)">
                        <path d="M1.48530328,12.6412112 L2.19702128,11.9231128 C4.24026573,14.951073 8.26764338,15.9002943 11.4481833,14.1036418 C14.6287036,12.3069308 15.8943208,8.36760571 14.3552995,5.05480498 C12.8163563,1.74192611 8.9895779,0.168094753 5.56511139,1.43954421 C2.1405472,2.71099367 0.268209621,6.40071696 1.26425149,9.91518376 L4.73046311,6.66213665 L7.72267141,9.65667458 L10.363416,7.01366538 L8.7192407,5.37115348 L12.7089169,5.37115348 L12.7089169,9.36900157 L11.0667146,7.72656781 L7.72343325,11.0717164 L4.73122496,8.07962016 L0.929489686,11.8416963 C0.929489686,11.8416963 0.857309908,11.7020693 0.668978315,11.3274908 C0.565504354,11.1295557 0.483635491,10.9210138 0.42479774,10.7055374 L0.460741121,10.6711971 C-0.942222789,6.71073654 0.958185787,2.33998984 4.81151153,0.664758972 C8.6647396,-1.01041329 13.1574473,0.580978871 15.0969248,4.30816782 C17.0363241,8.0353763 15.7614671,12.6276939 12.1782832,14.8218965 C8.59500163,17.0160796 3.92490163,16.0640259 1.48645581,12.6424223 L1.48530328,12.6412112 Z" id="Fill-1" fill="#C1C1C1"></path>
                    </g>
                </g>
            </g>
        </g>
    </g>
</svg>