<svg width="24" height="20" viewBox="0 0 24 20" fill="none" xmlns="http://www.w3.org/2000/svg">
<path d="M1.39088 0.981797C1.23416 1.1382 1.10982 1.32397 1.02499 1.52849C0.940151 1.733 0.896484 1.95224 0.896484 2.17365C0.896484 2.39506 0.940151 2.6143 1.02499 2.81881C1.10982 3.02333 1.23416 3.2091 1.39088 3.3655L7.9503 9.92492L1.39088 16.4843C1.23436 16.6408 1.11021 16.8267 1.0255 17.0312C0.940797 17.2357 0.8972 17.4548 0.8972 17.6762C0.8972 17.8975 0.940797 18.1167 1.0255 18.3212C1.11021 18.5257 1.23436 18.7115 1.39088 18.868C1.5474 19.0246 1.73321 19.1487 1.93771 19.2334C2.14221 19.3181 2.36139 19.3617 2.58273 19.3617C2.80408 19.3617 3.02326 19.3181 3.22776 19.2334C3.43226 19.1487 3.61807 19.0246 3.77459 18.868L11.5343 11.1083C11.691 10.9519 11.8154 10.7661 11.9002 10.5616C11.985 10.3571 12.0287 10.1379 12.0287 9.91646C12.0287 9.69505 11.985 9.47581 11.9002 9.2713C11.8154 9.06679 11.691 8.88101 11.5343 8.72461L3.79149 0.981797C3.13217 0.322474 2.0502 0.322474 1.39088 0.981797Z" fill="#52466A"/>
<path d="M12.5315 0.981001C12.3748 1.1374 12.2504 1.32318 12.1656 1.52769C12.0808 1.7322 12.0371 1.95144 12.0371 2.17285C12.0371 2.39426 12.0808 2.6135 12.1656 2.81802C12.2504 3.02253 12.3748 3.2083 12.5315 3.36471L19.0909 9.92412L12.5315 16.4835C12.2154 16.7996 12.0378 17.2284 12.0378 17.6754C12.0378 18.1224 12.2154 18.5511 12.5315 18.8672C12.8476 19.1833 13.2763 19.3609 13.7234 19.3609C14.1704 19.3609 14.5991 19.1833 14.9152 18.8672L22.6749 11.1075C22.8317 10.9511 22.956 10.7653 23.0408 10.5608C23.1257 10.3563 23.1693 10.1371 23.1693 9.91567C23.1693 9.69425 23.1257 9.47502 23.0408 9.2705C22.956 9.06599 22.8317 8.88021 22.6749 8.72381L14.9152 0.964095C14.2728 0.321678 13.1908 0.321678 12.5315 0.981001Z" fill="#52466A"/>
</svg>
