<svg width="11" height="13" viewBox="0 0 11 13" fill="none" xmlns="http://www.w3.org/2000/svg">
<path d="M10.4719 0.761952C10.3865 0.676437 10.2852 0.608594 10.1736 0.562304C10.062 0.516014 9.94237 0.492187 9.82156 0.492187C9.70075 0.492187 9.58112 0.516014 9.46953 0.562304C9.35794 0.608594 9.25657 0.676437 9.17123 0.761952L5.59213 4.34105L2.01303 0.761951C1.92763 0.676549 1.82624 0.608805 1.71466 0.562585C1.60308 0.516366 1.48348 0.492578 1.36271 0.492578C1.24193 0.492578 1.12234 0.516366 1.01075 0.562585C0.89917 0.608805 0.797782 0.676549 0.71238 0.761951C0.626978 0.847353 0.559235 0.94874 0.513016 1.06032C0.466796 1.17191 0.443007 1.2915 0.443007 1.41228C0.443007 1.53305 0.466796 1.65265 0.513016 1.76423C0.559235 1.87581 0.626978 1.9772 0.71238 2.0626L4.94642 6.29664C5.03176 6.38216 5.13312 6.45 5.24472 6.49629C5.35631 6.54258 5.47593 6.56641 5.59674 6.56641C5.71756 6.56641 5.83718 6.54258 5.94877 6.49629C6.06036 6.45 6.16173 6.38216 6.24707 6.29664L10.4719 2.07183C10.8316 1.71207 10.8316 1.12171 10.4719 0.761952Z" fill="#7F4AFE"/>
<path d="M10.4717 6.84008C10.3864 6.75456 10.285 6.68672 10.1734 6.64043C10.0618 6.59414 9.94218 6.57031 9.82137 6.57031C9.70056 6.57031 9.58093 6.59414 9.46934 6.64043C9.35775 6.68672 9.25638 6.75456 9.17104 6.84008L5.59194 10.4192L2.01285 6.84008C1.84037 6.6676 1.60644 6.5707 1.36252 6.5707C1.1186 6.5707 0.884669 6.6676 0.712192 6.84008C0.539715 7.01255 0.44282 7.24648 0.44282 7.4904C0.44282 7.73432 0.539715 7.96825 0.712192 8.14073L4.94623 12.3748C5.03157 12.4603 5.13294 12.5281 5.24453 12.5744C5.35612 12.6207 5.47574 12.6445 5.59656 12.6445C5.71737 12.6445 5.83699 12.6207 5.94858 12.5744C6.06018 12.5281 6.16154 12.4603 6.24688 12.3748L10.4809 8.14073C10.8315 7.7902 10.8315 7.19983 10.4717 6.84008Z" fill="#7F4AFE"/>
</svg>
