<svg width="15" height="11" viewBox="0 0 15 11" fill="none" xmlns="http://www.w3.org/2000/svg">
<path d="M10.4931 10.1632L9.66564 8.97338L8.85285 10.1632H7.94212L9.21028 8.42009L8.00578 6.73575H8.90671L9.69502 7.84722L10.4686 6.73575H11.3255L10.1308 8.39072L11.4087 10.1632H10.4931Z" fill="#6A20B3"/>
<path d="M14.2725 9.51688V10.1632H11.6823V9.64908L13.0043 8.40051C13.1447 8.26667 13.2393 8.15243 13.2883 8.05776C13.3373 7.95984 13.3617 7.86354 13.3617 7.76888C13.3617 7.63178 13.3144 7.52732 13.2197 7.45551C13.1283 7.38043 12.9929 7.3429 12.8133 7.3429C12.6632 7.3429 12.5277 7.37227 12.4069 7.43103C12.2862 7.48652 12.185 7.57139 12.1034 7.68564L11.5256 7.31352C11.6594 7.1144 11.8439 6.95935 12.0789 6.84836C12.3139 6.73411 12.5832 6.67699 12.8868 6.67699C13.1414 6.67699 13.3634 6.71943 13.5527 6.8043C13.7453 6.8859 13.8938 7.00341 13.9983 7.15683C14.106 7.30699 14.1598 7.48489 14.1598 7.69054C14.1598 7.8766 14.1207 8.05123 14.0423 8.21445C13.964 8.37766 13.8122 8.56372 13.587 8.77263L12.7987 9.51688H14.2725Z" fill="#6A20B3"/>
<path d="M10.0018 4.22893L10.7204 3.148L10.7263 3.14216C11.2986 4.02489 11.6218 5.04538 11.6623 6.09574H10.492C10.4603 5.44747 10.2939 4.8115 10.0018 4.22893Z" fill="#6A20B3"/>
<path d="M7.92922 8.65781H1.77503C1.27322 7.78729 1.06529 6.77824 1.18206 5.78025C1.29883 4.78226 1.73407 3.84846 2.42328 3.11728C3.11248 2.38611 4.01896 1.89649 5.00831 1.721C5.99766 1.54551 7.01723 1.6935 7.91587 2.14303L8.99679 1.42436C7.89628 0.71867 6.5909 0.402448 5.28944 0.526276C3.98798 0.650105 2.76565 1.20683 1.81797 2.1074C0.870285 3.00796 0.252007 4.20034 0.0620295 5.4938C-0.127948 6.78726 0.121354 8.10706 0.770056 9.2421C0.87202 9.41871 1.01843 9.56557 1.19473 9.66807C1.37104 9.77057 1.5711 9.82515 1.77503 9.82638H7.15018L7.92922 8.65781Z" fill="#6A20B3"/>
<path d="M5.37955 7.39816C5.23769 7.33936 5.10881 7.25316 5.00028 7.14451C4.89163 7.03598 4.80544 6.9071 4.74663 6.76524C4.68783 6.62338 4.65756 6.47132 4.65756 6.31775C4.65756 6.16418 4.68783 6.01212 4.74663 5.87026C4.80544 5.72839 4.89163 5.59951 5.00028 5.49099L9.96087 2.18393L6.65381 7.14451C6.54528 7.25316 6.4164 7.33936 6.27454 7.39816C6.13268 7.45697 5.98062 7.48724 5.82705 7.48724C5.67348 7.48724 5.52142 7.45697 5.37955 7.39816Z" fill="#6A20B3"/>
</svg>
