<svg width="11" height="12" viewBox="0 0 11 12" fill="none" xmlns="http://www.w3.org/2000/svg">
<path d="M3.179 0.42C3.99275 0.19875 4.8575 0 5.375 0C5.8925 0 6.75725 0.19875 7.571 0.42C8.4035 0.645 9.24275 0.91125 9.73625 1.0725C9.94258 1.14064 10.1255 1.2656 10.264 1.43303C10.4025 1.60045 10.491 1.80355 10.5193 2.019C10.9663 5.37675 9.929 7.86525 8.6705 9.5115C8.13683 10.2157 7.5005 10.8359 6.78275 11.3512C6.53457 11.5296 6.27162 11.6864 5.99675 11.82C5.78675 11.919 5.561 12 5.375 12C5.189 12 4.964 11.919 4.75325 11.82C4.47839 11.6864 4.21543 11.5296 3.96725 11.3512C3.24952 10.8359 2.61319 10.2157 2.0795 9.5115C0.821004 7.86525 -0.216246 5.37675 0.230754 2.019C0.259019 1.80355 0.347486 1.60045 0.485992 1.43303C0.624497 1.2656 0.807422 1.14064 1.01375 1.0725C1.73015 0.837607 2.45211 0.620044 3.179 0.42Z" fill="#0166FF"/>
</svg>
