<svg width="16" height="12" viewBox="0 0 16 12" fill="none" xmlns="http://www.w3.org/2000/svg">
<path d="M13.7937 3.40711L12.869 4.79791C13.3149 5.68732 13.5332 6.67348 13.5044 7.66801C13.4755 8.66253 13.2004 9.63437 12.7036 10.4964H2.28388C1.63822 9.37634 1.37068 8.07803 1.52092 6.79394C1.67116 5.50986 2.23118 4.30836 3.11796 3.36758C4.00474 2.4268 5.17107 1.79682 6.44405 1.57102C7.71702 1.34523 9.02887 1.53564 10.1851 2.11404L11.5759 1.18935C10.1599 0.281356 8.48031 -0.125518 6.80577 0.0338089C5.13122 0.193135 3.55848 0.909456 2.33913 2.06819C1.11977 3.22693 0.32425 4.76112 0.0798116 6.42538C-0.164626 8.08963 0.156142 9.78778 0.990809 11.2482C1.122 11.4755 1.31038 11.6644 1.53723 11.7963C1.76407 11.9282 2.02148 11.9984 2.28388 12H12.6961C12.961 12.001 13.2215 11.9321 13.4512 11.8C13.681 11.668 13.8717 11.4777 14.0042 11.2482C14.6968 10.0483 15.0445 8.68032 15.0086 7.29529C14.9728 5.91027 14.555 4.56209 13.8012 3.39959L13.7937 3.40711ZM6.43372 8.5493C6.57336 8.6891 6.73919 8.8 6.92172 8.87567C7.10425 8.95133 7.2999 8.99028 7.49749 8.99028C7.69508 8.99028 7.89074 8.95133 8.07327 8.87567C8.2558 8.8 8.42162 8.6891 8.56126 8.5493L12.8164 2.16667L6.43372 6.42176C6.29392 6.5614 6.18302 6.72722 6.10736 6.90975C6.03169 7.09228 5.99274 7.28794 5.99274 7.48553C5.99274 7.68312 6.03169 7.87878 6.10736 8.06131C6.18302 8.24384 6.29392 8.40966 6.43372 8.5493Z" fill="#6A20B3"/>
</svg>
