<svg width="876" height="876" viewBox="0 0 876 876" fill="none" xmlns="http://www.w3.org/2000/svg">
<circle cx="438" cy="438" r="438" fill="#4EC770"/>
<circle cx="438" cy="438" r="400" stroke="black" stroke-width="4"/>
<path d="M464.393 529.588C464.092 529.588 463.834 529.632 463.533 529.762C455.626 533.144 446.945 535.008 437.834 535.008C428.723 535.008 420.042 533.144 412.178 529.762C410.029 528.851 408.267 531.583 409.857 533.274C416.948 540.688 426.832 545.284 437.877 545.284C448.879 545.284 458.806 540.688 465.897 533.274C467.272 531.8 466.112 529.588 464.393 529.588Z" fill="black"/>
<path d="M666.635 509.731C666.291 508.256 665.861 506.825 665.389 505.438L557.735 203.23C545.444 170.061 520.089 143.525 487.685 129.954C472.128 123.494 455.669 120.242 439.166 120.242C422.75 120.242 406.333 123.45 390.862 129.911L390.69 129.997C358.158 143.525 332.673 170.147 320.425 203.447L214.921 491.39C209.592 503.747 206.626 517.448 206.626 531.8C206.626 564.622 222.098 593.803 246.078 612.36C247.754 613.661 249.344 615.048 250.805 616.609C251.536 617.39 252.309 618.127 253.083 618.864L371.179 728.43C383.728 740.527 399.199 749.069 416.045 753.145C431.302 756.874 447.246 756.874 462.502 753.145C479.348 749.026 494.862 740.484 507.368 728.43L625.421 618.864C628.859 615.525 631.954 612.317 635.263 608.458C635.736 607.894 636.251 607.33 636.767 606.81C655.762 587.342 668.998 561.414 668.998 531.8C669.041 524.212 668.182 516.841 666.635 509.731ZM496.109 670.2C480.208 683.208 459.923 691.012 437.877 691.012C415.831 691.012 395.546 683.208 379.645 670.2C374.961 666.385 374.961 659.187 379.645 655.328C395.546 642.321 415.831 634.516 437.877 634.516C459.923 634.516 480.208 642.321 496.109 655.328C500.75 659.144 500.75 666.341 496.109 670.2ZM584.939 583.7L526.879 642.277C522.023 647.177 514.158 647.74 508.829 643.361C488.803 626.972 464.006 618.083 437.834 618.083C411.662 618.083 386.908 626.972 366.839 643.361C364.389 645.356 361.467 646.353 358.501 646.353C355.02 646.353 351.453 644.965 348.832 642.277L290.772 583.7C285.228 578.107 285.4 568.958 291.245 563.755C331.814 527.681 383.341 507.996 437.877 507.996C492.413 507.996 543.94 527.681 584.509 563.755C590.311 568.958 590.439 578.107 584.939 583.7ZM584.466 429.301C543.897 465.375 492.37 485.06 437.834 485.06C383.298 485.06 331.771 465.375 291.202 429.301C285.357 424.098 285.185 414.906 290.729 409.356L348.789 350.778C353.645 345.879 361.51 345.315 366.839 349.695C386.865 366.084 411.662 374.973 437.834 374.973C463.963 374.973 488.76 366.084 508.786 349.695C514.158 345.315 521.98 345.879 526.836 350.778L584.896 409.356C590.482 414.906 590.311 424.098 584.466 429.301Z" fill="black"/>
</svg>
