<svg width="16" height="16" viewBox="0 0 16 16" fill="none" xmlns="http://www.w3.org/2000/svg">
<path d="M4.56649 0.208939C4.65101 0.101363 4.81318 0.0990296 4.90076 0.204129L6.77209 2.44972C6.83589 2.52629 6.83872 2.63666 6.77892 2.7164L4.3651 5.93487C4.32449 5.98902 4.26076 6.02088 4.19308 6.02088H0.442414C0.262986 6.02088 0.162478 5.81409 0.273331 5.673L4.56649 0.208939Z" fill="url(#paint0_linear_2861_17320)"/>
<path d="M9.19547 0.208939C9.11095 0.101363 8.94878 0.0990296 8.8612 0.204129L6.98987 2.44972C6.92607 2.52629 6.92324 2.63666 6.98304 2.7164L9.39686 5.93487C9.43747 5.98902 9.5012 6.02088 9.56888 6.02088H13.3195C13.499 6.02088 13.5995 5.81409 13.4886 5.673L9.19547 0.208939Z" fill="url(#paint1_linear_2861_17320)"/>
<path fill-rule="evenodd" clip-rule="evenodd" d="M0.000244141 7.31113L0.000476894 7.3109H4.30036C4.30059 7.3109 4.30078 7.31109 4.30078 7.31132C4.30078 8.73641 5.45605 9.89167 6.88114 9.89167C8.30623 9.89167 9.4615 8.73641 9.4615 7.31132C9.4615 7.31109 9.46168 7.3109 9.46191 7.3109H13.7619L13.7621 7.31113C13.7621 7.7431 13.7223 8.16577 13.6462 8.57567C12.7329 8.35922 11.7561 8.44024 10.8627 8.87358C8.98981 9.78196 8.10593 11.9365 8.65191 13.9621C8.08693 14.1121 7.4934 14.1921 6.8812 14.1921C3.08095 14.1921 0.000244141 11.1114 0.000244141 7.31113Z" fill="url(#paint2_linear_2861_17320)"/>
<path d="M10.9919 11.6565C10.8022 11.3848 10.4281 11.3184 10.1565 11.5081C9.88479 11.6978 9.81835 12.0719 10.0081 12.3435L10.9919 11.6565ZM15.5123 11.3123C15.6848 11.0293 15.5952 10.6601 15.3123 10.4877C15.0293 10.3152 14.6601 10.4048 14.4877 10.6877L15.5123 11.3123ZM13.123 14.0796L12.6106 13.7674L13.123 14.0796ZM10.0081 12.3435L11.4853 14.4588L12.4691 13.7718L10.9919 11.6565L10.0081 12.3435ZM13.6353 14.3919L15.5123 11.3123L14.4877 10.6877L12.6106 13.7674L13.6353 14.3919ZM11.4853 14.4588C12.0161 15.2189 13.1528 15.1835 13.6353 14.3919L12.6106 13.7674C12.5789 13.8195 12.5041 13.8218 12.4691 13.7718L11.4853 14.4588Z" fill="url(#paint3_linear_2861_17320)"/>
<defs>
<linearGradient id="paint0_linear_2861_17320" x1="-0.252695" y1="0.368625" x2="8.79582" y2="1.95603" gradientUnits="userSpaceOnUse">
<stop stop-color="#6E49CA"/>
<stop offset="0.78125" stop-color="#8664CE"/>
</linearGradient>
<linearGradient id="paint1_linear_2861_17320" x1="14.0147" y1="0.368625" x2="4.96615" y2="1.95603" gradientUnits="userSpaceOnUse">
<stop stop-color="#6E49CA"/>
<stop offset="0.78125" stop-color="#8664CE"/>
</linearGradient>
<linearGradient id="paint2_linear_2861_17320" x1="-0.505146" y1="7.73219" x2="16.5422" y2="12.9657" gradientUnits="userSpaceOnUse">
<stop stop-color="#6E49CA"/>
<stop offset="0.78125" stop-color="#8664CE"/>
</linearGradient>
<linearGradient id="paint3_linear_2861_17320" x1="10.3347" y1="11.2433" x2="16.2556" y2="12.2723" gradientUnits="userSpaceOnUse">
<stop stop-color="#6E49CA"/>
<stop offset="0.78125" stop-color="#8664CE"/>
</linearGradient>
</defs>
</svg>
