<svg width="25" height="25" viewBox="0 0 25 25" fill="none" xmlns="http://www.w3.org/2000/svg">
<path d="M12.5 25C19.4036 25 25 19.4036 25 12.5C25 5.59644 19.4036 0 12.5 0C5.59644 0 0 5.59644 0 12.5C0 19.4036 5.59644 25 12.5 25Z" fill="#9388AD"/>
<path d="M20 16.9667V18.7167H14.6167V16.9667H15.7333V9.22507H15.6833L13.0583 18.7167H11.0333L8.44167 9.22507H8.375V16.9667H9.5V18.7167H5V16.9667H5.575C5.71274 16.9618 5.8436 16.9053 5.94167 16.8084C5.99164 16.7704 6.03358 16.7228 6.06505 16.6684C6.09652 16.6141 6.11689 16.554 6.125 16.4917V9.16673C6.1062 9.03711 6.04107 8.91869 5.94167 8.8334C5.84764 8.72732 5.71628 8.66164 5.575 8.65007H5V6.8584H10.625L12.5 13.7251L14.3667 6.8584H20V8.6084H19.4083C19.2755 8.62448 19.1535 8.68992 19.0667 8.79173C18.964 8.87435 18.8981 8.99414 18.8833 9.12507V16.4917C18.8895 16.5536 18.9082 16.6136 18.9383 16.6681C18.9684 16.7225 19.0092 16.7703 19.0583 16.8084C19.1522 16.9015 19.2764 16.9577 19.4083 16.9667H20Z" fill="white"/>
</svg>
