<svg width="25" height="25" viewBox="0 0 25 25" fill="none" xmlns="http://www.w3.org/2000/svg">
<path d="M12.5 25C19.4036 25 25 19.4036 25 12.5C25 5.59644 19.4036 0 12.5 0C5.59644 0 0 5.59644 0 12.5C0 19.4036 5.59644 25 12.5 25Z" fill="#9388AD"/>
<path d="M19.3999 7.65023L17.1249 18.3336C16.9666 19.0836 16.5166 19.2669 15.8833 18.9169L12.4416 16.4169L10.7749 18.0169C10.6931 18.1235 10.5867 18.2087 10.4648 18.2653C10.3429 18.3219 10.2092 18.3482 10.0749 18.3419L10.3333 14.8252L16.7333 9.05856C17.0083 8.80023 16.6583 8.68356 16.3083 8.9169L8.38327 13.9169L4.99994 12.8086C4.24994 12.5752 4.24994 12.0586 5.15827 11.7086L18.4916 6.57523C19.0749 6.3669 19.6166 6.7169 19.3999 7.65023Z" fill="white"/>
</svg>
