<svg width="25" height="25" viewBox="0 0 25 25" fill="none" xmlns="http://www.w3.org/2000/svg">
<path d="M12.5 25C19.4036 25 25 19.4036 25 12.5C25 5.59644 19.4036 0 12.5 0C5.59644 0 0 5.59644 0 12.5C0 19.4036 5.59644 25 12.5 25Z" fill="#9388AD"/>
<path d="M18.8752 10.3415C18.8752 10.2082 18.8752 10.0665 18.8752 9.92484C19.4829 9.4666 20.0025 8.9019 20.4086 8.25817C19.8483 8.51001 19.2523 8.67307 18.6419 8.7415C19.2921 8.34245 19.775 7.72042 20.0002 6.9915C19.4001 7.35568 18.7397 7.60967 18.0502 7.7415C17.7692 7.41307 17.4221 7.14757 17.0315 6.96234C16.6409 6.77711 16.2157 6.67631 15.7836 6.6665C15.3696 6.67073 14.9607 6.75759 14.5808 6.92199C14.2009 7.08639 13.8577 7.32502 13.5712 7.62388C13.2848 7.92273 13.0609 8.27579 12.9128 8.66232C12.7647 9.04886 12.6952 9.4611 12.7086 9.87484C12.706 10.1245 12.734 10.3736 12.7919 10.6165C11.5432 10.5273 10.3288 10.1682 9.23247 9.56395C8.13614 8.95968 7.18403 8.12464 6.44189 7.1165C6.16469 7.62804 6.02136 8.20137 6.02523 8.78317C6.02094 9.31757 6.14331 9.84538 6.38231 10.3234C6.6213 10.8014 6.97014 11.216 7.40023 11.5332C6.90491 11.5135 6.4229 11.3672 6.00023 11.1082C5.98821 11.8518 6.229 12.5774 6.68317 13.1663C7.13734 13.7552 7.77798 14.1725 8.50023 14.3498C8.22911 14.4259 7.94844 14.4624 7.66689 14.4582C7.4734 14.4566 7.28063 14.4342 7.09189 14.3915C7.2619 15.0404 7.63673 15.6172 8.1607 16.036C8.68467 16.4549 9.3298 16.6936 10.0002 16.7165C8.92957 17.6175 7.57456 18.1105 6.17523 18.1082C5.93023 18.1068 5.68547 18.0928 5.44189 18.0665C6.82881 19.0238 8.47336 19.5381 10.1586 19.5415C15.7752 19.5415 18.8752 14.6165 18.8752 10.3415Z" fill="white"/>
</svg>
