<svg width="24" height="24" viewBox="0 0 24 24" fill="none" xmlns="http://www.w3.org/2000/svg">
<line x1="15.7" y1="13.9921" x2="20.4538" y2="13.9921" stroke="#DDDAE1" stroke-width="1.4" stroke-linecap="round"/>
<line x1="17.9925" y1="16.4539" x2="17.9925" y2="11.7" stroke="#DDDAE1" stroke-width="1.4" stroke-linecap="round"/>
<mask id="path-3-inside-1_10729_19257" fill="white">
<path fill-rule="evenodd" clip-rule="evenodd" d="M18.3944 9.83481L12.8474 3.74236C12.4745 3.33283 11.8398 3.30436 11.4317 3.67887L4.32381 10.2028C4.11746 10.3922 4 10.6594 4 10.9395V20C4 20.5522 4.44772 21 5 21H18C18.5523 21 19 20.5522 19 20V17.5213C18.7547 17.8131 18.3783 17.9999 17.9563 17.9999C17.2172 17.9999 16.618 17.427 16.618 16.7203V15.4117H15.3383C15.2214 15.4117 15.108 15.3918 15 15.3554V16.8C15 16.9105 14.9105 17 14.8 17H9.2C9.08954 17 9 16.9105 9 16.8V13.0063C9 12.9493 9.02432 12.895 9.06684 12.857L12.1229 10.13C12.2039 10.0577 12.3278 10.0633 12.402 10.1425L14.8219 12.7265C14.9808 12.6629 15.1552 12.6277 15.3383 12.6277H16.618V11.0444C16.618 10.3376 17.2172 9.76467 17.9563 9.76467C18.1097 9.76467 18.2571 9.78936 18.3944 9.83481Z"/>
</mask>
<path fill-rule="evenodd" clip-rule="evenodd" d="M18.3944 9.83481L12.8474 3.74236C12.4745 3.33283 11.8398 3.30436 11.4317 3.67887L4.32381 10.2028C4.11746 10.3922 4 10.6594 4 10.9395V20C4 20.5522 4.44772 21 5 21H18C18.5523 21 19 20.5522 19 20V17.5213C18.7547 17.8131 18.3783 17.9999 17.9563 17.9999C17.2172 17.9999 16.618 17.427 16.618 16.7203V15.4117H15.3383C15.2214 15.4117 15.108 15.3918 15 15.3554V16.8C15 16.9105 14.9105 17 14.8 17H9.2C9.08954 17 9 16.9105 9 16.8V13.0063C9 12.9493 9.02432 12.895 9.06684 12.857L12.1229 10.13C12.2039 10.0577 12.3278 10.0633 12.402 10.1425L14.8219 12.7265C14.9808 12.6629 15.1552 12.6277 15.3383 12.6277H16.618V11.0444C16.618 10.3376 17.2172 9.76467 17.9563 9.76467C18.1097 9.76467 18.2571 9.78936 18.3944 9.83481Z" fill="#DDDAE1"/>
<path d="M12.8474 3.74236L13.8826 2.79984L13.8826 2.79984L12.8474 3.74236ZM18.3944 9.83481L17.9543 11.1638L23.0272 12.8437L19.4296 8.89229L18.3944 9.83481ZM11.4317 3.67887L12.3784 4.71028L12.3784 4.71028L11.4317 3.67887ZM4.32381 10.2028L3.37714 9.17139H3.37714L4.32381 10.2028ZM19 17.5213H20.4V13.6792L17.9282 16.6206L19 17.5213ZM16.618 15.4117H18.018V14.0117H16.618V15.4117ZM15 15.3554L15.4466 14.0286L13.6 13.4071V15.3554H15ZM9.06684 12.857L9.99896 13.9016L9.99896 13.9016L9.06684 12.857ZM12.1229 10.13L11.1908 9.08542L11.1908 9.08542L12.1229 10.13ZM12.402 10.1425L13.4239 9.18555L13.4239 9.18554L12.402 10.1425ZM14.8219 12.7265L13.8 13.6834L14.454 14.3818L15.3422 14.0262L14.8219 12.7265ZM16.618 12.6277V14.0277H18.018V12.6277H16.618ZM11.8122 4.68489L17.3592 10.7773L19.4296 8.89229L13.8826 2.79984L11.8122 4.68489ZM12.3784 4.71028C12.2152 4.86009 11.9613 4.8487 11.8122 4.68489L13.8826 2.79984C12.9877 1.81696 11.4644 1.74863 10.4851 2.64746L12.3784 4.71028ZM5.27048 11.2342L12.3784 4.71028L10.4851 2.64746L3.37714 9.17139L5.27048 11.2342ZM5.4 10.9395C5.4 11.0516 5.35301 11.1585 5.27048 11.2342L3.37714 9.17139C2.88191 9.62593 2.6 10.2673 2.6 10.9395H5.4ZM5.4 20V10.9395H2.6V20H5.4ZM5 19.6C5.22091 19.6 5.4 19.779 5.4 20H2.6C2.6 21.3254 3.67452 22.4 5 22.4V19.6ZM18 19.6H5V22.4H18V19.6ZM17.6 20C17.6 19.779 17.7791 19.6 18 19.6V22.4C19.3255 22.4 20.4 21.3254 20.4 20H17.6ZM17.6 17.5213V20H20.4V17.5213H17.6ZM17.9282 16.6206C17.9375 16.6095 17.9455 16.6046 17.9503 16.6023C17.9563 16.5996 17.9593 16.5999 17.9563 16.5999V19.3999C18.7964 19.3999 19.5635 19.0268 20.0718 18.4219L17.9282 16.6206ZM17.9563 16.5999C17.9529 16.5999 17.9633 16.5997 17.9776 16.6133C17.9848 16.6202 17.9949 16.6325 18.0036 16.6521C18.0127 16.6728 18.018 16.697 18.018 16.7203H15.218C15.218 18.2586 16.5037 19.3999 17.9563 19.3999V16.5999ZM18.018 16.7203V15.4117H15.218V16.7203H18.018ZM16.618 14.0117H15.3383V16.8117H16.618V14.0117ZM15.3383 14.0117C15.3824 14.0117 15.4196 14.0195 15.4466 14.0286L14.5534 16.6823C14.7964 16.7641 15.0604 16.8117 15.3383 16.8117V14.0117ZM13.6 15.3554V16.8H16.4V15.3554H13.6ZM13.6 16.8C13.6 16.1373 14.1373 15.6 14.8 15.6V18.4C15.6837 18.4 16.4 17.6837 16.4 16.8H13.6ZM14.8 15.6H9.2V18.4H14.8V15.6ZM9.2 15.6C9.86274 15.6 10.4 16.1373 10.4 16.8H7.6C7.6 17.6837 8.31635 18.4 9.2 18.4V15.6ZM10.4 16.8V13.0063H7.6V16.8H10.4ZM10.4 13.0063C10.4 13.3482 10.2541 13.6739 9.99896 13.9016L8.13472 11.8125C7.79452 12.116 7.6 12.5503 7.6 13.0063H10.4ZM9.99896 13.9016L13.055 11.1746L11.1908 9.08542L8.13472 11.8125L9.99896 13.9016ZM13.055 11.1746C12.5689 11.6083 11.8255 11.575 11.3802 11.0995L13.4239 9.18554C12.8301 8.5515 11.8389 8.50705 11.1908 9.08542L13.055 11.1746ZM11.3802 11.0995L13.8 13.6834L15.8437 11.7695L13.4239 9.18555L11.3802 11.0995ZM15.3422 14.0262C15.34 14.027 15.3384 14.0275 15.3374 14.0277C15.3363 14.0279 15.3365 14.0277 15.3383 14.0277V11.2277C14.975 11.2277 14.6241 11.2976 14.3016 11.4267L15.3422 14.0262ZM15.3383 14.0277H16.618V11.2277H15.3383V14.0277ZM18.018 12.6277V11.0444H15.218V12.6277H18.018ZM18.018 11.0444C18.018 11.0676 18.0127 11.0918 18.0036 11.1126C17.9949 11.1321 17.9848 11.1444 17.9776 11.1513C17.9633 11.1649 17.9529 11.1647 17.9563 11.1647V8.36467C16.5037 8.36467 15.218 9.50604 15.218 11.0444H18.018ZM17.9563 11.1647C17.9589 11.1647 17.9577 11.165 17.9543 11.1638L18.8345 8.50578C18.5565 8.41373 18.2606 8.36467 17.9563 8.36467V11.1647Z" fill="#DDDAE1" mask="url(#path-3-inside-1_10729_19257)"/>
</svg>
