<svg width="24" height="24" viewBox="0 0 24 24" fill="none" xmlns="http://www.w3.org/2000/svg">
<mask id="path-1-inside-1_10729_19223" fill="white">
<path fill-rule="evenodd" clip-rule="evenodd" d="M15.6 8.14285H19.2C20.5238 8.14285 21.6 9.14222 21.6 10.3714V18.1714C21.6 19.4006 20.5238 20.4 19.2 20.4H4.80002C3.47627 20.4 2.40002 19.4006 2.40002 18.1714V7.02856C2.40002 5.79936 3.47627 4.79999 4.80002 4.79999H10.0013C10.5188 4.79999 11.025 4.95668 11.4413 5.2457L15.6 8.14285ZM10.0548 11.8686C9.76383 12.1201 9.59997 12.464 9.60004 12.823C9.60004 13.9058 10.7959 14.7666 11.7881 15.4809C12.012 15.642 12.2255 15.7957 12.4125 15.9428C12.5932 15.8023 12.7982 15.6552 13.0133 15.5008C14.0109 14.7851 15.225 13.9139 15.225 12.823C15.2251 12.464 15.0612 12.1201 14.7703 11.8686C14.4794 11.6172 14.0858 11.4792 13.6782 11.4859C13.1952 11.4836 12.7343 11.664 12.4125 11.9811C12.0908 11.664 11.6299 11.4836 11.1469 11.4859C10.7393 11.4792 10.3457 11.6172 10.0548 11.8686Z"/>
</mask>
<path fill-rule="evenodd" clip-rule="evenodd" d="M15.6 8.14285H19.2C20.5238 8.14285 21.6 9.14222 21.6 10.3714V18.1714C21.6 19.4006 20.5238 20.4 19.2 20.4H4.80002C3.47627 20.4 2.40002 19.4006 2.40002 18.1714V7.02856C2.40002 5.79936 3.47627 4.79999 4.80002 4.79999H10.0013C10.5188 4.79999 11.025 4.95668 11.4413 5.2457L15.6 8.14285ZM10.0548 11.8686C9.76383 12.1201 9.59997 12.464 9.60004 12.823C9.60004 13.9058 10.7959 14.7666 11.7881 15.4809C12.012 15.642 12.2255 15.7957 12.4125 15.9428C12.5932 15.8023 12.7982 15.6552 13.0133 15.5008C14.0109 14.7851 15.225 13.9139 15.225 12.823C15.2251 12.464 15.0612 12.1201 14.7703 11.8686C14.4794 11.6172 14.0858 11.4792 13.6782 11.4859C13.1952 11.4836 12.7343 11.664 12.4125 11.9811C12.0908 11.664 11.6299 11.4836 11.1469 11.4859C10.7393 11.4792 10.3457 11.6172 10.0548 11.8686Z" fill="#DDDAE1"/>
<path d="M15.6 8.14285L14.7998 9.29158L15.1605 9.54285H15.6V8.14285ZM11.4413 5.2457L12.2415 4.09696L12.2397 4.09573L11.4413 5.2457ZM9.60004 12.823H11V12.8227L9.60004 12.823ZM10.0548 11.8686L9.13925 10.8095L9.13925 10.8095L10.0548 11.8686ZM11.7881 15.4809L10.9702 16.6171L10.9702 16.6171L11.7881 15.4809ZM12.4125 15.9428L11.5472 17.0433L12.408 17.7202L13.2722 17.0478L12.4125 15.9428ZM13.0133 15.5008L13.8294 16.6383L13.8294 16.6383L13.0133 15.5008ZM15.225 12.823L13.825 12.8227V12.823H15.225ZM13.6782 11.4859L13.6716 12.8859L13.6863 12.8859L13.701 12.8857L13.6782 11.4859ZM12.4125 11.9811L11.4298 12.9782L12.4125 13.9469L13.3953 12.9782L12.4125 11.9811ZM11.1469 11.4859L11.1241 12.8857L11.1388 12.8859L11.1535 12.8859L11.1469 11.4859ZM19.2 6.74285H15.6V9.54285H19.2V6.74285ZM23 10.3714C23 8.27313 21.1975 6.74285 19.2 6.74285V9.54285C19.8501 9.54285 20.2 10.0113 20.2 10.3714H23ZM23 18.1714V10.3714H20.2V18.1714H23ZM19.2 21.8C21.1975 21.8 23 20.2697 23 18.1714H20.2C20.2 18.5315 19.8501 19 19.2 19V21.8ZM4.80002 21.8H19.2V19H4.80002V21.8ZM1.00002 18.1714C1.00002 20.2697 2.80259 21.8 4.80002 21.8V19C4.14996 19 3.80002 18.5315 3.80002 18.1714H1.00002ZM1.00002 7.02856V18.1714H3.80002V7.02856H1.00002ZM4.80002 3.39999C2.80259 3.39999 1.00002 4.93027 1.00002 7.02856H3.80002C3.80002 6.66846 4.14996 6.19999 4.80002 6.19999V3.39999ZM10.0013 3.39999H4.80002V6.19999H10.0013V3.39999ZM12.2397 4.09573C11.5838 3.64028 10.7977 3.39999 10.0013 3.39999V6.19999C10.2398 6.19999 10.4663 6.27309 10.6428 6.39568L12.2397 4.09573ZM16.4003 6.99411L12.2415 4.09697L10.641 6.39444L14.7998 9.29158L16.4003 6.99411ZM11 12.8227C11 12.8583 10.9916 12.8879 10.9821 12.9077C10.9729 12.927 10.9655 12.932 10.9703 12.9278L9.13925 10.8095C8.56548 11.3054 8.19988 12.0257 8.20004 12.8232L11 12.8227ZM12.606 14.3446C12.0871 13.9711 11.6499 13.6512 11.3311 13.3197C11.0046 12.9802 11 12.8285 11 12.823H8.20004C8.20004 13.9002 8.79344 14.7204 9.3129 15.2606C9.8401 15.8088 10.4969 16.2764 10.9702 16.6171L12.606 14.3446ZM13.2779 14.8423C13.063 14.6733 12.8238 14.5014 12.606 14.3446L10.9702 16.6171C11.2002 16.7826 11.388 16.9181 11.5472 17.0433L13.2779 14.8423ZM12.1971 14.3633C11.9876 14.5137 11.7591 14.6774 11.5529 14.8378L13.2722 17.0478C13.4272 16.9272 13.6088 16.7966 13.8294 16.6383L12.1971 14.3633ZM13.825 12.823C13.825 12.8297 13.8191 12.9852 13.486 13.3303C13.1619 13.666 12.7185 13.9892 12.1971 14.3633L13.8294 16.6383C14.3056 16.2967 14.9681 15.8265 15.5005 15.2749C16.0239 14.7327 16.625 13.9072 16.625 12.823H13.825ZM13.8548 12.9278C13.8596 12.932 13.8521 12.927 13.8429 12.9077C13.8335 12.8879 13.825 12.8583 13.825 12.8227L16.625 12.8232C16.6252 12.0257 16.2596 11.3054 15.6858 10.8095L13.8548 12.9278ZM13.701 12.8857C13.7872 12.8843 13.8408 12.9157 13.8548 12.9278L15.6858 10.8095C15.118 10.3187 14.3844 10.0742 13.6553 10.0861L13.701 12.8857ZM13.3953 12.9782C13.434 12.94 13.5304 12.8852 13.6716 12.8859L13.6847 10.0859C12.8599 10.082 12.0346 10.3879 11.4298 10.984L13.3953 12.9782ZM11.1535 12.8859C11.2947 12.8852 11.3911 12.94 11.4298 12.9782L13.3953 10.984C12.7905 10.3879 11.9651 10.082 11.1404 10.0859L11.1535 12.8859ZM10.9703 12.9278C10.9843 12.9157 11.0379 12.8843 11.1241 12.8857L11.1697 10.0861C10.4407 10.0742 9.70709 10.3187 9.13925 10.8095L10.9703 12.9278Z" fill="#DDDAE1" mask="url(#path-1-inside-1_10729_19223)"/>
</svg>
