<svg width="24" height="24" viewBox="0 0 24 24" fill="none" xmlns="http://www.w3.org/2000/svg">
<path fill-rule="evenodd" clip-rule="evenodd" d="M11.7188 19.7075C11.0115 19.8982 10.2676 20 9.5 20C4.80558 20 1 16.1944 1 11.5C1 6.80558 4.80558 3 9.5 3C14.1944 3 18 6.80558 18 11.5C18 11.6678 17.9951 11.8346 17.9855 12H14.5L13.5 14L13 12H12.9646C12.9879 11.8367 13 11.6698 13 11.5C13 9.567 11.433 8 9.5 8C7.567 8 6 9.567 6 11.5C6 13.4154 7.53861 14.9714 9.44731 14.9996L11.7188 19.7075Z" fill="#DDDAE1"/>
<path d="M17.4588 13L14.5045 19.825H12.9445L10 13H11.7063L13.783 17.875L15.889 13H17.4588Z" fill="#DDDAE1"/>
<path d="M19.9056 18.6082C20.1968 18.6082 20.4533 18.5666 20.6752 18.4834C20.904 18.3933 21.1155 18.2546 21.3096 18.0674L22.1728 19.0034C21.6459 19.6066 20.8763 19.9082 19.864 19.9082C19.2331 19.9082 18.6749 19.7869 18.1896 19.5442C17.7043 19.2946 17.3299 18.9514 17.0664 18.5146C16.8029 18.0778 16.6712 17.5821 16.6712 17.0274C16.6712 16.4797 16.7995 15.9874 17.056 15.5506C17.3195 15.1069 17.6765 14.7637 18.1272 14.521C18.5848 14.2714 19.0979 14.1466 19.6664 14.1466C20.2003 14.1466 20.6856 14.261 21.1224 14.4898C21.5592 14.7117 21.9059 15.0375 22.1624 15.4674C22.4259 15.8903 22.5576 16.393 22.5576 16.9754L18.4184 17.7762C18.5363 18.0535 18.72 18.2615 18.9696 18.4002C19.2261 18.5389 19.5381 18.6082 19.9056 18.6082ZM19.6664 15.3738C19.2573 15.3738 18.9245 15.5055 18.668 15.769C18.4115 16.0325 18.2763 16.3965 18.2624 16.861L20.9872 16.3306C20.9109 16.0394 20.7549 15.8071 20.5192 15.6338C20.2835 15.4605 19.9992 15.3738 19.6664 15.3738Z" fill="#DDDAE1"/>
</svg>
