<svg width="24" height="24" viewBox="0 0 24 24" fill="none" xmlns="http://www.w3.org/2000/svg">
<line x1="15.7" y1="13.9921" x2="20.4538" y2="13.9921" stroke="#2B1166" stroke-width="1.4" stroke-linecap="round"/>
<line x1="17.9925" y1="16.4539" x2="17.9925" y2="11.7" stroke="#2B1166" stroke-width="1.4" stroke-linecap="round"/>
<mask id="path-3-inside-1_10729_19138" fill="white">
<path fill-rule="evenodd" clip-rule="evenodd" d="M18.1299 9.54432L12.8474 3.74236C12.4745 3.33283 11.8398 3.30436 11.4317 3.67887L4.32381 10.2028C4.11746 10.3922 4 10.6594 4 10.9395V20C4 20.5522 4.44772 21 5 21H18C18.5523 21 19 20.5522 19 20V17.9187C18.7057 18.2731 18.254 18.5 17.7475 18.5C16.8606 18.5 16.1416 17.8043 16.1416 16.9461L16.1416 17H14.8H14.6059H9.2C9.08954 17 9 16.9105 9 16.8V13.0063C9 12.9493 9.02432 12.895 9.06684 12.857L12.1229 10.13C12.2039 10.0577 12.3278 10.0633 12.402 10.1425L14.5881 12.4768C14.594 12.4766 14.5999 12.4766 14.6059 12.4766H16.1416V11.0539C16.1416 10.1957 16.8606 9.5 17.7475 9.5C17.8793 9.5 18.0073 9.51536 18.1299 9.54432Z"/>
</mask>
<path fill-rule="evenodd" clip-rule="evenodd" d="M18.1299 9.54432L12.8474 3.74236C12.4745 3.33283 11.8398 3.30436 11.4317 3.67887L4.32381 10.2028C4.11746 10.3922 4 10.6594 4 10.9395V20C4 20.5522 4.44772 21 5 21H18C18.5523 21 19 20.5522 19 20V17.9187C18.7057 18.2731 18.254 18.5 17.7475 18.5C16.8606 18.5 16.1416 17.8043 16.1416 16.9461L16.1416 17H14.8H14.6059H9.2C9.08954 17 9 16.9105 9 16.8V13.0063C9 12.9493 9.02432 12.895 9.06684 12.857L12.1229 10.13C12.2039 10.0577 12.3278 10.0633 12.402 10.1425L14.5881 12.4768C14.594 12.4766 14.5999 12.4766 14.6059 12.4766H16.1416V11.0539C16.1416 10.1957 16.8606 9.5 17.7475 9.5C17.8793 9.5 18.0073 9.51536 18.1299 9.54432Z" fill="#2B1166"/>
<path d="M12.8474 3.74236L13.8826 2.79984L13.8826 2.79984L12.8474 3.74236ZM18.1299 9.54432L17.8079 10.9068L22.2113 11.9475L19.1651 8.60179L18.1299 9.54432ZM11.4317 3.67887L12.3784 4.71028L12.3784 4.71028L11.4317 3.67887ZM4.32381 10.2028L3.37714 9.17139H3.37714L4.32381 10.2028ZM19 17.9187H20.4V14.0414L17.923 17.0243L19 17.9187ZM16.1416 16.9461H17.5416L14.7416 16.9456L16.1416 16.9461ZM16.1416 17V18.4H17.5412L17.5416 17.0004L16.1416 17ZM9.06684 12.857L9.99896 13.9016L9.99896 13.9016L9.06684 12.857ZM12.1229 10.13L11.1908 9.08542L11.1908 9.08542L12.1229 10.13ZM12.402 10.1425L13.4239 9.18555L13.4239 9.18554L12.402 10.1425ZM14.5881 12.4768L13.5662 13.4338L13.9969 13.8937L14.6268 13.8763L14.5881 12.4768ZM16.1416 12.4766V13.8766H17.5416V12.4766H16.1416ZM11.8122 4.68489L17.0947 10.4868L19.1651 8.60179L13.8826 2.79984L11.8122 4.68489ZM12.3784 4.71028C12.2152 4.86009 11.9613 4.8487 11.8122 4.68489L13.8826 2.79984C12.9877 1.81696 11.4644 1.74863 10.4851 2.64746L12.3784 4.71028ZM5.27048 11.2342L12.3784 4.71028L10.4851 2.64746L3.37714 9.17139L5.27048 11.2342ZM5.4 10.9395C5.4 11.0516 5.35301 11.1585 5.27048 11.2342L3.37714 9.17139C2.88191 9.62593 2.6 10.2673 2.6 10.9395H5.4ZM5.4 20V10.9395H2.6V20H5.4ZM5 19.6C5.22091 19.6 5.4 19.779 5.4 20H2.6C2.6 21.3254 3.67452 22.4 5 22.4V19.6ZM18 19.6H5V22.4H18V19.6ZM17.6 20C17.6 19.779 17.7791 19.6 18 19.6V22.4C19.3255 22.4 20.4 21.3254 20.4 20H17.6ZM17.6 17.9187V20H20.4V17.9187H17.6ZM17.923 17.0243C17.8894 17.0647 17.8296 17.1 17.7475 17.1V19.9C18.6784 19.9 19.5219 19.4816 20.0771 18.8131L17.923 17.0243ZM17.7475 17.1C17.6754 17.1 17.6208 17.073 17.5855 17.0388C17.551 17.0054 17.5416 16.9736 17.5416 16.9461H14.7416C14.7416 18.6205 16.1312 19.9 17.7475 19.9V17.1ZM14.7416 16.9456L14.7416 16.9996L17.5416 17.0004L17.5416 16.9465L14.7416 16.9456ZM16.1416 15.6H14.8V18.4H16.1416V15.6ZM14.8 15.6H14.6059V18.4H14.8V15.6ZM14.6059 15.6H9.2V18.4H14.6059V15.6ZM9.2 15.6C9.86274 15.6 10.4 16.1373 10.4 16.8H7.6C7.6 17.6837 8.31635 18.4 9.2 18.4V15.6ZM10.4 16.8V13.0063H7.6V16.8H10.4ZM10.4 13.0063C10.4 13.3482 10.2541 13.6739 9.99896 13.9016L8.13472 11.8125C7.79452 12.116 7.6 12.5503 7.6 13.0063H10.4ZM9.99896 13.9016L13.055 11.1746L11.1908 9.08542L8.13472 11.8125L9.99896 13.9016ZM13.055 11.1746C12.5689 11.6083 11.8255 11.575 11.3802 11.0995L13.4239 9.18554C12.8301 8.5515 11.8389 8.50705 11.1908 9.08542L13.055 11.1746ZM11.3802 11.0995L13.5662 13.4338L15.6099 11.5198L13.4239 9.18555L11.3802 11.0995ZM14.6268 13.8763C14.6199 13.8765 14.613 13.8766 14.6059 13.8766V11.0766C14.5869 11.0766 14.5681 11.0768 14.5494 11.0773L14.6268 13.8763ZM14.6059 13.8766H16.1416V11.0766H14.6059V13.8766ZM17.5416 12.4766V11.0539H14.7416V12.4766H17.5416ZM17.5416 11.0539C17.5416 11.0264 17.551 10.9946 17.5855 10.9612C17.6208 10.927 17.6754 10.9 17.7475 10.9V8.1C16.1312 8.1 14.7416 9.37945 14.7416 11.0539H17.5416ZM17.7475 10.9C17.7702 10.9 17.7902 10.9026 17.8079 10.9068L18.4519 8.18186C18.2244 8.1281 17.9883 8.1 17.7475 8.1V10.9Z" fill="#2B1166" mask="url(#path-3-inside-1_10729_19138)"/>
</svg>
