<svg width="12" height="12" viewBox="0 0 12 12" fill="none" xmlns="http://www.w3.org/2000/svg">
<path d="M11.25 6C11.25 6.68944 11.1142 7.37213 10.8504 8.00909C10.5865 8.64605 10.1998 9.2248 9.71231 9.71231C9.2248 10.1998 8.64605 10.5865 8.00909 10.8504C7.37213 11.1142 6.68944 11.25 6 11.25C5.31056 11.25 4.62787 11.1142 3.99091 10.8504C3.35395 10.5865 2.7752 10.1998 2.28769 9.71231C1.80018 9.2248 1.41347 8.64605 1.14963 8.00909C0.885795 7.37213 0.75 6.68944 0.75 6C0.75 4.60761 1.30312 3.27226 2.28769 2.28769C3.27226 1.30312 4.60761 0.75 6 0.75C7.39239 0.75 8.72774 1.30312 9.71231 2.28769C10.6969 3.27226 11.25 4.60761 11.25 6ZM1.625 6H10.375C10.375 4.83968 9.91406 3.72688 9.09359 2.90641C8.27312 2.08594 7.16032 1.625 6 1.625C4.83968 1.625 3.72688 2.08594 2.90641 2.90641C2.08594 3.72688 1.625 4.83968 1.625 6Z" fill="#8F84A0"/>
</svg>
