<svg width="16" height="16" viewBox="0 0 16 16" fill="none" xmlns="http://www.w3.org/2000/svg">
<path d="M9.76242 8.00023L15.1374 2.63773C15.3728 2.40235 15.505 2.08311 15.505 1.75023C15.505 1.41735 15.3728 1.09811 15.1374 0.862732C14.902 0.627352 14.5828 0.495117 14.2499 0.495117C13.917 0.495117 13.5978 0.627352 13.3624 0.862732L7.99992 6.23773L2.63742 0.862732C2.40204 0.627352 2.0828 0.495117 1.74992 0.495117C1.41705 0.495117 1.0978 0.627352 0.862424 0.862732C0.627044 1.09811 0.494809 1.41735 0.494809 1.75023C0.494809 2.08311 0.627044 2.40235 0.862424 2.63773L6.23742 8.00023L0.862424 13.3627C0.745263 13.4789 0.652271 13.6172 0.58881 13.7695C0.525349 13.9218 0.492676 14.0852 0.492676 14.2502C0.492676 14.4152 0.525349 14.5786 0.58881 14.731C0.652271 14.8833 0.745263 15.0215 0.862424 15.1377C0.978627 15.2549 1.11688 15.3479 1.2692 15.4113C1.42153 15.4748 1.58491 15.5075 1.74992 15.5075C1.91494 15.5075 2.07832 15.4748 2.23064 15.4113C2.38297 15.3479 2.52122 15.2549 2.63742 15.1377L7.99992 9.76273L13.3624 15.1377C13.4786 15.2549 13.6169 15.3479 13.7692 15.4113C13.9215 15.4748 14.0849 15.5075 14.2499 15.5075C14.4149 15.5075 14.5783 15.4748 14.7306 15.4113C14.883 15.3479 15.0212 15.2549 15.1374 15.1377C15.2546 15.0215 15.3476 14.8833 15.411 14.731C15.4745 14.5786 15.5072 14.4152 15.5072 14.2502C15.5072 14.0852 15.4745 13.9218 15.411 13.7695C15.3476 13.6172 15.2546 13.4789 15.1374 13.3627L9.76242 8.00023Z" fill="#6A5E86"/>
</svg>
