<svg width="88" height="8" viewBox="0 0 88 8" fill="none" xmlns="http://www.w3.org/2000/svg">
<path d="M87.3536 4.35356C87.5488 4.1583 87.5488 3.84172 87.3536 3.64645L84.1716 0.464473C83.9763 0.269211 83.6597 0.269211 83.4645 0.464473C83.2692 0.659736 83.2692 0.976318 83.4645 1.17158L86.2929 4.00001L83.4645 6.82843C83.2692 7.0237 83.2692 7.34028 83.4645 7.53554C83.6597 7.7308 83.9763 7.7308 84.1716 7.53554L87.3536 4.35356ZM-4.37114e-08 4.5L0.988636 4.5L0.988636 3.5L4.37114e-08 3.5L-4.37114e-08 4.5ZM2.96591 4.5L4.94318 4.5L4.94318 3.5L2.96591 3.5L2.96591 4.5ZM6.92045 4.5L8.89773 4.5L8.89773 3.5L6.92046 3.5L6.92045 4.5ZM10.875 4.5L12.8523 4.5L12.8523 3.5L10.875 3.5L10.875 4.5ZM14.8295 4.5L16.8068 4.5L16.8068 3.5L14.8295 3.5L14.8295 4.5ZM18.7841 4.5L20.7614 4.5L20.7614 3.5L18.7841 3.5L18.7841 4.5ZM22.7386 4.5L24.7159 4.5L24.7159 3.5L22.7386 3.5L22.7386 4.5ZM26.6932 4.5L28.6705 4.5L28.6705 3.5L26.6932 3.5L26.6932 4.5ZM30.6477 4.5L32.625 4.5L32.625 3.5L30.6477 3.5L30.6477 4.5ZM34.6023 4.5L36.5795 4.5L36.5795 3.5L34.6023 3.5L34.6023 4.5ZM38.5568 4.5L40.5341 4.5L40.5341 3.5L38.5568 3.5L38.5568 4.5ZM42.5114 4.5L44.4886 4.5L44.4886 3.5L42.5114 3.5L42.5114 4.5ZM46.4659 4.5L48.4432 4.5L48.4432 3.5L46.4659 3.5L46.4659 4.5ZM50.4204 4.5L52.3977 4.5L52.3977 3.5L50.4204 3.5L50.4204 4.5ZM54.375 4.5L56.3523 4.5L56.3523 3.5L54.375 3.5L54.375 4.5ZM58.3295 4.50001L60.3068 4.50001L60.3068 3.50001L58.3295 3.50001L58.3295 4.50001ZM62.2841 4.50001L64.2614 4.50001L64.2614 3.50001L62.2841 3.50001L62.2841 4.50001ZM66.2386 4.50001L68.2159 4.50001L68.2159 3.50001L66.2386 3.50001L66.2386 4.50001ZM70.1932 4.50001L72.1704 4.50001L72.1704 3.50001L70.1932 3.50001L70.1932 4.50001ZM74.1477 4.50001L76.125 4.50001L76.125 3.50001L74.1477 3.50001L74.1477 4.50001ZM78.1023 4.50001L80.0795 4.50001L80.0795 3.50001L78.1023 3.50001L78.1023 4.50001ZM82.0568 4.50001L84.0341 4.50001L84.0341 3.50001L82.0568 3.50001L82.0568 4.50001ZM86.0113 4.50001L87 4.50001L87 3.50001L86.0113 3.50001L86.0113 4.50001Z" fill="#7F4AFE"/>
</svg>
