<svg width="33" height="32" viewBox="0 0 33 32" fill="none" xmlns="http://www.w3.org/2000/svg">
<mask id="path-3-inside-1_1483_12539" fill="white">
<path d="M15.467 15.1209C15.2953 14.7088 15.7088 14.2953 16.1209 14.467L27.6548 19.2728C28.0943 19.456 28.0534 20.0915 27.5941 20.2168L22.859 21.5082C22.6882 21.5547 22.5547 21.6882 22.5082 21.859L21.2168 26.5941C21.0915 27.0534 20.456 27.0943 20.2728 26.6548L15.467 15.1209Z"/>
</mask>
<path d="M22.859 21.5082L22.4643 20.061L22.859 21.5082ZM22.5082 21.859L23.9553 22.2537L22.5082 21.859ZM27.6548 19.2728L27.0779 20.6575L27.6548 19.2728ZM15.544 15.8516L27.0779 20.6575L28.2318 17.8882L16.6978 13.0824L15.544 15.8516ZM27.1994 18.7696L22.4643 20.061L23.2537 22.9553L27.9888 21.6639L27.1994 18.7696ZM21.061 21.4643L19.7696 26.1994L22.6639 26.9888L23.9553 22.2537L21.061 21.4643ZM21.6575 26.0779L16.8516 14.544L14.0824 15.6978L18.8882 27.2318L21.6575 26.0779ZM19.7696 26.1994C20.0201 25.2808 21.2912 25.199 21.6575 26.0779L18.8882 27.2318C19.6207 28.9896 22.1629 28.826 22.6639 26.9888L19.7696 26.1994ZM22.4643 20.061C21.7811 20.2473 21.2473 20.7811 21.061 21.4643L23.9553 22.2537C23.8621 22.5953 23.5953 22.8621 23.2537 22.9553L22.4643 20.061ZM27.0779 20.6575C26.199 20.2912 26.2808 19.0201 27.1994 18.7696L27.9888 21.6639C29.826 21.1629 29.9896 18.6207 28.2318 17.8882L27.0779 20.6575ZM16.6978 13.0824C15.0493 12.3956 13.3956 14.0493 14.0824 15.6978L16.8516 14.544C17.1951 15.3682 16.3682 16.1951 15.544 15.8516L16.6978 13.0824Z" fill="#6A5E86" mask="url(#path-3-inside-1_1483_12539)"/>
<path d="M23 14C23 9.58172 19.4183 6 15 6C10.5817 6 7 9.58172 7 14C7 18.4183 10.5817 22 15 22" stroke="#6A5E86" stroke-width="1.5" stroke-linecap="round"/>
</svg>
