<?xml version="1.0" encoding="UTF-8"?>
<svg width="18px" height="16px" viewBox="0 0 18 16" version="1.1" xmlns="http://www.w3.org/2000/svg" xmlns:xlink="http://www.w3.org/1999/xlink">
    <title>导航/connect wallet/猫咪</title>
    <defs>
        <polygon id="path-1" points="0 0 18 0 18 16 0 16"></polygon>
    </defs>
    <g id="控件" stroke="none" stroke-width="1" fill="none" fill-rule="evenodd">
        <g id="导航-衡2.0-light/未联网" transform="translate(-1177.000000, -19.000000)">
            <g id="导航/connect-wallet/light" transform="translate(1165.000000, 11.000000)">
                <g id="导航/connect-wallet/猫咪" transform="translate(12.000000, 8.000000)">
                    <mask id="mask-2" fill="white">
                        <use xlink:href="#path-1"></use>
                    </mask>
                    <g id="Clip-2"></g>
                    <path d="M17.149513,12.7821223 L13.8874014,11.3190131 C13.6707576,11.2201194 13.4216942,11.3341978 13.3341074,11.5751916 C13.2441701,11.8134814 13.3502361,12.0872814 13.5669069,12.1836492 L16.8313419,13.6468179 C16.8844289,13.6696396 16.9374079,13.6822984 16.9927913,13.6822984 C17.1610219,13.6822984 17.320175,13.5733014 17.3869593,13.3907285 C17.4722228,13.1522902 17.3685072,12.8784605 17.149513,12.7821223 M17.6152201,10.117134 L14.2655217,9.76714313 C14.0280754,9.73677374 13.8228054,9.93197583 13.8021379,10.1880356 C13.779012,10.4442141 13.9519974,10.674867 14.184797,10.697748 L17.5344954,11.0477389 C17.5483278,11.0502945 17.5621601,11.0502945 17.5760735,11.0502945 C17.7927443,11.0502945 17.9772117,10.8676621 17.9979062,10.6266979 C18.0210051,10.3706679 17.8503701,10.142422 17.6152201,10.117134 M4.66586977,11.5775986 C4.57828289,11.3392791 4.32921952,11.2226749 4.11257571,11.3215686 L0.848140761,12.7846779 C0.631361877,12.881016 0.525295838,13.1548457 0.615206123,13.3932841 C0.682125526,13.575857 0.841170552,13.684854 1.00948217,13.684854 C1.06246116,13.684854 1.11787161,13.6747507 1.1708506,13.6493735 L4.43528556,12.1861751 C4.64971402,12.0898369 4.75345666,11.8160072 4.66586977,11.5775986 M4.19783919,10.1880356 C4.1748213,9.93197583 3.97190178,9.73677374 3.7344284,9.76714313 L0.384729969,10.117134 C0.151822347,10.142422 -0.0210280138,10.3706679 0.00207093252,10.6266979 C0.0227654271,10.8702177 0.207232802,11.0502945 0.423876604,11.0502945 C0.437708956,11.0502945 0.451541307,11.0502945 0.465373659,11.0477389 L3.81518016,10.697748 C4.04797971,10.6724303 4.21861474,10.4442141 4.19783919,10.1880356 M3.52929355,1.07974415 C4.06875526,1.432142 4.88948379,2.18525535 5.4865983,2.773536 C4.46524665,3.32895115 3.59607787,4.12256692 2.95519693,5.07857871 C2.86528664,2.97132335 3.28255358,1.65025485 3.52929355,1.07974415 M14.3807733,1.07974415 C14.632052,1.66291371 15.0562892,3.01194463 14.9502231,5.172391 C14.3116386,4.18850594 13.437823,3.36945358 12.4004507,2.79641705 C12.9975652,2.20555113 13.8366378,1.43725309 14.3807733,1.07974415 M2.19671398,9.41976723 C2.43197202,9.41976723 2.62330154,9.20932102 2.62330154,8.95067603 C2.62330154,8.22796179 2.75932867,7.53567637 2.99899037,6.8890639 C3.03824507,6.8307618 3.06355935,6.76226724 3.0750683,6.68878045 C4.00418627,4.4370179 6.27271894,2.83944531 8.92388362,2.83944531 C12.3981272,2.83944531 15.2244927,5.58062455 15.2244927,8.95067603 C15.2244927,9.20932102 15.4158222,9.41976723 15.6510533,9.41976723 C15.8861762,9.41976723 16.0775057,9.20932102 16.0775057,8.95067603 C16.0775057,8.14172698 15.9322931,7.36579202 15.6740712,6.64061138 C16.2643235,2.31710367 14.9570853,0.275906193 14.9017829,0.192197217 C14.7933934,0.0273942409 14.5997405,-0.0411003244 14.4222433,0.024868411 C13.5623682,0.339319383 11.784884,2.14475292 11.5843689,2.34756221 C11.5682132,2.36271719 11.56127,2.38304269 11.549761,2.40084236 C10.7358946,2.08383585 9.85300159,1.90375903 8.92388362,1.90375903 C8.01556821,1.90375903 7.14872284,2.07884362 6.34879687,2.38304269 C6.33950326,2.37296909 6.33496452,2.35772496 6.32569792,2.34756221 C6.12518286,2.14219738 4.34769867,0.339319383 3.48782351,0.024868411 C3.31029933,-0.0411003244 3.11886174,0.0273942409 3.00828398,0.192197217 C2.95298159,0.275906193 1.67338101,2.27915679 2.22216335,6.51631083 C1.93627674,7.2770611 1.77258491,8.09614318 1.77258491,8.95314243 C1.77258491,9.20932102 1.96159102,9.41976723 2.19671398,9.41976723 M13.8021379,12.8176325 C12.5986423,14.2427355 10.8212662,15.0617582 8.92388362,15.0617582 C7.13956431,15.0617582 5.43118785,14.3213037 4.23698583,13.0331898 C4.06875526,12.8532022 3.7990244,12.8532022 3.63533257,13.0407376 C3.47166776,13.2259255 3.47399116,13.5225768 3.64219471,13.7026536 C4.99322642,15.1606518 6.92046202,16 8.92620702,16 C11.0587126,16 13.0643495,15.0718912 14.4292135,13.4566378 C14.5882316,13.2663982 14.579073,12.9722728 14.4060876,12.7948109 C14.2309138,12.6172897 13.9634794,12.627393 13.8021379,12.8176325" id="Fill-1" fill="#FFFFFF" mask="url(#mask-2)"></path>
                </g>
            </g>
        </g>
    </g>
</svg>