<svg width="19" height="10" viewBox="0 0 19 10" fill="none" xmlns="http://www.w3.org/2000/svg">
<path d="M3.7972 4.75006C3.7972 5.11107 4.0651 5.40937 4.41186 5.45592L4.50876 5.46257H16.5682L14.463 7.5716C14.3423 7.69224 14.269 7.85218 14.2562 8.02234C14.2435 8.19249 14.2923 8.36156 14.3936 8.49881L14.463 8.57862C14.7157 8.83227 15.1109 8.85412 15.3893 8.64797L15.4691 8.57862L18.7913 5.25357C18.9119 5.13293 18.9853 4.97299 18.998 4.80284C19.0107 4.63268 18.962 4.46361 18.8606 4.32636L18.7913 4.24656L15.4691 0.921512C15.3423 0.792988 15.1715 0.717425 14.9912 0.710124C14.8108 0.702823 14.6344 0.764331 14.4977 0.882191C14.361 1.00005 14.2742 1.16546 14.2549 1.34491C14.2356 1.52437 14.2852 1.70446 14.3936 1.84872L14.463 1.92853L16.5682 4.03755H4.50876C4.31979 4.03755 4.13856 4.11262 4.00494 4.24624C3.87132 4.37986 3.79625 4.56109 3.79625 4.75006H3.7972ZM3.80344e-07 4.75006C3.80344e-07 7.37305 2.12518 9.50013 4.74626 9.50013C5.71363 9.49967 6.65779 9.20375 7.45235 8.65196C8.24692 8.10018 8.85399 7.31886 9.19232 6.41259H7.62385C7.25728 7.04482 6.69258 7.53862 6.01712 7.81761C5.34165 8.09659 4.59307 8.1452 3.8872 7.95591C3.18132 7.76663 2.5575 7.35 2.11225 6.77048C1.66699 6.19097 1.42513 5.48088 1.42407 4.75006C1.42513 4.01925 1.66699 3.30916 2.11225 2.72964C2.5575 2.15013 3.18132 1.7335 3.8872 1.54421C4.59307 1.35493 5.34165 1.40354 6.01712 1.68252C6.69258 1.9615 7.25728 2.45531 7.62385 3.08754H9.19327C8.85489 2.18111 8.24767 1.39969 7.45291 0.847893C6.65816 0.296097 5.7138 0.000263387 4.74626 0C4.12273 0.000249465 3.50534 0.123312 2.92936 0.36216C2.35339 0.601008 1.83009 0.950965 1.38936 1.39205C0.94863 1.83313 0.599093 2.35671 0.360706 2.93288C0.122319 3.50904 -0.000249184 4.12653 3.80344e-07 4.75006Z" fill="#0166FF"/>
</svg>
