<svg width="605" height="216" viewBox="0 0 605 216" fill="none" xmlns="http://www.w3.org/2000/svg">
<rect x="111.932" y="61.1528" width="483.15" height="136.044" fill="url(#paint0_linear_5834_19181)" fill-opacity="0.52"/>
<path d="M583.049 206.408H580.411V213.173H581.377V211.124H583.049C584.808 211.124 585.871 210.235 585.871 208.766C585.871 207.297 584.808 206.408 583.049 206.408ZM583.02 210.283H581.377V207.249H583.02C584.257 207.249 584.905 207.8 584.905 208.766C584.905 209.733 584.257 210.283 583.02 210.283ZM588.153 208.911V208.051H587.264V213.173H588.192V210.622C588.192 209.501 588.81 208.892 589.806 208.892C589.873 208.892 589.941 208.892 590.018 208.901V208.003C589.119 208.003 588.482 208.312 588.153 208.911ZM591.819 207.065C592.186 207.065 592.447 206.795 592.447 206.447C592.447 206.118 592.177 205.857 591.819 205.857C591.461 205.857 591.191 206.128 591.191 206.466C591.191 206.804 591.461 207.065 591.819 207.065ZM591.355 213.173H592.283V208.051H591.355V213.173ZM596.48 213.231C597.398 213.231 598.162 212.845 598.568 212.129L597.862 211.685C597.533 212.187 597.031 212.419 596.47 212.419C595.465 212.419 594.711 211.723 594.711 210.612C594.711 209.52 595.465 208.815 596.47 208.815C597.031 208.815 597.533 209.046 597.862 209.549L598.568 209.095C598.162 208.38 597.398 208.003 596.48 208.003C594.905 208.003 593.774 209.085 593.774 210.612C593.774 212.139 594.905 213.231 596.48 213.231ZM604.591 210.641C604.591 209.066 603.538 208.003 602.059 208.003C600.581 208.003 599.488 209.095 599.488 210.612C599.488 212.139 600.59 213.231 602.243 213.231C603.093 213.231 603.799 212.941 604.263 212.4L603.75 211.801C603.374 212.216 602.871 212.419 602.272 212.419C601.257 212.419 600.532 211.82 600.416 210.921H604.572C604.582 210.834 604.591 210.718 604.591 210.641ZM602.059 208.786C602.958 208.786 603.605 209.394 603.702 210.254H600.416C600.513 209.385 601.17 208.786 602.059 208.786Z" fill="#9B8FAE"/>
<path d="M595.082 197.197L113.349 197.197" stroke="#9B8FAE" stroke-width="0.583294"/>
<path d="M71.8022 9.68893L71.7925 2.92388L71.0001 2.92388L68.2167 7.67874L65.3947 2.92388L64.6023 2.92388V9.68893H65.53V4.7891L67.9751 8.86746H68.4197L70.8648 4.76011L70.8744 9.68893H71.8022ZM76.0843 9.74691C77.6209 9.74691 78.742 8.65484 78.742 7.12787C78.742 5.60091 77.6209 4.5185 76.0843 4.5185C74.5476 4.5185 73.4169 5.60091 73.4169 7.12787C73.4169 8.65484 74.5476 9.74691 76.0843 9.74691ZM76.0843 8.93511C75.0985 8.93511 74.3543 8.21995 74.3543 7.12787C74.3543 6.0358 75.0985 5.3303 76.0843 5.3303C77.07 5.3303 77.8045 6.0358 77.8045 7.12787C77.8045 8.21995 77.07 8.93511 76.0843 8.93511ZM84.1227 2.51798V5.33997C83.6975 4.7891 83.0597 4.5185 82.3348 4.5185C80.8369 4.5185 79.7448 5.56225 79.7448 7.12787C79.7448 8.6935 80.8369 9.74691 82.3348 9.74691C83.0887 9.74691 83.7458 9.45698 84.1614 8.87712V9.68893H85.0505V2.51798H84.1227ZM82.4121 8.93511C81.4264 8.93511 80.6822 8.21995 80.6822 7.12787C80.6822 6.0358 81.4264 5.3303 82.4121 5.3303C83.3882 5.3303 84.1324 6.0358 84.1324 7.12787C84.1324 8.21995 83.3882 8.93511 82.4121 8.93511ZM91.6285 7.15687C91.6285 5.58158 90.5751 4.5185 89.0964 4.5185C87.6178 4.5185 86.5257 5.61057 86.5257 7.12787C86.5257 8.65484 87.6274 9.74691 89.28 9.74691C90.1305 9.74691 90.836 9.45698 91.2999 8.91578L90.7877 8.31659C90.4108 8.73216 89.9082 8.93511 89.309 8.93511C88.2943 8.93511 87.5694 8.33592 87.4535 7.43713H91.6091C91.6188 7.35015 91.6285 7.23418 91.6285 7.15687ZM89.0964 5.30131C89.9952 5.30131 90.6427 5.91017 90.7393 6.77029H87.4535C87.5501 5.9005 88.2073 5.30131 89.0964 5.30131ZM93.1101 9.68893H94.0378V2.51798H93.1101V9.68893Z" fill="#9B8FAE"/>
<path d="M30.344 36.4326H31.2726V30.6827H33.5238V29.8667L28.0928 29.8667V30.6827L30.344 30.6827V36.4326ZM35.1579 32.296V31.4612H34.295V36.4326H35.1954V33.9563C35.1954 32.8682 35.7957 32.2773 36.7619 32.2773C36.8275 32.2773 36.8932 32.2773 36.9682 32.2867V31.4143C36.0959 31.4143 35.4768 31.7145 35.1579 32.296ZM39.8792 31.4143C39.0819 31.4143 38.3409 31.6395 37.825 32.0522L38.2002 32.7275C38.5848 32.3992 39.1851 32.1929 39.776 32.1929C40.6671 32.1929 41.108 32.6337 41.108 33.3935V33.5717H39.6822C38.2002 33.5717 37.6843 34.2283 37.6843 35.0256C37.6843 35.8885 38.3972 36.4888 39.5228 36.4888C40.3013 36.4888 40.8547 36.2262 41.1549 35.776V36.4326H42.0084V33.431C42.0084 32.0709 41.2393 31.4143 39.8792 31.4143ZM39.6728 35.7947C38.9881 35.7947 38.5754 35.4852 38.5754 34.9881C38.5754 34.566 38.8287 34.2189 39.7197 34.2189H41.108V34.913C40.8828 35.4852 40.3482 35.7947 39.6728 35.7947ZM47.4917 29.4727V32.2116C47.079 31.677 46.46 31.4143 45.7565 31.4143C44.3026 31.4143 43.2427 32.4274 43.2427 33.9469C43.2427 35.4664 44.3026 36.4888 45.7565 36.4888C46.4881 36.4888 47.1259 36.2074 47.5293 35.6447V36.4326L48.3922 36.4326V29.4727H47.4917ZM45.8315 35.7009C44.8748 35.7009 44.1525 35.0068 44.1525 33.9469C44.1525 32.887 44.8748 32.2022 45.8315 32.2022C46.7789 32.2022 47.5011 32.887 47.5011 33.9469C47.5011 35.0068 46.7789 35.7009 45.8315 35.7009ZM50.5462 30.5045C50.9026 30.5045 51.1559 30.2419 51.1559 29.9042C51.1559 29.5853 50.8933 29.332 50.5462 29.332C50.1991 29.332 49.9365 29.5947 49.9365 29.9229C49.9365 30.2512 50.1991 30.5045 50.5462 30.5045ZM50.096 36.4326H50.9964V31.4612H50.096V36.4326ZM55.2295 35.4946C55.0419 35.6447 54.7887 35.7291 54.526 35.7291C54.0289 35.7291 53.7475 35.4289 53.7475 34.8943V32.2022H55.1733V31.4612H53.7475V30.3732L52.8471 30.3732V31.4612H52.0029V32.2022H52.8471V34.9318C52.8471 35.9354 53.4192 36.4888 54.4229 36.4888C54.8262 36.4888 55.2389 36.3763 55.5109 36.1418L55.2295 35.4946ZM57.0498 30.5045C57.4062 30.5045 57.6595 30.2419 57.6595 29.9042C57.6595 29.5853 57.3969 29.332 57.0498 29.332C56.7028 29.332 56.4401 29.5947 56.4401 29.9229C56.4401 30.2512 56.7028 30.5045 57.0498 30.5045ZM56.5996 36.4326H57.5V31.4612H56.5996V36.4326ZM61.3486 36.4888C62.84 36.4888 63.928 35.4289 63.928 33.9469C63.928 32.4649 62.84 31.4143 61.3486 31.4143C59.8572 31.4143 58.7597 32.4649 58.7597 33.9469C58.7597 35.4289 59.8572 36.4888 61.3486 36.4888ZM61.3486 35.7009C60.3918 35.7009 59.6696 35.0068 59.6696 33.9469C59.6696 32.887 60.3918 32.2022 61.3486 32.2022C62.3053 32.2022 63.0182 32.887 63.0182 33.9469C63.0182 35.0068 62.3053 35.7009 61.3486 35.7009ZM67.8278 31.4143C67.0399 31.4143 66.4021 31.7051 66.0363 32.2116V31.4612H65.1733V36.4326H66.0738V33.8719C66.0738 32.7932 66.6929 32.221 67.6496 32.221C68.5032 32.221 68.9909 32.6994 68.9909 33.6749V36.4326H69.8914V33.5717C69.8914 32.1084 69.0378 31.4143 67.8278 31.4143ZM73.3682 31.4143C72.5709 31.4143 71.8299 31.6395 71.314 32.0522L71.6892 32.7275C72.0737 32.3992 72.6741 32.1929 73.265 32.1929C74.1561 32.1929 74.5969 32.6337 74.5969 33.3935V33.5717H73.1712C71.6892 33.5717 71.1733 34.2283 71.1733 35.0256C71.1733 35.8885 71.8862 36.4888 73.0117 36.4888C73.7903 36.4888 74.3437 36.2262 74.6438 35.776V36.4326H75.4974V33.431C75.4974 32.0709 74.7282 31.4143 73.3682 31.4143ZM73.1618 35.7947C72.4771 35.7947 72.0644 35.4852 72.0644 34.9881C72.0644 34.566 72.3176 34.2189 73.2087 34.2189H74.5969V34.913C74.3718 35.4852 73.8372 35.7947 73.1618 35.7947ZM77.1638 36.4326H78.0642V29.4727H77.1638V36.4326ZM87.1988 29.8667L84.8163 35.2601L82.4526 29.8667H81.4396L84.3286 36.4326H85.2572L88.1368 29.8667H87.1988ZM89.8244 35.6165L91.8317 33.6843C92.7227 32.8307 92.9103 32.2585 92.9103 31.6207C92.9103 30.4951 92.0286 29.7916 90.6592 29.7916C89.6368 29.7916 88.7644 30.1574 88.2579 30.7859L88.8958 31.3393C89.2991 30.8516 89.8713 30.6264 90.5748 30.6264C91.494 30.6264 91.9724 31.0391 91.9724 31.7145C91.9724 32.1272 91.841 32.5399 91.1469 33.2153L88.4737 35.7947V36.4326H93.1917V35.6165H89.8244Z" fill="#52466A"/>
<path d="M57.4508 110.943C56.7817 110.943 56.1782 110.8 55.6405 110.512C55.1027 110.218 54.6806 109.815 54.3742 109.302C54.0678 108.783 53.9146 108.204 53.9146 107.567C53.9146 106.929 54.0678 106.354 54.3742 105.841C54.6806 105.322 55.1027 104.918 55.6405 104.631C56.1782 104.337 56.7817 104.19 57.4508 104.19C58.1199 104.19 58.7233 104.337 59.2611 104.631C59.7989 104.918 60.221 105.319 60.5274 105.831C60.8338 106.344 60.987 106.923 60.987 107.567C60.987 108.211 60.8338 108.789 60.5274 109.302C60.221 109.815 59.7989 110.218 59.2611 110.512C58.7233 110.8 58.1199 110.943 57.4508 110.943ZM57.4508 109.874C57.8885 109.874 58.2825 109.777 58.6326 109.583C58.9828 109.383 59.258 109.108 59.4581 108.758C59.6582 108.401 59.7582 108.004 59.7582 107.567C59.7582 107.129 59.6582 106.735 59.4581 106.385C59.258 106.028 58.9828 105.753 58.6326 105.559C58.2825 105.359 57.8885 105.259 57.4508 105.259C57.0131 105.259 56.6191 105.359 56.2689 105.559C55.9187 105.753 55.6436 106.028 55.4435 106.385C55.2434 106.735 55.1433 107.129 55.1433 107.567C55.1433 108.004 55.2434 108.401 55.4435 108.758C55.6436 109.108 55.9187 109.383 56.2689 109.583C56.6191 109.777 57.0131 109.874 57.4508 109.874ZM65.009 105.784C65.6406 105.784 66.1471 105.969 66.5286 106.338C66.91 106.707 67.1007 107.254 67.1007 107.979V110.85H65.9283V108.129C65.9283 107.692 65.8251 107.363 65.6187 107.145C65.4124 106.919 65.1185 106.807 64.737 106.807C64.3055 106.807 63.9647 106.938 63.7146 107.201C63.4645 107.457 63.3394 107.829 63.3394 108.317V110.85H62.1669V105.841H63.2831V106.488C63.477 106.257 63.7209 106.082 64.0148 105.963C64.3087 105.844 64.6401 105.784 65.009 105.784ZM73.3426 108.373C73.3426 108.455 73.3363 108.57 73.3238 108.72H69.3937C69.4625 109.089 69.6407 109.383 69.9283 109.602C70.2222 109.815 70.5849 109.921 71.0164 109.921C71.5667 109.921 72.02 109.74 72.3765 109.377L73.0049 110.099C72.7798 110.368 72.4953 110.571 72.1513 110.709C71.8074 110.846 71.4197 110.915 70.9882 110.915C70.438 110.915 69.9533 110.806 69.5344 110.587C69.1154 110.368 68.7902 110.065 68.5589 109.677C68.3337 109.283 68.2212 108.839 68.2212 108.345C68.2212 107.857 68.3306 107.42 68.5495 107.032C68.7746 106.638 69.0841 106.332 69.4781 106.113C69.872 105.894 70.316 105.784 70.81 105.784C71.2978 105.784 71.7324 105.894 72.1138 106.113C72.5015 106.325 72.8017 106.629 73.0143 107.023C73.2332 107.41 73.3426 107.861 73.3426 108.373ZM70.81 106.722C70.4348 106.722 70.1159 106.835 69.8533 107.06C69.5969 107.279 69.4406 107.573 69.3843 107.942H72.2264C72.1764 107.579 72.0232 107.285 71.7668 107.06C71.5104 106.835 71.1915 106.722 70.81 106.722ZM76.0165 110.915C75.61 110.915 75.213 110.862 74.8253 110.756C74.4376 110.649 74.128 110.515 73.8967 110.352L74.3469 109.461C74.572 109.611 74.8409 109.733 75.1536 109.827C75.4725 109.915 75.7851 109.959 76.0915 109.959C76.7919 109.959 77.1421 109.774 77.1421 109.405C77.1421 109.23 77.0514 109.108 76.8701 109.039C76.695 108.971 76.4105 108.905 76.0165 108.842C75.6038 108.78 75.2661 108.708 75.0035 108.627C74.7471 108.545 74.522 108.405 74.3281 108.204C74.1405 107.998 74.0467 107.714 74.0467 107.351C74.0467 106.876 74.2437 106.497 74.6377 106.216C75.0379 105.928 75.5756 105.784 76.251 105.784C76.5949 105.784 76.9388 105.825 77.2828 105.906C77.6267 105.981 77.9081 106.085 78.127 106.216L77.6767 107.107C77.2515 106.857 76.7731 106.732 76.2416 106.732C75.8977 106.732 75.6351 106.785 75.4537 106.891C75.2786 106.991 75.1911 107.126 75.1911 107.295C75.1911 107.482 75.2849 107.617 75.4725 107.698C75.6663 107.773 75.9633 107.845 76.3636 107.914C76.7638 107.976 77.0921 108.048 77.3484 108.129C77.6048 108.211 77.8237 108.348 78.005 108.542C78.1926 108.736 78.2864 109.011 78.2864 109.368C78.2864 109.837 78.0832 110.212 77.6767 110.493C77.2703 110.775 76.7169 110.915 76.0165 110.915ZM79.2961 105.841H80.4686V110.85H79.2961V105.841ZM79.8871 105.015C79.6745 105.015 79.4963 104.95 79.3524 104.818C79.2086 104.681 79.1367 104.512 79.1367 104.312C79.1367 104.112 79.2086 103.946 79.3524 103.815C79.4963 103.677 79.6745 103.608 79.8871 103.608C80.0997 103.608 80.2779 103.674 80.4217 103.805C80.5656 103.93 80.6375 104.09 80.6375 104.284C80.6375 104.49 80.5656 104.665 80.4217 104.809C80.2842 104.947 80.1059 105.015 79.8871 105.015ZM86.9132 103.89V110.85H85.7876V110.202C85.5937 110.44 85.353 110.618 85.0653 110.737C84.7839 110.856 84.4713 110.915 84.1273 110.915C83.6459 110.915 83.2113 110.809 82.8236 110.596C82.4421 110.384 82.1419 110.084 81.9231 109.696C81.7042 109.302 81.5948 108.852 81.5948 108.345C81.5948 107.839 81.7042 107.392 81.9231 107.004C82.1419 106.616 82.4421 106.316 82.8236 106.103C83.2113 105.891 83.6459 105.784 84.1273 105.784C84.4588 105.784 84.7621 105.841 85.0372 105.953C85.3123 106.066 85.5468 106.235 85.7407 106.46V103.89H86.9132ZM84.268 109.912C84.5494 109.912 84.8027 109.849 85.0278 109.724C85.2529 109.593 85.4311 109.408 85.5625 109.171C85.6938 108.933 85.7594 108.658 85.7594 108.345C85.7594 108.033 85.6938 107.757 85.5625 107.52C85.4311 107.282 85.2529 107.101 85.0278 106.976C84.8027 106.844 84.5494 106.779 84.268 106.779C83.9867 106.779 83.7334 106.844 83.5083 106.976C83.2832 107.101 83.1049 107.282 82.9736 107.52C82.8423 107.757 82.7767 108.033 82.7767 108.345C82.7767 108.658 82.8423 108.933 82.9736 109.171C83.1049 109.408 83.2832 109.593 83.5083 109.724C83.7334 109.849 83.9867 109.912 84.268 109.912ZM93.1557 108.373C93.1557 108.455 93.1494 108.57 93.1369 108.72H89.2068C89.2755 109.089 89.4538 109.383 89.7414 109.602C90.0353 109.815 90.398 109.921 90.8295 109.921C91.3798 109.921 91.8331 109.74 92.1895 109.377L92.818 110.099C92.5929 110.368 92.3084 110.571 91.9644 110.709C91.6205 110.846 91.2328 110.915 90.8013 110.915C90.251 110.915 89.7664 110.806 89.3475 110.587C88.9285 110.368 88.6033 110.065 88.3719 109.677C88.1468 109.283 88.0343 108.839 88.0343 108.345C88.0343 107.857 88.1437 107.42 88.3626 107.032C88.5877 106.638 88.8972 106.332 89.2912 106.113C89.6851 105.894 90.1291 105.784 90.6231 105.784C91.1109 105.784 91.5455 105.894 91.9269 106.113C92.3146 106.325 92.6148 106.629 92.8274 107.023C93.0462 107.41 93.1557 107.861 93.1557 108.373ZM90.6231 106.722C90.2479 106.722 89.929 106.835 89.6664 107.06C89.41 107.279 89.2537 107.573 89.1974 107.942H92.0395C91.9894 107.579 91.8362 107.285 91.5799 107.06C91.3235 106.835 91.0046 106.722 90.6231 106.722Z" fill="#24193C"/>
<path d="M17.1483 138.004H20.0185C20.7189 138.004 21.3411 138.141 21.8851 138.417C22.4291 138.686 22.8512 139.07 23.1514 139.57C23.4515 140.064 23.6016 140.637 23.6016 141.287C23.6016 141.937 23.4515 142.513 23.1514 143.013C22.8512 143.507 22.4291 143.891 21.8851 144.166C21.3411 144.435 20.7189 144.57 20.0185 144.57H17.1483V138.004ZM19.9622 143.538C20.4437 143.538 20.8658 143.447 21.2285 143.266C21.5974 143.078 21.8788 142.816 22.0727 142.478C22.2728 142.134 22.3728 141.737 22.3728 141.287C22.3728 140.837 22.2728 140.443 22.0727 140.105C21.8788 139.761 21.5974 139.498 21.2285 139.317C20.8658 139.13 20.4437 139.036 19.9622 139.036H18.3676V143.538H19.9622ZM29.475 139.561L27.13 144.973C26.9112 145.517 26.6454 145.899 26.3327 146.117C26.0201 146.343 25.6418 146.455 25.1978 146.455C24.9476 146.455 24.7006 146.415 24.4568 146.333C24.2129 146.252 24.0128 146.139 23.8565 145.996L24.3255 145.133C24.438 145.239 24.5693 145.323 24.7194 145.386C24.8757 145.448 25.0321 145.48 25.1884 145.48C25.3948 145.48 25.5636 145.427 25.6949 145.32C25.8325 145.214 25.9575 145.036 26.0701 144.786L26.1545 144.589L23.969 139.561H25.1884L26.7642 143.266L28.3494 139.561H29.475ZM33.0499 139.505C33.6815 139.505 34.188 139.689 34.5694 140.058C34.9509 140.427 35.1416 140.974 35.1416 141.7V144.57H33.9691V141.85C33.9691 141.412 33.8659 141.084 33.6596 140.865C33.4532 140.64 33.1593 140.527 32.7779 140.527C32.3464 140.527 32.0056 140.658 31.7555 140.921C31.5053 141.177 31.3803 141.55 31.3803 142.037V144.57H30.2078V139.561H31.324V140.208C31.5178 139.977 31.7617 139.802 32.0556 139.683C32.3495 139.564 32.6809 139.505 33.0499 139.505ZM38.5424 139.505C39.2803 139.505 39.8431 139.683 40.2308 140.039C40.6248 140.39 40.8217 140.921 40.8217 141.634V144.57H39.7149V143.96C39.5711 144.179 39.3647 144.348 39.0959 144.467C38.8332 144.579 38.5143 144.635 38.1391 144.635C37.7639 144.635 37.4356 144.573 37.1542 144.448C36.8728 144.317 36.654 144.138 36.4976 143.913C36.3476 143.682 36.2725 143.422 36.2725 143.135C36.2725 142.684 36.4382 142.325 36.7697 142.056C37.1073 141.781 37.6357 141.643 38.3548 141.643H39.6493V141.568C39.6493 141.218 39.543 140.949 39.3303 140.762C39.124 140.574 38.8145 140.48 38.4017 140.48C38.1203 140.48 37.8421 140.524 37.5669 140.612C37.298 140.699 37.0698 140.821 36.8822 140.977L36.4226 140.124C36.6852 139.924 37.001 139.77 37.37 139.664C37.7389 139.558 38.1297 139.505 38.5424 139.505ZM38.383 143.782C38.6769 143.782 38.9364 143.716 39.1615 143.585C39.3929 143.447 39.5555 143.254 39.6493 143.003V142.422H38.4393C37.7639 142.422 37.4262 142.644 37.4262 143.088C37.4262 143.3 37.5107 143.469 37.6795 143.594C37.8483 143.719 38.0828 143.782 38.383 143.782ZM48.6485 139.505C49.2801 139.505 49.7803 139.689 50.1493 140.058C50.5182 140.421 50.7027 140.968 50.7027 141.7V144.57H49.5302V141.85C49.5302 141.412 49.4333 141.084 49.2394 140.865C49.0456 140.64 48.7673 140.527 48.4046 140.527C48.0107 140.527 47.6949 140.658 47.4572 140.921C47.2196 141.177 47.1008 141.546 47.1008 142.028V144.57H45.9283V141.85C45.9283 141.412 45.8314 141.084 45.6376 140.865C45.4437 140.64 45.1654 140.527 44.8028 140.527C44.4025 140.527 44.0836 140.655 43.846 140.912C43.6146 141.168 43.499 141.54 43.499 142.028V144.57H42.3265V139.561H43.4427V140.199C43.6303 139.974 43.8648 139.802 44.1462 139.683C44.4276 139.564 44.7402 139.505 45.0841 139.505C45.4593 139.505 45.7908 139.577 46.0784 139.72C46.3723 139.858 46.6037 140.064 46.7725 140.34C46.9789 140.077 47.2446 139.874 47.5698 139.73C47.895 139.58 48.2545 139.505 48.6485 139.505ZM52.201 139.561H53.3734V144.57H52.201V139.561ZM52.7919 138.736C52.5793 138.736 52.4011 138.67 52.2572 138.539C52.1134 138.401 52.0415 138.232 52.0415 138.032C52.0415 137.832 52.1134 137.666 52.2572 137.535C52.4011 137.397 52.5793 137.329 52.7919 137.329C53.0045 137.329 53.1827 137.394 53.3265 137.526C53.4704 137.651 53.5423 137.81 53.5423 138.004C53.5423 138.21 53.4704 138.385 53.3265 138.529C53.189 138.667 53.0108 138.736 52.7919 138.736ZM57.2104 144.635C56.6914 144.635 56.2255 144.526 55.8128 144.307C55.4001 144.088 55.078 143.785 54.8467 143.397C54.6153 143.003 54.4996 142.559 54.4996 142.065C54.4996 141.571 54.6153 141.131 54.8467 140.743C55.078 140.355 55.3969 140.052 55.8034 139.833C56.2161 139.614 56.6851 139.505 57.2104 139.505C57.7044 139.505 58.1359 139.605 58.5048 139.805C58.88 140.005 59.1614 140.293 59.349 140.668L58.4485 141.193C58.3047 140.962 58.1234 140.79 57.9045 140.677C57.6919 140.558 57.4574 140.499 57.201 140.499C56.7633 140.499 56.4006 140.643 56.1129 140.93C55.8253 141.212 55.6815 141.59 55.6815 142.065C55.6815 142.541 55.8222 142.922 56.1036 143.21C56.3912 143.491 56.757 143.632 57.201 143.632C57.4574 143.632 57.6919 143.576 57.9045 143.463C58.1234 143.344 58.3047 143.169 58.4485 142.938L59.349 143.463C59.1551 143.838 58.8706 144.129 58.4954 144.335C58.1265 144.535 57.6981 144.635 57.2104 144.635ZM67.3633 144.57L66.022 142.647C65.9657 142.653 65.8813 142.656 65.7688 142.656H64.2867V144.57H63.0674V138.004H65.7688C66.3378 138.004 66.8318 138.098 67.2508 138.285C67.676 138.473 68.0012 138.742 68.2263 139.092C68.4514 139.442 68.564 139.858 68.564 140.34C68.564 140.834 68.442 141.259 68.1981 141.615C67.9605 141.972 67.6166 142.237 67.1664 142.412L68.6765 144.57H67.3633ZM67.3352 140.34C67.3352 139.921 67.1976 139.598 66.9225 139.373C66.6473 139.148 66.244 139.036 65.7125 139.036H64.2867V141.653H65.7125C66.244 141.653 66.6473 141.54 66.9225 141.315C67.1976 141.084 67.3352 140.758 67.3352 140.34ZM71.6833 139.505C72.4212 139.505 72.984 139.683 73.3717 140.039C73.7657 140.39 73.9626 140.921 73.9626 141.634V144.57H72.8558V143.96C72.712 144.179 72.5056 144.348 72.2367 144.467C71.9741 144.579 71.6552 144.635 71.28 144.635C70.9048 144.635 70.5765 144.573 70.2951 144.448C70.0137 144.317 69.7949 144.138 69.6385 143.913C69.4885 143.682 69.4134 143.422 69.4134 143.135C69.4134 142.684 69.5791 142.325 69.9105 142.056C70.2482 141.781 70.7766 141.643 71.4957 141.643H72.7902V141.568C72.7902 141.218 72.6839 140.949 72.4712 140.762C72.2649 140.574 71.9554 140.48 71.5426 140.48C71.2612 140.48 70.983 140.524 70.7078 140.612C70.4389 140.699 70.2107 140.821 70.0231 140.977L69.5635 140.124C69.8261 139.924 70.1419 139.77 70.5109 139.664C70.8798 139.558 71.2706 139.505 71.6833 139.505ZM71.5239 143.782C71.8178 143.782 72.0773 143.716 72.3024 143.585C72.5338 143.447 72.6964 143.254 72.7902 143.003V142.422H71.5802C70.9048 142.422 70.5671 142.644 70.5671 143.088C70.5671 143.3 70.6516 143.469 70.8204 143.594C70.9892 143.719 71.2237 143.782 71.5239 143.782ZM78.3095 139.505C78.941 139.505 79.4476 139.689 79.829 140.058C80.2104 140.427 80.4012 140.974 80.4012 141.7V144.57H79.2287V141.85C79.2287 141.412 79.1255 141.084 78.9192 140.865C78.7128 140.64 78.4189 140.527 78.0375 140.527C77.606 140.527 77.2652 140.658 77.015 140.921C76.7649 141.177 76.6399 141.55 76.6399 142.037V144.57H75.4674V139.561H76.5836V140.208C76.7774 139.977 77.0213 139.802 77.3152 139.683C77.6091 139.564 77.9405 139.505 78.3095 139.505ZM86.9057 139.561V143.81C86.9057 145.573 86.0052 146.455 84.2043 146.455C83.7228 146.455 83.2663 146.393 82.8348 146.268C82.4033 146.149 82.0469 145.974 81.7655 145.742L82.2908 144.861C82.5096 145.042 82.7848 145.186 83.1162 145.292C83.4539 145.405 83.7947 145.461 84.1386 145.461C84.6889 145.461 85.0922 145.336 85.3486 145.086C85.605 144.836 85.7332 144.454 85.7332 143.941V143.679C85.5331 143.898 85.2892 144.063 85.0015 144.176C84.7139 144.288 84.3981 144.345 84.0542 144.345C83.5789 144.345 83.1475 144.245 82.7598 144.045C82.3783 143.838 82.075 143.551 81.8499 143.182C81.6311 142.813 81.5216 142.391 81.5216 141.915C81.5216 141.44 81.6311 141.021 81.8499 140.658C82.075 140.289 82.3783 140.005 82.7598 139.805C83.1475 139.605 83.5789 139.505 84.0542 139.505C84.4169 139.505 84.7452 139.564 85.0391 139.683C85.3392 139.802 85.5894 139.983 85.7895 140.227V139.561H86.9057ZM84.2324 143.35C84.6764 143.35 85.0391 143.219 85.3205 142.956C85.6081 142.688 85.7519 142.341 85.7519 141.915C85.7519 141.496 85.6081 141.156 85.3205 140.893C85.0391 140.63 84.6764 140.499 84.2324 140.499C83.7822 140.499 83.4132 140.63 83.1256 140.893C82.8442 141.156 82.7035 141.496 82.7035 141.915C82.7035 142.341 82.8442 142.688 83.1256 142.956C83.4132 143.219 83.7822 143.35 84.2324 143.35ZM93.1558 142.094C93.1558 142.175 93.1495 142.291 93.137 142.441L89.2069 142.441C89.2756 142.81 89.4539 143.103 89.7415 143.322C90.0354 143.535 90.3981 143.641 90.8296 143.641C91.3799 143.641 91.8332 143.46 92.1897 143.097L92.8181 143.819C92.593 144.088 92.3085 144.292 91.9645 144.429C91.6206 144.567 91.2329 144.635 90.8014 144.635C90.2512 144.635 89.7665 144.526 89.3476 144.307C88.9286 144.088 88.6034 143.785 88.3721 143.397C88.1469 143.003 88.0344 142.559 88.0344 142.065C88.0344 141.578 88.1438 141.14 88.3627 140.752C88.5878 140.358 88.8973 140.052 89.2913 139.833C89.6852 139.614 90.1292 139.505 90.6232 139.505C91.111 139.505 91.5456 139.614 91.927 139.833C92.3147 140.046 92.6149 140.349 92.8275 140.743C93.0463 141.131 93.1558 141.581 93.1558 142.094ZM90.6232 140.443C90.248 140.443 89.9291 140.555 89.6665 140.78C89.4101 140.999 89.2538 141.293 89.1975 141.662L92.0396 141.662C91.9896 141.299 91.8363 141.005 91.58 140.78C91.3236 140.555 91.0047 140.443 90.6232 140.443Z" fill="#24193C"/>
<path d="M35.616 172.747V174.744H38.7864V175.776H35.616V178.29H34.3967V171.724H39.1898V172.747H35.616ZM40.1648 173.281H41.3373V178.29H40.1648V173.281ZM40.7558 172.456C40.5432 172.456 40.3649 172.39 40.2211 172.259C40.0773 172.121 40.0054 171.952 40.0054 171.752C40.0054 171.552 40.0773 171.387 40.2211 171.255C40.3649 171.118 40.5432 171.049 40.7558 171.049C40.9684 171.049 41.1466 171.114 41.2904 171.246C41.4342 171.371 41.5061 171.53 41.5061 171.724C41.5061 171.931 41.4342 172.106 41.2904 172.249C41.1528 172.387 40.9746 172.456 40.7558 172.456ZM46.0653 178.29L44.7803 176.555L43.4859 178.29H42.1915L44.1425 175.748L42.2759 173.281H43.5797L44.8084 174.923L46.0372 173.281H47.3035L45.4275 175.729L47.3879 178.29H46.0653ZM52.7969 175.814C52.7969 175.895 52.7907 176.011 52.7782 176.161H48.848C48.9168 176.53 49.095 176.824 49.3827 177.043C49.6766 177.255 50.0392 177.361 50.4707 177.361C51.021 177.361 51.4744 177.18 51.8308 176.817L52.4592 177.54C52.2341 177.809 51.9496 178.012 51.6057 178.149C51.2617 178.287 50.874 178.356 50.4426 178.356C49.8923 178.356 49.4077 178.246 48.9887 178.027C48.5697 177.809 48.2446 177.505 48.0132 177.118C47.7881 176.724 47.6755 176.28 47.6755 175.786C47.6755 175.298 47.785 174.86 48.0038 174.472C48.2289 174.079 48.5385 173.772 48.9324 173.553C49.3264 173.334 49.7704 173.225 50.2644 173.225C50.7521 173.225 51.1867 173.334 51.5682 173.553C51.9559 173.766 52.256 174.069 52.4686 174.463C52.6875 174.851 52.7969 175.301 52.7969 175.814ZM50.2644 174.163C49.8892 174.163 49.5703 174.275 49.3076 174.501C49.0512 174.719 48.8949 175.013 48.8386 175.382H51.6807C51.6307 175.02 51.4775 174.726 51.2211 174.501C50.9647 174.275 50.6458 174.163 50.2644 174.163ZM58.8288 171.33V178.29H57.7032V177.643C57.5094 177.88 57.2686 178.059 56.981 178.178C56.6996 178.296 56.3869 178.356 56.043 178.356C55.5615 178.356 55.1269 178.249 54.7392 178.037C54.3578 177.824 54.0576 177.524 53.8387 177.136C53.6199 176.742 53.5104 176.292 53.5104 175.786C53.5104 175.279 53.6199 174.832 53.8387 174.444C54.0576 174.057 54.3578 173.756 54.7392 173.544C55.1269 173.331 55.5615 173.225 56.043 173.225C56.3744 173.225 56.6777 173.281 56.9528 173.394C57.228 173.506 57.4625 173.675 57.6563 173.9V171.33H58.8288ZM56.1837 177.352C56.4651 177.352 56.7184 177.29 56.9435 177.164C57.1686 177.033 57.3468 176.849 57.4781 176.611C57.6094 176.373 57.6751 176.098 57.6751 175.786C57.6751 175.473 57.6094 175.198 57.4781 174.96C57.3468 174.723 57.1686 174.541 56.9435 174.416C56.7184 174.285 56.4651 174.219 56.1837 174.219C55.9023 174.219 55.649 174.285 55.4239 174.416C55.1988 174.541 55.0206 174.723 54.8893 174.96C54.758 175.198 54.6923 175.473 54.6923 175.786C54.6923 176.098 54.758 176.373 54.8893 176.611C55.0206 176.849 55.1988 177.033 55.4239 177.164C55.649 177.29 55.9023 177.352 56.1837 177.352ZM67.3635 178.29L66.0221 176.367C65.9659 176.373 65.8814 176.377 65.7689 176.377H64.2869V178.29H63.0675V171.724H65.7689C66.3379 171.724 66.8319 171.818 67.2509 172.006C67.6761 172.193 68.0013 172.462 68.2264 172.812C68.4515 173.162 68.5641 173.578 68.5641 174.06C68.5641 174.554 68.4421 174.979 68.1983 175.335C67.9606 175.692 67.6167 175.958 67.1665 176.133L68.6766 178.29H67.3635ZM67.3353 174.06C67.3353 173.641 67.1977 173.319 66.9226 173.094C66.6475 172.869 66.2441 172.756 65.7126 172.756H64.2869V175.373H65.7126C66.2441 175.373 66.6475 175.26 66.9226 175.035C67.1977 174.804 67.3353 174.479 67.3353 174.06ZM71.6835 173.225C72.4213 173.225 72.9841 173.403 73.3718 173.76C73.7658 174.11 73.9628 174.641 73.9628 175.354V178.29H72.8559V177.68C72.7121 177.899 72.5058 178.068 72.2369 178.187C71.9742 178.299 71.6553 178.356 71.2801 178.356C70.9049 178.356 70.5766 178.293 70.2952 178.168C70.0138 178.037 69.795 177.859 69.6386 177.633C69.4886 177.402 69.4135 177.143 69.4135 176.855C69.4135 176.405 69.5792 176.045 69.9107 175.776C70.2483 175.501 70.7767 175.364 71.4959 175.364H72.7903V175.289C72.7903 174.938 72.684 174.669 72.4714 174.482C72.265 174.294 71.9555 174.2 71.5428 174.2C71.2614 174.2 70.9831 174.244 70.708 174.332C70.4391 174.419 70.2108 174.541 70.0232 174.698L69.5636 173.844C69.8262 173.644 70.142 173.491 70.511 173.384C70.8799 173.278 71.2707 173.225 71.6835 173.225ZM71.524 177.502C71.8179 177.502 72.0774 177.437 72.3025 177.305C72.5339 177.168 72.6965 176.974 72.7903 176.724V176.142H71.5803C70.9049 176.142 70.5673 176.364 70.5673 176.808C70.5673 177.021 70.6517 177.19 70.8205 177.315C70.9893 177.44 71.2238 177.502 71.524 177.502ZM78.3096 173.225C78.9412 173.225 79.4477 173.409 79.8291 173.778C80.2106 174.147 80.4013 174.694 80.4013 175.42V178.29H79.2288V175.57C79.2288 175.132 79.1256 174.804 78.9193 174.585C78.7129 174.36 78.419 174.247 78.0376 174.247C77.6061 174.247 77.2653 174.379 77.0152 174.641C76.765 174.898 76.64 175.27 76.64 175.758V178.29H75.4675V173.281H76.5837V173.928C76.7775 173.697 77.0214 173.522 77.3153 173.403C77.6092 173.284 77.9406 173.225 78.3096 173.225ZM86.9058 173.281V177.53C86.9058 179.294 86.0053 180.175 84.2044 180.175C83.7229 180.175 83.2664 180.113 82.8349 179.988C82.4034 179.869 82.047 179.694 81.7656 179.463L82.2909 178.581C82.5098 178.762 82.7849 178.906 83.1163 179.012C83.454 179.125 83.7948 179.181 84.1387 179.181C84.689 179.181 85.0923 179.056 85.3487 178.806C85.6051 178.556 85.7333 178.174 85.7333 177.662V177.399C85.5332 177.618 85.2893 177.784 85.0017 177.896C84.714 178.009 84.3982 178.065 84.0543 178.065C83.5791 178.065 83.1476 177.965 82.7599 177.765C82.3784 177.558 82.0752 177.271 81.85 176.902C81.6312 176.533 81.5217 176.111 81.5217 175.636C81.5217 175.16 81.6312 174.741 81.85 174.379C82.0752 174.01 82.3784 173.725 82.7599 173.525C83.1476 173.325 83.5791 173.225 84.0543 173.225C84.417 173.225 84.7453 173.284 85.0392 173.403C85.3393 173.522 85.5895 173.703 85.7896 173.947V173.281H86.9058ZM84.2325 177.071C84.6765 177.071 85.0392 176.939 85.3206 176.677C85.6082 176.408 85.7521 176.061 85.7521 175.636C85.7521 175.217 85.6082 174.876 85.3206 174.613C85.0392 174.351 84.6765 174.219 84.2325 174.219C83.7823 174.219 83.4133 174.351 83.1257 174.613C82.8443 174.876 82.7036 175.217 82.7036 175.636C82.7036 176.061 82.8443 176.408 83.1257 176.677C83.4133 176.939 83.7823 177.071 84.2325 177.071ZM93.1559 175.814C93.1559 175.895 93.1496 176.011 93.1371 176.161H89.207C89.2758 176.53 89.454 176.824 89.7416 177.043C90.0355 177.255 90.3982 177.361 90.8297 177.361C91.38 177.361 91.8333 177.18 92.1898 176.817L92.8182 177.54C92.5931 177.809 92.3086 178.012 91.9647 178.149C91.6207 178.287 91.233 178.356 90.8016 178.356C90.2513 178.356 89.7666 178.246 89.3477 178.027C88.9287 177.809 88.6035 177.505 88.3722 177.118C88.1471 176.724 88.0345 176.28 88.0345 175.786C88.0345 175.298 88.1439 174.86 88.3628 174.472C88.5879 174.079 88.8974 173.772 89.2914 173.553C89.6854 173.334 90.1293 173.225 90.6233 173.225C91.1111 173.225 91.5457 173.334 91.9271 173.553C92.3148 173.766 92.615 174.069 92.8276 174.463C93.0465 174.851 93.1559 175.301 93.1559 175.814ZM90.6233 174.163C90.2481 174.163 89.9292 174.275 89.6666 174.501C89.4102 174.719 89.2539 175.013 89.1976 175.382H92.0397C91.9897 175.02 91.8365 174.726 91.5801 174.501C91.3237 174.275 91.0048 174.163 90.6233 174.163Z" fill="#24193C"/>
<rect x="113.349" y="93.7102" width="239.45" height="29.0692" fill="#0166FF"/>
<rect x="353.092" y="94.0034" width="241.697" height="28.4829" fill="white" fill-opacity="0.58" stroke="#84B5FF" stroke-width="0.58624"/>
<rect x="233.782" y="127.431" width="240.866" height="29.0692" fill="#0166FF"/>
<line x1="353.092" y1="86.7337" x2="353.092" y2="197.196" stroke="#95BCCD" stroke-width="0.58624" stroke-dasharray="1.17 1.17"/>
<line x1="353.092" y1="6.50277" x2="353.092" y2="61.1528" stroke="#95BCCD" stroke-width="0.58624" stroke-dasharray="1.17 1.17"/>
<rect x="113.349" y="19.2932" width="481.733" height="29.0692" fill="#DDDAE1"/>
<path d="M278.039 32.1382V31.5057H274.447V36.5953H275.174V34.5377H277.726V33.9124H275.174V32.1382H278.039ZM281.661 32.7417V34.734C281.661 35.5629 281.195 36.0137 280.468 36.0137C279.807 36.0137 279.428 35.6356 279.428 34.8794V32.7417H278.73V34.9594C278.73 36.0936 279.392 36.639 280.388 36.639C280.934 36.639 281.413 36.4136 281.697 36.0137V36.5953H282.359V32.7417H281.661ZM283.615 36.5953H284.313L284.313 31.2003H283.615V36.5953ZM285.573 36.5953H286.271L286.271 31.2003H285.573V36.5953ZM291.454 32.7054C290.887 32.7054 290.392 32.9235 290.08 33.3525V32.7417H289.411V38.0059H290.109L290.109 36.0137C290.429 36.4281 290.909 36.639 291.454 36.639C292.581 36.639 293.403 35.8537 293.403 34.6685C293.403 33.4906 292.581 32.7054 291.454 32.7054ZM291.396 36.0282C290.661 36.0282 290.102 35.4902 290.102 34.6685C290.102 33.8542 290.661 33.3161 291.396 33.3161C292.137 33.3161 292.697 33.8542 292.697 34.6685C292.697 35.4902 292.137 36.0282 291.396 36.0282ZM294.963 33.3888V32.7417H294.294V36.5953H294.992V34.6758C294.992 33.8324 295.458 33.3743 296.207 33.3743C296.257 33.3743 296.308 33.3743 296.367 33.3816V32.7054C295.69 32.7054 295.21 32.938 294.963 33.3888ZM297.503 32.0001C297.779 32.0001 297.976 31.7965 297.976 31.5347C297.976 31.2875 297.772 31.0912 297.503 31.0912C297.234 31.0912 297.031 31.2948 297.031 31.5493C297.031 31.8038 297.234 32.0001 297.503 32.0001ZM297.154 36.5953H297.852V32.7417H297.154V36.5953ZM300.792 36.639C301.483 36.639 302.057 36.3481 302.362 35.8101L301.832 35.4756C301.584 35.8537 301.206 36.0282 300.784 36.0282C300.028 36.0282 299.461 35.5047 299.461 34.6685C299.461 33.8469 300.028 33.3161 300.784 33.3161C301.206 33.3161 301.584 33.4906 301.832 33.8687L302.362 33.527C302.057 32.9889 301.483 32.7054 300.792 32.7054C299.607 32.7054 298.756 33.5197 298.756 34.6685C298.756 35.8173 299.607 36.639 300.792 36.639ZM306.619 34.6903C306.619 33.5052 305.827 32.7054 304.714 32.7054C303.602 32.7054 302.78 33.527 302.78 34.6685C302.78 35.8173 303.609 36.639 304.852 36.639C305.492 36.639 306.023 36.4208 306.372 36.0137L305.987 35.5629C305.703 35.8755 305.325 36.0282 304.874 36.0282C304.111 36.0282 303.565 35.5774 303.478 34.9012L306.605 34.9012C306.612 34.8358 306.619 34.7485 306.619 34.6903ZM304.714 33.2943C305.39 33.2943 305.878 33.7524 305.95 34.3995L303.478 34.3995C303.551 33.7451 304.045 33.2943 304.714 33.2943ZM310.065 33.3888V32.7417H309.396V36.5953H310.094V34.6758C310.094 33.8324 310.559 33.3743 311.308 33.3743C311.359 33.3743 311.41 33.3743 311.468 33.3816V32.7054C310.792 32.7054 310.312 32.938 310.065 33.3888ZM313.652 32.7054C313.034 32.7054 312.459 32.8799 312.059 33.1998L312.35 33.7233C312.648 33.4688 313.114 33.3089 313.572 33.3089C314.263 33.3089 314.604 33.6506 314.604 34.2395V34.3777H313.499C312.35 34.3777 311.95 34.8867 311.95 35.5047C311.95 36.1736 312.503 36.639 313.375 36.639C313.979 36.639 314.408 36.4354 314.641 36.0864V36.5953H315.302V34.2686C315.302 33.2143 314.706 32.7054 313.652 32.7054ZM313.492 36.1009C312.961 36.1009 312.641 35.861 312.641 35.4756C312.641 35.1484 312.837 34.8794 313.528 34.8794H314.604V35.4174C314.43 35.861 314.015 36.1009 313.492 36.1009ZM318.579 32.7054C317.968 32.7054 317.474 32.9308 317.19 33.3234V32.7417H316.521V36.5953H317.219V34.6104C317.219 33.7742 317.699 33.3307 318.441 33.3307C319.103 33.3307 319.481 33.7015 319.481 34.4577V36.5953H320.179V34.3777C320.179 33.2434 319.517 32.7054 318.579 32.7054ZM324.444 32.7417V33.3379C324.117 32.9162 323.593 32.7054 323.019 32.7054C321.906 32.7054 321.063 33.4543 321.063 34.5667C321.063 35.6792 321.906 36.4354 323.019 36.4354C323.571 36.4354 324.073 36.2391 324.407 35.8392V36.1445C324.407 37.0171 323.993 37.4388 323.084 37.4388C322.517 37.4388 321.957 37.2425 321.601 36.9371L321.266 37.4751C321.688 37.8532 322.401 38.0495 323.106 38.0495C324.415 38.0495 325.105 37.4315 325.105 36.0718V32.7417H324.444ZM323.099 35.8246C322.321 35.8246 321.768 35.3084 321.768 34.5667C321.768 33.8178 322.321 33.3161 323.099 33.3161C323.869 33.3161 324.422 33.8178 324.422 34.5667C324.422 35.3084 323.869 35.8246 323.099 35.8246ZM329.849 34.6903C329.849 33.5052 329.057 32.7054 327.944 32.7054C326.832 32.7054 326.01 33.527 326.01 34.6685C326.01 35.8173 326.839 36.639 328.082 36.639C328.722 36.639 329.253 36.4208 329.602 36.0137L329.217 35.5629C328.933 35.8755 328.555 36.0282 328.104 36.0282C327.341 36.0282 326.795 35.5774 326.708 34.9012H329.835C329.842 34.8358 329.849 34.7485 329.849 34.6903ZM327.944 33.2943C328.62 33.2943 329.108 33.7524 329.18 34.3995H326.708C326.781 33.7451 327.275 33.2943 327.944 33.2943ZM332.727 36.5953H336.21V35.9628H333.455V31.5057H332.727V36.5953ZM337.219 32.0001C337.495 32.0001 337.692 31.7965 337.692 31.5347C337.692 31.2875 337.488 31.0912 337.219 31.0912C336.95 31.0912 336.746 31.2948 336.746 31.5493C336.746 31.8038 336.95 32.0001 337.219 32.0001ZM336.87 36.5953H337.568V32.7417H336.87V36.5953ZM341.795 32.7417V33.3525C341.482 32.9235 340.988 32.7054 340.42 32.7054C339.293 32.7054 338.472 33.4906 338.472 34.6685C338.472 35.8537 339.293 36.639 340.42 36.639C340.966 36.639 341.446 36.4281 341.766 36.0137V38.0059H342.464V32.7417H341.795ZM340.479 36.0282C339.737 36.0282 339.177 35.4902 339.177 34.6685C339.177 33.8542 339.737 33.3161 340.479 33.3161C341.213 33.3161 341.773 33.8542 341.773 34.6685C341.773 35.4902 341.213 36.0282 340.479 36.0282ZM346.605 32.7417V34.734C346.605 35.5629 346.14 36.0137 345.413 36.0137C344.751 36.0137 344.373 35.6356 344.373 34.8794V32.7417H343.675V34.9594C343.675 36.0936 344.337 36.639 345.333 36.639C345.878 36.639 346.358 36.4136 346.642 36.0137V36.5953H347.303V32.7417H346.605ZM348.909 32.0001C349.185 32.0001 349.381 31.7965 349.381 31.5347C349.381 31.2875 349.178 31.0912 348.909 31.0912C348.64 31.0912 348.436 31.2948 348.436 31.5493C348.436 31.8038 348.64 32.0001 348.909 32.0001ZM348.56 36.5953H349.258V32.7417H348.56V36.5953ZM353.455 31.2003V33.3234C353.135 32.909 352.655 32.7054 352.11 32.7054C350.983 32.7054 350.161 33.4906 350.161 34.6685C350.161 35.8464 350.983 36.639 352.11 36.639C352.677 36.639 353.172 36.4208 353.484 35.9846V36.5953H354.153V31.2003H353.455ZM352.168 36.0282C351.426 36.0282 350.867 35.4902 350.867 34.6685C350.867 33.8469 351.426 33.3161 352.168 33.3161C352.902 33.3161 353.462 33.8469 353.462 34.6685C353.462 35.4902 352.902 36.0282 352.168 36.0282ZM355.75 32.0001C356.026 32.0001 356.223 31.7965 356.223 31.5347C356.223 31.2875 356.019 31.0912 355.75 31.0912C355.481 31.0912 355.277 31.2948 355.277 31.5493C355.277 31.8038 355.481 32.0001 355.75 32.0001ZM355.401 36.5953H356.099V32.7417H355.401V36.5953ZM359.308 35.8682C359.162 35.9846 358.966 36.05 358.762 36.05C358.377 36.05 358.159 35.8173 358.159 35.4029V33.3161H359.264V32.7417H358.159V31.8983H357.461V32.7417H356.807V33.3161H357.461V35.432C357.461 36.21 357.904 36.639 358.682 36.639C358.995 36.639 359.315 36.5517 359.526 36.3699L359.308 35.8682ZM362.953 32.7417L361.622 35.8246L360.277 32.7417H359.55L361.251 36.5881L361.128 36.8571C360.939 37.3006 360.728 37.4533 360.393 37.4533C360.132 37.4533 359.892 37.3515 359.703 37.1697L359.404 37.6933C359.644 37.9259 360.022 38.0495 360.393 38.0495C360.982 38.0495 361.426 37.7951 361.768 36.9807L363.636 32.7417H362.953ZM371.613 36.5953L371.606 31.5057H371.01L368.916 35.083L366.793 31.5057H366.197V36.5953H366.895V32.909L368.734 35.9773H369.069L370.908 32.8871L370.915 36.5953H371.613ZM373.315 32.0001C373.592 32.0001 373.788 31.7965 373.788 31.5347C373.788 31.2875 373.584 31.0912 373.315 31.0912C373.046 31.0912 372.843 31.2948 372.843 31.5493C372.843 31.8038 373.046 32.0001 373.315 32.0001ZM372.966 36.5953H373.664V32.7417H372.966V36.5953ZM376.982 32.7054C376.371 32.7054 375.877 32.9308 375.593 33.3234V32.7417H374.924V36.5953H375.623V34.6104C375.623 33.7742 376.102 33.3307 376.844 33.3307C377.506 33.3307 377.884 33.7015 377.884 34.4577V36.5953H378.582V34.3777C378.582 33.2434 377.92 32.7054 376.982 32.7054ZM380.15 32.0001C380.426 32.0001 380.622 31.7965 380.622 31.5347C380.622 31.2875 380.419 31.0912 380.15 31.0912C379.881 31.0912 379.677 31.2948 379.677 31.5493C379.677 31.8038 379.881 32.0001 380.15 32.0001ZM379.801 36.5953H380.499V32.7417H379.801V36.5953ZM383.817 32.7054C383.206 32.7054 382.711 32.9308 382.428 33.3234V32.7417H381.759V36.5953H382.457V34.6104C382.457 33.7742 382.937 33.3307 383.678 33.3307C384.34 33.3307 384.718 33.7015 384.718 34.4577V36.5953H385.416V34.3777C385.416 33.2434 384.755 32.7054 383.817 32.7054ZM389.681 32.7417V33.3379C389.354 32.9162 388.831 32.7054 388.256 32.7054C387.144 32.7054 386.3 33.4543 386.3 34.5667C386.3 35.6792 387.144 36.4354 388.256 36.4354C388.809 36.4354 389.311 36.2391 389.645 35.8392V36.1445C389.645 37.0171 389.231 37.4388 388.322 37.4388C387.755 37.4388 387.195 37.2425 386.838 36.9371L386.504 37.4751C386.926 37.8532 387.638 38.0495 388.343 38.0495C389.652 38.0495 390.343 37.4315 390.343 36.0718V32.7417H389.681ZM388.336 35.8246C387.558 35.8246 387.006 35.3084 387.006 34.5667C387.006 33.8178 387.558 33.3161 388.336 33.3161C389.107 33.3161 389.66 33.8178 389.66 34.5667C389.66 35.3084 389.107 35.8246 388.336 35.8246ZM394.894 31.7311C395.098 31.7311 395.287 31.8038 395.433 31.9128L395.643 31.3821C395.447 31.2294 395.156 31.1567 394.858 31.1567C394.037 31.1567 393.586 31.6511 393.586 32.4V32.7417H392.931V33.3161H393.586V36.5953H394.284V33.3161H395.389V32.7417H394.269V32.4073C394.269 31.9637 394.48 31.7311 394.894 31.7311ZM397.226 33.3888V32.7417H396.557V36.5953H397.255V34.6758C397.255 33.8324 397.72 33.3743 398.469 33.3743C398.52 33.3743 398.571 33.3743 398.629 33.3816V32.7054C397.953 32.7054 397.473 32.938 397.226 33.3888ZM401.032 36.639C402.188 36.639 403.031 35.8173 403.031 34.6685C403.031 33.5197 402.188 32.7054 401.032 32.7054C399.876 32.7054 399.025 33.5197 399.025 34.6685C399.025 35.8173 399.876 36.639 401.032 36.639ZM401.032 36.0282C400.29 36.0282 399.73 35.4902 399.73 34.6685C399.73 33.8469 400.29 33.3161 401.032 33.3161C401.773 33.3161 402.326 33.8469 402.326 34.6685C402.326 35.4902 401.773 36.0282 401.032 36.0282ZM408.744 32.7054C408.09 32.7054 407.552 32.9817 407.261 33.4179C407.007 32.938 406.512 32.7054 405.923 32.7054C405.342 32.7054 404.869 32.9235 404.593 33.3161V32.7417H403.924V36.5953H404.622V34.6104C404.622 33.7742 405.08 33.3307 405.778 33.3307C406.41 33.3307 406.774 33.7015 406.774 34.4577V36.5953H407.472V34.6104C407.472 33.7742 407.93 33.3307 408.628 33.3307C409.261 33.3307 409.624 33.7015 409.624 34.4577V36.5953H410.322V34.3777C410.322 33.2434 409.682 32.7054 408.744 32.7054ZM414.308 38.0059L414.97 38.0059C414.381 36.9734 414.126 35.8755 414.126 34.6031C414.126 33.3307 414.381 32.2328 414.97 31.2003H414.308C413.755 32.0655 413.443 33.2652 413.443 34.6031C413.443 35.941 413.755 37.1261 414.308 38.0059ZM417.558 36.6535C418.743 36.6535 419.63 35.7083 419.63 34.0505C419.63 32.3927 418.743 31.4475 417.558 31.4475C416.365 31.4475 415.478 32.3927 415.478 34.0505C415.478 35.7083 416.365 36.6535 417.558 36.6535ZM417.558 36.0064C416.758 36.0064 416.205 35.352 416.205 34.0505C416.205 32.749 416.758 32.0946 417.558 32.0946C418.35 32.0946 418.903 32.749 418.903 34.0505C418.903 35.352 418.35 36.0064 417.558 36.0064ZM420.657 35.6428C420.381 35.6428 420.17 35.8464 420.17 36.1373C420.17 36.3554 420.293 36.5226 420.475 36.5881L420.206 37.6714H420.664L421.006 36.6608C421.101 36.3918 421.13 36.2827 421.13 36.1373C421.13 35.8537 420.933 35.6428 420.657 35.6428ZM428.234 32.6181C427.383 32.6181 426.969 33.0689 426.635 33.5706C426.307 33.0689 425.886 32.6181 425.035 32.6181C424.206 32.6181 423.581 33.2216 423.581 34.0505C423.581 34.8721 424.206 35.4829 425.035 35.4829C425.886 35.4829 426.307 35.0321 426.635 34.5304C426.969 35.0321 427.383 35.4829 428.234 35.4829C429.063 35.4829 429.681 34.8721 429.681 34.0432C429.681 33.2216 429.063 32.6181 428.234 32.6181ZM425.079 34.9376C424.541 34.9376 424.148 34.5595 424.148 34.0505C424.148 33.5415 424.541 33.1634 425.079 33.1634C425.718 33.1634 426.038 33.5779 426.336 34.0505C426.038 34.5231 425.718 34.9376 425.079 34.9376ZM428.191 34.9376C427.551 34.9376 427.231 34.5231 426.933 34.0505C427.231 33.5779 427.551 33.1634 428.191 33.1634C428.721 33.1634 429.114 33.5343 429.114 34.0432C429.114 34.5595 428.721 34.9376 428.191 34.9376ZM430.807 38.0059C431.367 37.1261 431.68 35.941 431.68 34.6031C431.68 33.2652 431.367 32.0655 430.807 31.2003H430.145C430.734 32.2328 430.996 33.3307 430.996 34.6031C430.996 35.8755 430.734 36.9734 430.145 38.0059H430.807Z" fill="#52466A"/>
<path d="M224.294 113.605C223.971 113.107 223.722 112.529 223.547 111.873C223.377 111.216 223.292 110.513 223.292 109.764C223.292 109.014 223.377 108.311 223.547 107.654C223.722 106.992 223.971 106.415 224.294 105.923H225.27C224.936 106.513 224.69 107.124 224.532 107.753C224.378 108.377 224.302 109.047 224.302 109.764C224.302 110.48 224.378 111.153 224.532 111.783C224.69 112.406 224.936 113.014 225.27 113.605H224.294ZM228.124 112.094C227.664 112.094 227.254 111.98 226.893 111.75C226.532 111.514 226.247 111.175 226.039 110.732C225.831 110.283 225.727 109.753 225.727 109.14C225.727 108.527 225.831 107.999 226.039 107.556C226.247 107.107 226.532 106.768 226.893 106.538C227.254 106.303 227.664 106.185 228.124 106.185C228.583 106.185 228.994 106.303 229.355 106.538C229.721 106.768 230.009 107.107 230.217 107.556C230.425 107.999 230.528 108.527 230.528 109.14C230.528 109.753 230.425 110.283 230.217 110.732C230.009 111.175 229.721 111.514 229.355 111.75C228.994 111.98 228.583 112.094 228.124 112.094ZM228.124 111.167C228.534 111.167 228.857 110.997 229.092 110.658C229.333 110.319 229.453 109.813 229.453 109.14C229.453 108.467 229.333 107.961 229.092 107.621C228.857 107.282 228.534 107.113 228.124 107.113C227.719 107.113 227.396 107.282 227.155 107.621C226.92 107.961 226.802 108.467 226.802 109.14C226.802 109.813 226.92 110.319 227.155 110.658C227.396 110.997 227.719 111.167 228.124 111.167ZM231.72 110.707C231.911 110.707 232.07 110.77 232.196 110.896C232.322 111.022 232.384 111.186 232.384 111.389C232.384 111.476 232.371 111.569 232.343 111.668C232.322 111.761 232.272 111.903 232.196 112.094L231.777 113.252H231.112L231.441 111.996C231.32 111.947 231.224 111.87 231.153 111.766C231.088 111.657 231.055 111.531 231.055 111.389C231.055 111.186 231.118 111.022 231.244 110.896C231.369 110.77 231.528 110.707 231.72 110.707ZM237.953 106.267C238.451 106.267 238.883 106.349 239.25 106.513C239.622 106.678 239.907 106.913 240.104 107.219C240.301 107.526 240.399 107.89 240.399 108.311C240.399 108.727 240.301 109.091 240.104 109.402C239.907 109.709 239.622 109.944 239.25 110.108C238.883 110.272 238.451 110.355 237.953 110.355H236.656V112.012H235.589V106.267H237.953ZM237.904 109.452C238.369 109.452 238.722 109.353 238.963 109.156C239.203 108.959 239.324 108.677 239.324 108.311C239.324 107.944 239.203 107.662 238.963 107.466C238.722 107.269 238.369 107.17 237.904 107.17H236.656V109.452H237.904ZM243.279 112.07C242.825 112.07 242.417 111.974 242.056 111.783C241.695 111.591 241.413 111.326 241.21 110.986C241.008 110.642 240.907 110.253 240.907 109.821C240.907 109.389 241.008 109.003 241.21 108.664C241.413 108.325 241.692 108.059 242.048 107.868C242.409 107.676 242.819 107.58 243.279 107.58C243.711 107.58 244.088 107.668 244.411 107.843C244.74 108.018 244.986 108.27 245.15 108.598L244.362 109.058C244.236 108.855 244.078 108.705 243.886 108.606C243.7 108.502 243.495 108.45 243.27 108.45C242.887 108.45 242.57 108.576 242.318 108.828C242.067 109.074 241.941 109.405 241.941 109.821C241.941 110.237 242.064 110.571 242.31 110.822C242.562 111.069 242.882 111.192 243.27 111.192C243.495 111.192 243.7 111.142 243.886 111.044C244.078 110.94 244.236 110.787 244.362 110.584L245.15 111.044C244.98 111.372 244.731 111.627 244.403 111.807C244.08 111.982 243.705 112.07 243.279 112.07ZM245.278 113.605C245.612 113.014 245.858 112.404 246.017 111.774C246.175 111.145 246.255 110.475 246.255 109.764C246.255 109.052 246.175 108.382 246.017 107.753C245.858 107.124 245.612 106.513 245.278 105.923H246.255C246.577 106.41 246.824 106.984 246.993 107.646C247.168 108.303 247.256 109.009 247.256 109.764C247.256 110.519 247.168 111.224 246.993 111.881C246.824 112.532 246.577 113.107 246.255 113.605H245.278Z" fill="white"/>
<path d="M468.782 112.078C470.3 112.078 471.006 111.323 471.006 110.445C471.006 108.335 467.526 109.214 467.526 107.81C467.526 107.31 467.944 106.899 468.921 106.899C469.43 106.899 469.996 107.047 470.497 107.367L470.768 106.71C470.292 106.382 469.594 106.202 468.921 106.202C467.411 106.202 466.721 106.957 466.721 107.843C466.721 109.977 470.201 109.091 470.201 110.494C470.201 110.995 469.775 111.38 468.782 111.38C468.043 111.38 467.312 111.101 466.886 110.716L466.582 111.356C467.042 111.783 467.903 112.078 468.782 112.078ZM474.207 111.192C474.043 111.323 473.822 111.397 473.592 111.397C473.157 111.397 472.911 111.134 472.911 110.666V108.311H474.158V107.662H472.911V106.71H472.123V107.662H471.384V108.311H472.123V110.699C472.123 111.577 472.623 112.062 473.502 112.062C473.854 112.062 474.216 111.963 474.454 111.758L474.207 111.192ZM476.908 107.621C476.21 107.621 475.562 107.818 475.111 108.18L475.439 108.77C475.775 108.483 476.301 108.303 476.818 108.303C477.598 108.303 477.983 108.688 477.983 109.353V109.509H476.736C475.439 109.509 474.988 110.084 474.988 110.781C474.988 111.536 475.611 112.062 476.596 112.062C477.277 112.062 477.762 111.832 478.024 111.438V112.012H478.771V109.386C478.771 108.196 478.098 107.621 476.908 107.621ZM476.728 111.454C476.128 111.454 475.767 111.183 475.767 110.748C475.767 110.379 475.989 110.075 476.769 110.075H477.983V110.683C477.786 111.183 477.318 111.454 476.728 111.454ZM483.471 112.012H484.44L482.429 109.46L484.259 107.662H483.307L480.935 109.829V105.923H480.147V112.012H480.935V110.822L481.838 109.985L483.471 112.012ZM488.87 109.862C488.87 108.524 487.975 107.621 486.719 107.621C485.463 107.621 484.536 108.549 484.536 109.837C484.536 111.134 485.472 112.062 486.875 112.062C487.597 112.062 488.197 111.815 488.59 111.356L488.156 110.847C487.835 111.2 487.409 111.372 486.9 111.372C486.038 111.372 485.422 110.863 485.324 110.1H488.853C488.861 110.026 488.87 109.928 488.87 109.862ZM486.719 108.286C487.483 108.286 488.032 108.803 488.114 109.534H485.324C485.406 108.795 485.964 108.286 486.719 108.286ZM493.197 105.923V108.319C492.836 107.851 492.295 107.621 491.679 107.621C490.407 107.621 489.479 108.508 489.479 109.837C489.479 111.167 490.407 112.062 491.679 112.062C492.319 112.062 492.877 111.815 493.23 111.323V112.012H493.985V105.923H493.197ZM491.745 111.372C490.907 111.372 490.276 110.765 490.276 109.837C490.276 108.91 490.907 108.311 491.745 108.311C492.574 108.311 493.206 108.91 493.206 109.837C493.206 110.765 492.574 111.372 491.745 111.372Z" fill="#0166FF"/>
<path d="M278.879 147.325C278.556 146.827 278.307 146.25 278.132 145.593C277.962 144.936 277.877 144.233 277.877 143.484C277.877 142.734 277.962 142.031 278.132 141.374C278.307 140.712 278.556 140.135 278.879 139.643H279.855C279.521 140.234 279.275 140.844 279.117 141.473C278.963 142.097 278.887 142.767 278.887 143.484C278.887 144.201 278.963 144.874 279.117 145.503C279.275 146.127 279.521 146.734 279.855 147.325H278.879ZM282.709 145.815C282.249 145.815 281.839 145.7 281.478 145.47C281.117 145.235 280.832 144.895 280.624 144.452C280.416 144.004 280.312 143.473 280.312 142.86C280.312 142.247 280.416 141.719 280.624 141.276C280.832 140.827 281.117 140.488 281.478 140.258C281.839 140.023 282.249 139.905 282.709 139.905C283.168 139.905 283.579 140.023 283.94 140.258C284.306 140.488 284.594 140.827 284.802 141.276C285.01 141.719 285.114 142.247 285.114 142.86C285.114 143.473 285.01 144.004 284.802 144.452C284.594 144.895 284.306 145.235 283.94 145.47C283.579 145.7 283.168 145.815 282.709 145.815ZM282.709 144.887C283.119 144.887 283.442 144.718 283.677 144.378C283.918 144.039 284.038 143.533 284.038 142.86C284.038 142.187 283.918 141.681 283.677 141.342C283.442 141.002 283.119 140.833 282.709 140.833C282.304 140.833 281.981 141.002 281.74 141.342C281.505 141.681 281.387 142.187 281.387 142.86C281.387 143.533 281.505 144.039 281.74 144.378C281.981 144.718 282.304 144.887 282.709 144.887ZM286.297 145.79C286.11 145.79 285.952 145.727 285.82 145.601C285.689 145.47 285.624 145.306 285.624 145.109C285.624 144.906 285.686 144.742 285.812 144.616C285.944 144.491 286.105 144.428 286.297 144.428C286.488 144.428 286.647 144.491 286.773 144.616C286.904 144.742 286.97 144.906 286.97 145.109C286.97 145.306 286.904 145.47 286.773 145.601C286.641 145.727 286.483 145.79 286.297 145.79ZM289.375 142.212C290.185 142.212 290.784 142.37 291.173 142.688C291.561 143 291.756 143.426 291.756 143.968C291.756 144.313 291.671 144.625 291.501 144.904C291.332 145.183 291.077 145.404 290.738 145.568C290.399 145.733 289.98 145.815 289.482 145.815C289.072 145.815 288.675 145.757 288.292 145.642C287.909 145.522 287.586 145.358 287.324 145.15L287.775 144.321C287.988 144.496 288.243 144.636 288.538 144.74C288.839 144.838 289.148 144.887 289.466 144.887C289.843 144.887 290.139 144.811 290.352 144.657C290.571 144.499 290.68 144.283 290.68 144.009C290.68 143.714 290.563 143.492 290.327 143.344C290.098 143.191 289.701 143.114 289.137 143.114H287.75L288.046 139.987H291.419V140.882H288.949L288.826 142.212H289.375ZM294.195 141.219L295.131 141.736L294.81 142.294L293.858 141.736L293.867 142.794H293.243L293.251 141.744L292.307 142.294L291.979 141.736L292.923 141.219L291.979 140.701L292.307 140.135L293.251 140.693L293.243 139.643H293.867L293.858 140.701L294.81 140.135L295.131 140.701L294.195 141.219ZM298.315 139.987C298.813 139.987 299.245 140.07 299.612 140.234C299.984 140.398 300.269 140.633 300.465 140.939C300.662 141.246 300.761 141.61 300.761 142.031C300.761 142.447 300.662 142.811 300.465 143.123C300.269 143.429 299.984 143.664 299.612 143.828C299.245 143.993 298.813 144.075 298.315 144.075H297.018V145.733H295.951V139.987H298.315ZM298.266 143.172C298.731 143.172 299.084 143.073 299.325 142.876C299.565 142.679 299.686 142.398 299.686 142.031C299.686 141.664 299.565 141.383 299.325 141.186C299.084 140.989 298.731 140.89 298.266 140.89H297.018V143.172H298.266ZM303.641 145.79C303.187 145.79 302.779 145.694 302.418 145.503C302.057 145.311 301.775 145.046 301.572 144.707C301.37 144.362 301.269 143.973 301.269 143.541C301.269 143.109 301.37 142.723 301.572 142.384C301.775 142.045 302.054 141.779 302.41 141.588C302.771 141.396 303.181 141.301 303.641 141.301C304.073 141.301 304.45 141.388 304.773 141.563C305.102 141.738 305.348 141.99 305.512 142.318L304.724 142.778C304.598 142.575 304.439 142.425 304.248 142.327C304.062 142.223 303.857 142.171 303.632 142.171C303.249 142.171 302.932 142.296 302.68 142.548C302.429 142.794 302.303 143.125 302.303 143.541C302.303 143.957 302.426 144.291 302.672 144.543C302.924 144.789 303.244 144.912 303.632 144.912C303.857 144.912 304.062 144.863 304.248 144.764C304.439 144.66 304.598 144.507 304.724 144.305L305.512 144.764C305.342 145.092 305.093 145.347 304.765 145.527C304.442 145.703 304.067 145.79 303.641 145.79ZM306.813 144.428C307.005 144.428 307.164 144.491 307.29 144.616C307.415 144.742 307.478 144.906 307.478 145.109C307.478 145.196 307.465 145.289 307.437 145.388C307.415 145.481 307.366 145.623 307.29 145.815L306.871 146.972H306.206L306.534 145.716C306.414 145.667 306.318 145.59 306.247 145.486C306.182 145.377 306.149 145.251 306.149 145.109C306.149 144.906 306.212 144.742 306.337 144.616C306.463 144.491 306.622 144.428 306.813 144.428ZM313.047 139.987C313.545 139.987 313.977 140.07 314.344 140.234C314.716 140.398 315 140.633 315.197 140.939C315.394 141.246 315.493 141.61 315.493 142.031C315.493 142.447 315.394 142.811 315.197 143.123C315 143.429 314.716 143.664 314.344 143.828C313.977 143.993 313.545 144.075 313.047 144.075H311.75V145.733H310.683V139.987H313.047ZM312.998 143.172C313.463 143.172 313.816 143.073 314.057 142.876C314.297 142.679 314.418 142.398 314.418 142.031C314.418 141.664 314.297 141.383 314.057 141.186C313.816 140.989 313.463 140.89 312.998 140.89H311.75V143.172H312.998ZM318.373 145.79C317.918 145.79 317.511 145.694 317.15 145.503C316.789 145.311 316.507 145.046 316.304 144.707C316.102 144.362 316.001 143.973 316.001 143.541C316.001 143.109 316.102 142.723 316.304 142.384C316.507 142.045 316.786 141.779 317.141 141.588C317.503 141.396 317.913 141.301 318.373 141.301C318.805 141.301 319.182 141.388 319.505 141.563C319.833 141.738 320.08 141.99 320.244 142.318L319.456 142.778C319.33 142.575 319.171 142.425 318.98 142.327C318.794 142.223 318.589 142.171 318.364 142.171C317.981 142.171 317.664 142.296 317.412 142.548C317.161 142.794 317.035 143.125 317.035 143.541C317.035 143.957 317.158 144.291 317.404 144.543C317.656 144.789 317.976 144.912 318.364 144.912C318.589 144.912 318.794 144.863 318.98 144.764C319.171 144.66 319.33 144.507 319.456 144.305L320.244 144.764C320.074 145.092 319.825 145.347 319.497 145.527C319.174 145.703 318.799 145.79 318.373 145.79ZM320.372 147.325C320.706 146.734 320.952 146.124 321.11 145.495C321.269 144.865 321.348 144.195 321.348 143.484C321.348 142.772 321.269 142.102 321.11 141.473C320.952 140.844 320.706 140.234 320.372 139.643H321.348C321.671 140.13 321.918 140.704 322.087 141.366C322.262 142.023 322.35 142.729 322.35 143.484C322.35 144.239 322.262 144.945 322.087 145.601C321.918 146.252 321.671 146.827 321.348 147.325H320.372Z" fill="white"/>
<path d="M402.263 147.325C401.94 146.827 401.691 146.25 401.516 145.593C401.346 144.936 401.261 144.233 401.261 143.484C401.261 142.734 401.346 142.031 401.516 141.374C401.691 140.712 401.94 140.135 402.263 139.643H403.239C402.906 140.234 402.659 140.844 402.501 141.473C402.348 142.097 402.271 142.767 402.271 143.484C402.271 144.201 402.348 144.874 402.501 145.503C402.659 146.127 402.906 146.734 403.239 147.325H402.263ZM406.471 139.987C406.968 139.987 407.401 140.07 407.767 140.234C408.139 140.398 408.424 140.633 408.621 140.939C408.818 141.246 408.916 141.61 408.916 142.031C408.916 142.447 408.818 142.811 408.621 143.123C408.424 143.429 408.139 143.664 407.767 143.828C407.401 143.993 406.968 144.075 406.471 144.075H405.174V145.733H404.107V139.987H406.471ZM406.421 143.172C406.886 143.172 407.239 143.073 407.48 142.876C407.721 142.679 407.841 142.398 407.841 142.031C407.841 141.664 407.721 141.383 407.48 141.186C407.239 140.989 406.886 140.89 406.421 140.89H405.174V143.172H406.421ZM411.796 145.79C411.342 145.79 410.934 145.694 410.573 145.503C410.212 145.311 409.93 145.046 409.728 144.707C409.525 144.362 409.424 143.973 409.424 143.541C409.424 143.109 409.525 142.723 409.728 142.384C409.93 142.045 410.209 141.779 410.565 141.588C410.926 141.396 411.336 141.301 411.796 141.301C412.228 141.301 412.606 141.388 412.929 141.563C413.257 141.738 413.503 141.99 413.667 142.318L412.879 142.778C412.754 142.575 412.595 142.425 412.403 142.327C412.217 142.223 412.012 142.171 411.788 142.171C411.405 142.171 411.087 142.296 410.836 142.548C410.584 142.794 410.458 143.125 410.458 143.541C410.458 143.957 410.581 144.291 410.828 144.543C411.079 144.789 411.399 144.912 411.788 144.912C412.012 144.912 412.217 144.863 412.403 144.764C412.595 144.66 412.754 144.507 412.879 144.305L413.667 144.764C413.498 145.092 413.249 145.347 412.92 145.527C412.598 145.703 412.223 145.79 411.796 145.79ZM414.969 144.428C415.16 144.428 415.319 144.491 415.445 144.616C415.571 144.742 415.634 144.906 415.634 145.109C415.634 145.196 415.62 145.289 415.593 145.388C415.571 145.481 415.521 145.623 415.445 145.815L415.026 146.972H414.362L414.69 145.716C414.569 145.667 414.474 145.59 414.403 145.486C414.337 145.377 414.304 145.251 414.304 145.109C414.304 144.906 414.367 144.742 414.493 144.616C414.619 144.491 414.777 144.428 414.969 144.428ZM422.589 144.83V145.733H418.354V145.019L420.636 142.852C420.893 142.606 421.066 142.392 421.153 142.212C421.246 142.026 421.293 141.842 421.293 141.662C421.293 141.394 421.202 141.188 421.022 141.046C420.841 140.904 420.576 140.833 420.226 140.833C419.64 140.833 419.192 141.033 418.88 141.432L418.133 140.857C418.357 140.556 418.658 140.324 419.036 140.16C419.419 139.99 419.845 139.905 420.316 139.905C420.94 139.905 421.438 140.053 421.81 140.349C422.182 140.644 422.368 141.046 422.368 141.555C422.368 141.867 422.302 142.16 422.171 142.433C422.04 142.707 421.788 143.019 421.416 143.369L419.881 144.83H422.589ZM425.109 141.219L426.045 141.736L425.725 142.294L424.773 141.736L424.781 142.794H424.157L424.166 141.744L423.222 142.294L422.893 141.736L423.837 141.219L422.893 140.701L423.222 140.135L424.166 140.693L424.157 139.643H424.781L424.773 140.701L425.725 140.135L426.045 140.701L425.109 141.219ZM429.23 139.987C429.728 139.987 430.16 140.07 430.526 140.234C430.898 140.398 431.183 140.633 431.38 140.939C431.577 141.246 431.675 141.61 431.675 142.031C431.675 142.447 431.577 142.811 431.38 143.123C431.183 143.429 430.898 143.664 430.526 143.828C430.16 143.993 429.728 144.075 429.23 144.075H427.933V145.733H426.866V139.987H429.23ZM429.18 143.172C429.645 143.172 429.998 143.073 430.239 142.876C430.48 142.679 430.6 142.398 430.6 142.031C430.6 141.664 430.48 141.383 430.239 141.186C429.998 140.989 429.645 140.89 429.18 140.89H427.933V143.172H429.18ZM434.555 145.79C434.101 145.79 433.693 145.694 433.332 145.503C432.971 145.311 432.689 145.046 432.487 144.707C432.284 144.362 432.183 143.973 432.183 143.541C432.183 143.109 432.284 142.723 432.487 142.384C432.689 142.045 432.968 141.779 433.324 141.588C433.685 141.396 434.095 141.301 434.555 141.301C434.987 141.301 435.365 141.388 435.688 141.563C436.016 141.738 436.262 141.99 436.426 142.318L435.638 142.778C435.513 142.575 435.354 142.425 435.162 142.327C434.976 142.223 434.771 142.171 434.547 142.171C434.164 142.171 433.847 142.296 433.595 142.548C433.343 142.794 433.217 143.125 433.217 143.541C433.217 143.957 433.34 144.291 433.587 144.543C433.838 144.789 434.158 144.912 434.547 144.912C434.771 144.912 434.976 144.863 435.162 144.764C435.354 144.66 435.513 144.507 435.638 144.305L436.426 144.764C436.257 145.092 436.008 145.347 435.68 145.527C435.357 145.703 434.982 145.79 434.555 145.79ZM436.554 147.325C436.888 146.734 437.134 146.124 437.293 145.495C437.452 144.865 437.531 144.195 437.531 143.484C437.531 142.772 437.452 142.102 437.293 141.473C437.134 140.844 436.888 140.234 436.554 139.643H437.531C437.854 140.13 438.1 140.704 438.27 141.366C438.445 142.023 438.532 142.729 438.532 143.484C438.532 144.239 438.445 144.945 438.27 145.601C438.1 146.252 437.854 146.827 437.531 147.325H436.554Z" fill="white"/>
<path d="M113.349 1.85172L113.349 197.196" stroke="#9B8FAE" stroke-width="0.583294"/>
<rect x="293.291" y="161.151" width="120.433" height="29.0692" fill="#0166FF"/>
<path d="M339.658 181.045C339.336 180.547 339.087 179.97 338.912 179.313C338.742 178.657 338.657 177.954 338.657 177.204C338.657 176.454 338.742 175.751 338.912 175.095C339.087 174.433 339.336 173.855 339.658 173.363H340.635C340.301 173.954 340.055 174.564 339.896 175.193C339.743 175.817 339.667 176.487 339.667 177.204C339.667 177.921 339.743 178.594 339.896 179.223C340.055 179.847 340.301 180.454 340.635 181.045H339.658ZM343.489 179.535C343.029 179.535 342.619 179.42 342.258 179.19C341.896 178.955 341.612 178.616 341.404 178.173C341.196 177.724 341.092 177.193 341.092 176.58C341.092 175.967 341.196 175.439 341.404 174.996C341.612 174.548 341.896 174.208 342.258 173.979C342.619 173.743 343.029 173.626 343.489 173.626C343.948 173.626 344.359 173.743 344.72 173.979C345.086 174.208 345.374 174.548 345.581 174.996C345.789 175.439 345.893 175.967 345.893 176.58C345.893 177.193 345.789 177.724 345.581 178.173C345.374 178.616 345.086 178.955 344.72 179.19C344.359 179.42 343.948 179.535 343.489 179.535ZM343.489 178.608C343.899 178.608 344.222 178.438 344.457 178.099C344.698 177.759 344.818 177.253 344.818 176.58C344.818 175.907 344.698 175.401 344.457 175.062C344.222 174.723 343.899 174.553 343.489 174.553C343.084 174.553 342.761 174.723 342.52 175.062C342.285 175.401 342.167 175.907 342.167 176.58C342.167 177.253 342.285 177.759 342.52 178.099C342.761 178.438 343.084 178.608 343.489 178.608ZM347.076 179.51C346.89 179.51 346.732 179.447 346.6 179.322C346.469 179.19 346.403 179.026 346.403 178.829C346.403 178.627 346.466 178.463 346.592 178.337C346.723 178.211 346.885 178.148 347.076 178.148C347.268 178.148 347.427 178.211 347.552 178.337C347.684 178.463 347.749 178.627 347.749 178.829C347.749 179.026 347.684 179.19 347.552 179.322C347.421 179.447 347.262 179.51 347.076 179.51ZM350.295 173.626C351.083 173.626 351.693 173.872 352.125 174.364C352.563 174.857 352.782 175.563 352.782 176.482C352.782 177.127 352.664 177.68 352.429 178.14C352.193 178.594 351.862 178.941 351.436 179.182C351.014 179.417 350.525 179.535 349.966 179.535C349.671 179.535 349.392 179.505 349.129 179.445C348.872 179.379 348.648 179.286 348.456 179.166L348.85 178.361C349.135 178.547 349.499 178.64 349.942 178.64C350.494 178.64 350.927 178.471 351.239 178.131C351.55 177.792 351.706 177.303 351.706 176.662V176.654C351.537 176.851 351.321 177.002 351.058 177.106C350.795 177.204 350.5 177.253 350.172 177.253C349.794 177.253 349.455 177.182 349.154 177.04C348.853 176.892 348.618 176.684 348.448 176.416C348.278 176.148 348.194 175.839 348.194 175.489C348.194 175.117 348.287 174.791 348.473 174.512C348.659 174.228 348.91 174.009 349.228 173.855C349.545 173.702 349.901 173.626 350.295 173.626ZM350.377 176.416C350.722 176.416 351.001 176.323 351.214 176.137C351.433 175.951 351.542 175.716 351.542 175.431C351.542 175.152 351.436 174.922 351.222 174.742C351.014 174.556 350.724 174.463 350.352 174.463C350.018 174.463 349.748 174.553 349.54 174.734C349.332 174.909 349.228 175.144 349.228 175.439C349.228 175.74 349.332 175.978 349.54 176.154C349.748 176.329 350.027 176.416 350.377 176.416ZM355.358 173.626C356.146 173.626 356.756 173.872 357.189 174.364C357.626 174.857 357.845 175.563 357.845 176.482C357.845 177.127 357.728 177.68 357.492 178.14C357.257 178.594 356.926 178.941 356.499 179.182C356.078 179.417 355.588 179.535 355.03 179.535C354.735 179.535 354.456 179.505 354.193 179.445C353.936 179.379 353.711 179.286 353.52 179.166L353.914 178.361C354.198 178.547 354.562 178.64 355.005 178.64C355.558 178.64 355.99 178.471 356.302 178.131C356.614 177.792 356.77 177.303 356.77 176.662V176.654C356.6 176.851 356.384 177.002 356.122 177.106C355.859 177.204 355.564 177.253 355.235 177.253C354.858 177.253 354.518 177.182 354.217 177.04C353.917 176.892 353.681 176.684 353.512 176.416C353.342 176.148 353.257 175.839 353.257 175.489C353.257 175.117 353.35 174.791 353.536 174.512C353.722 174.228 353.974 174.009 354.291 173.855C354.609 173.702 354.964 173.626 355.358 173.626ZM355.44 176.416C355.785 176.416 356.064 176.323 356.278 176.137C356.496 175.951 356.606 175.716 356.606 175.431C356.606 175.152 356.499 174.922 356.286 174.742C356.078 174.556 355.788 174.463 355.416 174.463C355.082 174.463 354.811 174.553 354.603 174.734C354.395 174.909 354.291 175.144 354.291 175.439C354.291 175.74 354.395 175.978 354.603 176.154C354.811 176.329 355.09 176.416 355.44 176.416ZM359.037 178.148C359.229 178.148 359.387 178.211 359.513 178.337C359.639 178.463 359.702 178.627 359.702 178.829C359.702 178.917 359.688 179.01 359.661 179.108C359.639 179.201 359.59 179.343 359.513 179.535L359.095 180.692H358.43L358.758 179.436C358.638 179.387 358.542 179.311 358.471 179.207C358.405 179.097 358.372 178.971 358.372 178.829C358.372 178.627 358.435 178.463 358.561 178.337C358.687 178.211 358.846 178.148 359.037 178.148ZM364.483 173.708V179.453H363.416V174.602H362.201V173.708H364.483ZM366.181 179.51C365.995 179.51 365.836 179.447 365.705 179.322C365.573 179.19 365.508 179.026 365.508 178.829C365.508 178.627 365.57 178.463 365.696 178.337C365.828 178.211 365.989 178.148 366.181 178.148C366.372 178.148 366.531 178.211 366.657 178.337C366.788 178.463 366.854 178.627 366.854 178.829C366.854 179.026 366.788 179.19 366.657 179.322C366.525 179.447 366.367 179.51 366.181 179.51ZM369.762 179.535C369.303 179.535 368.892 179.42 368.531 179.19C368.17 178.955 367.886 178.616 367.678 178.173C367.47 177.724 367.366 177.193 367.366 176.58C367.366 175.967 367.47 175.439 367.678 174.996C367.886 174.548 368.17 174.208 368.531 173.979C368.892 173.743 369.303 173.626 369.762 173.626C370.222 173.626 370.632 173.743 370.994 173.979C371.36 174.208 371.647 174.548 371.855 174.996C372.063 175.439 372.167 175.967 372.167 176.58C372.167 177.193 372.063 177.724 371.855 178.173C371.647 178.616 371.36 178.955 370.994 179.19C370.632 179.42 370.222 179.535 369.762 179.535ZM369.762 178.608C370.173 178.608 370.496 178.438 370.731 178.099C370.972 177.759 371.092 177.253 371.092 176.58C371.092 175.907 370.972 175.401 370.731 175.062C370.496 174.723 370.173 174.553 369.762 174.553C369.358 174.553 369.035 174.723 368.794 175.062C368.559 175.401 368.441 175.907 368.441 176.58C368.441 177.253 368.559 177.759 368.794 178.099C369.035 178.438 369.358 178.608 369.762 178.608ZM374.752 173.708V179.453H373.685V174.602H372.471V173.708H374.752ZM375.629 181.045C375.963 180.454 376.209 179.844 376.368 179.215C376.527 178.586 376.606 177.915 376.606 177.204C376.606 176.493 376.527 175.822 376.368 175.193C376.209 174.564 375.963 173.954 375.629 173.363H376.606C376.929 173.85 377.175 174.425 377.345 175.087C377.52 175.743 377.607 176.449 377.607 177.204C377.607 177.959 377.52 178.665 377.345 179.322C377.175 179.973 376.929 180.547 376.606 181.045H375.629Z" fill="white"/>
<path d="M317.051 78.3674V76.7242H319.603V76.1061H317.051V74.5429H319.916V73.9103H316.324V79H320.017V78.3674L317.051 78.3674ZM322.431 74.1357C322.634 74.1357 322.824 74.2084 322.969 74.3175L323.18 73.7867C322.983 73.634 322.693 73.5613 322.395 73.5613C321.573 73.5613 321.122 74.0557 321.122 74.8046V75.1464H320.468V75.7208H321.122V79H321.82V75.7208H322.925V75.1464H321.806V74.8119C321.806 74.3684 322.016 74.1357 322.431 74.1357ZM327.008 74.4047C327.285 74.4047 327.481 74.2011 327.481 73.9394C327.481 73.6922 327.277 73.4959 327.008 73.4959C326.739 73.4959 326.536 73.6994 326.536 73.9539C326.536 74.2084 326.739 74.4047 327.008 74.4047ZM323.613 74.8046V75.1464H322.958V75.7208H323.613V79H324.311V75.7208H325.416L325.416 75.1464H324.296V74.8119C324.296 74.3684 324.507 74.1357 324.921 74.1357C325.125 74.1357 325.314 74.2084 325.46 74.3175L325.67 73.7867C325.474 73.634 325.183 73.5613 324.885 73.5613C324.063 73.5613 323.613 74.0557 323.613 74.8046ZM326.659 79H327.357V75.1464H326.659V79ZM330.294 79.0436C330.985 79.0436 331.559 78.7528 331.865 78.2147L331.334 77.8803C331.087 78.2583 330.709 78.4328 330.287 78.4328C329.531 78.4328 328.964 77.9093 328.964 77.0732C328.964 76.2516 329.531 75.7208 330.287 75.7208C330.709 75.7208 331.087 75.8953 331.334 76.2734L331.865 75.9316C331.559 75.3936 330.985 75.11 330.294 75.11C329.109 75.11 328.258 75.9244 328.258 77.0732C328.258 78.222 329.109 79.0436 330.294 79.0436ZM333.045 74.4047C333.321 74.4047 333.517 74.2011 333.517 73.9394C333.517 73.6922 333.314 73.4959 333.045 73.4959C332.776 73.4959 332.572 73.6994 332.572 73.9539C332.572 74.2084 332.776 74.4047 333.045 74.4047ZM332.696 79H333.394V75.1464H332.696V79ZM338.136 77.095C338.136 75.9098 337.344 75.11 336.231 75.11C335.119 75.11 334.297 75.9316 334.297 77.0732C334.297 78.222 335.126 79.0436 336.37 79.0436C337.009 79.0436 337.54 78.8255 337.889 78.4183L337.504 77.9675C337.22 78.2802 336.842 78.4328 336.391 78.4328C335.628 78.4328 335.083 77.982 334.995 77.3058H338.122C338.129 77.2404 338.136 77.1532 338.136 77.095ZM336.231 75.699C336.908 75.699 337.395 76.157 337.468 76.8041H334.995C335.068 76.1498 335.563 75.699 336.231 75.699ZM341.091 75.11C340.48 75.11 339.985 75.3354 339.702 75.728V75.1464H339.033V79H339.731V77.015C339.731 76.1788 340.211 75.7353 340.953 75.7353C341.614 75.7353 341.992 76.1061 341.992 76.8623V79H342.69V76.7823C342.69 75.6481 342.029 75.11 341.091 75.11ZM345.858 78.2729C345.713 78.3892 345.516 78.4547 345.313 78.4547C344.927 78.4547 344.709 78.222 344.709 77.8075V75.7208H345.814V75.1464H344.709V74.3029H344.011V75.1464H343.357V75.7208H344.011V77.8366C344.011 78.6146 344.455 79.0436 345.233 79.0436C345.545 79.0436 345.865 78.9564 346.076 78.7746L345.858 78.2729ZM351.105 79.0581C351.897 79.0581 352.581 78.7819 353.046 78.2583L352.574 77.8003C352.181 78.2147 351.701 78.411 351.141 78.411C349.992 78.411 349.142 77.5821 349.142 76.4551C349.142 75.3281 349.992 74.4993 351.141 74.4993C351.701 74.4993 352.181 74.6883 352.574 75.1027L353.046 74.6447C352.581 74.1212 351.897 73.8521 351.112 73.8521C349.563 73.8521 348.415 74.9501 348.415 76.4551C348.415 77.9602 349.563 79.0581 351.105 79.0581ZM355.396 79.0436C356.552 79.0436 357.396 78.222 357.396 77.0732C357.396 75.9244 356.552 75.11 355.396 75.11C354.24 75.11 353.389 75.9244 353.389 77.0732C353.389 78.222 354.24 79.0436 355.396 79.0436ZM355.396 78.4328C354.654 78.4328 354.095 77.8948 354.095 77.0732C354.095 76.2516 354.654 75.7208 355.396 75.7208C356.138 75.7208 356.69 76.2516 356.69 77.0732C356.69 77.8948 356.138 78.4328 355.396 78.4328ZM360.346 75.11C359.735 75.11 359.241 75.3354 358.957 75.728V75.1464H358.288V79H358.986V77.015C358.986 76.1788 359.466 75.7353 360.208 75.7353C360.869 75.7353 361.248 76.1061 361.248 76.8623V79H361.946V76.7823C361.946 75.6481 361.284 75.11 360.346 75.11ZM364.866 79.0436C365.556 79.0436 366.131 78.7528 366.436 78.2147L365.905 77.8803C365.658 78.2583 365.28 78.4328 364.858 78.4328C364.102 78.4328 363.535 77.9093 363.535 77.0732C363.535 76.2516 364.102 75.7208 364.858 75.7208C365.28 75.7208 365.658 75.8953 365.905 76.2734L366.436 75.9316C366.131 75.3936 365.556 75.11 364.866 75.11C363.68 75.11 362.83 75.9244 362.83 77.0732C362.83 78.222 363.68 79.0436 364.866 79.0436ZM370.693 77.095C370.693 75.9098 369.901 75.11 368.788 75.11C367.676 75.11 366.854 75.9316 366.854 77.0732C366.854 78.222 367.683 79.0436 368.926 79.0436C369.566 79.0436 370.097 78.8255 370.446 78.4183L370.06 77.9675C369.777 78.2802 369.399 78.4328 368.948 78.4328C368.185 78.4328 367.639 77.982 367.552 77.3058H370.679C370.686 77.2404 370.693 77.1532 370.693 77.095ZM368.788 75.699C369.464 75.699 369.951 76.157 370.024 76.8041H367.552C367.625 76.1498 368.119 75.699 368.788 75.699ZM373.647 75.11C373.037 75.11 372.542 75.3354 372.259 75.728V75.1464H371.59V79H372.288V77.015C372.288 76.1788 372.767 75.7353 373.509 75.7353C374.171 75.7353 374.549 76.1061 374.549 76.8623V79H375.247V76.7823C375.247 75.6481 374.585 75.11 373.647 75.11ZM378.415 78.2729C378.269 78.3892 378.073 78.4547 377.869 78.4547C377.484 78.4547 377.266 78.222 377.266 77.8075V75.7208H378.371V75.1464H377.266V74.3029H376.568V75.1464H375.913V75.7208H376.568V77.8366C376.568 78.6146 377.011 79.0436 377.789 79.0436C378.102 79.0436 378.422 78.9564 378.633 78.7746L378.415 78.2729ZM380.073 75.7935V75.1464H379.404V79H380.102V77.0804C380.102 76.237 380.567 75.7789 381.316 75.7789C381.367 75.7789 381.418 75.7789 381.476 75.7862V75.11C380.8 75.11 380.32 75.3427 380.073 75.7935ZM383.66 75.11C383.042 75.11 382.467 75.2845 382.068 75.6044L382.358 76.1279C382.657 75.8735 383.122 75.7135 383.58 75.7135C384.271 75.7135 384.612 76.0552 384.612 76.6442V76.7823H383.507C382.358 76.7823 381.959 77.2913 381.959 77.9093C381.959 78.5783 382.511 79.0436 383.384 79.0436C383.987 79.0436 384.416 78.84 384.649 78.491V79H385.31V76.6733C385.31 75.619 384.714 75.11 383.66 75.11ZM383.5 78.5056C382.969 78.5056 382.649 78.2656 382.649 77.8803C382.649 77.5531 382.846 77.284 383.536 77.284H384.612V77.8221C384.438 78.2656 384.023 78.5056 383.5 78.5056ZM388.478 78.2729C388.333 78.3892 388.136 78.4547 387.933 78.4547C387.547 78.4547 387.329 78.222 387.329 77.8075V75.7208H388.434V75.1464H387.329V74.3029H386.631V75.1464H385.977V75.7208H386.631V77.8366C386.631 78.6146 387.075 79.0436 387.853 79.0436C388.165 79.0436 388.485 78.9564 388.696 78.7746L388.478 78.2729ZM392.822 77.095C392.822 75.9098 392.03 75.11 390.917 75.11C389.805 75.11 388.983 75.9316 388.983 77.0732C388.983 78.222 389.812 79.0436 391.056 79.0436C391.695 79.0436 392.226 78.8255 392.575 78.4183L392.19 77.9675C391.906 78.2802 391.528 78.4328 391.077 78.4328C390.314 78.4328 389.769 77.982 389.681 77.3058H392.808C392.815 77.2404 392.822 77.1532 392.822 77.095ZM390.917 75.699C391.594 75.699 392.081 76.157 392.153 76.8041H389.681C389.754 76.1498 390.248 75.699 390.917 75.699ZM396.656 73.6049V75.728C396.336 75.3136 395.857 75.11 395.311 75.11C394.184 75.11 393.363 75.8953 393.363 77.0732C393.363 78.2511 394.184 79.0436 395.311 79.0436C395.878 79.0436 396.373 78.8255 396.685 78.3892V79H397.354V73.6049H396.656ZM395.369 78.4328C394.628 78.4328 394.068 77.8948 394.068 77.0732C394.068 76.2516 394.628 75.7208 395.369 75.7208C396.104 75.7208 396.664 76.2516 396.664 77.0732C396.664 77.8948 396.104 78.4328 395.369 78.4328ZM400.584 79H404.067V78.3674H401.311V73.9103H400.584V79ZM405.076 74.4047C405.352 74.4047 405.548 74.2011 405.548 73.9394C405.548 73.6922 405.345 73.4959 405.076 73.4959C404.807 73.4959 404.603 73.6994 404.603 73.9539C404.603 74.2084 404.807 74.4047 405.076 74.4047ZM404.727 79H405.425V75.1464H404.727V79ZM409.651 75.1464V75.7571C409.339 75.3281 408.844 75.11 408.277 75.11C407.15 75.11 406.329 75.8953 406.329 77.0732C406.329 78.2583 407.15 79.0436 408.277 79.0436C408.822 79.0436 409.302 78.8327 409.622 78.4183V80.4105H410.32V75.1464H409.651ZM408.335 78.4328C407.594 78.4328 407.034 77.8948 407.034 77.0732C407.034 76.2588 407.594 75.7208 408.335 75.7208C409.07 75.7208 409.63 76.2588 409.63 77.0732C409.63 77.8948 409.07 78.4328 408.335 78.4328ZM414.462 75.1464V77.1386C414.462 77.9675 413.997 78.4183 413.27 78.4183C412.608 78.4183 412.23 78.0402 412.23 77.284V75.1464H411.532V77.364C411.532 78.4983 412.194 79.0436 413.19 79.0436C413.735 79.0436 414.215 78.8182 414.498 78.4183V79H415.16V75.1464H414.462ZM416.765 74.4047C417.042 74.4047 417.238 74.2011 417.238 73.9394C417.238 73.6922 417.034 73.4959 416.765 73.4959C416.496 73.4959 416.293 73.6994 416.293 73.9539C416.293 74.2084 416.496 74.4047 416.765 74.4047ZM416.416 79H417.114V75.1464H416.416V79ZM421.312 73.6049V75.728C420.992 75.3136 420.512 75.11 419.967 75.11C418.84 75.11 418.018 75.8953 418.018 77.0732C418.018 78.2511 418.84 79.0436 419.967 79.0436C420.534 79.0436 421.028 78.8255 421.341 78.3892V79H422.01V73.6049H421.312ZM420.025 78.4328C419.283 78.4328 418.723 77.8948 418.723 77.0732C418.723 76.2516 419.283 75.7208 420.025 75.7208C420.759 75.7208 421.319 76.2516 421.319 77.0732C421.319 77.8948 420.759 78.4328 420.025 78.4328ZM423.607 74.4047C423.883 74.4047 424.079 74.2011 424.079 73.9394C424.079 73.6922 423.876 73.4959 423.607 73.4959C423.338 73.4959 423.134 73.6994 423.134 73.9539C423.134 74.2084 423.338 74.4047 423.607 74.4047ZM423.258 79H423.956V75.1464H423.258V79ZM427.164 78.2729C427.019 78.3892 426.823 78.4547 426.619 78.4547C426.234 78.4547 426.016 78.222 426.016 77.8075V75.7208H427.121V75.1464H426.016V74.3029H425.318V75.1464H424.663V75.7208H425.318V77.8366C425.318 78.6146 425.761 79.0436 426.539 79.0436C426.852 79.0436 427.172 78.9564 427.383 78.7746L427.164 78.2729ZM430.809 75.1464L429.479 78.2293L428.134 75.1464H427.407L429.108 78.9927L428.984 79.2617C428.795 79.7053 428.584 79.858 428.25 79.858C427.988 79.858 427.748 79.7562 427.559 79.5744L427.261 80.0979C427.501 80.3306 427.879 80.4542 428.25 80.4542C428.839 80.4542 429.282 80.1997 429.624 79.3853L431.493 75.1464H430.809ZM439.47 79L439.463 73.9103H438.867L436.773 77.4876L434.65 73.9103H434.053V79H434.751V75.3136L436.591 78.3819H436.925L438.765 75.2918L438.772 79H439.47ZM441.172 74.4047C441.448 74.4047 441.645 74.2011 441.645 73.9394C441.645 73.6922 441.441 73.4959 441.172 73.4959C440.903 73.4959 440.7 73.6994 440.7 73.9539C440.7 74.2084 440.903 74.4047 441.172 74.4047ZM440.823 79H441.521V75.1464H440.823V79ZM444.839 75.11C444.228 75.11 443.734 75.3354 443.45 75.728V75.1464H442.781V79H443.479V77.015C443.479 76.1788 443.959 75.7353 444.701 75.7353C445.362 75.7353 445.74 76.1061 445.74 76.8623V79H446.438V76.7823C446.438 75.6481 445.777 75.11 444.839 75.11ZM448.007 74.4047C448.283 74.4047 448.479 74.2011 448.479 73.9394C448.479 73.6922 448.276 73.4959 448.007 73.4959C447.738 73.4959 447.534 73.6994 447.534 73.9539C447.534 74.2084 447.738 74.4047 448.007 74.4047ZM447.658 79H448.356V75.1464H447.658V79ZM451.673 75.11C451.063 75.11 450.568 75.3354 450.285 75.728V75.1464H449.616V79H450.314V77.015C450.314 76.1788 450.794 75.7353 451.535 75.7353C452.197 75.7353 452.575 76.1061 452.575 76.8623V79H453.273V76.7823C453.273 75.6481 452.611 75.11 451.673 75.11ZM457.538 75.1464V75.7426C457.211 75.3209 456.687 75.11 456.113 75.11C455 75.11 454.157 75.8589 454.157 76.9714C454.157 78.0838 455 78.84 456.113 78.84C456.665 78.84 457.167 78.6437 457.502 78.2438V78.5492C457.502 79.4217 457.087 79.8434 456.178 79.8434C455.611 79.8434 455.051 79.6471 454.695 79.3417L454.361 79.8798C454.782 80.2579 455.495 80.4542 456.2 80.4542C457.509 80.4542 458.2 79.8361 458.2 78.4765V75.1464H457.538ZM456.193 78.2293C455.415 78.2293 454.862 77.713 454.862 76.9714C454.862 76.2225 455.415 75.7208 456.193 75.7208C456.964 75.7208 457.516 76.2225 457.516 76.9714C457.516 77.713 456.964 78.2293 456.193 78.2293Z" fill="#0166FF"/>
<path d="M261.524 73.2545H262.853V77.9165H265.734V79H261.524V73.2545ZM266.387 74.5842H267.667V79H266.387V74.5842ZM267.027 73.9686C266.792 73.9686 266.6 73.9002 266.452 73.7634C266.305 73.6266 266.231 73.457 266.231 73.2545C266.231 73.052 266.305 72.8824 266.452 72.7456C266.6 72.6088 266.792 72.5404 267.027 72.5404C267.262 72.5404 267.454 72.6061 267.602 72.7374C267.749 72.8687 267.823 73.0329 267.823 73.2299C267.823 73.4433 267.749 73.6211 267.602 73.7634C267.454 73.9002 267.262 73.9686 267.027 73.9686ZM273.337 74.5842V80.5923H272.057V78.5321C271.739 78.8878 271.299 79.0656 270.735 79.0656C270.319 79.0656 269.942 78.9726 269.602 78.7866C269.269 78.6005 269.006 78.3351 268.815 77.9904C268.623 77.6457 268.527 77.2462 268.527 76.7921C268.527 76.3379 268.623 75.9385 268.815 75.5937C269.006 75.249 269.269 74.9836 269.602 74.7976C269.942 74.6115 270.319 74.5185 270.735 74.5185C271.337 74.5185 271.797 74.71 272.114 75.0931V74.5842H273.337ZM270.957 78.015C271.28 78.015 271.548 77.9056 271.761 77.6867C271.975 77.4624 272.081 77.1642 272.081 76.7921C272.081 76.42 271.975 76.1245 271.761 75.9056C271.548 75.6813 271.28 75.5691 270.957 75.5691C270.628 75.5691 270.358 75.6813 270.144 75.9056C269.931 76.1245 269.824 76.42 269.824 76.7921C269.824 77.1642 269.931 77.4624 270.144 77.6867C270.358 77.9056 270.628 78.015 270.957 78.015ZM278.971 74.5842V79H277.756V78.4747C277.587 78.6662 277.384 78.8139 277.149 78.9179C276.914 79.0164 276.659 79.0656 276.386 79.0656C275.806 79.0656 275.346 78.8987 275.007 78.565C274.667 78.2312 274.498 77.736 274.498 77.0793V74.5842H275.778V76.8906C275.778 77.6019 276.076 77.9576 276.673 77.9576C276.979 77.9576 277.226 77.8591 277.412 77.6621C277.598 77.4596 277.691 77.1614 277.691 76.7675V74.5842H278.971ZM280.157 74.5842H281.438V79H280.157V74.5842ZM280.798 73.9686C280.562 73.9686 280.371 73.9002 280.223 73.7634C280.075 73.6266 280.001 73.457 280.001 73.2545C280.001 73.052 280.075 72.8824 280.223 72.7456C280.371 72.6088 280.562 72.5404 280.798 72.5404C281.033 72.5404 281.224 72.6061 281.372 72.7374C281.52 72.8687 281.594 73.0329 281.594 73.2299C281.594 73.4433 281.52 73.6211 281.372 73.7634C281.224 73.9002 281.033 73.9686 280.798 73.9686ZM287.124 72.9098V79H285.901V78.4911C285.584 78.8741 285.124 79.0656 284.522 79.0656C284.106 79.0656 283.729 78.9726 283.389 78.7866C283.056 78.6005 282.793 78.3351 282.601 77.9904C282.41 77.6457 282.314 77.2462 282.314 76.7921C282.314 76.3379 282.41 75.9385 282.601 75.5937C282.793 75.249 283.056 74.9836 283.389 74.7976C283.729 74.6115 284.106 74.5185 284.522 74.5185C285.086 74.5185 285.526 74.6963 285.844 75.052V72.9098H287.124ZM284.744 78.015C285.067 78.015 285.335 77.9056 285.548 77.6867C285.761 77.4624 285.868 77.1642 285.868 76.7921C285.868 76.42 285.761 76.1245 285.548 75.9056C285.335 75.6813 285.067 75.5691 284.744 75.5691C284.415 75.5691 284.145 75.6813 283.931 75.9056C283.718 76.1245 283.611 76.42 283.611 76.7921C283.611 77.1642 283.718 77.4624 283.931 77.6867C284.145 77.9056 284.415 78.015 284.744 78.015ZM292.618 76.0123C292.946 76.1163 293.204 76.2914 293.39 76.5376C293.576 76.7784 293.669 77.0766 293.669 77.4323C293.669 77.9357 293.472 78.3242 293.078 78.5978C292.689 78.8659 292.12 79 291.371 79H288.399V73.2545H291.206C291.907 73.2545 292.443 73.3886 292.815 73.6567C293.193 73.9248 293.381 74.2887 293.381 74.7483C293.381 75.0274 293.313 75.2764 293.176 75.4952C293.045 75.7141 292.859 75.8865 292.618 76.0123ZM289.721 74.2559V75.6101H291.042C291.371 75.6101 291.62 75.5527 291.789 75.4378C291.959 75.3229 292.044 75.1532 292.044 74.9289C292.044 74.7046 291.959 74.5377 291.789 74.4282C291.62 74.3133 291.371 74.2559 291.042 74.2559H289.721ZM291.272 77.9986C291.622 77.9986 291.885 77.9412 292.06 77.8263C292.241 77.7113 292.331 77.5335 292.331 77.2928C292.331 76.8167 291.978 76.5787 291.272 76.5787H289.721V77.9986H291.272ZM296.686 79.0656C296.221 79.0656 295.803 78.9699 295.431 78.7784C295.064 78.5814 294.777 78.3105 294.569 77.9658C294.361 77.6211 294.257 77.2298 294.257 76.7921C294.257 76.3543 294.361 75.9631 294.569 75.6184C294.777 75.2736 295.064 75.0055 295.431 74.814C295.803 74.617 296.221 74.5185 296.686 74.5185C297.151 74.5185 297.567 74.617 297.934 74.814C298.301 75.0055 298.588 75.2736 298.796 75.6184C299.004 75.9631 299.108 76.3543 299.108 76.7921C299.108 77.2298 299.004 77.6211 298.796 77.9658C298.588 78.3105 298.301 78.5814 297.934 78.7784C297.567 78.9699 297.151 79.0656 296.686 79.0656ZM296.686 78.015C297.015 78.015 297.283 77.9056 297.491 77.6867C297.704 77.4624 297.811 77.1642 297.811 76.7921C297.811 76.42 297.704 76.1245 297.491 75.9056C297.283 75.6813 297.015 75.5691 296.686 75.5691C296.358 75.5691 296.087 75.6813 295.874 75.9056C295.66 76.1245 295.554 76.42 295.554 76.7921C295.554 77.1642 295.66 77.4624 295.874 77.6867C296.087 77.9056 296.358 78.015 296.686 78.015ZM302.634 79L301.666 77.6457L300.664 79H299.269L300.968 76.7757L299.327 74.5842H300.763L301.699 75.8728L302.659 74.5842H304.021L302.38 76.7428L304.087 79H302.634Z" fill="#3A2F53"/>
<path d="M256.506 73.7753L252.212 75.5624V80.3466C252.343 80.3252 252.47 80.2913 252.594 80.2451L255.875 79.0192C256.062 78.9493 256.223 78.8259 256.336 78.6654C256.45 78.505 256.51 78.3148 256.51 78.1202V73.8652C256.511 73.8351 256.509 73.8051 256.506 73.7753H256.506ZM251.551 80.3466V75.5624L247.258 73.7753C247.255 73.8051 247.253 73.8351 247.253 73.8652V78.1202C247.253 78.3149 247.314 78.5051 247.427 78.6656C247.541 78.8261 247.702 78.9494 247.889 79.0192L251.169 80.2451C251.294 80.2914 251.421 80.3254 251.551 80.3466Z" fill="#0166FF"/>
<path d="M251.934 75.1316L247.253 73.3291L250.662 71.8556C251.331 71.5666 252.093 71.5596 252.767 71.8362L256.405 73.3291L251.934 75.1316Z" fill="#7F4AFE"/>
<defs>
<linearGradient id="paint0_linear_5834_19181" x1="353.507" y1="61.1528" x2="353.507" y2="197.196" gradientUnits="userSpaceOnUse">
<stop stop-color="#E2E7FF"/>
<stop offset="1" stop-color="#E5F1FF" stop-opacity="0.61"/>
</linearGradient>
</defs>
</svg>
