<svg width="10" height="10" viewBox="0 0 10 10" fill="none" xmlns="http://www.w3.org/2000/svg">
<path d="M1.86615 7.96611H8.09393L7.41926 8.57039C7.32153 8.6586 7.26663 8.77824 7.26663 8.90298C7.26663 9.02773 7.32153 9.14736 7.41926 9.23557C7.51698 9.32378 7.64953 9.37333 7.78773 9.37333C7.92594 9.37333 8.05848 9.32378 8.15621 9.23557L9.71315 7.83027C9.7618 7.78672 9.80041 7.73491 9.82675 7.67783C9.8531 7.62074 9.86667 7.55952 9.86667 7.49768C9.86667 7.43584 9.8531 7.37461 9.82675 7.31753C9.80041 7.26045 9.7618 7.20864 9.71315 7.16509L8.15621 5.75978C8.10796 5.71588 8.05056 5.68103 7.98732 5.65725C7.92408 5.63347 7.85624 5.62122 7.78773 5.62122C7.71922 5.62122 7.65139 5.63347 7.58814 5.65725C7.5249 5.68103 7.4675 5.71588 7.41926 5.75978C7.37061 5.80333 7.332 5.85514 7.30565 5.91222C7.27931 5.96931 7.26574 6.03053 7.26574 6.09237C7.26574 6.15421 7.27931 6.21544 7.30565 6.27252C7.332 6.32961 7.37061 6.38141 7.41926 6.42496L8.09393 7.02924H1.86615C1.75983 7.03111 1.65414 7.01404 1.55512 6.97903C1.4561 6.94402 1.3657 6.89174 1.28907 6.82519C1.21244 6.75863 1.15109 6.6791 1.10852 6.59114C1.06595 6.50318 1.043 6.40851 1.04097 6.31254V5.1555C1.04097 5.03127 0.986294 4.91212 0.888966 4.82427C0.791638 4.73642 0.659633 4.68707 0.521991 4.68707C0.384348 4.68707 0.252343 4.73642 0.155015 4.82427C0.0576875 4.91212 0.00300923 5.03127 0.00300923 5.1555V6.31254C0.00504525 6.53154 0.0548529 6.74803 0.149588 6.94965C0.244323 7.15127 0.382131 7.33408 0.555141 7.48763C0.728152 7.64118 0.932977 7.76247 1.15792 7.84457C1.38287 7.92666 1.62352 7.96797 1.86615 7.96611ZM1.71046 3.61435C1.80818 3.70256 1.94073 3.75211 2.07894 3.75211C2.21714 3.75211 2.34969 3.70256 2.44741 3.61435C2.54514 3.52614 2.60004 3.40651 2.60004 3.28176C2.60004 3.15702 2.54514 3.03738 2.44741 2.94917L1.77274 2.34489H8.00051C8.10684 2.34303 8.21253 2.36009 8.31155 2.3951C8.41056 2.43012 8.50097 2.48239 8.5776 2.54895C8.65423 2.6155 8.71558 2.69503 8.75815 2.783C8.80072 2.87096 8.82367 2.96563 8.8257 3.0616V4.21863C8.8257 4.34287 8.88037 4.46202 8.9777 4.54987C9.07503 4.63771 9.20703 4.68707 9.34468 4.68707C9.48232 4.68707 9.61432 4.63771 9.71165 4.54987C9.80898 4.46202 9.86366 4.34287 9.86366 4.21863V3.0616C9.86162 2.8426 9.81181 2.62611 9.71708 2.42448C9.62234 2.22286 9.48454 2.04005 9.31153 1.8865C9.13851 1.73295 8.93369 1.61167 8.70875 1.52957C8.4838 1.44747 8.24314 1.40617 8.00051 1.40802H1.77274L2.44741 0.80374C2.49606 0.760193 2.53466 0.708384 2.56101 0.6513C2.58736 0.594217 2.60093 0.53299 2.60093 0.471151C2.60093 0.409312 2.58736 0.348085 2.56101 0.291002C2.53466 0.233919 2.49606 0.182109 2.44741 0.138562C2.39917 0.0946566 2.34177 0.0598077 2.27852 0.0360259C2.21528 0.0122441 2.14745 0 2.07894 0C2.01042 0 1.94259 0.0122441 1.87935 0.0360259C1.8161 0.0598077 1.7587 0.0946566 1.71046 0.138562L0.153514 1.54387C0.104871 1.58741 0.0662613 1.63922 0.0399133 1.69631C0.0135653 1.75339 0 1.81462 0 1.87646C0 1.9383 0.0135653 1.99952 0.0399133 2.05661C0.0662613 2.11369 0.104871 2.1655 0.153514 2.20905L1.71046 3.61435Z" fill="#52466A"/>
</svg>
