<svg width="14" height="11" viewBox="0 0 14 11" fill="none" xmlns="http://www.w3.org/2000/svg">
<path d="M0.913126 6.39258C0.714821 6.39258 0.521904 6.45712 0.363528 6.57646C0.205152 6.6958 0.0899219 6.86345 0.0352525 7.05407C-0.0194168 7.24469 -0.0105553 7.44792 0.0604982 7.63306C0.131552 7.8182 0.260936 7.97518 0.429098 8.08028L2.88303 10.5351C2.96788 10.6199 3.0686 10.6872 3.17944 10.733C3.29028 10.7789 3.40907 10.8025 3.52902 10.8024C3.64898 10.8024 3.76775 10.7787 3.87856 10.7328C3.98937 10.6868 4.09004 10.6195 4.17483 10.5347C4.25962 10.4498 4.32687 10.3491 4.37274 10.2383C4.4186 10.1274 4.44219 10.0086 4.44215 9.88867C4.4421 9.76872 4.41844 9.64994 4.37249 9.53913C4.32655 9.42833 4.25923 9.32765 4.17438 9.24286L3.15153 8.22001L10.0457 8.22001C10.2879 8.22001 10.5202 8.12379 10.6915 7.95252C10.8628 7.78125 10.959 7.54896 10.959 7.30675C10.959 7.06454 10.8628 6.83225 10.6915 6.66098C10.5202 6.48971 10.2879 6.39349 10.0457 6.39349L0.958789 6.39349L0.913126 6.39349L0.913126 6.39258Z" fill="#9388AD"/>
<path d="M13.0203 4.42044C13.2186 4.42044 13.4116 4.3559 13.5699 4.23656C13.7283 4.11722 13.8435 3.94957 13.8982 3.75895C13.9529 3.56833 13.944 3.3651 13.873 3.17996C13.8019 2.99482 13.6725 2.83784 13.5044 2.73274L11.0504 0.278807C10.9662 0.191581 10.8654 0.122007 10.754 0.0741441C10.6426 0.0262811 10.5227 0.00108807 10.4015 3.43276e-05C10.2802 -0.00101941 10.1599 0.0220874 10.0477 0.0680069C9.93547 0.113926 9.83351 0.181739 9.74776 0.267487C9.66201 0.353236 9.5942 0.455203 9.54828 0.567439C9.50236 0.679676 9.47925 0.799933 9.48031 0.921195C9.48136 1.04246 9.50655 1.1623 9.55442 1.27372C9.60228 1.38514 9.67185 1.48591 9.75908 1.57016L10.7819 2.59392L3.88773 2.59392C3.64552 2.59392 3.41323 2.69014 3.24196 2.86141C3.07069 3.03268 2.97447 3.26497 2.97447 3.50718C2.97447 3.74939 3.07069 3.98168 3.24196 4.15295C3.41323 4.32422 3.64552 4.42044 3.88773 4.42044L12.9747 4.42044L13.0203 4.42044Z" fill="#9388AD"/>
</svg>
