<svg width="24" height="19" viewBox="0 0 24 19" fill="none" xmlns="http://www.w3.org/2000/svg">
<path d="M0 4C0 1.79086 1.79086 0 4 0H19.8665C22.0756 0 23.8665 1.79086 23.8665 4V15C23.8665 17.2091 22.0756 19 19.8665 19H4.00001C1.79087 19 0 17.2091 0 15V4Z" fill="#D6E6FF"/>
<path d="M9.26654 12.6526H15.4943L14.8196 13.2569C14.7219 13.3451 14.667 13.4648 14.667 13.5895C14.667 13.7143 14.7219 13.8339 14.8196 13.9221C14.9174 14.0103 15.0499 14.0599 15.1881 14.0599C15.3263 14.0599 15.4589 14.0103 15.5566 13.9221L17.1135 12.5168C17.1622 12.4732 17.2008 12.4214 17.2271 12.3644C17.2535 12.3073 17.2671 12.246 17.2671 12.1842C17.2671 12.1224 17.2535 12.0611 17.2271 12.0041C17.2008 11.947 17.1622 11.8952 17.1135 11.8516L15.5566 10.4463C15.5084 10.4024 15.451 10.3676 15.3877 10.3438C15.3245 10.32 15.2566 10.3077 15.1881 10.3077C15.1196 10.3077 15.0518 10.32 14.9885 10.3438C14.9253 10.3676 14.8679 10.4024 14.8196 10.4463C14.771 10.4899 14.7324 10.5417 14.706 10.5987C14.6797 10.6558 14.6661 10.7171 14.6661 10.7789C14.6661 10.8407 14.6797 10.902 14.706 10.959C14.7324 11.0161 14.771 11.0679 14.8196 11.1115L15.4943 11.7158H9.26654C9.16022 11.7176 9.05453 11.7006 8.95551 11.6656C8.85649 11.6305 8.76609 11.5783 8.68946 11.5117C8.61283 11.4452 8.55148 11.3656 8.50891 11.2777C8.46634 11.1897 8.44339 11.095 8.44136 10.9991V9.84203C8.44136 9.71779 8.38668 9.59864 8.28936 9.51079C8.19203 9.42294 8.06002 9.37359 7.92238 9.37359C7.78474 9.37359 7.65273 9.42294 7.55541 9.51079C7.45808 9.59864 7.4034 9.71779 7.4034 9.84203V10.9991C7.40544 11.2181 7.45524 11.4346 7.54998 11.6362C7.64471 11.8378 7.78252 12.0206 7.95553 12.1742C8.12854 12.3277 8.33337 12.449 8.55831 12.5311C8.78326 12.6132 9.02391 12.6545 9.26654 12.6526ZM9.11085 8.30087C9.20858 8.38908 9.34112 8.43864 9.47933 8.43864C9.61753 8.43864 9.75008 8.38908 9.8478 8.30087C9.94553 8.21267 10.0004 8.09303 10.0004 7.96829C10.0004 7.84354 9.94553 7.7239 9.8478 7.6357L9.17313 7.03142H15.4009C15.5072 7.02955 15.6129 7.04661 15.7119 7.08163C15.811 7.11664 15.9014 7.16892 15.978 7.23547C16.0546 7.30203 16.116 7.38156 16.1585 7.46952C16.2011 7.55748 16.2241 7.65215 16.2261 7.74812V8.90516C16.2261 9.02939 16.2808 9.14854 16.3781 9.23639C16.4754 9.32424 16.6074 9.37359 16.7451 9.37359C16.8827 9.37359 17.0147 9.32424 17.112 9.23639C17.2094 9.14854 17.264 9.02939 17.264 8.90516V7.74812C17.262 7.52912 17.2122 7.31263 17.1175 7.11101C17.0227 6.90938 16.8849 6.72658 16.7119 6.57303C16.5389 6.41948 16.3341 6.29819 16.1091 6.21609C15.8842 6.13399 15.6435 6.09269 15.4009 6.09454H9.17313L9.8478 5.49026C9.89645 5.44672 9.93506 5.39491 9.9614 5.33782C9.98775 5.28074 10.0013 5.21951 10.0013 5.15767C10.0013 5.09584 9.98775 5.03461 9.9614 4.97753C9.93506 4.92044 9.89645 4.86863 9.8478 4.82509C9.79956 4.78118 9.74216 4.74633 9.67891 4.72255C9.61567 4.69877 9.54784 4.68652 9.47933 4.68652C9.41081 4.68652 9.34298 4.69877 9.27974 4.72255C9.21649 4.74633 9.1591 4.78118 9.11085 4.82509L7.5539 6.23039C7.50526 6.27394 7.46665 6.32575 7.4403 6.38283C7.41396 6.43991 7.40039 6.50114 7.40039 6.56298C7.40039 6.62482 7.41396 6.68605 7.4403 6.74313C7.46665 6.80021 7.50526 6.85202 7.5539 6.89557L9.11085 8.30087Z" fill="#0166FF"/>
</svg>
