<svg width="24" height="24" viewBox="0 0 24 24" fill="none" xmlns="http://www.w3.org/2000/svg">
<g opacity="0.5">
<path d="M10.3839 5.93354C10.149 5.89998 10.1378 5.88879 10.2497 5.87761C10.4622 5.84405 10.9545 5.88879 11.3013 5.9671C12.1067 6.15728 12.8339 6.64952 13.6058 7.51092L13.8072 7.74585L14.098 7.7011C15.3398 7.49973 16.6151 7.65635 17.6779 8.14858C17.9688 8.28283 18.4274 8.55132 18.4834 8.61844C18.5057 8.64081 18.5393 8.78625 18.5617 8.93168C18.64 9.45747 18.6064 9.84902 18.4386 10.1511C18.3491 10.3189 18.3491 10.3636 18.4051 10.5091C18.4498 10.6209 18.584 10.6992 18.7071 10.6992C18.9756 10.6992 19.2553 10.2741 19.3895 9.68121L19.4454 9.44628L19.5461 9.55815C20.1167 10.1958 20.5642 11.0796 20.6313 11.7061L20.6537 11.8739L20.553 11.7284C20.3852 11.4711 20.2285 11.3033 20.016 11.1579C19.6356 10.9006 19.2329 10.8223 18.1701 10.7664C17.208 10.7104 16.6599 10.6321 16.1229 10.4531C15.2055 10.1511 14.7357 9.75952 13.6505 8.31639C13.1695 7.67873 12.8674 7.33193 12.5654 7.04106C11.9054 6.4034 11.2453 6.06779 10.3839 5.93354Z" fill="#FF007A"/>
<path d="M18.7183 7.35436C18.7407 6.92925 18.7966 6.64957 18.9197 6.39227C18.9644 6.29158 19.0092 6.20209 19.0204 6.20209C19.0315 6.20209 19.0092 6.2804 18.9756 6.36989C18.8861 6.61601 18.8749 6.96281 18.9309 7.35436C19.0092 7.85777 19.0427 7.9249 19.5797 8.47306C19.8258 8.73037 20.1167 9.05479 20.2286 9.18904L20.4187 9.43515L20.2286 9.25616C19.9936 9.03242 19.4567 8.60731 19.3336 8.55137C19.2553 8.50662 19.2441 8.50662 19.1882 8.56256C19.1434 8.60731 19.1322 8.67443 19.1322 8.99886C19.121 9.50227 19.0539 9.81551 18.8861 10.1399C18.7966 10.3077 18.7854 10.2742 18.8637 10.084C18.9197 9.93857 18.9309 9.87145 18.9309 9.3904C18.9309 8.41713 18.819 8.1822 18.1366 7.79065C17.9688 7.68997 17.6779 7.54454 17.5101 7.46623C17.3311 7.38792 17.1969 7.32079 17.208 7.32079C17.2304 7.29842 17.8905 7.4886 18.1478 7.60047C18.5393 7.75709 18.6064 7.76828 18.6512 7.75709C18.6847 7.72353 18.7071 7.63403 18.7183 7.35436Z" fill="#FF007A"/>
<path d="M10.8426 9.02113C10.3728 8.37228 10.0707 7.36544 10.1379 6.61591L10.1602 6.38098L10.2721 6.40336C10.4735 6.43692 10.8203 6.57116 10.9881 6.67185C11.4356 6.94034 11.6369 7.30951 11.8271 8.22685C11.883 8.49534 11.9613 8.80858 11.9949 8.90926C12.0508 9.07707 12.2634 9.46861 12.4424 9.71473C12.5654 9.89372 12.4871 9.98322 12.2075 9.96084C11.7824 9.9161 11.2118 9.52455 10.8426 9.02113Z" fill="#FF007A"/>
<path d="M18.1478 13.8876C15.9328 12.9926 15.1497 12.2207 15.1497 10.9118C15.1497 10.7216 15.1608 10.565 15.1608 10.565C15.172 10.565 15.2503 10.6321 15.351 10.7104C15.7985 11.0684 16.3019 11.225 17.7003 11.4264C18.517 11.5495 18.9868 11.639 19.4119 11.7844C20.7656 12.2319 21.6046 13.1492 21.806 14.391C21.8619 14.749 21.8283 15.4314 21.7388 15.7894C21.6605 16.069 21.4368 16.5836 21.3809 16.5948C21.3697 16.5948 21.3473 16.5389 21.3473 16.4494C21.3249 15.9795 21.09 15.5321 20.6984 15.1853C20.2286 14.7825 19.6245 14.4805 18.1478 13.8876Z" fill="#FF007A"/>
<path d="M16.5816 14.2567C16.5592 14.0889 16.5033 13.8764 16.4697 13.7869L16.4138 13.6191L16.5145 13.7421C16.6599 13.9099 16.7718 14.1113 16.8724 14.391C16.9508 14.6035 16.9508 14.6707 16.9508 15.0175C16.9508 15.3531 16.9396 15.4314 16.8724 15.6216C16.7606 15.9236 16.6263 16.1362 16.4026 16.3711C15.9999 16.785 15.4741 17.0088 14.7245 17.1094C14.5903 17.1206 14.2099 17.1542 13.8743 17.1766C13.0353 17.2213 12.4759 17.3108 11.9725 17.4898C11.9054 17.5122 11.8383 17.5346 11.8271 17.5234C11.8047 17.501 12.1515 17.2996 12.4312 17.1654C12.8227 16.9752 13.2255 16.8745 14.1092 16.7179C14.5455 16.6508 14.993 16.5613 15.1049 16.5165C16.2124 16.1697 16.7606 15.3083 16.5816 14.2567Z" fill="#FF007A"/>
<path d="M17.5996 16.0578C17.3088 15.4202 17.2416 14.8161 17.3983 14.2455C17.4206 14.1896 17.443 14.1337 17.4654 14.1337C17.4878 14.1337 17.5549 14.1672 17.622 14.212C17.7563 14.3015 18.0359 14.4581 18.7519 14.8496C19.6581 15.3419 20.1727 15.7222 20.5306 16.1585C20.8439 16.5389 21.0341 16.9752 21.1236 17.5122C21.1795 17.8142 21.1459 18.5414 21.0676 18.8434C20.8215 19.7943 20.2622 20.555 19.4455 20.9913C19.3224 21.0585 19.2218 21.1032 19.2106 21.1032C19.1994 21.1032 19.2441 20.9913 19.3113 20.8571C19.5797 20.2866 19.6133 19.7384 19.4119 19.1231C19.2889 18.7427 19.0316 18.2841 18.517 17.5122C17.9017 16.6172 17.7563 16.3823 17.5996 16.0578Z" fill="#FF007A"/>
<path d="M9.26532 19.4812C10.0932 18.7876 11.1112 18.2953 12.0509 18.1387C12.4536 18.0716 13.1249 18.094 13.494 18.1946C14.087 18.3513 14.6239 18.6869 14.9036 19.1008C15.1721 19.5035 15.2952 19.8503 15.4182 20.6222C15.463 20.9243 15.5189 21.2375 15.5301 21.3047C15.6196 21.7074 15.7986 22.0206 16.0223 22.1884C16.3691 22.4457 16.9732 22.4569 17.5661 22.2332C17.6668 22.1996 17.7563 22.1661 17.7563 22.1772C17.7787 22.1996 17.4766 22.401 17.2753 22.5017C16.9956 22.6471 16.7718 22.6918 16.4698 22.6918C15.9328 22.6918 15.4741 22.4122 15.105 21.8528C15.0267 21.7409 14.87 21.4165 14.7358 21.1145C14.3443 20.2083 14.1429 19.9398 13.6842 19.6378C13.2815 19.3805 12.7669 19.3245 12.3753 19.5147C11.8607 19.7608 11.7265 20.4209 12.0845 20.8236C12.2299 20.9914 12.4984 21.1257 12.7221 21.1592C13.1361 21.2152 13.494 20.8907 13.494 20.4768C13.494 20.2083 13.3934 20.0517 13.1249 19.9286C12.7669 19.772 12.3753 19.951 12.3865 20.2978C12.3865 20.4432 12.4536 20.5327 12.5991 20.5999C12.6886 20.6446 12.6886 20.6446 12.6214 20.6334C12.297 20.5663 12.2187 20.1636 12.476 19.9063C12.7893 19.593 13.4493 19.7273 13.673 20.1636C13.7625 20.3426 13.7737 20.7006 13.6954 20.9243C13.5052 21.4165 12.9682 21.6738 12.4201 21.5284C12.0509 21.4277 11.8943 21.327 11.4468 20.8684C10.6637 20.0629 10.3617 19.9063 9.24295 19.7385L9.0304 19.7049L9.26532 19.4812Z" fill="#FF007A"/>
<path fill-rule="evenodd" clip-rule="evenodd" d="M3.38086 1.48104C5.98745 4.64699 10.0036 9.5693 10.205 9.83779C10.3728 10.0615 10.3057 10.2741 10.026 10.4307C9.86936 10.5202 9.54494 10.6097 9.38832 10.6097C9.20932 10.6097 8.99677 10.5202 8.85134 10.3748C8.75065 10.2741 8.31436 9.63642 7.3299 8.10379C6.58036 6.92915 5.9427 5.95587 5.93151 5.94469C5.88676 5.92231 5.88676 5.92231 7.25159 8.36109C8.11299 9.89372 8.39267 10.4419 8.39267 10.509C8.39267 10.6544 8.34792 10.7328 8.16893 10.9341C7.86687 11.2697 7.73263 11.6501 7.63195 12.4444C7.52008 13.3282 7.21802 13.9546 6.35662 15.0174C5.8532 15.6439 5.77489 15.7557 5.65183 16.0131C5.49521 16.3263 5.45047 16.5053 5.42809 16.908C5.40572 17.3331 5.45047 17.6016 5.57352 18.0044C5.6854 18.3623 5.80845 18.5973 6.1105 19.0559C6.36781 19.4587 6.52443 19.7607 6.52443 19.8726C6.52443 19.9621 6.5468 19.9621 6.94953 19.8726C7.91162 19.6488 8.7059 19.2685 9.1422 18.7986C9.41069 18.5078 9.47781 18.3512 9.47781 17.9484C9.47781 17.6911 9.46663 17.6352 9.3995 17.4786C9.28763 17.2324 9.07508 17.0311 8.61641 16.7178C8.01231 16.3039 7.755 15.9683 7.68788 15.5208C7.63195 15.1405 7.69907 14.8832 8.03468 14.1784C8.38148 13.4512 8.47098 13.1492 8.52691 12.4108C8.56047 11.941 8.61641 11.7508 8.75065 11.6053C8.89609 11.4487 9.01914 11.3928 9.36594 11.348C9.93648 11.2697 10.3057 11.1243 10.5965 10.8446C10.8538 10.6097 10.9657 10.3748 10.9769 10.028L10.9881 9.77067L10.8426 9.61405C10.3168 9.00994 3.03406 1 3.0005 1C2.98931 1 3.1683 1.21255 3.38086 1.48104ZM6.81529 17.3891C6.93835 17.1765 6.87122 16.908 6.66986 16.7738C6.47968 16.6507 6.18881 16.7066 6.18881 16.8745C6.18881 16.9192 6.21119 16.964 6.27831 16.9863C6.37899 17.0423 6.39018 17.0982 6.31187 17.2213C6.23356 17.3443 6.23356 17.4562 6.33425 17.5345C6.49086 17.6576 6.70342 17.5904 6.81529 17.3891Z" fill="#FF007A"/>
<path fill-rule="evenodd" clip-rule="evenodd" d="M11.346 11.5047C11.0775 11.583 10.8202 11.8739 10.7419 12.1647C10.6972 12.3437 10.7195 12.6682 10.7979 12.7688C10.9209 12.9255 11.0328 12.9702 11.346 12.9702C11.9613 12.9702 12.4871 12.7017 12.543 12.3773C12.599 12.1088 12.364 11.7396 12.0396 11.5718C11.8718 11.4823 11.525 11.4488 11.346 11.5047ZM12.062 12.0641C12.1515 11.9298 12.1179 11.7844 11.9501 11.6837C11.6481 11.4935 11.1894 11.6501 11.1894 11.941C11.1894 12.0864 11.4243 12.243 11.6481 12.243C11.7935 12.243 11.9949 12.1536 12.062 12.0641Z" fill="#FF007A"/>
</g>
</svg>
